<?xml version="1.0" encoding="UTF-8" standalone="no"?>
<!-- Created with Inkscape (http://www.inkscape.org/) -->

<svg
   xmlns:dc="http://purl.org/dc/elements/1.1/"
   xmlns:cc="http://creativecommons.org/ns#"
   xmlns:rdf="http://www.w3.org/1999/02/22-rdf-syntax-ns#"
   xmlns:svg="http://www.w3.org/2000/svg"
   xmlns="http://www.w3.org/2000/svg"
   xmlns:sodipodi="http://sodipodi.sourceforge.net/DTD/sodipodi-0.dtd"
   xmlns:inkscape="http://www.inkscape.org/namespaces/inkscape"
   width="600mm"
   height="600mm"
   viewBox="0 0 600 600"
   id="svg2"
   version="1.1"
   inkscape:version="0.48.4 r9939"
   sodipodi:docname="template.svg">
  <defs
     id="defs4" />
  <sodipodi:namedview
     id="base"
     pagecolor="#ffffff"
     bordercolor="#666666"
     borderopacity="1.0"
     inkscape:pageopacity="0.0"
     inkscape:pageshadow="2"
     inkscape:zoom="0.35"
     inkscape:cx="45"
     inkscape:cy="520"
     inkscape:document-units="mm"
     inkscape:current-layer="layer1"
     showgrid="false"
     units="mm"
     inkscape:window-width="1366"
     inkscape:window-height="718"
     inkscape:window-x="0"
     inkscape:window-y="0"
     inkscape:window-maximized="1" />
  <metadata
     id="metadata7">
    <rdf:RDF>
      <cc:Work
         rdf:about="">
        <dc:format>image/svg+xml</dc:format>
        <dc:type
           rdf:resource="http://purl.org/dc/dcmitype/StillImage" />
        <dc:title />
      </cc:Work>
    </rdf:RDF>
  </metadata>
  <g
     inkscape:label="Layer 1"
     inkscape:groupmode="layer"
     id="layer1"
     transform="translate(0,1073.622)" />
<g id="View001"
   transform="rotate(180,300,300) translate(300,300) scale(1,1)"
  >
<g   stroke="rgb(0, 0, 0)"
   stroke-width="0.35"
   stroke-linecap="butt"
   stroke-linejoin="miter"
   fill="none"
   transform="scale(1,-1)"
  >
<path id= "1" d=" M 250 250 L -250 250 " />
<path id= "2" d=" M 250 -250 L 250 250 " />
<path id= "3" d=" M -250 250 L -250 -250 " />
<path id= "4" d=" M -250 -250 L 250 -250 " />
<path id= "5" d=" M 141 163.499 L 152 163.499 " />
<path id= "6" d=" M 141 161.999 L 141 163.499 " />
<path id= "7" d=" M 152 163.499 L 152 161.999 " />
<path id= "8" d=" M 152 161.999 L 141 161.999 " />
<path id= "9" d=" M 152 -161.999 L 141 -161.999 " />
<path id= "10" d=" M 152 -163.498 L 152 -161.998 " />
<path id= "11" d=" M 141 -161.998 L 141 -163.498 " />
<path id= "12" d=" M 141 -163.499 L 152 -163.499 " />
<path id= "13" d=" M 111.7 163.499 L 122.7 163.499 " />
<path id= "14" d=" M 111.7 161.999 L 111.7 163.499 " />
<path id= "15" d=" M 122.7 163.499 L 122.7 161.999 " />
<path id= "16" d=" M 122.7 161.999 L 111.7 161.999 " />
<path id= "17" d=" M 122.7 -163.498 L 122.7 -161.998 " />
<path id= "18" d=" M 111.7 -163.499 L 122.7 -163.499 " />
<path id= "19" d=" M 122.7 -161.999 L 111.7 -161.999 " />
<path id= "20" d=" M 111.7 -161.998 L 111.7 -163.498 " />
<path id= "21" d=" M -82.4 -163.498 L -82.4 -161.998 " />
<path id= "22" d=" M -93.4 -163.499 L -82.4 -163.499 " />
<path id= "23" d=" M -82.4 -161.999 L -93.4 -161.999 " />
<path id= "24" d=" M -93.4 -161.998 L -93.4 -163.498 " />
<path id= "25" d=" M -53.1 -163.498 L -53.1 -161.998 " />
<path id= "26" d=" M -64.1 -163.499 L -53.1 -163.499 " />
<path id= "27" d=" M -53.1 -161.999 L -64.1 -161.999 " />
<path id= "28" d=" M -64.1 -161.998 L -64.1 -163.498 " />
<path id= "29" d=" M 53.1 -161.998 L 53.1 -163.498 " />
<path id= "30" d=" M 64.1 -161.999 L 53.1 -161.999 " />
<path id= "31" d=" M 53.1 -163.499 L 64.1 -163.499 " />
<path id= "32" d=" M 64.1 -163.498 L 64.1 -161.998 " />
<path id= "33" d=" M 82.4 -163.499 L 93.4 -163.499 " />
<path id= "34" d=" M 82.4 -161.998 L 82.4 -163.498 " />
<path id= "35" d=" M 93.4 -163.498 L 93.4 -161.998 " />
<path id= "36" d=" M 93.4 -161.999 L 82.4 -161.999 " />
<path id= "37" d=" M -23.8 -163.498 L -23.8 -161.998 " />
<path id= "38" d=" M -34.8 -163.499 L -23.8 -163.499 " />
<path id= "39" d=" M -23.8 -161.999 L -34.8 -161.999 " />
<path id= "40" d=" M -34.8 -161.998 L -34.8 -163.498 " />
<path id= "41" d=" M 5.5 -163.498 L 5.5 -161.998 " />
<path id= "42" d=" M -5.5 -163.499 L 5.5 -163.499 " />
<path id= "43" d=" M 5.5 -161.999 L -5.5 -161.999 " />
<path id= "44" d=" M -5.5 -161.998 L -5.5 -163.498 " />
<path id= "45" d=" M 34.8 -163.498 L 34.8 -161.998 " />
<path id= "46" d=" M 23.8 -163.499 L 34.8 -163.499 " />
<path id= "47" d=" M 34.8 -161.999 L 23.8 -161.999 " />
<path id= "48" d=" M 23.8 -161.998 L 23.8 -163.498 " />
<path id= "49" d=" M 64.1 163.499 L 64.1 161.999 " />
<path id= "50" d=" M 53.1 163.499 L 64.1 163.499 " />
<path id= "51" d=" M 64.1 161.999 L 53.1 161.999 " />
<path id= "52" d=" M 53.1 161.999 L 53.1 163.499 " />
<path id= "53" d=" M 34.8 163.499 L 34.8 161.999 " />
<path id= "54" d=" M 23.8 163.499 L 34.8 163.499 " />
<path id= "55" d=" M 34.8 161.999 L 23.8 161.999 " />
<path id= "56" d=" M 23.8 161.999 L 23.8 163.499 " />
<path id= "57" d=" M -23.8 161.999 L -34.8 161.999 " />
<path id= "58" d=" M -23.8 163.499 L -23.8 161.999 " />
<path id= "59" d=" M -34.8 161.999 L -34.8 163.499 " />
<path id= "60" d=" M -34.8 163.499 L -23.8 163.499 " />
<path id= "61" d=" M -5.5 161.999 L -5.5 163.499 " />
<path id= "62" d=" M 5.5 161.999 L -5.5 161.999 " />
<path id= "63" d=" M -5.5 163.499 L 5.5 163.499 " />
<path id= "64" d=" M 5.5 163.499 L 5.5 161.999 " />
<path id= "65" d=" M -53.1 161.999 L -64.1 161.999 " />
<path id= "66" d=" M -53.1 163.499 L -53.1 161.999 " />
<path id= "67" d=" M -64.1 161.999 L -64.1 163.499 " />
<path id= "68" d=" M -64.1 163.499 L -53.1 163.499 " />
<path id= "69" d=" M 93.4 161.999 L 82.4 161.999 " />
<path id= "70" d=" M 93.4 163.499 L 93.4 161.999 " />
<path id= "71" d=" M 82.4 161.999 L 82.4 163.499 " />
<path id= "72" d=" M 82.4 163.499 L 93.4 163.499 " />
<path id= "73" d=" M -93.4 163.499 L -82.4 163.499 " />
<path id= "74" d=" M -93.4 161.999 L -93.4 163.499 " />
<path id= "75" d=" M -82.4 163.499 L -82.4 161.999 " />
<path id= "76" d=" M -82.4 161.999 L -93.4 161.999 " />
<path id= "77" d=" M -122.7 163.499 L -111.7 163.499 " />
<path id= "78" d=" M -122.7 161.999 L -122.7 163.499 " />
<path id= "79" d=" M -111.7 163.499 L -111.7 161.999 " />
<path id= "80" d=" M -111.7 161.999 L -122.7 161.999 " />
<path id= "81" d=" M -111.7 -163.498 L -111.7 -161.998 " />
<path id= "82" d=" M -122.7 -163.499 L -111.7 -163.499 " />
<path id= "83" d=" M -111.7 -161.999 L -122.7 -161.999 " />
<path id= "84" d=" M -122.7 -161.998 L -122.7 -163.498 " />
<path id= "85" d=" M -141 163.499 L -141 161.999 " />
<path id= "86" d=" M -152 163.499 L -141 163.499 " />
<path id= "87" d=" M -141 161.999 L -152 161.999 " />
<path id= "88" d=" M -152 161.999 L -152 163.499 " />
<path id= "89" d=" M -152 -163.499 L -141 -163.499 " />
<path id= "90" d=" M -152 -161.998 L -152 -163.498 " />
<path id= "91" d=" M -141 -163.498 L -141 -161.998 " />
<path id= "92" d=" M -141 -161.999 L -152 -161.999 " />
<path id= "93" d=" M 0 -145.5 L -148 -145.5 " />
<path id= "94" d=" M 0 -145.5 L 148 -145.5 " />
<path d="M-150 -143.5 A2 2 0 0 1 -148 -145.5" /><path d="M150 -143.5 A2 2 0 0 0 148 -145.5" /><path id= "97" d=" M -150 -143.5 L -150 -136.5 " />
<path id= "98" d=" M 150 -143.5 L 150 -136.5 " />
<path d="M-148 -134.5 A2 2 0 0 1 -150 -136.5" /><path d="M148 -134.5 A2 2 0 0 0 150 -136.5" /><path id= "101" d=" M -148 -134.5 L 3.97904e-13 -134.5 " />
<path id= "102" d=" M 148 -134.5 L -3.97904e-13 -134.5 " />
<path id= "103" d=" M 150 143.5 L 150 136.5 " />
<path d="M150 143.5 A2 2 0 0 1 148 145.5" /><path d="M148 134.5 A2 2 0 0 1 150 136.5" /><path id= "106" d=" M 0 145.5 L 148 145.5 " />
<path id= "107" d=" M 148 134.5 L -3.97904e-13 134.5 " />
<path id= "108" d=" M 0 134.5 L 0 145.5 " />
<path d="M-148 134.5 A2 2 0 0 0 -150 136.5" /><path id= "110" d=" M -148 134.5 L 3.97904e-13 134.5 " />
<path id= "111" d=" M -150 143.5 L -150 136.5 " />
<path id= "112" d=" M 0 134.5 L 0 145.5 " />
<path d="M-150 143.5 A2 2 0 0 0 -148 145.5" /><path id= "114" d=" M 0 145.5 L -148 145.5 " />
<path id= "115" d=" M 55 185 L 55 196 " />
<path id= "116" d=" M 56.5 185 L 55 185 " />
<path id= "117" d=" M 55 196 L 56.5 196 " />
<path id= "118" d=" M 56.5 196 L 56.5 185 " />
<path d="M47.5 180 A2.5 2.5 0 0 1 50 182.5" /><path id= "120" d=" M 0 180 L 47.5 180 " />
<path id= "121" d=" M 0 180 L -47.5 180 " />
<path d="M-47.5 180 A2.5 2.5 0 0 0 -50 182.5" /><path id= "123" d=" M -50 182.5 L -50 202.5 " />
<path id= "124" d=" M -51.5 202.5 L -50 202.5 " />
<path id= "125" d=" M -51.5 203 L -51.5 202.5 " />
<path id= "126" d=" M -51.5 203 L -50 203 " />
<path id= "127" d=" M -50 203 L -50 227.5 " />
<path d="M-50 227.5 A2.5 2.5 0 0 0 -47.5 230" /><path id= "129" d=" M -47.5 230 L -2.84217e-14 230 " />
<path id= "130" d=" M 47.5 230 L 2.84217e-14 230 " />
<path d="M50 227.5 A2.5 2.5 0 0 1 47.5 230" /><path id= "132" d=" M 50 203 L 50 227.5 " />
<path id= "133" d=" M 51.5 203 L 50 203 " />
<path id= "134" d=" M 51.5 203 L 51.5 202.5 " />
<path id= "135" d=" M 51.5 202.5 L 50 202.5 " />
<path id= "136" d=" M 50 182.5 L 50 202.5 " />
<path id= "137" d=" M -56.5 196 L -56.5 185 " />
<path id= "138" d=" M -55 196 L -56.5 196 " />
<path id= "139" d=" M -56.5 185 L -55 185 " />
<path id= "140" d=" M -55 185 L -55 196 " />
<path d="M15.0667 121.998 A60.4166 60.4166 0 0 0 15.9 111.999" /><path d="M15.0667 121.999 A12.0834 12.0834 0 0 0 14.9 123.998" /><path d="M15.9 111.998 A60.4166 60.4166 0 0 0 15.0667 101.999" /><path id= "144" d=" M 14.9 131.999 L 14.9 123.998 " />
<path d="M14.9 99.9985 A12.0834 12.0834 0 0 0 15.0667 101.998" /><path id= "146" d=" M 14.9 131.999 L 14.4 131.999 " />
<path id= "147" d=" M 14.9 91.9985 L 14.9 99.9985 " />
<path id= "148" d=" M 14.4 131.999 L 14.4 116.999 " />
<path id= "149" d=" M 14.9 91.9985 L 14.4 91.9985 " />
<path id= "150" d=" M 14.4 116.999 L 14.9 116.999 " />
<path id= "151" d=" M 14.4 91.9985 L 14.4 106.999 " />
<path d="M14.9 116.999 A25.25 25.25 0 0 0 15.4 111.999" /><path id= "153" d=" M 14.4 106.999 L 14.9 106.999 " />
<path d="M15.4 111.999 A25.25 25.25 0 0 0 14.9 106.999" /><path id= "155" d=" M 102.8 91.9985 L 102.3 91.9985 " />
<path id= "156" d=" M 102.8 91.9985 L 102.8 99.9985 " />
<path id= "157" d=" M 102.3 91.9985 L 102.3 106.999 " />
<path d="M102.8 99.9985 A12.0834 12.0834 0 0 0 102.967 101.998" /><path id= "159" d=" M 102.3 106.999 L 102.8 106.999 " />
<path d="M103.8 111.998 A60.4166 60.4166 0 0 0 102.967 101.999" /><path d="M103.3 111.999 A25.25 25.25 0 0 0 102.8 106.999" /><path d="M102.967 121.998 A60.4166 60.4166 0 0 0 103.8 111.999" /><path d="M102.8 116.999 A25.25 25.25 0 0 0 103.3 111.999" /><path d="M102.967 121.999 A12.0834 12.0834 0 0 0 102.8 123.998" /><path id= "165" d=" M 102.3 116.999 L 102.8 116.999 " />
<path id= "166" d=" M 102.8 131.999 L 102.8 123.998 " />
<path id= "167" d=" M 102.3 131.999 L 102.3 116.999 " />
<path id= "168" d=" M 102.8 131.999 L 102.3 131.999 " />
<path id= "169" d=" M 161.4 91.9985 L 160.9 91.9985 " />
<path id= "170" d=" M 161.4 91.9985 L 161.4 99.9985 " />
<path id= "171" d=" M 160.9 91.9985 L 160.9 106.999 " />
<path d="M161.4 99.9985 A12.0834 12.0834 0 0 0 161.567 101.998" /><path id= "173" d=" M 160.9 106.999 L 161.4 106.999 " />
<path d="M162.4 111.998 A60.4166 60.4166 0 0 0 161.567 101.999" /><path d="M161.9 111.999 A25.25 25.25 0 0 0 161.4 106.999" /><path d="M161.567 121.998 A60.4166 60.4166 0 0 0 162.4 111.999" /><path d="M161.4 116.999 A25.25 25.25 0 0 0 161.9 111.999" /><path d="M161.567 121.999 A12.0834 12.0834 0 0 0 161.4 123.998" /><path id= "179" d=" M 160.9 116.999 L 161.4 116.999 " />
<path id= "180" d=" M 161.4 131.999 L 161.4 123.998 " />
<path id= "181" d=" M 160.9 131.999 L 160.9 116.999 " />
<path id= "182" d=" M 161.4 131.999 L 160.9 131.999 " />
<path id= "183" d=" M 161.4 -91.9985 L 161.4 -99.9985 " />
<path id= "184" d=" M 161.4 -91.9985 L 160.9 -91.9985 " />
<path d="M161.567 -101.998 A12.0834 12.0834 0 0 0 161.4 -99.9985" /><path id= "186" d=" M 160.9 -91.9985 L 160.9 -106.999 " />
<path d="M161.567 -101.999 A60.4166 60.4166 0 0 0 162.4 -111.999" /><path id= "188" d=" M 160.9 -106.999 L 161.4 -106.999 " />
<path d="M162.4 -111.999 A60.4166 60.4166 0 0 0 161.567 -121.998" /><path d="M161.4 -106.999 A25.25 25.25 0 0 0 161.9 -111.999" /><path d="M161.4 -123.998 A12.0834 12.0834 0 0 0 161.567 -121.999" /><path d="M161.9 -111.999 A25.25 25.25 0 0 0 161.4 -116.999" /><path id= "193" d=" M 161.4 -131.999 L 161.4 -123.999 " />
<path id= "194" d=" M 160.9 -116.999 L 161.4 -116.999 " />
<path id= "195" d=" M 161.4 -131.999 L 160.9 -131.999 " />
<path id= "196" d=" M 160.9 -131.999 L 160.9 -116.999 " />
<path id= "197" d=" M -14.4 -106.999 L -14.9 -106.999 " />
<path id= "198" d=" M -14.4 -91.9985 L -14.4 -106.999 " />
<path d="M-15.4 -111.999 A25.25 25.25 0 0 0 -14.9 -106.999" /><path id= "200" d=" M -14.9 -91.9985 L -14.4 -91.9985 " />
<path d="M-14.9 -116.999 A25.25 25.25 0 0 0 -15.4 -111.999" /><path id= "202" d=" M -14.9 -91.9985 L -14.9 -99.9985 " />
<path id= "203" d=" M -14.4 -116.999 L -14.9 -116.999 " />
<path d="M-14.9 -99.9985 A12.0834 12.0834 0 0 0 -15.0667 -101.998" /><path id= "205" d=" M -14.4 -131.999 L -14.4 -116.999 " />
<path d="M-15.9 -111.998 A60.4166 60.4166 0 0 0 -15.0667 -101.999" /><path id= "207" d=" M -14.9 -131.999 L -14.4 -131.999 " />
<path d="M-15.0667 -121.998 A60.4166 60.4166 0 0 0 -15.9 -111.999" /><path id= "209" d=" M -14.9 -131.999 L -14.9 -123.999 " />
<path d="M-15.0667 -121.999 A12.0834 12.0834 0 0 0 -14.9 -123.998" /><path d="M-132.1 -116.999 A25.25 25.25 0 0 0 -132.6 -111.999" /><path id= "212" d=" M -131.6 -116.999 L -132.1 -116.999 " />
<path d="M-132.6 -111.999 A25.25 25.25 0 0 0 -132.1 -106.999" /><path id= "214" d=" M -131.6 -131.999 L -131.6 -116.999 " />
<path id= "215" d=" M -131.6 -106.999 L -132.1 -106.999 " />
<path id= "216" d=" M -132.1 -131.999 L -131.6 -131.999 " />
<path id= "217" d=" M -131.6 -91.9985 L -131.6 -106.999 " />
<path id= "218" d=" M -132.1 -131.999 L -132.1 -123.999 " />
<path id= "219" d=" M -132.1 -91.9985 L -131.6 -91.9985 " />
<path d="M-132.267 -121.999 A12.0834 12.0834 0 0 0 -132.1 -123.998" /><path id= "221" d=" M -132.1 -91.9985 L -132.1 -99.9985 " />
<path d="M-132.267 -121.998 A60.4166 60.4166 0 0 0 -133.1 -111.999" /><path d="M-132.1 -99.9985 A12.0834 12.0834 0 0 0 -132.267 -101.998" /><path d="M-133.1 -111.998 A60.4166 60.4166 0 0 0 -132.267 -101.999" /><path d="M-102.8 -116.999 A25.25 25.25 0 0 0 -103.3 -111.999" /><path id= "226" d=" M -102.3 -116.999 L -102.8 -116.999 " />
<path d="M-103.3 -111.999 A25.25 25.25 0 0 0 -102.8 -106.999" /><path id= "228" d=" M -102.3 -131.999 L -102.3 -116.999 " />
<path id= "229" d=" M -102.3 -106.999 L -102.8 -106.999 " />
<path id= "230" d=" M -102.8 -131.999 L -102.3 -131.999 " />
<path id= "231" d=" M -102.3 -91.9985 L -102.3 -106.999 " />
<path id= "232" d=" M -102.8 -131.999 L -102.8 -123.999 " />
<path id= "233" d=" M -102.8 -91.9985 L -102.3 -91.9985 " />
<path d="M-102.967 -121.999 A12.0834 12.0834 0 0 0 -102.8 -123.998" /><path id= "235" d=" M -102.8 -91.9985 L -102.8 -99.9985 " />
<path d="M-102.967 -121.998 A60.4166 60.4166 0 0 0 -103.8 -111.999" /><path d="M-102.8 -99.9985 A12.0834 12.0834 0 0 0 -102.967 -101.998" /><path d="M-103.8 -111.998 A60.4166 60.4166 0 0 0 -102.967 -101.999" /><path d="M73.5 -106.999 A25.25 25.25 0 0 0 74 -111.999" /><path id= "240" d=" M 73 -106.999 L 73.5 -106.999 " />
<path d="M74 -111.999 A25.25 25.25 0 0 0 73.5 -116.999" /><path id= "242" d=" M 73 -91.9985 L 73 -106.999 " />
<path id= "243" d=" M 73 -116.999 L 73.5 -116.999 " />
<path id= "244" d=" M 73.5 -91.9985 L 73 -91.9985 " />
<path id= "245" d=" M 73 -131.999 L 73 -116.999 " />
<path id= "246" d=" M 73.5 -91.9985 L 73.5 -99.9985 " />
<path id= "247" d=" M 73.5 -131.999 L 73 -131.999 " />
<path d="M73.6667 -101.998 A12.0834 12.0834 0 0 0 73.5 -99.9985" /><path id= "249" d=" M 73.5 -131.999 L 73.5 -123.999 " />
<path d="M73.6667 -101.999 A60.4166 60.4166 0 0 0 74.5 -111.999" /><path d="M73.5 -123.998 A12.0834 12.0834 0 0 0 73.6667 -121.999" /><path d="M74.5 -111.999 A60.4166 60.4166 0 0 0 73.6667 -121.998" /><path id= "253" d=" M 43.7 91.9985 L 43.7 106.999 " />
<path id= "254" d=" M 44.2 91.9985 L 43.7 91.9985 " />
<path id= "255" d=" M 43.7 106.999 L 44.2 106.999 " />
<path id= "256" d=" M 44.2 91.9985 L 44.2 99.9985 " />
<path d="M44.7 111.999 A25.25 25.25 0 0 0 44.2 106.999" /><path d="M44.2 99.9985 A12.0834 12.0834 0 0 0 44.3667 101.998" /><path d="M44.2 116.999 A25.25 25.25 0 0 0 44.7 111.999" /><path d="M45.2 111.998 A60.4166 60.4166 0 0 0 44.3667 101.999" /><path id= "261" d=" M 43.7 116.999 L 44.2 116.999 " />
<path d="M44.3667 121.998 A60.4166 60.4166 0 0 0 45.2 111.999" /><path id= "263" d=" M 43.7 131.999 L 43.7 116.999 " />
<path d="M44.3667 121.999 A12.0834 12.0834 0 0 0 44.2 123.998" /><path id= "265" d=" M 44.2 131.999 L 43.7 131.999 " />
<path id= "266" d=" M 44.2 131.999 L 44.2 123.998 " />
<path id= "267" d=" M 131.6 -116.999 L 132.1 -116.999 " />
<path id= "268" d=" M 131.6 -131.999 L 131.6 -116.999 " />
<path d="M132.6 -111.999 A25.25 25.25 0 0 0 132.1 -116.999" /><path id= "270" d=" M 132.1 -131.999 L 131.6 -131.999 " />
<path d="M132.1 -106.999 A25.25 25.25 0 0 0 132.6 -111.999" /><path id= "272" d=" M 132.1 -131.999 L 132.1 -123.999 " />
<path id= "273" d=" M 131.6 -106.999 L 132.1 -106.999 " />
<path d="M132.1 -123.998 A12.0834 12.0834 0 0 0 132.267 -121.999" /><path id= "275" d=" M 131.6 -91.9985 L 131.6 -106.999 " />
<path d="M133.1 -111.999 A60.4166 60.4166 0 0 0 132.267 -121.998" /><path id= "277" d=" M 132.1 -91.9985 L 131.6 -91.9985 " />
<path d="M132.267 -101.999 A60.4166 60.4166 0 0 0 133.1 -111.999" /><path id= "279" d=" M 132.1 -91.9985 L 132.1 -99.9985 " />
<path d="M132.267 -101.998 A12.0834 12.0834 0 0 0 132.1 -99.9985" /><path id= "281" d=" M -102.8 91.9985 L -102.8 99.9985 " />
<path id= "282" d=" M -102.8 91.9985 L -102.3 91.9985 " />
<path d="M-102.967 101.998 A12.0834 12.0834 0 0 0 -102.8 99.9985" /><path id= "284" d=" M -102.3 91.9985 L -102.3 106.999 " />
<path d="M-102.967 101.999 A60.4166 60.4166 0 0 0 -103.8 111.999" /><path id= "286" d=" M -102.3 106.999 L -102.8 106.999 " />
<path d="M-103.8 111.999 A60.4166 60.4166 0 0 0 -102.967 121.998" /><path d="M-102.8 106.999 A25.25 25.25 0 0 0 -103.3 111.999" /><path d="M-102.8 123.998 A12.0834 12.0834 0 0 0 -102.967 121.999" /><path d="M-103.3 111.999 A25.25 25.25 0 0 0 -102.8 116.999" /><path id= "291" d=" M -102.8 131.999 L -102.8 123.998 " />
<path id= "292" d=" M -102.3 116.999 L -102.8 116.999 " />
<path id= "293" d=" M -102.8 131.999 L -102.3 131.999 " />
<path id= "294" d=" M -102.3 131.999 L -102.3 116.999 " />
<path id= "295" d=" M -44.2 -91.9985 L -43.7 -91.9985 " />
<path id= "296" d=" M -44.2 -91.9985 L -44.2 -99.9985 " />
<path id= "297" d=" M -43.7 -91.9985 L -43.7 -106.999 " />
<path d="M-44.2 -99.9985 A12.0834 12.0834 0 0 0 -44.3667 -101.998" /><path id= "299" d=" M -43.7 -106.999 L -44.2 -106.999 " />
<path d="M-45.2 -111.998 A60.4166 60.4166 0 0 0 -44.3667 -101.999" /><path d="M-44.7 -111.999 A25.25 25.25 0 0 0 -44.2 -106.999" /><path d="M-44.3667 -121.998 A60.4166 60.4166 0 0 0 -45.2 -111.999" /><path d="M-44.2 -116.999 A25.25 25.25 0 0 0 -44.7 -111.999" /><path d="M-44.3667 -121.999 A12.0834 12.0834 0 0 0 -44.2 -123.998" /><path id= "305" d=" M -43.7 -116.999 L -44.2 -116.999 " />
<path id= "306" d=" M -44.2 -131.999 L -44.2 -123.999 " />
<path id= "307" d=" M -43.7 -131.999 L -43.7 -116.999 " />
<path id= "308" d=" M -44.2 -131.999 L -43.7 -131.999 " />
<path id= "309" d=" M -43.7 116.999 L -44.2 116.999 " />
<path id= "310" d=" M -43.7 131.999 L -43.7 116.999 " />
<path d="M-44.7 111.999 A25.25 25.25 0 0 0 -44.2 116.999" /><path id= "312" d=" M -44.2 131.999 L -43.7 131.999 " />
<path d="M-44.2 106.999 A25.25 25.25 0 0 0 -44.7 111.999" /><path id= "314" d=" M -44.2 131.999 L -44.2 123.998 " />
<path id= "315" d=" M -43.7 106.999 L -44.2 106.999 " />
<path d="M-44.2 123.998 A12.0834 12.0834 0 0 0 -44.3667 121.999" /><path id= "317" d=" M -43.7 91.9985 L -43.7 106.999 " />
<path d="M-45.2 111.999 A60.4166 60.4166 0 0 0 -44.3667 121.998" /><path id= "319" d=" M -44.2 91.9985 L -43.7 91.9985 " />
<path d="M-44.3667 101.999 A60.4166 60.4166 0 0 0 -45.2 111.999" /><path id= "321" d=" M -44.2 91.9985 L -44.2 99.9985 " />
<path d="M-44.3667 101.998 A12.0834 12.0834 0 0 0 -44.2 99.9985" /><path d="M-74.5 -111.998 A60.4166 60.4166 0 0 0 -73.6667 -101.999" /><path d="M-73.6667 -121.998 A60.4166 60.4166 0 0 0 -74.5 -111.999" /><path d="M-73.5 -99.9985 A12.0834 12.0834 0 0 0 -73.6667 -101.998" /><path d="M-73.6667 -121.999 A12.0834 12.0834 0 0 0 -73.5 -123.998" /><path id= "327" d=" M -73.5 -91.9985 L -73.5 -99.9985 " />
<path id= "328" d=" M -73.5 -131.999 L -73.5 -123.999 " />
<path id= "329" d=" M -73.5 -91.9985 L -73 -91.9985 " />
<path id= "330" d=" M -73.5 -131.999 L -73 -131.999 " />
<path id= "331" d=" M -73 -91.9985 L -73 -106.999 " />
<path id= "332" d=" M -73 -131.999 L -73 -116.999 " />
<path id= "333" d=" M -73 -106.999 L -73.5 -106.999 " />
<path id= "334" d=" M -73 -116.999 L -73.5 -116.999 " />
<path d="M-74 -111.999 A25.25 25.25 0 0 0 -73.5 -106.999" /><path d="M-73.5 -116.999 A25.25 25.25 0 0 0 -74 -111.999" /><path id= "337" d=" M -14.9 91.9985 L -14.9 99.9985 " />
<path id= "338" d=" M -14.9 91.9985 L -14.4 91.9985 " />
<path d="M-15.0667 101.998 A12.0834 12.0834 0 0 0 -14.9 99.9985" /><path id= "340" d=" M -14.4 91.9985 L -14.4 106.999 " />
<path d="M-15.0667 101.999 A60.4166 60.4166 0 0 0 -15.9 111.999" /><path id= "342" d=" M -14.4 106.999 L -14.9 106.999 " />
<path d="M-15.9 111.999 A60.4166 60.4166 0 0 0 -15.0667 121.998" /><path d="M-14.9 106.999 A25.25 25.25 0 0 0 -15.4 111.999" /><path d="M-14.9 123.998 A12.0834 12.0834 0 0 0 -15.0667 121.999" /><path d="M-15.4 111.999 A25.25 25.25 0 0 0 -14.9 116.999" /><path id= "347" d=" M -14.9 131.999 L -14.9 123.998 " />
<path id= "348" d=" M -14.4 116.999 L -14.9 116.999 " />
<path id= "349" d=" M -14.9 131.999 L -14.4 131.999 " />
<path id= "350" d=" M -14.4 131.999 L -14.4 116.999 " />
<path id= "351" d=" M -132.1 131.999 L -131.6 131.999 " />
<path id= "352" d=" M -132.1 131.999 L -132.1 123.998 " />
<path id= "353" d=" M -131.6 131.999 L -131.6 116.999 " />
<path d="M-132.1 123.998 A12.0834 12.0834 0 0 0 -132.267 121.999" /><path id= "355" d=" M -131.6 116.999 L -132.1 116.999 " />
<path d="M-133.1 111.999 A60.4166 60.4166 0 0 0 -132.267 121.998" /><path d="M-132.6 111.999 A25.25 25.25 0 0 0 -132.1 116.999" /><path d="M-132.267 101.999 A60.4166 60.4166 0 0 0 -133.1 111.999" /><path d="M-132.1 106.999 A25.25 25.25 0 0 0 -132.6 111.999" /><path d="M-132.267 101.998 A12.0834 12.0834 0 0 0 -132.1 99.9985" /><path id= "361" d=" M -131.6 106.999 L -132.1 106.999 " />
<path id= "362" d=" M -132.1 91.9985 L -132.1 99.9985 " />
<path id= "363" d=" M -131.6 91.9985 L -131.6 106.999 " />
<path id= "364" d=" M -132.1 91.9985 L -131.6 91.9985 " />
<path id= "365" d=" M -73 131.999 L -73 116.999 " />
<path id= "366" d=" M -73.5 131.999 L -73 131.999 " />
<path id= "367" d=" M -73 116.999 L -73.5 116.999 " />
<path id= "368" d=" M -73.5 131.999 L -73.5 123.998 " />
<path d="M-74 111.999 A25.25 25.25 0 0 0 -73.5 116.999" /><path d="M-73.5 123.998 A12.0834 12.0834 0 0 0 -73.6667 121.999" /><path d="M-73.5 106.999 A25.25 25.25 0 0 0 -74 111.999" /><path d="M-74.5 111.999 A60.4166 60.4166 0 0 0 -73.6667 121.998" /><path id= "373" d=" M -73 106.999 L -73.5 106.999 " />
<path d="M-73.6667 101.999 A60.4166 60.4166 0 0 0 -74.5 111.999" /><path id= "375" d=" M -73 91.9985 L -73 106.999 " />
<path d="M-73.6667 101.998 A12.0834 12.0834 0 0 0 -73.5 99.9985" /><path id= "377" d=" M -73.5 91.9985 L -73 91.9985 " />
<path id= "378" d=" M -73.5 91.9985 L -73.5 99.9985 " />
<path id= "379" d=" M 73.5 131.999 L 73.5 123.998 " />
<path id= "380" d=" M 73.5 131.999 L 73 131.999 " />
<path d="M73.6667 121.999 A12.0834 12.0834 0 0 0 73.5 123.998" /><path id= "382" d=" M 73 131.999 L 73 116.999 " />
<path d="M73.6667 121.998 A60.4166 60.4166 0 0 0 74.5 111.999" /><path id= "384" d=" M 73 116.999 L 73.5 116.999 " />
<path d="M74.5 111.998 A60.4166 60.4166 0 0 0 73.6667 101.999" /><path d="M73.5 116.999 A25.25 25.25 0 0 0 74 111.999" /><path d="M73.5 99.9985 A12.0834 12.0834 0 0 0 73.6667 101.998" /><path d="M74 111.999 A25.25 25.25 0 0 0 73.5 106.999" /><path id= "389" d=" M 73.5 91.9985 L 73.5 99.9985 " />
<path id= "390" d=" M 73 106.999 L 73.5 106.999 " />
<path id= "391" d=" M 73.5 91.9985 L 73 91.9985 " />
<path id= "392" d=" M 73 91.9985 L 73 106.999 " />
<path id= "393" d=" M 14.9 -91.9985 L 14.4 -91.9985 " />
<path id= "394" d=" M 14.9 -91.9985 L 14.9 -99.9985 " />
<path id= "395" d=" M 14.4 -91.9985 L 14.4 -106.999 " />
<path d="M15.0667 -101.998 A12.0834 12.0834 0 0 0 14.9 -99.9985" /><path id= "397" d=" M 14.4 -106.999 L 14.9 -106.999 " />
<path d="M15.0667 -101.999 A60.4166 60.4166 0 0 0 15.9 -111.999" /><path d="M14.9 -106.999 A25.25 25.25 0 0 0 15.4 -111.999" /><path d="M15.9 -111.999 A60.4166 60.4166 0 0 0 15.0667 -121.998" /><path d="M15.4 -111.999 A25.25 25.25 0 0 0 14.9 -116.999" /><path d="M14.9 -123.998 A12.0834 12.0834 0 0 0 15.0667 -121.999" /><path id= "403" d=" M 14.4 -116.999 L 14.9 -116.999 " />
<path id= "404" d=" M 14.9 -131.999 L 14.9 -123.999 " />
<path id= "405" d=" M 14.4 -131.999 L 14.4 -116.999 " />
<path id= "406" d=" M 14.9 -131.999 L 14.4 -131.999 " />
<path d="M44.2 -106.999 A25.25 25.25 0 0 0 44.7 -111.999" /><path id= "408" d=" M 43.7 -106.999 L 44.2 -106.999 " />
<path d="M44.7 -111.999 A25.25 25.25 0 0 0 44.2 -116.999" /><path id= "410" d=" M 43.7 -91.9985 L 43.7 -106.999 " />
<path id= "411" d=" M 43.7 -116.999 L 44.2 -116.999 " />
<path id= "412" d=" M 44.2 -91.9985 L 43.7 -91.9985 " />
<path id= "413" d=" M 43.7 -131.999 L 43.7 -116.999 " />
<path id= "414" d=" M 44.2 -91.9985 L 44.2 -99.9985 " />
<path id= "415" d=" M 44.2 -131.999 L 43.7 -131.999 " />
<path d="M44.3667 -101.998 A12.0834 12.0834 0 0 0 44.2 -99.9985" /><path id= "417" d=" M 44.2 -131.999 L 44.2 -123.999 " />
<path d="M44.3667 -101.999 A60.4166 60.4166 0 0 0 45.2 -111.999" /><path d="M44.2 -123.998 A12.0834 12.0834 0 0 0 44.3667 -121.999" /><path d="M45.2 -111.999 A60.4166 60.4166 0 0 0 44.3667 -121.998" /><path d="M102.967 -101.999 A60.4166 60.4166 0 0 0 103.8 -111.999" /><path d="M102.967 -101.998 A12.0834 12.0834 0 0 0 102.8 -99.9985" /><path d="M103.8 -111.999 A60.4166 60.4166 0 0 0 102.967 -121.998" /><path id= "424" d=" M 102.8 -91.9985 L 102.8 -99.9985 " />
<path d="M102.8 -123.998 A12.0834 12.0834 0 0 0 102.967 -121.999" /><path id= "426" d=" M 102.8 -91.9985 L 102.3 -91.9985 " />
<path id= "427" d=" M 102.8 -131.999 L 102.8 -123.999 " />
<path id= "428" d=" M 102.3 -91.9985 L 102.3 -106.999 " />
<path id= "429" d=" M 102.8 -131.999 L 102.3 -131.999 " />
<path id= "430" d=" M 102.3 -106.999 L 102.8 -106.999 " />
<path id= "431" d=" M 102.3 -131.999 L 102.3 -116.999 " />
<path d="M102.8 -106.999 A25.25 25.25 0 0 0 103.3 -111.999" /><path id= "433" d=" M 102.3 -116.999 L 102.8 -116.999 " />
<path d="M103.3 -111.999 A25.25 25.25 0 0 0 102.8 -116.999" /><path id= "435" d=" M 131.6 91.9985 L 131.6 106.999 " />
<path id= "436" d=" M 132.1 91.9985 L 131.6 91.9985 " />
<path id= "437" d=" M 131.6 106.999 L 132.1 106.999 " />
<path id= "438" d=" M 132.1 91.9985 L 132.1 99.9985 " />
<path d="M132.6 111.999 A25.25 25.25 0 0 0 132.1 106.999" /><path d="M132.1 99.9985 A12.0834 12.0834 0 0 0 132.267 101.998" /><path d="M132.1 116.999 A25.25 25.25 0 0 0 132.6 111.999" /><path d="M133.1 111.998 A60.4166 60.4166 0 0 0 132.267 101.999" /><path id= "443" d=" M 131.6 116.999 L 132.1 116.999 " />
<path d="M132.267 121.998 A60.4166 60.4166 0 0 0 133.1 111.999" /><path id= "445" d=" M 131.6 131.999 L 131.6 116.999 " />
<path d="M132.267 121.999 A12.0834 12.0834 0 0 0 132.1 123.998" /><path id= "447" d=" M 132.1 131.999 L 131.6 131.999 " />
<path id= "448" d=" M 132.1 131.999 L 132.1 123.998 " />
<path id= "449" d=" M -161.4 131.999 L -160.9 131.999 " />
<path id= "450" d=" M -161.4 131.999 L -161.4 123.998 " />
<path id= "451" d=" M -160.9 131.999 L -160.9 116.999 " />
<path d="M-161.4 123.998 A12.0834 12.0834 0 0 0 -161.567 121.999" /><path id= "453" d=" M -160.9 116.999 L -161.4 116.999 " />
<path d="M-162.4 111.999 A60.4166 60.4166 0 0 0 -161.567 121.998" /><path d="M-161.9 111.999 A25.25 25.25 0 0 0 -161.4 116.999" /><path d="M-161.567 101.999 A60.4166 60.4166 0 0 0 -162.4 111.999" /><path d="M-161.4 106.999 A25.25 25.25 0 0 0 -161.9 111.999" /><path d="M-161.567 101.998 A12.0834 12.0834 0 0 0 -161.4 99.9985" /><path id= "459" d=" M -160.9 106.999 L -161.4 106.999 " />
<path id= "460" d=" M -161.4 91.9985 L -161.4 99.9985 " />
<path id= "461" d=" M -160.9 91.9985 L -160.9 106.999 " />
<path id= "462" d=" M -161.4 91.9985 L -160.9 91.9985 " />
<path d="M-161.4 -116.999 A25.25 25.25 0 0 0 -161.9 -111.999" /><path id= "464" d=" M -160.9 -116.999 L -161.4 -116.999 " />
<path d="M-161.9 -111.999 A25.25 25.25 0 0 0 -161.4 -106.999" /><path id= "466" d=" M -160.9 -131.999 L -160.9 -116.999 " />
<path id= "467" d=" M -160.9 -106.999 L -161.4 -106.999 " />
<path id= "468" d=" M -161.4 -131.999 L -160.9 -131.999 " />
<path id= "469" d=" M -160.9 -91.9985 L -160.9 -106.999 " />
<path id= "470" d=" M -161.4 -131.999 L -161.4 -123.999 " />
<path id= "471" d=" M -161.4 -91.9985 L -160.9 -91.9985 " />
<path d="M-161.567 -121.999 A12.0834 12.0834 0 0 0 -161.4 -123.998" /><path id= "473" d=" M -161.4 -91.9985 L -161.4 -99.9985 " />
<path d="M-161.567 -121.998 A60.4166 60.4166 0 0 0 -162.4 -111.999" /><path d="M-161.4 -99.9985 A12.0834 12.0834 0 0 0 -161.567 -101.998" /><path d="M-162.4 -111.998 A60.4166 60.4166 0 0 0 -161.567 -101.999" /><path id= "477" d=" M 51.5 177.5 L 43.5 177.5 " />
<path d="M41.5 177.333 A12.0835 12.0835 0 0 0 43.5 177.5" /><path d="M41.5 177.333 A60.4168 60.4168 0 0 0 31.5 176.5" /><path d="M31.5 176.5 A60.4168 60.4168 0 0 0 21.5 177.333" /><path d="M19.5 177.5 A12.0835 12.0835 0 0 0 21.5 177.333" /><path id= "482" d=" M 11.5 177.5 L 19.5 177.5 " />
<path id= "483" d=" M 11.5 178 L 11.5 177.5 " />
<path id= "484" d=" M 11.5 178 L 26.5 178 " />
<path id= "485" d=" M 26.5 178 L 26.5 177.5 " />
<path d="M31.5 177 A25.25 25.25 0 0 0 26.5 177.5" /><path d="M36.5 177.5 A25.25 25.25 0 0 0 31.5 177" /><path id= "488" d=" M 36.5 178 L 36.5 177.5 " />
<path id= "489" d=" M 51.5 178 L 36.5 178 " />
<path id= "490" d=" M 51.5 178 L 51.5 177.5 " />
<path id= "491" d=" M -51.5 177.5 L -43.5 177.5 " />
<path id= "492" d=" M -51.5 178 L -51.5 177.5 " />
<path id= "493" d=" M -51.5 178 L -36.5 178 " />
<path id= "494" d=" M -36.5 178 L -36.5 177.5 " />
<path d="M-31.5 177 A25.25 25.25 0 0 0 -36.5 177.5" /><path d="M-26.5 177.5 A25.25 25.25 0 0 0 -31.5 177" /><path id= "497" d=" M -26.5 178 L -26.5 177.5 " />
<path id= "498" d=" M -11.5 178 L -26.5 178 " />
<path id= "499" d=" M -11.5 178 L -11.5 177.5 " />
<path id= "500" d=" M -11.5 177.5 L -19.5 177.5 " />
<path d="M-21.5 177.333 A12.0835 12.0835 0 0 0 -19.5 177.5" /><path d="M-21.5 177.333 A60.4168 60.4168 0 0 0 -31.5 176.5" /><path d="M-31.5 176.5 A60.4168 60.4168 0 0 0 -41.5 177.333" /><path d="M-43.5 177.5 A12.0835 12.0835 0 0 0 -41.5 177.333" /><path id= "505" d=" M 0 134.5 L 0 145.5 " />
<path id= "506" d=" M 0 134.5 L 0 145.5 " />
<path d="M-150 143.5 A2 2 0 0 0 -148 145.5" /><path id= "508" d=" M -43.5 202.5 L -50 202.5 " />
<path id= "509" d=" M -36.5 203 L -50 203 " />
<path id= "510" d=" M 50 203 L 36.5 203 " />
<path id= "511" d=" M 50 202.5 L 43.5 202.5 " />
<path id= "512" d=" M 3.99047 216.776 L 5.98572 187.914 " />
<path d="M3.99047 216.776 A4 4 0 0 1 7.34788e-16 220.5" /><path d="M7.34788e-16 220.5 A4 4 0 0 1 -3.99047 216.776" /><path id= "515" d=" M -5.98572 187.914 L -3.99047 216.776 " />
<path d="M-5.98572 187.914 A6 6 0 0 1 -1.78242e-14 181.5" /><path d="M2.09489e-14 181.5 A6 6 0 0 1 5.98572 187.914" /><path id= "518" d=" M -36.5 202.5 L -36.5 203 " />
<path d="M-31.5 202 A25.25 25.25 0 0 0 -36.5 202.5" /><path d="M-31.5 201.5 A60.4168 60.4168 0 0 0 -41.5 202.333" /><path d="M-43.5 202.5 A12.0835 12.0835 0 0 0 -41.5 202.333" /><path id= "522" d=" M -11.5 202.5 L -11.5 203 " />
<path id= "523" d=" M -19.5 202.5 L -11.5 202.5 " />
<path d="M-21.5 202.333 A12.0835 12.0835 0 0 0 -19.5 202.5" /><path d="M-21.5 202.333 A60.4168 60.4168 0 0 0 -31.5 201.5" /><path d="M-26.5 202.5 A25.25 25.25 0 0 0 -31.5 202" /><path id= "527" d=" M -26.5 202.5 L -26.5 203 " />
<path id= "528" d=" M -26.5 203 L -11.5 203 " />
<path d="M19.5 202.5 A12.0835 12.0835 0 0 0 21.5 202.333" /><path id= "530" d=" M 11.5 202.5 L 19.5 202.5 " />
<path id= "531" d=" M 11.5 203 L 11.5 202.5 " />
<path id= "532" d=" M 11.5 203 L 26.5 203 " />
<path id= "533" d=" M 26.5 203 L 26.5 202.5 " />
<path d="M31.5 202 A25.25 25.25 0 0 0 26.5 202.5" /><path d="M31.5 201.5 A60.4168 60.4168 0 0 0 21.5 202.333" /><path d="M41.5 202.333 A60.4168 60.4168 0 0 0 31.5 201.5" /><path d="M36.5 202.5 A25.25 25.25 0 0 0 31.5 202" /><path id= "538" d=" M 36.5 203 L 36.5 202.5 " />
<path d="M41.5 202.333 A12.0835 12.0835 0 0 0 43.5 202.5" /><path id= "540" d=" M 0 -134.5 L 0 -145.5 " />
<circle cx ="-131.85" cy ="140" r ="1" /><path id= "542" d=" M 0 230 L 0 220.5 " />
<path id= "543" d=" M 0 181.5 L 0 180 " />
<circle cx ="-47.5" cy ="227.5" r ="1.5" /><circle cx ="-47.5" cy ="182.5" r ="1.5" /><circle cx ="-43.95" cy ="-140" r ="1" /><circle cx ="-131.85" cy ="-140" r ="1" /><circle cx ="43.95" cy ="-140" r ="1" /><circle cx ="131.85" cy ="-140" r ="1" /><circle cx ="43.95" cy ="140" r ="1" /><circle cx ="131.85" cy ="140" r ="1" /><circle cx ="-43.95" cy ="140" r ="1" /><circle cx ="-131.85" cy ="140" r ="1" /><circle cx ="47.5" cy ="227.5" r ="1.5" /><circle cx ="47.5" cy ="182.5" r ="1.5" /><circle cx ="-47.5" cy ="227.5" r ="1.5" /><circle cx ="-47.5" cy ="182.5" r ="1.5" /></g>
</g>



</svg>

