<?xml version="1.0" encoding="UTF-8" standalone="no"?>
<!-- Created with Inkscape (http://www.inkscape.org/) -->

<svg
   xmlns:dc="http://purl.org/dc/elements/1.1/"
   xmlns:cc="http://creativecommons.org/ns#"
   xmlns:rdf="http://www.w3.org/1999/02/22-rdf-syntax-ns#"
   xmlns:svg="http://www.w3.org/2000/svg"
   xmlns="http://www.w3.org/2000/svg"
   xmlns:sodipodi="http://sodipodi.sourceforge.net/DTD/sodipodi-0.dtd"
   xmlns:inkscape="http://www.inkscape.org/namespaces/inkscape"
   width="600mm"
   height="600mm"
   viewBox="0 0 600 600"
   id="svg2"
   version="1.1"
   inkscape:version="0.48.4 r9939"
   sodipodi:docname="template.svg">
  <defs
     id="defs4" />
  <sodipodi:namedview
     id="base"
     pagecolor="#ffffff"
     bordercolor="#666666"
     borderopacity="1.0"
     inkscape:pageopacity="0.0"
     inkscape:pageshadow="2"
     inkscape:zoom="0.35"
     inkscape:cx="45"
     inkscape:cy="520"
     inkscape:document-units="mm"
     inkscape:current-layer="layer1"
     showgrid="false"
     units="mm"
     inkscape:window-width="1366"
     inkscape:window-height="718"
     inkscape:window-x="0"
     inkscape:window-y="0"
     inkscape:window-maximized="1" />
  <metadata
     id="metadata7">
    <rdf:RDF>
      <cc:Work
         rdf:about="">
        <dc:format>image/svg+xml</dc:format>
        <dc:type
           rdf:resource="http://purl.org/dc/dcmitype/StillImage" />
        <dc:title />
      </cc:Work>
    </rdf:RDF>
  </metadata>
  <g
     inkscape:label="Layer 1"
     inkscape:groupmode="layer"
     id="layer1"
     transform="translate(0,1073.622)" />
<g id="View007"
   transform="rotate(180,300,300) translate(300,300) scale(1,1)"
  >
<g   stroke="rgb(0, 0, 0)"
   stroke-width="0.35"
   stroke-linecap="butt"
   stroke-linejoin="miter"
   fill="none"
   transform="scale(1,-1)"
  >
<path id= "1" d=" M 250 250 L -250 250 " />
<path id= "2" d=" M 250 214.5 L 250 250 " />
<path id= "3" d=" M -250 250 L -250 214.5 " />
<path id= "4" d=" M 250 214.5 L 244 214.5 " />
<path id= "5" d=" M -250 214.5 L -244 214.5 " />
<path id= "6" d=" M 244 214.5 L 244 205.5 " />
<path id= "7" d=" M -244 214.5 L -244 205.5 " />
<path id= "8" d=" M 244 205.5 L 250 205.5 " />
<path id= "9" d=" M -244 205.5 L -250 205.5 " />
<path id= "10" d=" M 250 74.5 L 250 205.5 " />
<path id= "11" d=" M -250 205.5 L -250 74.5 " />
<path id= "12" d=" M 250 74.5 L 244 74.5 " />
<path id= "13" d=" M -250 74.5 L -244 74.5 " />
<path id= "14" d=" M 244 74.5 L 244 65.5 " />
<path id= "15" d=" M -244 74.5 L -244 65.5 " />
<path id= "16" d=" M 244 65.5 L 250 65.5 " />
<path id= "17" d=" M -244 65.5 L -250 65.5 " />
<path id= "18" d=" M 250 -65.5 L 250 65.5 " />
<path id= "19" d=" M -250 65.5 L -250 -65.5 " />
<path id= "20" d=" M 250 -65.5 L 244 -65.5 " />
<path id= "21" d=" M -250 -65.5 L -244 -65.5 " />
<path id= "22" d=" M 244 -65.5 L 244 -74.5 " />
<path id= "23" d=" M -244 -65.5 L -244 -74.5 " />
<path id= "24" d=" M 244 -74.5 L 250 -74.5 " />
<path id= "25" d=" M -244 -74.5 L -250 -74.5 " />
<path id= "26" d=" M 250 -205.5 L 250 -74.5 " />
<path id= "27" d=" M -250 -74.5 L -250 -205.5 " />
<path id= "28" d=" M 250 -205.5 L 244 -205.5 " />
<path id= "29" d=" M -250 -205.5 L -244 -205.5 " />
<path id= "30" d=" M 244 -205.5 L 244 -214.5 " />
<path id= "31" d=" M -244 -205.5 L -244 -214.5 " />
<path id= "32" d=" M 244 -214.5 L 250 -214.5 " />
<path id= "33" d=" M -244 -214.5 L -250 -214.5 " />
<path id= "34" d=" M 250 -250 L 250 -214.5 " />
<path id= "35" d=" M -250 -214.5 L -250 -250 " />
<path id= "36" d=" M -250 -250 L 250 -250 " />
<path id= "37" d=" M 141 158.498 L 152 158.498 " />
<path id= "38" d=" M 141 156.998 L 141 158.498 " />
<path id= "39" d=" M 152 158.498 L 152 156.998 " />
<path id= "40" d=" M 152 156.998 L 141 156.998 " />
<path id= "41" d=" M 152 -156.998 L 141 -156.998 " />
<path id= "42" d=" M 152 -158.498 L 152 -156.998 " />
<path id= "43" d=" M 141 -156.998 L 141 -158.498 " />
<path id= "44" d=" M 141 -158.498 L 152 -158.498 " />
<path id= "45" d=" M 111.7 158.498 L 122.7 158.498 " />
<path id= "46" d=" M 111.7 156.998 L 111.7 158.498 " />
<path id= "47" d=" M 122.7 158.498 L 122.7 156.998 " />
<path id= "48" d=" M 122.7 156.998 L 111.7 156.998 " />
<path id= "49" d=" M 122.7 -158.498 L 122.7 -156.998 " />
<path id= "50" d=" M 111.7 -158.498 L 122.7 -158.498 " />
<path id= "51" d=" M 122.7 -156.998 L 111.7 -156.998 " />
<path id= "52" d=" M 111.7 -156.998 L 111.7 -158.498 " />
<path id= "53" d=" M -82.4 -158.498 L -82.4 -156.998 " />
<path id= "54" d=" M -93.4 -158.498 L -82.4 -158.498 " />
<path id= "55" d=" M -82.4 -156.998 L -93.4 -156.998 " />
<path id= "56" d=" M -93.4 -156.998 L -93.4 -158.498 " />
<path id= "57" d=" M -53.1 -158.498 L -53.1 -156.998 " />
<path id= "58" d=" M -64.1 -158.498 L -53.1 -158.498 " />
<path id= "59" d=" M -53.1 -156.998 L -64.1 -156.998 " />
<path id= "60" d=" M -64.1 -156.998 L -64.1 -158.498 " />
<path id= "61" d=" M 53.1 -156.998 L 53.1 -158.498 " />
<path id= "62" d=" M 64.1 -156.998 L 53.1 -156.998 " />
<path id= "63" d=" M 53.1 -158.498 L 64.1 -158.498 " />
<path id= "64" d=" M 64.1 -158.498 L 64.1 -156.998 " />
<path id= "65" d=" M 82.4 -158.498 L 93.4 -158.498 " />
<path id= "66" d=" M 82.4 -156.998 L 82.4 -158.498 " />
<path id= "67" d=" M 93.4 -158.498 L 93.4 -156.998 " />
<path id= "68" d=" M 93.4 -156.998 L 82.4 -156.998 " />
<path id= "69" d=" M -23.8 -158.498 L -23.8 -156.998 " />
<path id= "70" d=" M -34.8 -158.498 L -23.8 -158.498 " />
<path id= "71" d=" M -23.8 -156.998 L -34.8 -156.998 " />
<path id= "72" d=" M -34.8 -156.998 L -34.8 -158.498 " />
<path id= "73" d=" M 5.5 -158.498 L 5.5 -156.998 " />
<path id= "74" d=" M -5.5 -158.498 L 5.5 -158.498 " />
<path id= "75" d=" M 5.5 -156.998 L -5.5 -156.998 " />
<path id= "76" d=" M -5.5 -156.998 L -5.5 -158.498 " />
<path id= "77" d=" M 34.8 -158.498 L 34.8 -156.998 " />
<path id= "78" d=" M 23.8 -158.498 L 34.8 -158.498 " />
<path id= "79" d=" M 34.8 -156.998 L 23.8 -156.998 " />
<path id= "80" d=" M 23.8 -156.998 L 23.8 -158.498 " />
<path id= "81" d=" M 64.1 158.498 L 64.1 156.998 " />
<path id= "82" d=" M 53.1 158.498 L 64.1 158.498 " />
<path id= "83" d=" M 64.1 156.998 L 53.1 156.998 " />
<path id= "84" d=" M 53.1 156.998 L 53.1 158.498 " />
<path id= "85" d=" M 34.8 158.498 L 34.8 156.998 " />
<path id= "86" d=" M 23.8 158.498 L 34.8 158.498 " />
<path id= "87" d=" M 34.8 156.998 L 23.8 156.998 " />
<path id= "88" d=" M 23.8 156.998 L 23.8 158.498 " />
<path id= "89" d=" M -23.8 156.998 L -34.8 156.998 " />
<path id= "90" d=" M -23.8 158.498 L -23.8 156.998 " />
<path id= "91" d=" M -34.8 156.998 L -34.8 158.498 " />
<path id= "92" d=" M -34.8 158.498 L -23.8 158.498 " />
<path id= "93" d=" M -5.5 156.998 L -5.5 158.498 " />
<path id= "94" d=" M 5.5 156.998 L -5.5 156.998 " />
<path id= "95" d=" M -5.5 158.498 L 5.5 158.498 " />
<path id= "96" d=" M 5.5 158.498 L 5.5 156.998 " />
<path id= "97" d=" M -53.1 156.998 L -64.1 156.998 " />
<path id= "98" d=" M -53.1 158.498 L -53.1 156.998 " />
<path id= "99" d=" M -64.1 156.998 L -64.1 158.498 " />
<path id= "100" d=" M -64.1 158.498 L -53.1 158.498 " />
<path id= "101" d=" M 93.4 156.998 L 82.4 156.998 " />
<path id= "102" d=" M 93.4 158.498 L 93.4 156.998 " />
<path id= "103" d=" M 82.4 156.998 L 82.4 158.498 " />
<path id= "104" d=" M 82.4 158.498 L 93.4 158.498 " />
<path id= "105" d=" M -93.4 158.498 L -82.4 158.498 " />
<path id= "106" d=" M -93.4 156.998 L -93.4 158.498 " />
<path id= "107" d=" M -82.4 158.498 L -82.4 156.998 " />
<path id= "108" d=" M -82.4 156.998 L -93.4 156.998 " />
<path id= "109" d=" M -122.7 158.498 L -111.7 158.498 " />
<path id= "110" d=" M -122.7 156.998 L -122.7 158.498 " />
<path id= "111" d=" M -111.7 158.498 L -111.7 156.998 " />
<path id= "112" d=" M -111.7 156.998 L -122.7 156.998 " />
<path id= "113" d=" M -111.7 -158.498 L -111.7 -156.998 " />
<path id= "114" d=" M -122.7 -158.498 L -111.7 -158.498 " />
<path id= "115" d=" M -111.7 -156.998 L -122.7 -156.998 " />
<path id= "116" d=" M -122.7 -156.998 L -122.7 -158.498 " />
<path id= "117" d=" M -141 158.498 L -141 156.998 " />
<path id= "118" d=" M -152 158.498 L -141 158.498 " />
<path id= "119" d=" M -141 156.998 L -152 156.998 " />
<path id= "120" d=" M -152 156.998 L -152 158.498 " />
<path id= "121" d=" M -152 -158.498 L -141 -158.498 " />
<path id= "122" d=" M -152 -156.998 L -152 -158.498 " />
<path id= "123" d=" M -141 -158.498 L -141 -156.998 " />
<path id= "124" d=" M -141 -156.998 L -152 -156.998 " />
<path id= "125" d=" M 0 -155.5 L -148 -155.5 " />
<path id= "126" d=" M 0 -155.5 L 148 -155.5 " />
<path d="M-150 -153.5 A2 2 0 0 1 -148 -155.5" /><path d="M150 -153.5 A2 2 0 0 0 148 -155.5" /><path id= "129" d=" M -150 -153.5 L -150 -146.5 " />
<path id= "130" d=" M 150 -153.5 L 150 -146.5 " />
<path d="M-148 -144.5 A2 2 0 0 1 -150 -146.5" /><path d="M148 -144.5 A2 2 0 0 0 150 -146.5" /><path id= "133" d=" M -148 -144.5 L 3.69482e-13 -144.5 " />
<path id= "134" d=" M 148 -144.5 L -3.69482e-13 -144.5 " />
<path id= "135" d=" M 150 153.5 L 150 146.5 " />
<path d="M148 144.5 A2 2 0 0 1 150 146.5" /><path id= "137" d=" M 148 144.5 L -3.69482e-13 144.5 " />
<path id= "138" d=" M 0 144.5 L 0 147.5 " />
<path id= "139" d=" M 0 147.5 L 0 152.5 " />
<path id= "140" d=" M 0 152.5 L 0 155.5 " />
<path id= "141" d=" M 0 155.5 L 148 155.5 " />
<path d="M150 153.5 A2 2 0 0 1 148 155.5" /><path id= "143" d=" M 0 147.5 L 0 152.5 " />
<path id= "144" d=" M 0 144.5 L 0 147.5 " />
<path id= "145" d=" M -148 144.5 L 3.69482e-13 144.5 " />
<path d="M-148 144.5 A2 2 0 0 0 -150 146.5" /><path id= "147" d=" M -150 153.5 L -150 146.5 " />
<path d="M-150 153.5 A2 2 0 0 0 -148 155.5" /><path id= "149" d=" M 0 155.5 L -148 155.5 " />
<path id= "150" d=" M 0 152.5 L 0 155.5 " />
<path id= "151" d=" M 52 185 L 52 196 " />
<path id= "152" d=" M 53.5 185 L 52 185 " />
<path id= "153" d=" M 52 196 L 53.5 196 " />
<path id= "154" d=" M 53.5 196 L 53.5 185 " />
<path id= "155" d=" M 45 180 L 47.5 180 " />
<path id= "156" d=" M 45 179 L 45 180 " />
<path d="M47.5 180 A2.5 2.5 0 0 1 50 182.5" /><path id= "158" d=" M 45 179 L 0 179 " />
<path id= "159" d=" M 50 182.5 L 50 227.5 " />
<path id= "160" d=" M -45 179 L 0 179 " />
<path d="M50 227.5 A2.5 2.5 0 0 1 47.5 230" /><path id= "162" d=" M -45 179 L -45 180 " />
<path id= "163" d=" M 47.5 230 L 45 230 " />
<path id= "164" d=" M -45 180 L -47.5 180 " />
<path id= "165" d=" M 45 230 L 45 231 " />
<path d="M-47.5 180 A2.5 2.5 0 0 0 -50 182.5" /><path id= "167" d=" M 45 231 L 0 231 " />
<path id= "168" d=" M -50 182.5 L -50 227.5 " />
<path id= "169" d=" M -45 231 L 0 231 " />
<path d="M-50 227.5 A2.5 2.5 0 0 0 -47.5 230" /><path id= "171" d=" M -45 230 L -45 231 " />
<path id= "172" d=" M -47.5 230 L -45 230 " />
<path id= "173" d=" M -53.5 196 L -53.5 185 " />
<path id= "174" d=" M -52 196 L -53.5 196 " />
<path id= "175" d=" M -53.5 185 L -52 185 " />
<path id= "176" d=" M -52 185 L -52 196 " />
<path d="M15.4167 127 A28.1894 28.1894 0 0 0 17.25 117" /><path d="M15.4167 127 A5.63786 5.63786 0 0 0 15.05 129" /><path d="M17.25 117 A28.1894 28.1894 0 0 0 15.4167 107" /><path id= "180" d=" M 15.05 132 L 15.05 129 " />
<path d="M15.05 105 A5.63786 5.63786 0 0 0 15.4167 107" /><path id= "182" d=" M 15.05 132 L 14.25 132 " />
<path id= "183" d=" M 15.05 102 L 15.05 105 " />
<path id= "184" d=" M 14.25 132 L 14.25 122 " />
<path id= "185" d=" M 15.05 102 L 14.25 102 " />
<path id= "186" d=" M 14.25 122 L 15.45 122 " />
<path id= "187" d=" M 14.25 102 L 14.25 112 " />
<path d="M15.45 122 A16.025 16.025 0 0 0 16.25 117" /><path id= "189" d=" M 14.25 112 L 15.45 112 " />
<path d="M16.25 117 A16.025 16.025 0 0 0 15.45 112" /><path id= "191" d=" M 102.95 102 L 102.95 105 " />
<path id= "192" d=" M 102.95 102 L 102.15 102 " />
<path d="M102.95 105 A5.63786 5.63786 0 0 0 103.317 107" /><path id= "194" d=" M 102.15 102 L 102.15 112 " />
<path d="M105.15 117 A28.1894 28.1894 0 0 0 103.317 107" /><path id= "196" d=" M 102.15 112 L 103.35 112 " />
<path d="M103.317 127 A28.1894 28.1894 0 0 0 105.15 117" /><path d="M104.15 117 A16.025 16.025 0 0 0 103.35 112" /><path d="M103.317 127 A5.63786 5.63786 0 0 0 102.95 129" /><path d="M103.35 122 A16.025 16.025 0 0 0 104.15 117" /><path id= "201" d=" M 102.95 132 L 102.95 129 " />
<path id= "202" d=" M 102.15 122 L 103.35 122 " />
<path id= "203" d=" M 102.95 132 L 102.15 132 " />
<path id= "204" d=" M 102.15 132 L 102.15 122 " />
<path id= "205" d=" M 161.55 102 L 160.75 102 " />
<path id= "206" d=" M 161.55 102 L 161.55 105 " />
<path id= "207" d=" M 160.75 102 L 160.75 112 " />
<path d="M161.55 105 A5.63786 5.63786 0 0 0 161.917 107" /><path id= "209" d=" M 160.75 112 L 161.95 112 " />
<path d="M163.75 117 A28.1894 28.1894 0 0 0 161.917 107" /><path d="M162.75 117 A16.025 16.025 0 0 0 161.95 112" /><path d="M161.917 127 A28.1894 28.1894 0 0 0 163.75 117" /><path d="M161.95 122 A16.025 16.025 0 0 0 162.75 117" /><path d="M161.917 127 A5.63786 5.63786 0 0 0 161.55 129" /><path id= "215" d=" M 160.75 122 L 161.95 122 " />
<path id= "216" d=" M 161.55 132 L 161.55 129 " />
<path id= "217" d=" M 160.75 132 L 160.75 122 " />
<path id= "218" d=" M 161.55 132 L 160.75 132 " />
<path id= "219" d=" M 161.55 -102 L 161.55 -105 " />
<path id= "220" d=" M 161.55 -102 L 160.75 -102 " />
<path d="M161.917 -107 A5.63786 5.63786 0 0 0 161.55 -105" /><path id= "222" d=" M 160.75 -102 L 160.75 -112 " />
<path d="M161.917 -107 A28.1894 28.1894 0 0 0 163.75 -117" /><path id= "224" d=" M 160.75 -112 L 161.95 -112 " />
<path d="M163.75 -117 A28.1894 28.1894 0 0 0 161.917 -127" /><path d="M161.95 -112 A16.025 16.025 0 0 0 162.75 -117" /><path d="M161.55 -129 A5.63786 5.63786 0 0 0 161.917 -127" /><path d="M162.75 -117 A16.025 16.025 0 0 0 161.95 -122" /><path id= "229" d=" M 161.55 -132 L 161.55 -129 " />
<path id= "230" d=" M 160.75 -122 L 161.95 -122 " />
<path id= "231" d=" M 161.55 -132 L 160.75 -132 " />
<path id= "232" d=" M 160.75 -132 L 160.75 -122 " />
<path id= "233" d=" M -14.25 -112 L -15.45 -112 " />
<path id= "234" d=" M -14.25 -102 L -14.25 -112 " />
<path d="M-16.25 -117 A16.025 16.025 0 0 0 -15.45 -112" /><path id= "236" d=" M -15.05 -102 L -14.25 -102 " />
<path d="M-15.45 -122 A16.025 16.025 0 0 0 -16.25 -117" /><path id= "238" d=" M -15.05 -102 L -15.05 -105 " />
<path id= "239" d=" M -14.25 -122 L -15.45 -122 " />
<path d="M-15.05 -105 A5.63786 5.63786 0 0 0 -15.4167 -107" /><path id= "241" d=" M -14.25 -132 L -14.25 -122 " />
<path d="M-17.25 -117 A28.1894 28.1894 0 0 0 -15.4167 -107" /><path id= "243" d=" M -15.05 -132 L -14.25 -132 " />
<path d="M-15.4167 -127 A28.1894 28.1894 0 0 0 -17.25 -117" /><path id= "245" d=" M -15.05 -132 L -15.05 -129 " />
<path d="M-15.4167 -127 A5.63786 5.63786 0 0 0 -15.05 -129" /><path d="M-132.65 -122 A16.025 16.025 0 0 0 -133.45 -117" /><path id= "248" d=" M -131.45 -122 L -132.65 -122 " />
<path d="M-133.45 -117 A16.025 16.025 0 0 0 -132.65 -112" /><path id= "250" d=" M -131.45 -132 L -131.45 -122 " />
<path id= "251" d=" M -131.45 -112 L -132.65 -112 " />
<path id= "252" d=" M -132.25 -132 L -131.45 -132 " />
<path id= "253" d=" M -131.45 -102 L -131.45 -112 " />
<path id= "254" d=" M -132.25 -132 L -132.25 -129 " />
<path id= "255" d=" M -132.25 -102 L -131.45 -102 " />
<path d="M-132.617 -127 A5.63786 5.63786 0 0 0 -132.25 -129" /><path id= "257" d=" M -132.25 -102 L -132.25 -105 " />
<path d="M-132.617 -127 A28.1894 28.1894 0 0 0 -134.45 -117" /><path d="M-132.25 -105 A5.63786 5.63786 0 0 0 -132.617 -107" /><path d="M-134.45 -117 A28.1894 28.1894 0 0 0 -132.617 -107" /><path d="M-103.35 -122 A16.025 16.025 0 0 0 -104.15 -117" /><path id= "262" d=" M -102.15 -122 L -103.35 -122 " />
<path d="M-104.15 -117 A16.025 16.025 0 0 0 -103.35 -112" /><path id= "264" d=" M -102.15 -132 L -102.15 -122 " />
<path id= "265" d=" M -102.15 -112 L -103.35 -112 " />
<path id= "266" d=" M -102.95 -132 L -102.15 -132 " />
<path id= "267" d=" M -102.15 -102 L -102.15 -112 " />
<path id= "268" d=" M -102.95 -132 L -102.95 -129 " />
<path id= "269" d=" M -102.95 -102 L -102.15 -102 " />
<path d="M-103.317 -127 A5.63786 5.63786 0 0 0 -102.95 -129" /><path id= "271" d=" M -102.95 -102 L -102.95 -105 " />
<path d="M-103.317 -127 A28.1894 28.1894 0 0 0 -105.15 -117" /><path d="M-102.95 -105 A5.63786 5.63786 0 0 0 -103.317 -107" /><path d="M-105.15 -117 A28.1894 28.1894 0 0 0 -103.317 -107" /><path d="M74.05 -112 A16.025 16.025 0 0 0 74.85 -117" /><path id= "276" d=" M 72.85 -112 L 74.05 -112 " />
<path d="M74.85 -117 A16.025 16.025 0 0 0 74.05 -122" /><path id= "278" d=" M 72.85 -102 L 72.85 -112 " />
<path id= "279" d=" M 72.85 -122 L 74.05 -122 " />
<path id= "280" d=" M 73.65 -102 L 72.85 -102 " />
<path id= "281" d=" M 72.85 -132 L 72.85 -122 " />
<path id= "282" d=" M 73.65 -102 L 73.65 -105 " />
<path id= "283" d=" M 73.65 -132 L 72.85 -132 " />
<path d="M74.0167 -107 A5.63786 5.63786 0 0 0 73.65 -105" /><path id= "285" d=" M 73.65 -132 L 73.65 -129 " />
<path d="M74.0167 -107 A28.1894 28.1894 0 0 0 75.85 -117" /><path d="M73.65 -129 A5.63786 5.63786 0 0 0 74.0167 -127" /><path d="M75.85 -117 A28.1894 28.1894 0 0 0 74.0167 -127" /><path id= "289" d=" M 43.55 102 L 43.55 112 " />
<path id= "290" d=" M 44.35 102 L 43.55 102 " />
<path id= "291" d=" M 43.55 112 L 44.75 112 " />
<path id= "292" d=" M 44.35 102 L 44.35 105 " />
<path d="M45.55 117 A16.025 16.025 0 0 0 44.75 112" /><path d="M44.35 105 A5.63786 5.63786 0 0 0 44.7167 107" /><path d="M44.75 122 A16.025 16.025 0 0 0 45.55 117" /><path d="M46.55 117 A28.1894 28.1894 0 0 0 44.7167 107" /><path id= "297" d=" M 43.55 122 L 44.75 122 " />
<path d="M44.7167 127 A28.1894 28.1894 0 0 0 46.55 117" /><path id= "299" d=" M 43.55 132 L 43.55 122 " />
<path d="M44.7167 127 A5.63786 5.63786 0 0 0 44.35 129" /><path id= "301" d=" M 44.35 132 L 43.55 132 " />
<path id= "302" d=" M 44.35 132 L 44.35 129 " />
<path id= "303" d=" M 131.45 -122 L 132.65 -122 " />
<path id= "304" d=" M 131.45 -132 L 131.45 -122 " />
<path d="M133.45 -117 A16.025 16.025 0 0 0 132.65 -122" /><path id= "306" d=" M 132.25 -132 L 131.45 -132 " />
<path d="M132.65 -112 A16.025 16.025 0 0 0 133.45 -117" /><path id= "308" d=" M 132.25 -132 L 132.25 -129 " />
<path id= "309" d=" M 131.45 -112 L 132.65 -112 " />
<path d="M132.25 -129 A5.63786 5.63786 0 0 0 132.617 -127" /><path id= "311" d=" M 131.45 -102 L 131.45 -112 " />
<path d="M134.45 -117 A28.1894 28.1894 0 0 0 132.617 -127" /><path id= "313" d=" M 132.25 -102 L 131.45 -102 " />
<path d="M132.617 -107 A28.1894 28.1894 0 0 0 134.45 -117" /><path id= "315" d=" M 132.25 -102 L 132.25 -105 " />
<path d="M132.617 -107 A5.63786 5.63786 0 0 0 132.25 -105" /><path id= "317" d=" M -102.95 102 L -102.95 105 " />
<path id= "318" d=" M -102.95 102 L -102.15 102 " />
<path d="M-103.317 107 A5.63786 5.63786 0 0 0 -102.95 105" /><path id= "320" d=" M -102.15 102 L -102.15 112 " />
<path d="M-103.317 107 A28.1894 28.1894 0 0 0 -105.15 117" /><path id= "322" d=" M -102.15 112 L -103.35 112 " />
<path d="M-105.15 117 A28.1894 28.1894 0 0 0 -103.317 127" /><path d="M-103.35 112 A16.025 16.025 0 0 0 -104.15 117" /><path d="M-102.95 129 A5.63786 5.63786 0 0 0 -103.317 127" /><path d="M-104.15 117 A16.025 16.025 0 0 0 -103.35 122" /><path id= "327" d=" M -102.95 132 L -102.95 129 " />
<path id= "328" d=" M -102.15 122 L -103.35 122 " />
<path id= "329" d=" M -102.95 132 L -102.15 132 " />
<path id= "330" d=" M -102.15 132 L -102.15 122 " />
<path id= "331" d=" M -44.35 -102 L -43.55 -102 " />
<path id= "332" d=" M -44.35 -102 L -44.35 -105 " />
<path id= "333" d=" M -43.55 -102 L -43.55 -112 " />
<path d="M-44.35 -105 A5.63786 5.63786 0 0 0 -44.7167 -107" /><path id= "335" d=" M -43.55 -112 L -44.75 -112 " />
<path d="M-46.55 -117 A28.1894 28.1894 0 0 0 -44.7167 -107" /><path d="M-45.55 -117 A16.025 16.025 0 0 0 -44.75 -112" /><path d="M-44.7167 -127 A28.1894 28.1894 0 0 0 -46.55 -117" /><path d="M-44.75 -122 A16.025 16.025 0 0 0 -45.55 -117" /><path d="M-44.7167 -127 A5.63786 5.63786 0 0 0 -44.35 -129" /><path id= "341" d=" M -43.55 -122 L -44.75 -122 " />
<path id= "342" d=" M -44.35 -132 L -44.35 -129 " />
<path id= "343" d=" M -43.55 -132 L -43.55 -122 " />
<path id= "344" d=" M -44.35 -132 L -43.55 -132 " />
<path d="M-44.75 112 A16.025 16.025 0 0 0 -45.55 117" /><path id= "346" d=" M -43.55 112 L -44.75 112 " />
<path d="M-45.55 117 A16.025 16.025 0 0 0 -44.75 122" /><path id= "348" d=" M -43.55 102 L -43.55 112 " />
<path id= "349" d=" M -43.55 122 L -44.75 122 " />
<path id= "350" d=" M -44.35 102 L -43.55 102 " />
<path id= "351" d=" M -43.55 132 L -43.55 122 " />
<path id= "352" d=" M -44.35 102 L -44.35 105 " />
<path id= "353" d=" M -44.35 132 L -43.55 132 " />
<path d="M-44.7167 107 A5.63786 5.63786 0 0 0 -44.35 105" /><path id= "355" d=" M -44.35 132 L -44.35 129 " />
<path d="M-44.7167 107 A28.1894 28.1894 0 0 0 -46.55 117" /><path d="M-44.35 129 A5.63786 5.63786 0 0 0 -44.7167 127" /><path d="M-46.55 117 A28.1894 28.1894 0 0 0 -44.7167 127" /><path d="M-75.85 -117 A28.1894 28.1894 0 0 0 -74.0167 -107" /><path d="M-74.0167 -127 A28.1894 28.1894 0 0 0 -75.85 -117" /><path d="M-73.65 -105 A5.63786 5.63786 0 0 0 -74.0167 -107" /><path d="M-74.0167 -127 A5.63786 5.63786 0 0 0 -73.65 -129" /><path id= "363" d=" M -73.65 -102 L -73.65 -105 " />
<path id= "364" d=" M -73.65 -132 L -73.65 -129 " />
<path id= "365" d=" M -73.65 -102 L -72.85 -102 " />
<path id= "366" d=" M -73.65 -132 L -72.85 -132 " />
<path id= "367" d=" M -72.85 -102 L -72.85 -112 " />
<path id= "368" d=" M -72.85 -132 L -72.85 -122 " />
<path id= "369" d=" M -72.85 -112 L -74.05 -112 " />
<path id= "370" d=" M -72.85 -122 L -74.05 -122 " />
<path d="M-74.85 -117 A16.025 16.025 0 0 0 -74.05 -112" /><path d="M-74.05 -122 A16.025 16.025 0 0 0 -74.85 -117" /><path id= "373" d=" M -132.25 132 L -131.45 132 " />
<path id= "374" d=" M -132.25 132 L -132.25 129 " />
<path id= "375" d=" M -131.45 132 L -131.45 122 " />
<path d="M-132.25 129 A5.63786 5.63786 0 0 0 -132.617 127" /><path id= "377" d=" M -131.45 122 L -132.65 122 " />
<path d="M-134.45 117 A28.1894 28.1894 0 0 0 -132.617 127" /><path d="M-133.45 117 A16.025 16.025 0 0 0 -132.65 122" /><path d="M-132.617 107 A28.1894 28.1894 0 0 0 -134.45 117" /><path d="M-132.65 112 A16.025 16.025 0 0 0 -133.45 117" /><path d="M-132.617 107 A5.63786 5.63786 0 0 0 -132.25 105" /><path id= "383" d=" M -131.45 112 L -132.65 112 " />
<path id= "384" d=" M -132.25 102 L -132.25 105 " />
<path id= "385" d=" M -131.45 102 L -131.45 112 " />
<path id= "386" d=" M -132.25 102 L -131.45 102 " />
<path id= "387" d=" M -72.85 132 L -72.85 122 " />
<path id= "388" d=" M -73.65 132 L -72.85 132 " />
<path id= "389" d=" M -72.85 122 L -74.05 122 " />
<path id= "390" d=" M -73.65 132 L -73.65 129 " />
<path d="M-74.85 117 A16.025 16.025 0 0 0 -74.05 122" /><path d="M-73.65 129 A5.63786 5.63786 0 0 0 -74.0167 127" /><path d="M-74.05 112 A16.025 16.025 0 0 0 -74.85 117" /><path d="M-75.85 117 A28.1894 28.1894 0 0 0 -74.0167 127" /><path id= "395" d=" M -72.85 112 L -74.05 112 " />
<path d="M-74.0167 107 A28.1894 28.1894 0 0 0 -75.85 117" /><path id= "397" d=" M -72.85 102 L -72.85 112 " />
<path d="M-74.0167 107 A5.63786 5.63786 0 0 0 -73.65 105" /><path id= "399" d=" M -73.65 102 L -72.85 102 " />
<path id= "400" d=" M -73.65 102 L -73.65 105 " />
<path id= "401" d=" M 73.65 132 L 73.65 129 " />
<path id= "402" d=" M 73.65 132 L 72.85 132 " />
<path d="M74.0167 127 A5.63786 5.63786 0 0 0 73.65 129" /><path id= "404" d=" M 72.85 132 L 72.85 122 " />
<path d="M74.0167 127 A28.1894 28.1894 0 0 0 75.85 117" /><path id= "406" d=" M 72.85 122 L 74.05 122 " />
<path d="M75.85 117 A28.1894 28.1894 0 0 0 74.0167 107" /><path d="M74.05 122 A16.025 16.025 0 0 0 74.85 117" /><path d="M73.65 105 A5.63786 5.63786 0 0 0 74.0167 107" /><path d="M74.85 117 A16.025 16.025 0 0 0 74.05 112" /><path id= "411" d=" M 73.65 102 L 73.65 105 " />
<path id= "412" d=" M 72.85 112 L 74.05 112 " />
<path id= "413" d=" M 73.65 102 L 72.85 102 " />
<path id= "414" d=" M 72.85 102 L 72.85 112 " />
<path d="M44.75 -112 A16.025 16.025 0 0 0 45.55 -117" /><path id= "416" d=" M 43.55 -112 L 44.75 -112 " />
<path d="M45.55 -117 A16.025 16.025 0 0 0 44.75 -122" /><path id= "418" d=" M 43.55 -102 L 43.55 -112 " />
<path id= "419" d=" M 43.55 -122 L 44.75 -122 " />
<path id= "420" d=" M 44.35 -102 L 43.55 -102 " />
<path id= "421" d=" M 43.55 -132 L 43.55 -122 " />
<path id= "422" d=" M 44.35 -102 L 44.35 -105 " />
<path id= "423" d=" M 44.35 -132 L 43.55 -132 " />
<path d="M44.7167 -107 A5.63786 5.63786 0 0 0 44.35 -105" /><path id= "425" d=" M 44.35 -132 L 44.35 -129 " />
<path d="M44.7167 -107 A28.1894 28.1894 0 0 0 46.55 -117" /><path d="M44.35 -129 A5.63786 5.63786 0 0 0 44.7167 -127" /><path d="M46.55 -117 A28.1894 28.1894 0 0 0 44.7167 -127" /><path id= "429" d=" M 15.05 -102 L 14.25 -102 " />
<path id= "430" d=" M 15.05 -102 L 15.05 -105 " />
<path id= "431" d=" M 14.25 -102 L 14.25 -112 " />
<path d="M15.4167 -107 A5.63786 5.63786 0 0 0 15.05 -105" /><path id= "433" d=" M 14.25 -112 L 15.45 -112 " />
<path d="M15.4167 -107 A28.1894 28.1894 0 0 0 17.25 -117" /><path d="M15.45 -112 A16.025 16.025 0 0 0 16.25 -117" /><path d="M17.25 -117 A28.1894 28.1894 0 0 0 15.4167 -127" /><path d="M16.25 -117 A16.025 16.025 0 0 0 15.45 -122" /><path d="M15.05 -129 A5.63786 5.63786 0 0 0 15.4167 -127" /><path id= "439" d=" M 14.25 -122 L 15.45 -122 " />
<path id= "440" d=" M 15.05 -132 L 15.05 -129 " />
<path id= "441" d=" M 14.25 -132 L 14.25 -122 " />
<path id= "442" d=" M 15.05 -132 L 14.25 -132 " />
<path d="M103.317 -107 A28.1894 28.1894 0 0 0 105.15 -117" /><path d="M103.317 -107 A5.63786 5.63786 0 0 0 102.95 -105" /><path d="M105.15 -117 A28.1894 28.1894 0 0 0 103.317 -127" /><path id= "446" d=" M 102.95 -102 L 102.95 -105 " />
<path d="M102.95 -129 A5.63786 5.63786 0 0 0 103.317 -127" /><path id= "448" d=" M 102.95 -102 L 102.15 -102 " />
<path id= "449" d=" M 102.95 -132 L 102.95 -129 " />
<path id= "450" d=" M 102.15 -102 L 102.15 -112 " />
<path id= "451" d=" M 102.95 -132 L 102.15 -132 " />
<path id= "452" d=" M 102.15 -112 L 103.35 -112 " />
<path id= "453" d=" M 102.15 -132 L 102.15 -122 " />
<path d="M103.35 -112 A16.025 16.025 0 0 0 104.15 -117" /><path id= "455" d=" M 102.15 -122 L 103.35 -122 " />
<path d="M104.15 -117 A16.025 16.025 0 0 0 103.35 -122" /><path id= "457" d=" M 131.45 102 L 131.45 112 " />
<path id= "458" d=" M 132.25 102 L 131.45 102 " />
<path id= "459" d=" M 131.45 112 L 132.65 112 " />
<path id= "460" d=" M 132.25 102 L 132.25 105 " />
<path d="M133.45 117 A16.025 16.025 0 0 0 132.65 112" /><path d="M132.25 105 A5.63786 5.63786 0 0 0 132.617 107" /><path d="M132.65 122 A16.025 16.025 0 0 0 133.45 117" /><path d="M134.45 117 A28.1894 28.1894 0 0 0 132.617 107" /><path id= "465" d=" M 131.45 122 L 132.65 122 " />
<path d="M132.617 127 A28.1894 28.1894 0 0 0 134.45 117" /><path id= "467" d=" M 131.45 132 L 131.45 122 " />
<path d="M132.617 127 A5.63786 5.63786 0 0 0 132.25 129" /><path id= "469" d=" M 132.25 132 L 131.45 132 " />
<path id= "470" d=" M 132.25 132 L 132.25 129 " />
<path id= "471" d=" M -15.05 132 L -15.05 129 " />
<path id= "472" d=" M -15.05 132 L -14.25 132 " />
<path d="M-15.05 129 A5.63786 5.63786 0 0 0 -15.4167 127" /><path id= "474" d=" M -14.25 132 L -14.25 122 " />
<path d="M-17.25 117 A28.1894 28.1894 0 0 0 -15.4167 127" /><path id= "476" d=" M -14.25 122 L -15.45 122 " />
<path d="M-15.4167 107 A28.1894 28.1894 0 0 0 -17.25 117" /><path d="M-16.25 117 A16.025 16.025 0 0 0 -15.45 122" /><path d="M-15.4167 107 A5.63786 5.63786 0 0 0 -15.05 105" /><path d="M-15.45 112 A16.025 16.025 0 0 0 -16.25 117" /><path id= "481" d=" M -15.05 102 L -15.05 105 " />
<path id= "482" d=" M -14.25 112 L -15.45 112 " />
<path id= "483" d=" M -15.05 102 L -14.25 102 " />
<path id= "484" d=" M -14.25 102 L -14.25 112 " />
<path id= "485" d=" M -161.55 132 L -160.75 132 " />
<path id= "486" d=" M -161.55 132 L -161.55 129 " />
<path id= "487" d=" M -160.75 132 L -160.75 122 " />
<path d="M-161.55 129 A5.63786 5.63786 0 0 0 -161.917 127" /><path id= "489" d=" M -160.75 122 L -161.95 122 " />
<path d="M-163.75 117 A28.1894 28.1894 0 0 0 -161.917 127" /><path d="M-162.75 117 A16.025 16.025 0 0 0 -161.95 122" /><path d="M-161.917 107 A28.1894 28.1894 0 0 0 -163.75 117" /><path d="M-161.95 112 A16.025 16.025 0 0 0 -162.75 117" /><path d="M-161.917 107 A5.63786 5.63786 0 0 0 -161.55 105" /><path id= "495" d=" M -160.75 112 L -161.95 112 " />
<path id= "496" d=" M -161.55 102 L -161.55 105 " />
<path id= "497" d=" M -160.75 102 L -160.75 112 " />
<path id= "498" d=" M -161.55 102 L -160.75 102 " />
<path id= "499" d=" M -161.55 -132 L -161.55 -129 " />
<path id= "500" d=" M -161.55 -132 L -160.75 -132 " />
<path d="M-161.917 -127 A5.63786 5.63786 0 0 0 -161.55 -129" /><path id= "502" d=" M -160.75 -132 L -160.75 -122 " />
<path d="M-161.917 -127 A28.1894 28.1894 0 0 0 -163.75 -117" /><path id= "504" d=" M -160.75 -122 L -161.95 -122 " />
<path d="M-163.75 -117 A28.1894 28.1894 0 0 0 -161.917 -107" /><path d="M-161.95 -122 A16.025 16.025 0 0 0 -162.75 -117" /><path d="M-161.55 -105 A5.63786 5.63786 0 0 0 -161.917 -107" /><path d="M-162.75 -117 A16.025 16.025 0 0 0 -161.95 -112" /><path id= "509" d=" M -161.55 -102 L -161.55 -105 " />
<path id= "510" d=" M -160.75 -112 L -161.95 -112 " />
<path id= "511" d=" M -161.55 -102 L -160.75 -102 " />
<path id= "512" d=" M -160.75 -102 L -160.75 -112 " />
<path id= "513" d=" M 88 181.9 L 88 180.7 " />
<path id= "514" d=" M 98 181.9 L 88 181.9 " />
<path d="M88 180.7 A16.025 16.025 0 0 0 83 179.9" /><path id= "516" d=" M 98 181.9 L 98 181.1 " />
<path d="M83 179.9 A16.025 16.025 0 0 0 78 180.7" /><path id= "518" d=" M 98 181.1 L 95 181.1 " />
<path id= "519" d=" M 78 181.9 L 78 180.7 " />
<path d="M93 180.733 A5.63782 5.63782 0 0 0 95 181.1" /><path id= "521" d=" M 68 181.9 L 78 181.9 " />
<path d="M93 180.733 A28.1894 28.1894 0 0 0 83 178.9" /><path id= "523" d=" M 68 181.9 L 68 181.1 " />
<path d="M83 178.9 A28.1894 28.1894 0 0 0 73 180.733" /><path id= "525" d=" M 68 181.1 L 71 181.1 " />
<path d="M71 181.1 A5.63782 5.63782 0 0 0 73 180.733" /><path id= "527" d=" M -98 181.1 L -95 181.1 " />
<path id= "528" d=" M -98 181.9 L -98 181.1 " />
<path d="M-95 181.1 A5.63782 5.63782 0 0 0 -93 180.733" /><path id= "530" d=" M -98 181.9 L -88 181.9 " />
<path d="M-83 178.9 A28.1894 28.1894 0 0 0 -93 180.733" /><path id= "532" d=" M -88 181.9 L -88 180.7 " />
<path d="M-73 180.733 A28.1894 28.1894 0 0 0 -83 178.9" /><path d="M-83 179.9 A16.025 16.025 0 0 0 -88 180.7" /><path d="M-73 180.733 A5.63782 5.63782 0 0 0 -71 181.1" /><path d="M-78 180.7 A16.025 16.025 0 0 0 -83 179.9" /><path id= "537" d=" M -68 181.1 L -71 181.1 " />
<path id= "538" d=" M -78 181.9 L -78 180.7 " />
<path id= "539" d=" M -68 181.9 L -68 181.1 " />
<path id= "540" d=" M -68 181.9 L -78 181.9 " />
<path id= "541" d=" M -68 201.1 L -71 201.1 " />
<path id= "542" d=" M -68 201.9 L -68 201.1 " />
<path d="M-73 200.733 A5.63782 5.63782 0 0 0 -71 201.1" /><path id= "544" d=" M -68 201.9 L -78 201.9 " />
<path d="M-73 200.733 A28.1894 28.1894 0 0 0 -83 198.9" /><path id= "546" d=" M -78 201.9 L -78 200.7 " />
<path d="M-83 198.9 A28.1894 28.1894 0 0 0 -93 200.733" /><path d="M-78 200.7 A16.025 16.025 0 0 0 -83 199.9" /><path d="M-95 201.1 A5.63782 5.63782 0 0 0 -93 200.733" /><path d="M-83 199.9 A16.025 16.025 0 0 0 -88 200.7" /><path id= "551" d=" M -98 201.1 L -95 201.1 " />
<path id= "552" d=" M -88 201.9 L -88 200.7 " />
<path id= "553" d=" M -98 201.9 L -98 201.1 " />
<path id= "554" d=" M -98 201.9 L -88 201.9 " />
<path d="M93 200.733 A28.1894 28.1894 0 0 0 83 198.9" /><path d="M93 200.733 A5.63782 5.63782 0 0 0 95 201.1" /><path d="M83 198.9 A28.1894 28.1894 0 0 0 73 200.733" /><path id= "558" d=" M 98 201.1 L 95 201.1 " />
<path d="M71 201.1 A5.63782 5.63782 0 0 0 73 200.733" /><path id= "560" d=" M 98 201.9 L 98 201.1 " />
<path id= "561" d=" M 68 201.1 L 71 201.1 " />
<path id= "562" d=" M 98 201.9 L 88 201.9 " />
<path id= "563" d=" M 68 201.9 L 68 201.1 " />
<path id= "564" d=" M 88 201.9 L 88 200.7 " />
<path id= "565" d=" M 68 201.9 L 78 201.9 " />
<path d="M88 200.7 A16.025 16.025 0 0 0 83 199.9" /><path id= "567" d=" M 78 201.9 L 78 200.7 " />
<path d="M83 199.9 A16.025 16.025 0 0 0 78 200.7" /><circle cx ="247" cy ="230" r ="1.5" /><circle cx ="247" cy ="-230" r ="1.5" /><circle cx ="-247" cy ="-230" r ="1.5" /><circle cx ="247" cy ="0" r ="1.5" /><circle cx ="-247" cy ="0" r ="1.5" /><circle cx ="-247" cy ="230" r ="1.5" /><path d="M46 234.737 A0.6 0.6 0 1 1 46 233.537" /><path id= "576" d=" M -10 240.237 L -10 244.237 " />
<path id= "577" d=" M 50 240.237 L 50 244.237 " />
<path id= "578" d=" M 50 240.237 L 50 236.237 " />
<path id= "579" d=" M -10 240.237 L -10 236.237 " />
<path d="M-6 234.737 A0.6 0.6 0 1 0 -6 233.537" /><path d="M46 245.737 A0.6 0.6 0 1 0 46 246.937" /><path d="M-6 245.737 A0.6 0.6 0 1 1 -6 246.937" /><path d="M-98.35 192 A0.6 0.6 0 0 1 -99.55 192" /><path id= "584" d=" M 0 144.5 L 0 147.5 " />
<path id= "585" d=" M 0 152.5 L 0 155.5 " />
<path id= "586" d=" M 0 144.5 L 0 147.5 " />
<path d="M-150 153.5 A2 2 0 0 0 -148 155.5" /><path id= "588" d=" M 0 152.5 L 0 155.5 " />
<path id= "589" d=" M 45 230 L 45 180 " />
<path id= "590" d=" M -45 180 L -45 230 " />
<path id= "591" d=" M 48 233.537 L 46 233.537 " />
<path d="M48 233.537 A0.6 0.6 0 1 1 48 234.737" /><path d="M46 234.737 A0.6 0.6 0 1 1 46 233.537" /><path id= "594" d=" M 48 234.737 L 46 234.737 " />
<path id= "595" d=" M 20 240.237 L -10 240.237 " />
<path id= "596" d=" M -10 240.237 L -10 244.237 " />
<path id= "597" d=" M -10 244.237 L 20 244.237 " />
<path id= "598" d=" M 20 244.237 L 20 240.237 " />
<path id= "599" d=" M 20 244.237 L 20 240.237 " />
<path id= "600" d=" M 50 244.237 L 20 244.237 " />
<path id= "601" d=" M 50 240.237 L 50 244.237 " />
<path id= "602" d=" M 50 240.237 L 50 236.237 " />
<path id= "603" d=" M 50 236.237 L 20 236.237 " />
<path id= "604" d=" M -10 236.237 L 20 236.237 " />
<path id= "605" d=" M -10 240.237 L -10 236.237 " />
<path id= "606" d=" M 20 240.237 L -10 240.237 " />
<path id= "607" d=" M -8 234.737 L -6 234.737 " />
<path d="M-8 233.537 A0.6 0.6 0 1 0 -8 234.737" /><path d="M-6 234.737 A0.6 0.6 0 1 0 -6 233.537" /><path id= "610" d=" M -8 233.537 L -6 233.537 " />
<path d="M48 246.937 A0.6 0.6 0 1 0 48 245.737" /><path id= "612" d=" M 48 246.937 L 46 246.937 " />
<path id= "613" d=" M 48 245.737 L 46 245.737 " />
<path d="M46 245.737 A0.6 0.6 0 1 0 46 246.937" /><path id= "615" d=" M -8 246.937 L -6 246.937 " />
<path d="M-8 246.937 A0.6 0.6 0 1 1 -8 245.737" /><path d="M-6 245.737 A0.6 0.6 0 1 1 -6 246.937" /><path id= "618" d=" M -8 245.737 L -6 245.737 " />
<path id= "619" d=" M -98.35 192 L -98.35 190 " />
<path d="M-99.55 190 A0.6 0.6 0 0 1 -98.35 190" /><path id= "621" d=" M -99.55 192 L -99.55 190 " />
<path d="M-98.35 192 A0.6 0.6 0 0 1 -99.55 192" /><path id= "623" d=" M -106.75 192 L -106.75 190 " />
<path d="M-105.55 192 A0.6 0.6 0 0 1 -106.75 192" /><path id= "625" d=" M -105.55 192 L -105.55 190 " />
<path d="M-106.75 190 A0.6 0.6 0 0 1 -105.55 190" /><path id= "627" d=" M 0 -144.5 L 0 -155.5 " />
<path id= "628" d=" M -148.95 -155.25 L -148.95 -152.75 " />
<path id= "629" d=" M -141.45 -155.25 L -148.95 -155.25 " />
<path id= "630" d=" M -141.45 -152.75 L -141.45 -155.25 " />
<path id= "631" d=" M -148.95 -152.75 L -141.45 -152.75 " />
<path id= "632" d=" M 3.75 147.5 L 0 147.5 " />
<path id= "633" d=" M 3.75 152.5 L 3.75 147.5 " />
<path id= "634" d=" M 0 152.5 L 3.75 152.5 " />
<path id= "635" d=" M -3.75 152.5 L 0 152.5 " />
<path id= "636" d=" M -3.75 147.5 L -3.75 152.5 " />
<path id= "637" d=" M 0 147.5 L -3.75 147.5 " />
<circle cx ="-131.85" cy ="150" r ="1" /><path id= "639" d=" M -99 145 L -109 145 " />
<path id= "640" d=" M -109 145 L -109 155 " />
<path id= "641" d=" M -109 155 L -99 155 " />
<path id= "642" d=" M -99 155 L -99 145 " />
<path id= "643" d=" M 20 240.237 L 50 240.237 " />
<path id= "644" d=" M 20 236.237 L 20 240.237 " />
<circle cx ="-43.95" cy ="-150" r ="1" /><circle cx ="-131.85" cy ="-150" r ="1" /><circle cx ="43.95" cy ="-150" r ="1" /><circle cx ="131.85" cy ="-150" r ="1" /><circle cx ="43.95" cy ="150" r ="1" /><circle cx ="131.85" cy ="150" r ="1" /><circle cx ="-43.95" cy ="150" r ="1" /><circle cx ="-131.85" cy ="150" r ="1" /><circle cx ="47.5" cy ="227.5" r ="1" /><circle cx ="47.5" cy ="182.5" r ="1" /><circle cx ="-47.5" cy ="227.5" r ="1" /><circle cx ="-47.5" cy ="182.5" r ="1" /></g>
</g>



</svg>

