<?xml version="1.0" encoding="UTF-8" standalone="no"?>
<!-- Created with Inkscape (http://www.inkscape.org/) -->

<svg
   xmlns:dc="http://purl.org/dc/elements/1.1/"
   xmlns:cc="http://creativecommons.org/ns#"
   xmlns:rdf="http://www.w3.org/1999/02/22-rdf-syntax-ns#"
   xmlns:svg="http://www.w3.org/2000/svg"
   xmlns="http://www.w3.org/2000/svg"
   xmlns:sodipodi="http://sodipodi.sourceforge.net/DTD/sodipodi-0.dtd"
   xmlns:inkscape="http://www.inkscape.org/namespaces/inkscape"
   width="600mm"
   height="600mm"
   viewBox="0 0 600 600"
   id="svg2"
   version="1.1"
   inkscape:version="0.48.4 r9939"
   sodipodi:docname="template.svg">
  <defs
     id="defs4" />
  <sodipodi:namedview
     id="base"
     pagecolor="#ffffff"
     bordercolor="#666666"
     borderopacity="1.0"
     inkscape:pageopacity="0.0"
     inkscape:pageshadow="2"
     inkscape:zoom="0.35"
     inkscape:cx="45"
     inkscape:cy="520"
     inkscape:document-units="mm"
     inkscape:current-layer="layer1"
     showgrid="false"
     units="mm"
     inkscape:window-width="1366"
     inkscape:window-height="718"
     inkscape:window-x="0"
     inkscape:window-y="0"
     inkscape:window-maximized="1" />
  <metadata
     id="metadata7">
    <rdf:RDF>
      <cc:Work
         rdf:about="">
        <dc:format>image/svg+xml</dc:format>
        <dc:type
           rdf:resource="http://purl.org/dc/dcmitype/StillImage" />
        <dc:title />
      </cc:Work>
    </rdf:RDF>
  </metadata>
  <g
     inkscape:label="Layer 1"
     inkscape:groupmode="layer"
     id="layer1"
     transform="translate(0,1073.622)" />
<g id="View007"
   transform="rotate(180,300,300) translate(300,300) scale(1,1)"
  >
<g   stroke="rgb(0, 0, 0)"
   stroke-width="0.35"
   stroke-linecap="butt"
   stroke-linejoin="miter"
   fill="none"
   transform="scale(1,-1)"
  >
<path id= "1" d=" M 250 250 L -250 250 " />
<path id= "2" d=" M 250 214.5 L 250 250 " />
<path id= "3" d=" M -250 250 L -250 214.5 " />
<path id= "4" d=" M 250 214.5 L 244 214.5 " />
<path id= "5" d=" M -250 214.5 L -244 214.5 " />
<path id= "6" d=" M 244 214.5 L 244 205.5 " />
<path id= "7" d=" M -244 214.5 L -244 205.5 " />
<path id= "8" d=" M 244 205.5 L 250 205.5 " />
<path id= "9" d=" M -244 205.5 L -250 205.5 " />
<path id= "10" d=" M 250 74.5 L 250 205.5 " />
<path id= "11" d=" M -250 205.5 L -250 74.5 " />
<path id= "12" d=" M 250 74.5 L 244 74.5 " />
<path id= "13" d=" M -250 74.5 L -244 74.5 " />
<path id= "14" d=" M 244 74.5 L 244 65.5 " />
<path id= "15" d=" M -244 74.5 L -244 65.5 " />
<path id= "16" d=" M 244 65.5 L 250 65.5 " />
<path id= "17" d=" M -244 65.5 L -250 65.5 " />
<path id= "18" d=" M 250 -65.5 L 250 65.5 " />
<path id= "19" d=" M -250 65.5 L -250 -65.5 " />
<path id= "20" d=" M 250 -65.5 L 244 -65.5 " />
<path id= "21" d=" M -250 -65.5 L -244 -65.5 " />
<path id= "22" d=" M 244 -65.5 L 244 -74.5 " />
<path id= "23" d=" M -244 -65.5 L -244 -74.5 " />
<path id= "24" d=" M 244 -74.5 L 250 -74.5 " />
<path id= "25" d=" M -244 -74.5 L -250 -74.5 " />
<path id= "26" d=" M 250 -205.5 L 250 -74.5 " />
<path id= "27" d=" M -250 -74.5 L -250 -205.5 " />
<path id= "28" d=" M 250 -205.5 L 244 -205.5 " />
<path id= "29" d=" M -250 -205.5 L -244 -205.5 " />
<path id= "30" d=" M 244 -205.5 L 244 -214.5 " />
<path id= "31" d=" M -244 -205.5 L -244 -214.5 " />
<path id= "32" d=" M 244 -214.5 L 250 -214.5 " />
<path id= "33" d=" M -244 -214.5 L -250 -214.5 " />
<path id= "34" d=" M 250 -250 L 250 -214.5 " />
<path id= "35" d=" M -250 -214.5 L -250 -250 " />
<path id= "36" d=" M -250 -250 L 250 -250 " />
<path id= "37" d=" M 152 -163.499 L 152 -161.999 " />
<path id= "38" d=" M 141 -163.499 L 152 -163.499 " />
<path id= "39" d=" M 141 -161.999 L 141 -163.499 " />
<path id= "40" d=" M 152 163.499 L 152 161.999 " />
<path id= "41" d=" M 141 161.999 L 141 -161.999 " />
<path id= "42" d=" M 141 163.499 L 152 163.499 " />
<path id= "43" d=" M 141 161.999 L 141 163.499 " />
<path id= "44" d=" M 5.5 -163.499 L 5.5 -161.999 " />
<path id= "45" d=" M -5.5 -163.499 L 5.5 -163.499 " />
<path id= "46" d=" M -5.5 -161.999 L -5.5 -163.499 " />
<path id= "47" d=" M 5.5 163.499 L 5.5 161.999 " />
<path id= "48" d=" M -5.5 161.999 L -5.5 -161.999 " />
<path id= "49" d=" M -5.5 163.499 L 5.5 163.499 " />
<path id= "50" d=" M -5.5 161.999 L -5.5 163.499 " />
<path id= "51" d=" M 23.8 161.999 L 23.8 163.499 " />
<path id= "52" d=" M 23.8 161.999 L 23.8 -161.999 " />
<path id= "53" d=" M 23.8 163.499 L 34.8 163.499 " />
<path id= "54" d=" M 23.8 -161.999 L 23.8 -163.499 " />
<path id= "55" d=" M 34.8 163.499 L 34.8 161.999 " />
<path id= "56" d=" M 23.8 -163.499 L 34.8 -163.499 " />
<path id= "57" d=" M 34.8 -163.499 L 34.8 -161.999 " />
<path id= "58" d=" M 53.1 161.999 L 53.1 163.499 " />
<path id= "59" d=" M 53.1 161.999 L 53.1 -161.999 " />
<path id= "60" d=" M 53.1 163.499 L 64.1 163.499 " />
<path id= "61" d=" M 53.1 -161.999 L 53.1 -163.499 " />
<path id= "62" d=" M 64.1 163.499 L 64.1 161.999 " />
<path id= "63" d=" M 53.1 -163.499 L 64.1 -163.499 " />
<path id= "64" d=" M 64.1 -163.499 L 64.1 -161.999 " />
<path id= "65" d=" M 122.7 -163.499 L 122.7 -161.999 " />
<path id= "66" d=" M 122.7 163.499 L 122.7 161.999 " />
<path id= "67" d=" M 111.7 -163.499 L 122.7 -163.499 " />
<path id= "68" d=" M 111.7 163.499 L 122.7 163.499 " />
<path id= "69" d=" M 111.7 -161.999 L 111.7 -163.499 " />
<path id= "70" d=" M 111.7 161.999 L 111.7 163.499 " />
<path id= "71" d=" M 111.7 161.999 L 111.7 -161.999 " />
<path id= "72" d=" M 93.4 -163.499 L 93.4 -161.999 " />
<path id= "73" d=" M 82.4 -163.499 L 93.4 -163.499 " />
<path id= "74" d=" M 82.4 -161.999 L 82.4 -163.499 " />
<path id= "75" d=" M 93.4 163.499 L 93.4 161.999 " />
<path id= "76" d=" M 82.4 161.999 L 82.4 -161.999 " />
<path id= "77" d=" M 82.4 163.499 L 93.4 163.499 " />
<path id= "78" d=" M 82.4 161.999 L 82.4 163.499 " />
<path id= "79" d=" M -141 -163.499 L -141 -161.999 " />
<path id= "80" d=" M -152 -163.499 L -141 -163.499 " />
<path id= "81" d=" M -152 -161.999 L -152 -163.499 " />
<path id= "82" d=" M -141 163.499 L -141 161.999 " />
<path id= "83" d=" M -152 161.999 L -152 -161.999 " />
<path id= "84" d=" M -152 163.499 L -141 163.499 " />
<path id= "85" d=" M -152 161.999 L -152 163.499 " />
<path id= "86" d=" M -111.7 -163.499 L -111.7 -161.999 " />
<path id= "87" d=" M -111.7 163.499 L -111.7 161.999 " />
<path id= "88" d=" M -122.7 -163.499 L -111.7 -163.499 " />
<path id= "89" d=" M -122.7 163.499 L -111.7 163.499 " />
<path id= "90" d=" M -122.7 -161.999 L -122.7 -163.499 " />
<path id= "91" d=" M -122.7 161.999 L -122.7 163.499 " />
<path id= "92" d=" M -122.7 161.999 L -122.7 -161.999 " />
<path id= "93" d=" M -82.4 -163.499 L -82.4 -161.999 " />
<path id= "94" d=" M -93.4 -163.499 L -82.4 -163.499 " />
<path id= "95" d=" M -93.4 -161.999 L -93.4 -163.499 " />
<path id= "96" d=" M -82.4 163.499 L -82.4 161.999 " />
<path id= "97" d=" M -93.4 161.999 L -93.4 -161.999 " />
<path id= "98" d=" M -93.4 163.499 L -82.4 163.499 " />
<path id= "99" d=" M -93.4 161.999 L -93.4 163.499 " />
<path id= "100" d=" M -34.8 161.999 L -34.8 163.499 " />
<path id= "101" d=" M -34.8 161.999 L -34.8 -161.999 " />
<path id= "102" d=" M -34.8 163.499 L -23.8 163.499 " />
<path id= "103" d=" M -34.8 -161.999 L -34.8 -163.499 " />
<path id= "104" d=" M -23.8 163.499 L -23.8 161.999 " />
<path id= "105" d=" M -34.8 -163.499 L -23.8 -163.499 " />
<path id= "106" d=" M -23.8 -163.499 L -23.8 -161.999 " />
<path id= "107" d=" M -53.1 -163.499 L -53.1 -161.999 " />
<path id= "108" d=" M -53.1 163.499 L -53.1 161.999 " />
<path id= "109" d=" M -64.1 -163.499 L -53.1 -163.499 " />
<path id= "110" d=" M -64.1 163.499 L -53.1 163.499 " />
<path id= "111" d=" M -64.1 -161.999 L -64.1 -163.499 " />
<path id= "112" d=" M -64.1 161.999 L -64.1 163.499 " />
<path id= "113" d=" M -64.1 161.999 L -64.1 -161.999 " />
<path id= "114" d=" M 55 196 L 56.5 196 " />
<path id= "115" d=" M 56.5 196 L 56.5 185 " />
<path id= "116" d=" M 45 231 L 45 196 " />
<path id= "117" d=" M 56.5 185 L 55 185 " />
<path id= "118" d=" M 0 231 L 45 231 " />
<path id= "119" d=" M 0 231 L -45 231 " />
<path id= "120" d=" M 45 185 L 45 179 " />
<path id= "121" d=" M -45 231 L -45 196 " />
<path id= "122" d=" M 0 179 L 45 179 " />
<path id= "123" d=" M 0 179 L -45 179 " />
<path id= "124" d=" M -56.5 196 L -55 196 " />
<path id= "125" d=" M -45 185 L -45 179 " />
<path id= "126" d=" M -56.5 185 L -56.5 196 " />
<path id= "127" d=" M -55 185 L -56.5 185 " />
<path id= "128" d=" M 15.05 132 L 15.05 124 " />
<path id= "129" d=" M 15.05 132 L 14.25 132 " />
<path d="M15.4166 122 A5.63791 5.63791 0 0 0 15.05 124" /><path id= "131" d=" M 14.25 132 L 14.25 117 " />
<path d="M15.4166 122 A28.1894 28.1894 0 0 0 17.25 112" /><path id= "133" d=" M 14.25 117 L 15.45 117 " />
<path d="M15.4166 102 A28.1894 28.1894 0 0 1 17.25 112" /><path d="M15.45 117 A16.025 16.025 0 0 0 16.25 112" /><path d="M15.4166 102 A5.63791 5.63791 0 0 1 15.05 100" /><path d="M15.45 107 A16.025 16.025 0 0 1 16.25 112" /><path id= "138" d=" M 15.05 92 L 15.05 100 " />
<path id= "139" d=" M 14.25 107 L 15.45 107 " />
<path id= "140" d=" M 15.05 92 L 14.25 92 " />
<path id= "141" d=" M 14.25 92 L 14.25 107 " />
<path id= "142" d=" M 160.75 107 L 161.95 107 " />
<path id= "143" d=" M 160.75 92 L 160.75 107 " />
<path d="M161.95 107 A16.025 16.025 0 0 1 162.75 112" /><path id= "145" d=" M 161.55 92 L 160.75 92 " />
<path id= "146" d=" M 162.75 112 L 163.75 112 " />
<path id= "147" d=" M 161.55 92 L 161.55 100 " />
<path d="M161.917 102 A28.1894 28.1894 0 0 1 163.75 112" /><path d="M161.917 102 A5.63791 5.63791 0 0 1 161.55 100" /><path d="M132.65 117 A16.025 16.025 0 0 0 133.45 112" /><path id= "151" d=" M 131.45 117 L 132.65 117 " />
<path id= "152" d=" M 133.45 112 L 134.45 112 " />
<path id= "153" d=" M 131.45 132 L 131.45 117 " />
<path d="M132.617 122 A28.1894 28.1894 0 0 0 134.45 112" /><path id= "155" d=" M 132.25 132 L 131.45 132 " />
<path d="M132.617 122 A5.63791 5.63791 0 0 0 132.25 124" /><path id= "157" d=" M 132.25 132 L 132.25 124 " />
<path id= "158" d=" M 43.55 107 L 44.75 107 " />
<path id= "159" d=" M 43.55 92 L 43.55 107 " />
<path d="M44.75 107 A16.025 16.025 0 0 1 45.55 112" /><path id= "161" d=" M 44.35 92 L 43.55 92 " />
<path id= "162" d=" M 45.55 112 L 46.55 112 " />
<path id= "163" d=" M 44.35 92 L 44.35 100 " />
<path d="M44.7166 102 A28.1894 28.1894 0 0 1 46.55 112" /><path d="M44.7166 102 A5.63791 5.63791 0 0 1 44.35 100" /><path id= "166" d=" M 102.95 132 L 102.95 124 " />
<path id= "167" d=" M 102.95 132 L 102.15 132 " />
<path d="M103.317 122 A5.63791 5.63791 0 0 0 102.95 124" /><path id= "169" d=" M 102.15 132 L 102.15 117 " />
<path d="M103.317 122 A28.1894 28.1894 0 0 0 105.15 112" /><path id= "171" d=" M 102.15 117 L 103.35 117 " />
<path id= "172" d=" M 104.15 112 L 105.15 112 " />
<path d="M103.35 117 A16.025 16.025 0 0 0 104.15 112" /><path id= "174" d=" M 102.95 92 L 102.15 92 " />
<path id= "175" d=" M 102.95 92 L 102.95 100 " />
<path id= "176" d=" M 102.15 92 L 102.15 107 " />
<path d="M103.317 102 A5.63791 5.63791 0 0 1 102.95 100" /><path id= "178" d=" M 102.15 107 L 103.35 107 " />
<path d="M103.317 102 A28.1894 28.1894 0 0 1 105.15 112" /><path d="M103.35 107 A16.025 16.025 0 0 1 104.15 112" /><path id= "181" d=" M 104.15 112 L 105.15 112 " />
<path id= "182" d=" M -15.05 92 L -15.05 100 " />
<path id= "183" d=" M -15.05 92 L -14.25 92 " />
<path d="M-15.4166 102 A5.63791 5.63791 0 0 0 -15.05 100" /><path id= "185" d=" M -14.25 92 L -14.25 107 " />
<path d="M-15.4166 102 A28.1894 28.1894 0 0 0 -17.25 112" /><path id= "187" d=" M -14.25 107 L -15.45 107 " />
<path id= "188" d=" M -16.25 112 L -17.25 112 " />
<path d="M-15.45 107 A16.025 16.025 0 0 0 -16.25 112" /><path d="M-74.05 117 A16.025 16.025 0 0 1 -74.85 112" /><path id= "191" d=" M -72.85 117 L -74.05 117 " />
<path id= "192" d=" M -74.85 112 L -75.85 112 " />
<path id= "193" d=" M -72.85 132 L -72.85 117 " />
<path d="M-74.0166 122 A28.1894 28.1894 0 0 1 -75.85 112" /><path id= "195" d=" M -73.65 132 L -72.85 132 " />
<path d="M-74.0166 122 A5.63791 5.63791 0 0 1 -73.65 124" /><path id= "197" d=" M -73.65 132 L -73.65 124 " />
<path id= "198" d=" M 131.45 -92 L 131.45 -107 " />
<path id= "199" d=" M 132.25 -92 L 131.45 -92 " />
<path id= "200" d=" M 131.45 -107 L 132.65 -107 " />
<path id= "201" d=" M 132.25 -92 L 132.25 -100 " />
<path d="M132.65 -107 A16.025 16.025 0 0 0 133.45 -112" /><path d="M132.617 -102 A5.63791 5.63791 0 0 0 132.25 -100" /><path id= "204" d=" M 133.45 -112 L 134.45 -112 " />
<path d="M132.617 -102 A28.1894 28.1894 0 0 0 134.45 -112" /><path id= "206" d=" M -44.35 -92 L -43.55 -92 " />
<path id= "207" d=" M -44.35 -92 L -44.35 -100 " />
<path id= "208" d=" M -43.55 -92 L -43.55 -107 " />
<path d="M-44.7166 -102 A5.63791 5.63791 0 0 1 -44.35 -100" /><path id= "210" d=" M -43.55 -107 L -44.75 -107 " />
<path d="M-44.7166 -102 A28.1894 28.1894 0 0 1 -46.55 -112" /><path d="M-44.75 -107 A16.025 16.025 0 0 1 -45.55 -112" /><path id= "213" d=" M -45.55 -112 L -46.55 -112 " />
<path id= "214" d=" M 73.65 -92 L 73.65 -100 " />
<path id= "215" d=" M 73.65 -92 L 72.85 -92 " />
<path d="M74.0166 -102 A5.63791 5.63791 0 0 0 73.65 -100" /><path id= "217" d=" M 72.85 -92 L 72.85 -107 " />
<path d="M74.0166 -102 A28.1894 28.1894 0 0 0 75.85 -112" /><path id= "219" d=" M 72.85 -107 L 74.05 -107 " />
<path id= "220" d=" M 74.85 -112 L 75.85 -112 " />
<path d="M74.05 -107 A16.025 16.025 0 0 0 74.85 -112" /><path d="M103.317 -102 A28.1894 28.1894 0 0 0 105.15 -112" /><path d="M103.317 -102 A5.63791 5.63791 0 0 0 102.95 -100" /><path id= "224" d=" M 104.15 -112 L 105.15 -112 " />
<path id= "225" d=" M 102.95 -92 L 102.95 -100 " />
<path d="M103.35 -107 A16.025 16.025 0 0 0 104.15 -112" /><path id= "227" d=" M 102.95 -92 L 102.15 -92 " />
<path id= "228" d=" M 102.15 -107 L 103.35 -107 " />
<path id= "229" d=" M 102.15 -92 L 102.15 -107 " />
<path d="M-132.617 -102 A5.63791 5.63791 0 0 1 -132.25 -100" /><path d="M-132.617 -102 A28.1894 28.1894 0 0 1 -134.45 -112" /><path id= "232" d=" M -132.25 -92 L -132.25 -100 " />
<path id= "233" d=" M -133.45 -112 L -134.45 -112 " />
<path id= "234" d=" M -132.25 -92 L -131.45 -92 " />
<path d="M-132.65 -107 A16.025 16.025 0 0 1 -133.45 -112" /><path id= "236" d=" M -131.45 -92 L -131.45 -107 " />
<path id= "237" d=" M -131.45 -107 L -132.65 -107 " />
<path id= "238" d=" M 161.55 -132 L 160.75 -132 " />
<path id= "239" d=" M 161.55 -132 L 161.55 -124 " />
<path id= "240" d=" M 160.75 -132 L 160.75 -117 " />
<path d="M161.917 -122 A5.63791 5.63791 0 0 1 161.55 -124" /><path id= "242" d=" M 160.75 -117 L 161.95 -117 " />
<path d="M161.917 -122 A28.1894 28.1894 0 0 1 163.75 -112" /><path d="M161.95 -117 A16.025 16.025 0 0 1 162.75 -112" /><path id= "245" d=" M 162.75 -112 L 163.75 -112 " />
<path id= "246" d=" M -16.25 -112 L -17.25 -112 " />
<path d="M-15.45 -107 A16.025 16.025 0 0 1 -16.25 -112" /><path d="M-15.4166 -102 A28.1894 28.1894 0 0 1 -17.25 -112" /><path id= "249" d=" M -14.25 -107 L -15.45 -107 " />
<path d="M-15.4166 -102 A5.63791 5.63791 0 0 1 -15.05 -100" /><path id= "251" d=" M -14.25 -92 L -14.25 -107 " />
<path id= "252" d=" M -15.05 -92 L -15.05 -100 " />
<path id= "253" d=" M -15.05 -92 L -14.25 -92 " />
<path id= "254" d=" M -132.25 -132 L -132.25 -124 " />
<path id= "255" d=" M -132.25 -132 L -131.45 -132 " />
<path d="M-132.617 -122 A5.63791 5.63791 0 0 0 -132.25 -124" /><path id= "257" d=" M -131.45 -132 L -131.45 -117 " />
<path d="M-132.617 -122 A28.1894 28.1894 0 0 0 -134.45 -112" /><path id= "259" d=" M -131.45 -117 L -132.65 -117 " />
<path id= "260" d=" M -133.45 -112 L -134.45 -112 " />
<path d="M-132.65 -117 A16.025 16.025 0 0 0 -133.45 -112" /><path id= "262" d=" M 132.25 -132 L 131.45 -132 " />
<path id= "263" d=" M 132.25 -132 L 132.25 -124 " />
<path id= "264" d=" M 131.45 -132 L 131.45 -117 " />
<path d="M132.617 -122 A5.63791 5.63791 0 0 1 132.25 -124" /><path id= "266" d=" M 131.45 -117 L 132.65 -117 " />
<path d="M132.617 -122 A28.1894 28.1894 0 0 1 134.45 -112" /><path d="M132.65 -117 A16.025 16.025 0 0 1 133.45 -112" /><path id= "269" d=" M 133.45 -112 L 134.45 -112 " />
<path id= "270" d=" M 73.65 -132 L 72.85 -132 " />
<path id= "271" d=" M 73.65 -132 L 73.65 -124 " />
<path id= "272" d=" M 72.85 -132 L 72.85 -117 " />
<path d="M74.0166 -122 A5.63791 5.63791 0 0 1 73.65 -124" /><path id= "274" d=" M 72.85 -117 L 74.05 -117 " />
<path d="M74.0166 -122 A28.1894 28.1894 0 0 1 75.85 -112" /><path d="M74.05 -117 A16.025 16.025 0 0 1 74.85 -112" /><path id= "277" d=" M 74.85 -112 L 75.85 -112 " />
<path id= "278" d=" M -43.55 -132 L -43.55 -117 " />
<path id= "279" d=" M -44.35 -132 L -43.55 -132 " />
<path id= "280" d=" M -43.55 -117 L -44.75 -117 " />
<path id= "281" d=" M -44.35 -132 L -44.35 -124 " />
<path d="M-44.75 -117 A16.025 16.025 0 0 0 -45.55 -112" /><path d="M-44.7166 -122 A5.63791 5.63791 0 0 0 -44.35 -124" /><path id= "284" d=" M -45.55 -112 L -46.55 -112 " />
<path d="M-44.7166 -122 A28.1894 28.1894 0 0 0 -46.55 -112" /><path id= "286" d=" M -102.95 92 L -102.95 100 " />
<path id= "287" d=" M -102.95 92 L -102.15 92 " />
<path d="M-103.317 102 A5.63791 5.63791 0 0 0 -102.95 100" /><path id= "289" d=" M -102.15 92 L -102.15 107 " />
<path d="M-103.317 102 A28.1894 28.1894 0 0 0 -105.15 112" /><path id= "291" d=" M -102.15 107 L -103.35 107 " />
<path id= "292" d=" M -104.15 112 L -105.15 112 " />
<path d="M-103.35 107 A16.025 16.025 0 0 0 -104.15 112" /><path d="M-74.0166 -122 A28.1894 28.1894 0 0 0 -75.85 -112" /><path d="M-74.0166 -122 A5.63791 5.63791 0 0 0 -73.65 -124" /><path id= "296" d=" M -74.85 -112 L -75.85 -112 " />
<path id= "297" d=" M -73.65 -132 L -73.65 -124 " />
<path d="M-74.05 -117 A16.025 16.025 0 0 0 -74.85 -112" /><path id= "299" d=" M -73.65 -132 L -72.85 -132 " />
<path id= "300" d=" M -72.85 -117 L -74.05 -117 " />
<path id= "301" d=" M -72.85 -132 L -72.85 -117 " />
<path id= "302" d=" M -104.15 -112 L -105.15 -112 " />
<path d="M-103.35 -107 A16.025 16.025 0 0 1 -104.15 -112" /><path d="M-103.317 -102 A28.1894 28.1894 0 0 1 -105.15 -112" /><path id= "305" d=" M -102.15 -107 L -103.35 -107 " />
<path d="M-103.317 -102 A5.63791 5.63791 0 0 1 -102.95 -100" /><path id= "307" d=" M -102.15 -92 L -102.15 -107 " />
<path id= "308" d=" M -102.95 -92 L -102.95 -100 " />
<path id= "309" d=" M -102.95 -92 L -102.15 -92 " />
<path id= "310" d=" M -73.65 -92 L -72.85 -92 " />
<path id= "311" d=" M -73.65 -92 L -73.65 -100 " />
<path id= "312" d=" M -72.85 -92 L -72.85 -107 " />
<path d="M-74.0166 -102 A5.63791 5.63791 0 0 1 -73.65 -100" /><path id= "314" d=" M -72.85 -107 L -74.05 -107 " />
<path d="M-74.0166 -102 A28.1894 28.1894 0 0 1 -75.85 -112" /><path d="M-74.05 -107 A16.025 16.025 0 0 1 -74.85 -112" /><path id= "317" d=" M -74.85 -112 L -75.85 -112 " />
<path d="M-103.317 122 A5.63791 5.63791 0 0 1 -102.95 124" /><path d="M-103.317 122 A28.1894 28.1894 0 0 1 -105.15 112" /><path id= "320" d=" M -102.95 132 L -102.95 124 " />
<path id= "321" d=" M -104.15 112 L -105.15 112 " />
<path id= "322" d=" M -102.95 132 L -102.15 132 " />
<path d="M-103.35 117 A16.025 16.025 0 0 1 -104.15 112" /><path id= "324" d=" M -102.15 132 L -102.15 117 " />
<path id= "325" d=" M -102.15 117 L -103.35 117 " />
<path id= "326" d=" M 72.85 107 L 74.05 107 " />
<path id= "327" d=" M 72.85 92 L 72.85 107 " />
<path d="M74.05 107 A16.025 16.025 0 0 1 74.85 112" /><path id= "329" d=" M 73.65 92 L 72.85 92 " />
<path id= "330" d=" M 74.85 112 L 75.85 112 " />
<path id= "331" d=" M 73.65 92 L 73.65 100 " />
<path d="M74.0166 102 A28.1894 28.1894 0 0 1 75.85 112" /><path d="M74.0166 102 A5.63791 5.63791 0 0 1 73.65 100" /><path d="M15.4166 -122 A5.63791 5.63791 0 0 1 15.05 -124" /><path d="M15.4166 -122 A28.1894 28.1894 0 0 1 17.25 -112" /><path id= "336" d=" M 15.05 -132 L 15.05 -124 " />
<path id= "337" d=" M 16.25 -112 L 17.25 -112 " />
<path id= "338" d=" M 15.05 -132 L 14.25 -132 " />
<path d="M15.45 -117 A16.025 16.025 0 0 1 16.25 -112" /><path id= "340" d=" M 14.25 -132 L 14.25 -117 " />
<path id= "341" d=" M 14.25 -117 L 15.45 -117 " />
<path id= "342" d=" M 14.25 -107 L 15.45 -107 " />
<path id= "343" d=" M 14.25 -92 L 14.25 -107 " />
<path d="M15.45 -107 A16.025 16.025 0 0 0 16.25 -112" /><path id= "345" d=" M 15.05 -92 L 14.25 -92 " />
<path id= "346" d=" M 16.25 -112 L 17.25 -112 " />
<path id= "347" d=" M 15.05 -92 L 15.05 -100 " />
<path d="M15.4166 -102 A28.1894 28.1894 0 0 0 17.25 -112" /><path d="M15.4166 -102 A5.63791 5.63791 0 0 0 15.05 -100" /><path d="M44.7166 -102 A28.1894 28.1894 0 0 0 46.55 -112" /><path d="M44.7166 -102 A5.63791 5.63791 0 0 0 44.35 -100" /><path id= "352" d=" M 45.55 -112 L 46.55 -112 " />
<path id= "353" d=" M 44.35 -92 L 44.35 -100 " />
<path d="M44.75 -107 A16.025 16.025 0 0 0 45.55 -112" /><path id= "355" d=" M 44.35 -92 L 43.55 -92 " />
<path id= "356" d=" M 43.55 -107 L 44.75 -107 " />
<path id= "357" d=" M 43.55 -92 L 43.55 -107 " />
<path d="M-15.4166 122 A5.63791 5.63791 0 0 1 -15.05 124" /><path d="M-15.4166 122 A28.1894 28.1894 0 0 1 -17.25 112" /><path id= "360" d=" M -15.05 132 L -15.05 124 " />
<path id= "361" d=" M -16.25 112 L -17.25 112 " />
<path id= "362" d=" M -15.05 132 L -14.25 132 " />
<path d="M-15.45 117 A16.025 16.025 0 0 1 -16.25 112" /><path id= "364" d=" M -14.25 132 L -14.25 117 " />
<path id= "365" d=" M -14.25 117 L -15.45 117 " />
<path d="M-15.45 -117 A16.025 16.025 0 0 0 -16.25 -112" /><path id= "367" d=" M -14.25 -117 L -15.45 -117 " />
<path id= "368" d=" M -16.25 -112 L -17.25 -112 " />
<path id= "369" d=" M -14.25 -132 L -14.25 -117 " />
<path d="M-15.4166 -122 A28.1894 28.1894 0 0 0 -17.25 -112" /><path id= "371" d=" M -15.05 -132 L -14.25 -132 " />
<path d="M-15.4166 -122 A5.63791 5.63791 0 0 0 -15.05 -124" /><path id= "373" d=" M -15.05 -132 L -15.05 -124 " />
<path id= "374" d=" M -102.95 -132 L -102.15 -132 " />
<path id= "375" d=" M -102.95 -132 L -102.95 -124 " />
<path id= "376" d=" M -102.15 -132 L -102.15 -117 " />
<path d="M-103.317 -122 A5.63791 5.63791 0 0 0 -102.95 -124" /><path id= "378" d=" M -102.15 -117 L -103.35 -117 " />
<path d="M-103.317 -122 A28.1894 28.1894 0 0 0 -105.15 -112" /><path d="M-103.35 -117 A16.025 16.025 0 0 0 -104.15 -112" /><path id= "381" d=" M -104.15 -112 L -105.15 -112 " />
<path id= "382" d=" M 43.55 117 L 44.75 117 " />
<path id= "383" d=" M 43.55 132 L 43.55 117 " />
<path d="M44.75 117 A16.025 16.025 0 0 0 45.55 112" /><path id= "385" d=" M 44.35 132 L 43.55 132 " />
<path id= "386" d=" M 45.55 112 L 46.55 112 " />
<path id= "387" d=" M 44.35 132 L 44.35 124 " />
<path d="M44.7166 122 A28.1894 28.1894 0 0 0 46.55 112" /><path d="M44.7166 122 A5.63791 5.63791 0 0 0 44.35 124" /><path d="M-132.617 102 A28.1894 28.1894 0 0 0 -134.45 112" /><path d="M-132.617 102 A5.63791 5.63791 0 0 0 -132.25 100" /><path id= "392" d=" M -133.45 112 L -134.45 112 " />
<path id= "393" d=" M -132.25 92 L -132.25 100 " />
<path d="M-132.65 107 A16.025 16.025 0 0 0 -133.45 112" /><path id= "395" d=" M -132.25 92 L -131.45 92 " />
<path id= "396" d=" M -131.45 107 L -132.65 107 " />
<path id= "397" d=" M -131.45 92 L -131.45 107 " />
<path d="M-132.617 122 A5.63791 5.63791 0 0 1 -132.25 124" /><path d="M-132.617 122 A28.1894 28.1894 0 0 1 -134.45 112" /><path id= "400" d=" M -132.25 132 L -132.25 124 " />
<path id= "401" d=" M -133.45 112 L -134.45 112 " />
<path id= "402" d=" M -132.25 132 L -131.45 132 " />
<path d="M-132.65 117 A16.025 16.025 0 0 1 -133.45 112" /><path id= "404" d=" M -131.45 132 L -131.45 117 " />
<path id= "405" d=" M -131.45 117 L -132.65 117 " />
<path id= "406" d=" M 102.15 -132 L 102.15 -117 " />
<path id= "407" d=" M 102.95 -132 L 102.15 -132 " />
<path id= "408" d=" M 102.15 -117 L 103.35 -117 " />
<path id= "409" d=" M 102.95 -132 L 102.95 -124 " />
<path d="M103.35 -117 A16.025 16.025 0 0 1 104.15 -112" /><path d="M103.317 -122 A5.63791 5.63791 0 0 1 102.95 -124" /><path id= "412" d=" M 104.15 -112 L 105.15 -112 " />
<path d="M103.317 -122 A28.1894 28.1894 0 0 1 105.15 -112" /><path d="M161.917 122 A28.1894 28.1894 0 0 0 163.75 112" /><path d="M161.917 122 A5.63791 5.63791 0 0 0 161.55 124" /><path id= "416" d=" M 162.75 112 L 163.75 112 " />
<path id= "417" d=" M 161.55 132 L 161.55 124 " />
<path d="M161.95 117 A16.025 16.025 0 0 0 162.75 112" /><path id= "419" d=" M 161.55 132 L 160.75 132 " />
<path id= "420" d=" M 160.75 117 L 161.95 117 " />
<path id= "421" d=" M 160.75 132 L 160.75 117 " />
<path id= "422" d=" M -160.75 132 L -160.75 117 " />
<path id= "423" d=" M -161.55 132 L -160.75 132 " />
<path id= "424" d=" M -160.75 117 L -161.95 117 " />
<path id= "425" d=" M -161.55 132 L -161.55 124 " />
<path d="M-161.95 117 A16.025 16.025 0 0 1 -162.75 112" /><path d="M-161.917 122 A5.63791 5.63791 0 0 1 -161.55 124" /><path id= "428" d=" M -162.75 112 L -163.75 112 " />
<path d="M-161.917 122 A28.1894 28.1894 0 0 1 -163.75 112" /><path id= "430" d=" M -161.55 92 L -160.75 92 " />
<path id= "431" d=" M -161.55 92 L -161.55 100 " />
<path id= "432" d=" M -160.75 92 L -160.75 107 " />
<path d="M-161.917 102 A5.63791 5.63791 0 0 0 -161.55 100" /><path id= "434" d=" M -160.75 107 L -161.95 107 " />
<path d="M-161.917 102 A28.1894 28.1894 0 0 0 -163.75 112" /><path d="M-161.95 107 A16.025 16.025 0 0 0 -162.75 112" /><path id= "437" d=" M -162.75 112 L -163.75 112 " />
<path id= "438" d=" M -161.55 -132 L -160.75 -132 " />
<path id= "439" d=" M -161.55 -132 L -161.55 -124 " />
<path id= "440" d=" M -160.75 -132 L -160.75 -117 " />
<path d="M-161.917 -122 A5.63791 5.63791 0 0 0 -161.55 -124" /><path id= "442" d=" M -160.75 -117 L -161.95 -117 " />
<path d="M-161.917 -122 A28.1894 28.1894 0 0 0 -163.75 -112" /><path d="M-161.95 -117 A16.025 16.025 0 0 0 -162.75 -112" /><path id= "445" d=" M -162.75 -112 L -163.75 -112 " />
<path d="M-161.917 -102 A5.63791 5.63791 0 0 1 -161.55 -100" /><path d="M-161.917 -102 A28.1894 28.1894 0 0 1 -163.75 -112" /><path id= "448" d=" M -161.55 -92 L -161.55 -100 " />
<path id= "449" d=" M -162.75 -112 L -163.75 -112 " />
<path id= "450" d=" M -161.55 -92 L -160.75 -92 " />
<path d="M-161.95 -107 A16.025 16.025 0 0 1 -162.75 -112" /><path id= "452" d=" M -160.75 -92 L -160.75 -107 " />
<path id= "453" d=" M -160.75 -107 L -161.95 -107 " />
<path d="M-44.7166 102 A28.1894 28.1894 0 0 0 -46.55 112" /><path d="M-44.7166 102 A5.63791 5.63791 0 0 0 -44.35 100" /><path id= "456" d=" M -45.55 112 L -46.55 112 " />
<path id= "457" d=" M -44.35 92 L -44.35 100 " />
<path d="M-44.75 107 A16.025 16.025 0 0 0 -45.55 112" /><path id= "459" d=" M -44.35 92 L -43.55 92 " />
<path id= "460" d=" M -43.55 107 L -44.75 107 " />
<path id= "461" d=" M -43.55 92 L -43.55 107 " />
<path d="M74.05 117 A16.025 16.025 0 0 0 74.85 112" /><path id= "463" d=" M 72.85 117 L 74.05 117 " />
<path id= "464" d=" M 74.85 112 L 75.85 112 " />
<path id= "465" d=" M 72.85 132 L 72.85 117 " />
<path d="M74.0166 122 A28.1894 28.1894 0 0 0 75.85 112" /><path id= "467" d=" M 73.65 132 L 72.85 132 " />
<path d="M74.0166 122 A5.63791 5.63791 0 0 0 73.65 124" /><path id= "469" d=" M 73.65 132 L 73.65 124 " />
<path id= "470" d=" M 161.55 -92 L 161.55 -100 " />
<path id= "471" d=" M 161.55 -92 L 160.75 -92 " />
<path d="M161.917 -102 A5.63791 5.63791 0 0 0 161.55 -100" /><path id= "473" d=" M 160.75 -92 L 160.75 -107 " />
<path d="M161.917 -102 A28.1894 28.1894 0 0 0 163.75 -112" /><path id= "475" d=" M 160.75 -107 L 161.95 -107 " />
<path id= "476" d=" M 162.75 -112 L 163.75 -112 " />
<path d="M161.95 -107 A16.025 16.025 0 0 0 162.75 -112" /><path id= "478" d=" M -72.85 92 L -72.85 107 " />
<path id= "479" d=" M -73.65 92 L -72.85 92 " />
<path id= "480" d=" M -72.85 107 L -74.05 107 " />
<path id= "481" d=" M -73.65 92 L -73.65 100 " />
<path d="M-74.05 107 A16.025 16.025 0 0 0 -74.85 112" /><path d="M-74.0166 102 A5.63791 5.63791 0 0 0 -73.65 100" /><path id= "484" d=" M -74.85 112 L -75.85 112 " />
<path d="M-74.0166 102 A28.1894 28.1894 0 0 0 -75.85 112" /><path d="M-44.7166 122 A5.63791 5.63791 0 0 1 -44.35 124" /><path d="M-44.7166 122 A28.1894 28.1894 0 0 1 -46.55 112" /><path id= "488" d=" M -44.35 132 L -44.35 124 " />
<path id= "489" d=" M -45.55 112 L -46.55 112 " />
<path id= "490" d=" M -44.35 132 L -43.55 132 " />
<path d="M-44.75 117 A16.025 16.025 0 0 1 -45.55 112" /><path id= "492" d=" M -43.55 132 L -43.55 117 " />
<path id= "493" d=" M -43.55 117 L -44.75 117 " />
<path id= "494" d=" M 132.25 92 L 131.45 92 " />
<path id= "495" d=" M 132.25 92 L 132.25 100 " />
<path id= "496" d=" M 131.45 92 L 131.45 107 " />
<path d="M132.617 102 A5.63791 5.63791 0 0 1 132.25 100" /><path id= "498" d=" M 131.45 107 L 132.65 107 " />
<path d="M132.617 102 A28.1894 28.1894 0 0 1 134.45 112" /><path d="M132.65 107 A16.025 16.025 0 0 1 133.45 112" /><path id= "501" d=" M 133.45 112 L 134.45 112 " />
<path id= "502" d=" M 44.35 -132 L 43.55 -132 " />
<path id= "503" d=" M 44.35 -132 L 44.35 -124 " />
<path id= "504" d=" M 43.55 -132 L 43.55 -117 " />
<path d="M44.7166 -122 A5.63791 5.63791 0 0 1 44.35 -124" /><path id= "506" d=" M 43.55 -117 L 44.75 -117 " />
<path d="M44.7166 -122 A28.1894 28.1894 0 0 1 46.55 -112" /><path d="M44.75 -117 A16.025 16.025 0 0 1 45.55 -112" /><path id= "509" d=" M 45.55 -112 L 46.55 -112 " />
<path id= "510" d=" M 98 181.9 L 98 181.1 " />
<path id= "511" d=" M 98 181.9 L 83 181.9 " />
<path id= "512" d=" M 98 181.1 L 90 181.1 " />
<path id= "513" d=" M 83 181.9 L 83 180.7 " />
<path d="M88 180.733 A5.63791 5.63791 0 0 0 90 181.1" /><path d="M83 180.7 A16.025 16.025 0 0 0 78 179.9" /><path d="M88 180.733 A28.1894 28.1894 0 0 0 78 178.9" /><path d="M73 180.7 A16.025 16.025 0 0 1 78 179.9" /><path d="M68 180.733 A28.1894 28.1894 0 0 1 78 178.9" /><path id= "519" d=" M 73 181.9 L 73 180.7 " />
<path d="M68 180.733 A5.63791 5.63791 0 0 1 66 181.1" /><path id= "521" d=" M 58 181.9 L 73 181.9 " />
<path id= "522" d=" M 58 181.1 L 66 181.1 " />
<path id= "523" d=" M 58 181.9 L 58 181.1 " />
<path id= "524" d=" M -58 201.9 L -58 201.1 " />
<path id= "525" d=" M -58 201.9 L -73 201.9 " />
<path id= "526" d=" M -58 201.1 L -66 201.1 " />
<path id= "527" d=" M -73 201.9 L -73 200.7 " />
<path d="M-68 200.733 A5.63791 5.63791 0 0 0 -66 201.1" /><path d="M-73 200.7 A16.025 16.025 0 0 0 -78 199.9" /><path d="M-68 200.733 A28.1894 28.1894 0 0 0 -78 198.9" /><path id= "531" d=" M -78 199.9 L -78 198.9 " />
<path id= "532" d=" M -58 181.9 L -58 181.1 " />
<path id= "533" d=" M -58 181.9 L -73 181.9 " />
<path id= "534" d=" M -58 181.1 L -66 181.1 " />
<path id= "535" d=" M -73 181.9 L -73 180.7 " />
<path d="M-68 180.733 A5.63791 5.63791 0 0 0 -66 181.1" /><path d="M-73 180.7 A16.025 16.025 0 0 0 -78 179.9" /><path d="M-68 180.733 A28.1894 28.1894 0 0 0 -78 178.9" /><path id= "539" d=" M -78 179.9 L -78 178.9 " />
<path id= "540" d=" M -98 201.9 L -83 201.9 " />
<path id= "541" d=" M -98 201.9 L -98 201.1 " />
<path id= "542" d=" M -83 201.9 L -83 200.7 " />
<path id= "543" d=" M -98 201.1 L -90 201.1 " />
<path d="M-83 200.7 A16.025 16.025 0 0 1 -78 199.9" /><path d="M-88 200.733 A5.63791 5.63791 0 0 1 -90 201.1" /><path id= "546" d=" M -78 199.9 L -78 198.9 " />
<path d="M-88 200.733 A28.1894 28.1894 0 0 1 -78 198.9" /><path d="M68 200.733 A5.63791 5.63791 0 0 1 66 201.1" /><path d="M68 200.733 A28.1894 28.1894 0 0 1 78 198.9" /><path id= "550" d=" M 58 201.1 L 66 201.1 " />
<path id= "551" d=" M 78 199.9 L 78 198.9 " />
<path id= "552" d=" M 58 201.9 L 58 201.1 " />
<path d="M73 200.7 A16.025 16.025 0 0 1 78 199.9" /><path id= "554" d=" M 58 201.9 L 73 201.9 " />
<path id= "555" d=" M 73 201.9 L 73 200.7 " />
<path id= "556" d=" M -78 179.9 L -78 178.9 " />
<path d="M-83 180.7 A16.025 16.025 0 0 1 -78 179.9" /><path d="M-88 180.733 A28.1894 28.1894 0 0 1 -78 178.9" /><path id= "559" d=" M -83 181.9 L -83 180.7 " />
<path d="M-88 180.733 A5.63791 5.63791 0 0 1 -90 181.1" /><path id= "561" d=" M -98 181.9 L -83 181.9 " />
<path id= "562" d=" M -98 181.1 L -90 181.1 " />
<path id= "563" d=" M -98 181.9 L -98 181.1 " />
<path id= "564" d=" M 98 201.9 L 83 201.9 " />
<path id= "565" d=" M 98 201.9 L 98 201.1 " />
<path id= "566" d=" M 83 201.9 L 83 200.7 " />
<path id= "567" d=" M 98 201.1 L 90 201.1 " />
<path d="M83 200.7 A16.025 16.025 0 0 0 78 199.9" /><path d="M88 200.733 A5.63791 5.63791 0 0 0 90 201.1" /><path id= "570" d=" M 78 199.9 L 78 198.9 " />
<path d="M88 200.733 A28.1894 28.1894 0 0 0 78 198.9" /><circle cx ="247" cy ="230" r ="1.5" /><circle cx ="-247" cy ="0" r ="1.5" /><circle cx ="247" cy ="-230" r ="1.5" /><circle cx ="247" cy ="0" r ="1.5" /><circle cx ="-247" cy ="230" r ="1.5" /><circle cx ="-247" cy ="-230" r ="1.5" /><path id= "578" d=" M -99 155 L -109 155 " />
<path id= "579" d=" M -99 145 L -99 155 " />
<path id= "580" d=" M -109 145 L -99 145 " />
<path id= "581" d=" M -109 155 L -109 145 " />
<path id= "582" d=" M 152 161.999 L 141 161.999 " />
<path id= "583" d=" M 141 -161.999 L 152 -161.999 " />
<path id= "584" d=" M 122.7 161.999 L 111.7 161.999 " />
<path id= "585" d=" M 111.7 -161.999 L 122.7 -161.999 " />
<path id= "586" d=" M -93.4 -161.999 L -82.4 -161.999 " />
<path id= "587" d=" M -64.1 -161.999 L -53.1 -161.999 " />
<path id= "588" d=" M 53.1 -161.999 L 64.1 -161.999 " />
<path id= "589" d=" M 82.4 -161.999 L 93.4 -161.999 " />
<path id= "590" d=" M -34.8 -161.999 L -23.8 -161.999 " />
<path id= "591" d=" M -5.5 -161.999 L 5.5 -161.999 " />
<path id= "592" d=" M 23.8 -161.999 L 34.8 -161.999 " />
<path id= "593" d=" M 64.1 161.999 L 53.1 161.999 " />
<path id= "594" d=" M 34.8 161.999 L 23.8 161.999 " />
<path id= "595" d=" M -23.8 161.999 L -34.8 161.999 " />
<path id= "596" d=" M 5.5 161.999 L -5.5 161.999 " />
<path id= "597" d=" M -53.1 161.999 L -64.1 161.999 " />
<path id= "598" d=" M 93.4 161.999 L 82.4 161.999 " />
<path id= "599" d=" M -82.4 161.999 L -93.4 161.999 " />
<path id= "600" d=" M -111.7 161.999 L -122.7 161.999 " />
<path id= "601" d=" M -122.7 -161.999 L -111.7 -161.999 " />
<path id= "602" d=" M -141 161.999 L -152 161.999 " />
<path id= "603" d=" M -152 -161.999 L -141 -161.999 " />
<path id= "604" d=" M 45 185 L 45 196 " />
<path id= "605" d=" M -45 185 L -45 196 " />
<path id= "606" d=" M 152 -161.999 L 152 161.999 " />
<path id= "607" d=" M 141 161.999 L 141 -161.999 " />
<path id= "608" d=" M 5.5 -161.999 L 5.5 161.999 " />
<path id= "609" d=" M -5.5 161.999 L -5.5 -161.999 " />
<path id= "610" d=" M 23.8 161.999 L 23.8 -161.999 " />
<path id= "611" d=" M 34.8 -161.999 L 34.8 161.999 " />
<path id= "612" d=" M 53.1 161.999 L 53.1 -161.999 " />
<path id= "613" d=" M 64.1 -161.999 L 64.1 161.999 " />
<path id= "614" d=" M 122.7 -161.999 L 122.7 161.999 " />
<path id= "615" d=" M 111.7 161.999 L 111.7 -161.999 " />
<path id= "616" d=" M 93.4 -161.999 L 93.4 161.999 " />
<path id= "617" d=" M 82.4 161.999 L 82.4 -161.999 " />
<path id= "618" d=" M -141 -161.999 L -141 161.999 " />
<path id= "619" d=" M -152 161.999 L -152 -161.999 " />
<path id= "620" d=" M -111.7 -161.999 L -111.7 161.999 " />
<path id= "621" d=" M -122.7 161.999 L -122.7 -161.999 " />
<path id= "622" d=" M -82.4 -161.999 L -82.4 161.999 " />
<path id= "623" d=" M -93.4 161.999 L -93.4 -161.999 " />
<path id= "624" d=" M -34.8 161.999 L -34.8 -161.999 " />
<path id= "625" d=" M -23.8 -161.999 L -23.8 161.999 " />
<path id= "626" d=" M -53.1 -161.999 L -53.1 161.999 " />
<path id= "627" d=" M -64.1 161.999 L -64.1 -161.999 " />
<path id= "628" d=" M 45 196 L 55 196 " />
<path id= "629" d=" M 55 185 L 45 185 " />
<path id= "630" d=" M -55 196 L -45 196 " />
<path id= "631" d=" M -45 185 L -55 185 " />
<path id= "632" d=" M -3.75 152.5 L -3.75 147.5 " />
<path id= "633" d=" M 3.75 152.5 L -3.75 152.5 " />
<path id= "634" d=" M 3.75 147.5 L 3.75 152.5 " />
<path id= "635" d=" M -3.75 147.5 L 3.75 147.5 " />
<path id= "636" d=" M -148.95 -152.75 L -148.95 -155.25 " />
<path id= "637" d=" M -141.45 -152.75 L -148.95 -152.75 " />
<path id= "638" d=" M -141.45 -155.25 L -141.45 -152.75 " />
<path id= "639" d=" M -148.95 -155.25 L -141.45 -155.25 " />
<path id= "640" d=" M 55 196 L 55 185 " />
<path id= "641" d=" M -55 196 L -55 185 " />
</g>
</g>



</svg>

