<?xml version="1.0" encoding="UTF-8" standalone="no"?>
<!-- Created with Inkscape (http://www.inkscape.org/) -->

<svg
   xmlns:freecad="http://www.freecadweb.org/wiki/index.php?title=Svg_Namespace"
   xmlns:dc="http://purl.org/dc/elements/1.1/"
   xmlns:cc="http://creativecommons.org/ns#"
   xmlns:rdf="http://www.w3.org/1999/02/22-rdf-syntax-ns#"
   xmlns:svg="http://www.w3.org/2000/svg"
   xmlns="http://www.w3.org/2000/svg"
   xmlns:sodipodi="http://sodipodi.sourceforge.net/DTD/sodipodi-0.dtd"
   xmlns:inkscape="http://www.inkscape.org/namespaces/inkscape"
   width="600mm"
   height="600mm"
   viewBox="0 0 600 600"
   id="svg2"
   version="1.1"
   inkscape:version="0.48.4 r9939"
   sodipodi:docname="New document 1">
  <defs
     id="defs4" />
  <sodipodi:namedview
     id="base"
     pagecolor="#ffffff"
     bordercolor="#666666"
     borderopacity="1.0"
     inkscape:pageopacity="0.0"
     inkscape:pageshadow="2"
     inkscape:zoom="0.35"
     inkscape:cx="375"
     inkscape:cy="520"
     inkscape:document-units="mm"
     inkscape:current-layer="layer1"
     showgrid="false"
     units="mm"
     inkscape:window-width="457"
     inkscape:window-height="414"
     inkscape:window-x="0"
     inkscape:window-y="24"
     inkscape:window-maximized="0" />
  <metadata
     id="metadata7">
    <rdf:RDF>
      <cc:Work
         rdf:about="">
        <dc:format>image/svg+xml</dc:format>
        <dc:type
           rdf:resource="http://purl.org/dc/dcmitype/StillImage" />
        <dc:title></dc:title>
      </cc:Work>
    </rdf:RDF>
  </metadata>
  <g
     inkscape:label="Layer 1"
     inkscape:groupmode="layer"
     id="layer1"
     transform="translate(0,1073.622)" />
<g id="View001"
   transform="rotate(180,300,300) translate(300,300) scale(1,1)"
  >
<g   stroke="rgb(0, 0, 0)"
   stroke-width="0.35"
   stroke-linecap="butt"
   stroke-linejoin="miter"
   fill="none"
   transform="scale(1,-1)"
  >
<path id= "1" d=" M 250 250 L -250 250 " />
<path id= "2" d=" M 250 -250 L 250 250 " />
<path id= "3" d=" M -250 250 L -250 -250 " />
<path id= "4" d=" M -250 -250 L 250 -250 " />
<path id= "5" d=" M 141 161.999 L 141 160.499 " />
<path id= "6" d=" M 152 161.999 L 141 161.999 " />
<path id= "7" d=" M 141 160.499 L 152 160.499 " />
<path id= "8" d=" M 152 160.499 L 152 161.999 " />
<path id= "9" d=" M 141 -161.998 L 141 -160.498 " />
<path id= "10" d=" M 152 -161.999 L 141 -161.999 " />
<path id= "11" d=" M 141 -160.499 L 152 -160.499 " />
<path id= "12" d=" M 152 -160.498 L 152 -161.998 " />
<path id= "13" d=" M 34.8 -160.498 L 34.8 -161.998 " />
<path id= "14" d=" M 23.8 -160.499 L 34.8 -160.499 " />
<path id= "15" d=" M 34.8 -161.999 L 23.8 -161.999 " />
<path id= "16" d=" M 23.8 -161.998 L 23.8 -160.498 " />
<path id= "17" d=" M 23.8 160.499 L 34.8 160.499 " />
<path id= "18" d=" M 23.8 161.999 L 23.8 160.499 " />
<path id= "19" d=" M 34.8 160.499 L 34.8 161.999 " />
<path id= "20" d=" M 34.8 161.999 L 23.8 161.999 " />
<path id= "21" d=" M 64.1 -161.999 L 53.1 -161.999 " />
<path id= "22" d=" M 64.1 -160.498 L 64.1 -161.998 " />
<path id= "23" d=" M 53.1 -161.998 L 53.1 -160.498 " />
<path id= "24" d=" M 53.1 -160.499 L 64.1 -160.499 " />
<path id= "25" d=" M 53.1 160.499 L 64.1 160.499 " />
<path id= "26" d=" M 53.1 161.999 L 53.1 160.499 " />
<path id= "27" d=" M 64.1 160.499 L 64.1 161.999 " />
<path id= "28" d=" M 64.1 161.999 L 53.1 161.999 " />
<path id= "29" d=" M 122.7 161.999 L 111.7 161.999 " />
<path id= "30" d=" M 122.7 160.499 L 122.7 161.999 " />
<path id= "31" d=" M 111.7 161.999 L 111.7 160.499 " />
<path id= "32" d=" M 111.7 160.499 L 122.7 160.499 " />
<path id= "33" d=" M 111.7 -161.998 L 111.7 -160.498 " />
<path id= "34" d=" M 122.7 -161.999 L 111.7 -161.999 " />
<path id= "35" d=" M 111.7 -160.499 L 122.7 -160.499 " />
<path id= "36" d=" M 122.7 -160.498 L 122.7 -161.998 " />
<path id= "37" d=" M 93.4 -160.498 L 93.4 -161.998 " />
<path id= "38" d=" M 82.4 -160.499 L 93.4 -160.499 " />
<path id= "39" d=" M 93.4 -161.999 L 82.4 -161.999 " />
<path id= "40" d=" M 82.4 -161.998 L 82.4 -160.498 " />
<path id= "41" d=" M 93.4 160.499 L 93.4 161.999 " />
<path id= "42" d=" M 82.4 160.499 L 93.4 160.499 " />
<path id= "43" d=" M 93.4 161.999 L 82.4 161.999 " />
<path id= "44" d=" M 82.4 161.999 L 82.4 160.499 " />
<path id= "45" d=" M -23.8 161.999 L -34.8 161.999 " />
<path id= "46" d=" M -23.8 160.499 L -23.8 161.999 " />
<path id= "47" d=" M -34.8 161.999 L -34.8 160.499 " />
<path id= "48" d=" M -34.8 160.499 L -23.8 160.499 " />
<path id= "49" d=" M -53.1 161.999 L -64.1 161.999 " />
<path id= "50" d=" M -53.1 160.499 L -53.1 161.999 " />
<path id= "51" d=" M -64.1 161.999 L -64.1 160.499 " />
<path id= "52" d=" M -64.1 160.499 L -53.1 160.499 " />
<path id= "53" d=" M -34.8 -160.499 L -23.8 -160.499 " />
<path id= "54" d=" M -34.8 -161.998 L -34.8 -160.498 " />
<path id= "55" d=" M -23.8 -160.498 L -23.8 -161.998 " />
<path id= "56" d=" M -23.8 -161.999 L -34.8 -161.999 " />
<path id= "57" d=" M -64.1 -160.499 L -53.1 -160.499 " />
<path id= "58" d=" M -64.1 -161.998 L -64.1 -160.498 " />
<path id= "59" d=" M -53.1 -160.498 L -53.1 -161.998 " />
<path id= "60" d=" M -53.1 -161.999 L -64.1 -161.999 " />
<path id= "61" d=" M -5.5 -161.998 L -5.5 -160.498 " />
<path id= "62" d=" M 5.5 -161.999 L -5.5 -161.999 " />
<path id= "63" d=" M -5.5 -160.499 L 5.5 -160.499 " />
<path id= "64" d=" M 5.5 -160.498 L 5.5 -161.998 " />
<path id= "65" d=" M 5.5 161.999 L -5.5 161.999 " />
<path id= "66" d=" M 5.5 160.499 L 5.5 161.999 " />
<path id= "67" d=" M -5.5 161.999 L -5.5 160.499 " />
<path id= "68" d=" M -5.5 160.499 L 5.5 160.499 " />
<path id= "69" d=" M -152 161.999 L -152 160.499 " />
<path id= "70" d=" M -141 161.999 L -152 161.999 " />
<path id= "71" d=" M -152 160.499 L -141 160.499 " />
<path id= "72" d=" M -141 160.499 L -141 161.999 " />
<path id= "73" d=" M -152 -161.998 L -152 -160.498 " />
<path id= "74" d=" M -141 -161.999 L -152 -161.999 " />
<path id= "75" d=" M -152 -160.499 L -141 -160.499 " />
<path id= "76" d=" M -141 -160.498 L -141 -161.998 " />
<path id= "77" d=" M -82.4 161.999 L -93.4 161.999 " />
<path id= "78" d=" M -82.4 160.499 L -82.4 161.999 " />
<path id= "79" d=" M -93.4 161.999 L -93.4 160.499 " />
<path id= "80" d=" M -93.4 160.499 L -82.4 160.499 " />
<path id= "81" d=" M -122.7 161.999 L -122.7 160.499 " />
<path id= "82" d=" M -111.7 161.999 L -122.7 161.999 " />
<path id= "83" d=" M -122.7 160.499 L -111.7 160.499 " />
<path id= "84" d=" M -111.7 160.499 L -111.7 161.999 " />
<path id= "85" d=" M -111.7 -161.999 L -122.7 -161.999 " />
<path id= "86" d=" M -111.7 -160.498 L -111.7 -161.998 " />
<path id= "87" d=" M -122.7 -161.998 L -122.7 -160.498 " />
<path id= "88" d=" M -122.7 -160.499 L -111.7 -160.499 " />
<path id= "89" d=" M -82.4 -161.999 L -93.4 -161.999 " />
<path id= "90" d=" M -82.4 -160.498 L -82.4 -161.998 " />
<path id= "91" d=" M -93.4 -161.998 L -93.4 -160.498 " />
<path id= "92" d=" M -93.4 -160.499 L -82.4 -160.499 " />
<path id= "93" d=" M -150 -143.5 L -150 -136.5 " />
<path d="M-150 -143.5 A2 2 0 0 1 -148 -145.5" /><path d="M-148 -134.5 A2 2 0 0 1 -150 -136.5" /><path id= "96" d=" M 0 -145.5 L -148 -145.5 " />
<path id= "97" d=" M -148 -134.5 L -8.52651e-14 -134.5 " />
<path id= "98" d=" M 0 -145.5 L 148 -145.5 " />
<path id= "99" d=" M 148 -134.5 L 8.52651e-14 -134.5 " />
<path d="M150 -143.5 A2 2 0 0 0 148 -145.5" /><path d="M148 -134.5 A2 2 0 0 0 150 -136.5" /><path id= "102" d=" M 150 -143.5 L 150 -136.5 " />
<path id= "103" d=" M -148 134.5 L -8.52651e-14 134.5 " />
<path d="M-148 134.5 A2 2 0 0 0 -150 136.5" /><path id= "105" d=" M 0 134.5 L 0 145.5 " />
<path id= "106" d=" M -150 143.5 L -150 136.5 " />
<path id= "107" d=" M 0 145.5 L -148 145.5 " />
<path d="M-150 143.5 A2 2 0 0 0 -148 145.5" /><path id= "109" d=" M 150 143.5 L 150 136.5 " />
<path d="M150 143.5 A2 2 0 0 1 148 145.5" /><path d="M148 134.5 A2 2 0 0 1 150 136.5" /><path id= "112" d=" M 0 145.5 L 148 145.5 " />
<path id= "113" d=" M 148 134.5 L 8.52651e-14 134.5 " />
<path id= "114" d=" M 0 134.5 L 0 145.5 " />
<path id= "115" d=" M 50 182.5 L 50 227.5 " />
<path d="M47.5 180 A2.5 2.5 0 0 1 50 182.5" /><path d="M50 227.5 A2.5 2.5 0 0 1 47.5 230" /><path id= "118" d=" M 0 180 L 47.5 180 " />
<path id= "119" d=" M 47.5 230 L 0 230 " />
<path id= "120" d=" M 0 180 L -47.5 180 " />
<path id= "121" d=" M -47.5 230 L 0 230 " />
<path d="M-47.5 180 A2.5 2.5 0 0 0 -50 182.5" /><path d="M-50 227.5 A2.5 2.5 0 0 0 -47.5 230" /><path id= "124" d=" M -50 182.5 L -50 227.5 " />
<path id= "125" d=" M 55 197.5 L 56.5 197.5 " />
<path id= "126" d=" M 55 186.5 L 55 197.5 " />
<path id= "127" d=" M 56.5 197.5 L 56.5 186.5 " />
<path id= "128" d=" M 56.5 186.5 L 55 186.5 " />
<path id= "129" d=" M -55 197.5 L -56.5 197.5 " />
<path id= "130" d=" M -55 186.5 L -55 197.5 " />
<path id= "131" d=" M -56.5 197.5 L -56.5 186.5 " />
<path id= "132" d=" M -56.5 186.5 L -55 186.5 " />
<path d="M150 -143.5 A2 2 0 0 0 148 -145.5" /><path d="M148 -134.5 A2 2 0 0 0 150 -136.5" /><path id= "135" d=" M 0 134.5 L 0 145.5 " />
<path id= "136" d=" M 0 134.5 L 0 145.5 " />
<path d="M-8.97152 195.715 A9 9 0 0 1 -2.67363e-14 186" /><path d="M3.14233e-14 186 A9 9 0 0 1 8.97152 195.715" /><path id= "139" d=" M -8.97152 195.715 L -6.97784 220.715 " />
<path d="M6.97785 220.715 A7 7 0 0 1 1.28588e-15 227.159" /><path d="M1.28588e-15 227.159 A7 7 0 0 1 -6.97784 220.715" /><path id= "142" d=" M 6.97785 220.715 L 8.97152 195.715 " />
<path id= "143" d=" M 0 -134.5 L 0 -145.5 " />
<circle cx ="-131.85" cy ="140" r ="1" /><path id= "145" d=" M 0 230 L 0 227.159 " />
<path id= "146" d=" M 0 186 L 0 180 " />
<circle cx ="-47.5" cy ="227.5" r ="1.5" /><circle cx ="-47.5" cy ="182.5" r ="1.5" /><circle cx ="-43.95" cy ="-140" r ="1" /><circle cx ="-131.85" cy ="-140" r ="1" /><circle cx ="43.95" cy ="-140" r ="1" /><circle cx ="131.85" cy ="-140" r ="1" /><circle cx ="-43.95" cy ="140" r ="1" /><circle cx ="-131.85" cy ="140" r ="1" /><circle cx ="43.95" cy ="140" r ="1" /><circle cx ="131.85" cy ="140" r ="1" /><circle cx ="47.5" cy ="227.5" r ="1.5" /><circle cx ="47.5" cy ="182.5" r ="1.5" /><circle cx ="-47.5" cy ="227.5" r ="1.5" /><circle cx ="-47.5" cy ="182.5" r ="1.5" /></g>
</g>



</svg>

