<?xml version="1.0" encoding="UTF-8" standalone="no"?>
<!-- Created with Inkscape (http://www.inkscape.org/) -->

<svg
   xmlns:dc="http://purl.org/dc/elements/1.1/"
   xmlns:cc="http://creativecommons.org/ns#"
   xmlns:rdf="http://www.w3.org/1999/02/22-rdf-syntax-ns#"
   xmlns:svg="http://www.w3.org/2000/svg"
   xmlns="http://www.w3.org/2000/svg"
   xmlns:sodipodi="http://sodipodi.sourceforge.net/DTD/sodipodi-0.dtd"
   xmlns:inkscape="http://www.inkscape.org/namespaces/inkscape"
   width="600mm"
   height="600mm"
   viewBox="0 0 600 600"
   id="svg2"
   version="1.1"
   inkscape:version="0.48.4 r9939"
   sodipodi:docname="back_overlay.svg">
  <defs
     id="defs4" />
  <sodipodi:namedview
     id="base"
     pagecolor="#ffffff"
     bordercolor="#666666"
     borderopacity="1.0"
     inkscape:pageopacity="0.0"
     inkscape:pageshadow="2"
     inkscape:zoom="2.8"
     inkscape:cx="1071.8301"
     inkscape:cy="255.91559"
     inkscape:document-units="mm"
     inkscape:current-layer="layer1"
     showgrid="false"
     units="mm"
     inkscape:window-width="1366"
     inkscape:window-height="718"
     inkscape:window-x="0"
     inkscape:window-y="0"
     inkscape:window-maximized="1" />
  <metadata
     id="metadata7">
    <rdf:RDF>
      <cc:Work
         rdf:about="">
        <dc:format>image/svg+xml</dc:format>
        <dc:type
           rdf:resource="http://purl.org/dc/dcmitype/StillImage" />
        <dc:title />
      </cc:Work>
    </rdf:RDF>
  </metadata>
  <g
     inkscape:label="Layer 1"
     inkscape:groupmode="layer"
     id="layer1"
     transform="translate(0,1073.622)">
    <path
       inkscape:connector-curvature="0"
       d="m 235.31425,-569.18122 4.11834,-0.4773 -0.0694,-0.5984 3.83674,-0.4447 1.15305,9.9482 -2.12784,2.6858 -3.78832,0.439 -0.0734,-0.6336 -1.12638,0.1306 0.0734,0.6336 -7.28631,0.8445 -1.43201,-12.355 6.65273,-0.7711 z"
       id="path9340"
       style="fill:none;stroke:#ff0000;stroke-width:0.12555766"
       sodipodi:nodetypes="cccccccccccccc" />
    <g
       id="g3940"
       transform="matrix(0.09761721,0,0,0.09761721,411.26325,-713.53742)"
       inkscape:export-xdpi="111"
       inkscape:export-ydpi="111">
      <path
         id="path3158"
         style="font-size:137.69328308px;font-style:normal;font-variant:normal;font-weight:300;font-stretch:normal;text-align:start;line-height:125%;letter-spacing:0px;word-spacing:0px;writing-mode:lr-tb;text-anchor:start;fill:#ffffff;fill-opacity:1;stroke:#ff0000;font-family:DIN 30640 Std;-inkscape-font-specification:DIN 30640 Std Light"
         d="m 1343.1934,1860.7047 c -6.3339,7.4355 -14.1824,11.5663 -22.9948,11.5663 -13.907,0 -23.8209,-8.9501 -25.7486,-21.2048 l 61.4112,0 c 0,-25.3355 -15.4217,-42.2718 -37.5903,-42.2718 -22.444,0 -37.0395,17.0739 -37.0395,37.4525 0,19.1394 13.6317,37.5903 39.1049,37.5903 12.5301,0 22.7194,-4.8193 32.3579,-15.5593 l -9.5008,-7.5732 m -48.7434,-19.8278 c 1.2392,-9.7762 8.537,-20.5163 23.6832,-20.5163 12.8055,0 22.444,8.6747 23.6832,20.5163 l -47.3664,0 m -42.0783,5.5077 c 0,14.3201 -11.5662,25.8864 -25.7486,25.8864 -13.0808,0 -25.8863,-10.0517 -25.8863,-26.5748 0,-11.9793 9.5008,-25.3356 26.2994,-25.3356 13.4939,0 25.3355,11.5662 25.3355,26.024 m 0,-24.6471 -0.2753,0 c -5.9208,-8.5369 -16.6609,-12.9431 -27.2633,-12.9431 -20.2409,0 -37.3149,16.1101 -37.3149,36.7641 0,22.5816 17.9002,38.2787 37.8657,38.2787 12.3923,0 21.4801,-5.2324 26.7125,-12.6678 l 0.2753,0 0,11.0155 12.3924,0 0,-104.6469 -12.3924,0 0,44.1995 m -98.4184,52.4612 c 0,4.9569 4.1308,9.0877 9.0878,9.0877 4.9569,0 9.0877,-4.1308 9.0877,-9.0877 0,-4.957 -4.1308,-9.0878 -9.0877,-9.0878 -4.957,0 -9.0878,4.1308 -9.0878,9.0878 m -57.6289,-32.4956 0,-64.1651 -12.3924,0 0,104.6469 12.3924,0 0,-34.8364 29.8794,34.8364 17.3494,0 -33.8726,-38.5541 33.1841,-33.1841 -16.2478,0 -30.2925,31.2564 m -26.0972,-23.9587 c -5.0946,-4.4062 -14.3201,-8.95 -25.1979,-8.95 -20.6539,0 -36.7641,17.2116 -36.7641,37.7279 0,19.8278 14.5955,37.3149 36.6264,37.3149 9.2255,0 18.3132,-3.167 24.7848,-9.7762 l -7.2977,-9.0878 c -4.2685,3.9931 -10.0516,7.2978 -15.9724,7.2978 -14.3201,0 -24.9225,-10.7401 -24.9225,-25.3356 0,-17.6247 11.4285,-26.5748 23.6832,-26.5748 6.1962,0 11.704,2.3408 16.6609,7.16 l 8.3993,-9.7762 m -154.02285,28.6402 c 0,20.5163 15.42167,37.4526 38.8295,37.4526 23.40784,0 38.82951,-16.9363 38.82951,-37.4526 0,-20.2409 -16.24783,-37.5902 -38.82951,-37.5902 -22.58167,0 -38.8295,17.3493 -38.8295,37.5902 m 38.8295,-26.024 c 13.76932,0 25.61095,11.1532 25.61095,26.024 0,13.7693 -11.84163,25.8864 -25.61095,25.8864 -13.76931,0 -25.61095,-12.1171 -25.61095,-25.8864 0,-14.8708 11.84164,-26.024 25.61095,-26.024 m -71.4951,-42.8226 0,83.1667 c 0,15.0086 7.57314,21.4802 19.00167,21.4802 l 5.09466,0 0,-11.5663 -3.71772,0 c -3.9931,0 -7.98621,-2.7538 -7.98621,-10.8777 l 0,-82.2029 -12.3924,0 m -12.05245,40.2064 c -5.09465,-4.4062 -14.32011,-8.95 -25.19787,-8.95 -20.65397,0 -36.76411,17.2116 -36.76411,37.7279 0,19.8278 14.59551,37.3149 36.62642,37.3149 9.22544,0 18.31321,-3.167 24.78479,-9.7762 l -7.29775,-9.0878 c -4.26849,3.9931 -10.05161,7.2978 -15.97242,7.2978 -14.32009,0 -24.92248,-10.7401 -24.92248,-25.3356 0,-17.6247 11.42855,-26.5748 23.68324,-26.5748 6.19619,0 11.70394,2.3408 16.66089,7.16 l 8.39929,-9.7762 m -90.82164,28.6402 c 0,14.3201 -11.56625,25.8864 -25.74865,25.8864 -13.08085,0 -25.88633,-10.0517 -25.88633,-26.5748 0,-11.9793 9.50085,-25.3356 26.29941,-25.3356 13.49393,0 25.33557,11.5662 25.33557,26.024 m 0,-24.6471 -0.27539,0 c -5.92081,-8.5369 -16.6609,-12.9431 -27.26327,-12.9431 -20.24089,0 -37.31488,16.1101 -37.31488,36.7641 0,22.5816 17.90015,38.2787 37.86565,38.2787 12.39239,0 21.48016,-5.2324 26.7125,-12.6678 l 0.27539,0 0,11.0155 12.39239,0 0,-104.6469 -12.39239,0 0,44.1995 m -107.12322,60.4474 12.3924,0 0,-40.7572 c 0,-13.0809 6.88467,-20.2409 17.21166,-20.2409 1.9277,0 3.85541,0.2753 5.64542,0.6884 l 0,-13.0808 c -10.46468,0 -16.3855,0.6884 -22.5817,11.8416 l -0.27538,0 0,-10.1893 -12.3924,0 0,71.7382 m -140.42347,-24.9225 -0.27539,0 -23.82094,-79.7244 -12.39239,0 -23.82094,79.449 -0.27539,0 -23.40786,-79.449 -14.04471,0 32.22023,104.6469 10.1893,0 25.19787,-82.8914 0.27539,0 25.19787,82.8914 10.1893,0 32.22023,-104.6469 -14.04472,0 -23.40785,79.7244 m 58.22169,-58.9747 c -5.72018,0 -10.40625,4.6862 -10.40625,10.4063 0,5.72 4.68605,10.4062 10.40625,10.4062 5.72009,0 10.40625,-4.6861 10.40625,-10.4062 0,-5.7201 -4.68617,-10.4063 -10.40625,-10.4063 z m 48.03125,0 c -5.72008,0 -10.40625,4.6862 -10.40625,10.4063 0,5.7201 4.68616,10.4062 10.40625,10.4062 5.7201,0 10.40625,-4.6861 10.40625,-10.4062 0,-5.7201 -4.68617,-10.4063 -10.40625,-10.4063 z m -48.03125,4.8125 c 3.12376,0 5.59375,2.47 5.59375,5.5938 0,3.1237 -2.47,5.5937 -5.59375,5.5937 -3.12394,0 -5.625,-2.4699 -5.625,-5.5937 0,-3.1238 2.50104,-5.5938 5.625,-5.5938 z m 48.03125,0 c 3.12378,0 5.59375,2.47 5.59375,5.5938 0,3.1237 -2.46999,5.5937 -5.59375,5.5937 -3.12375,0 -5.59375,-2.47 -5.59375,-5.5937 0,-3.1238 2.46999,-5.5938 5.59375,-5.5938 z m -24.03125,11.1875 c -18.98604,0 -34.40625,15.4515 -34.40625,34.4375 0,18.986 15.42021,34.4375 34.40625,34.4375 18.98599,0 34.4375,-15.4515 34.4375,-34.4375 0,-18.986 -15.45151,-34.4375 -34.4375,-34.4375 z m 0,4.8125 c 16.38971,0 29.625,13.2353 29.625,29.625 0,16.3897 -13.23529,29.625 -29.625,29.625 -16.38976,0 -29.625,-13.2353 -29.625,-29.625 0,-16.3897 13.23524,-29.625 29.625,-29.625 z m 7.78125,3.1563 a 2.4022402,2.4022402 0 0 0 -2.0625,1.6875 l -7.125,21.4062 -13.53125,-6.7812 a 2.4022402,2.4022402 0 1 0 -2.125,4.2812 l 15.65625,7.875 a 2.4022402,2.4022402 0 0 0 0.21875,0.125 l 0.0937,0.031 a 2.4022402,2.4022402 0 0 0 0.34375,0.1563 2.4022402,2.4022402 0 0 0 0.21875,0.062 2.4022402,2.4022402 0 0 0 0.84375,0.031 2.4022402,2.4022402 0 0 0 0.34375,-0.062 2.4022402,2.4022402 0 0 0 0.34375,-0.125 2.4022402,2.4022402 0 0 0 0.3125,-0.1875 2.4022402,2.4022402 0 0 0 0.0937,-0.062 2.4022402,2.4022402 0 0 0 0.0937,-0.094 2.4022402,2.4022402 0 0 0 0.0937,-0.062 2.4022402,2.4022402 0 0 0 0.0937,-0.094 2.4022402,2.4022402 0 0 0 0.3125,-0.375 2.4022402,2.4022402 0 0 0 0.375,-0.9688 l 7.90625,-23.6562 a 2.4022402,2.4022402 0 0 0 -2.5,-3.1875 z"
         inkscape:connector-curvature="0" />
    </g>
    <path
       id="path15903-8"
       style="font-size:144px;font-style:normal;font-variant:normal;font-weight:300;font-stretch:normal;line-height:125%;letter-spacing:0px;word-spacing:0px;fill:none;stroke:#ff0000;stroke-width:0.04252093;font-family:DIN 30640 Std;-inkscape-font-specification:DIN 30640 Std Light"
       d="m 290.28367,-532.51436 c -0.29391,-0.2633 -0.64904,-0.3613 -0.98581,-0.3613 -0.88784,0 -1.3838,0.5144 -1.3838,1.0961 0,0.7102 0.6123,1.145 1.38992,1.145 0.42249,0 0.73476,-0.1225 1.01642,-0.4164 l 0,0.3429 0.51433,0 0,-2.1798 c 0,-0.7592 -0.71027,-1.0838 -1.47564,-1.0838 -0.28778,0 -0.66741,0.043 -1.15113,0.2449 l 0.2388,0.4593 c 0.30003,-0.147 0.58169,-0.2205 0.88171,-0.2205 0.42861,0 0.9552,0.1164 0.9552,0.643 l 0,0.3306 m 0.0183,0.7593 c 0,0.3122 -0.22655,0.6368 -0.90008,0.6368 -0.67353,0 -0.90008,-0.3246 -0.90008,-0.6368 0,-0.3123 0.22655,-0.6368 0.90008,-0.6368 0.67353,0 0.90008,0.3245 0.90008,0.6368 m -3.5588,1.047 0.55107,0 0,-2.0635 c 0,-0.8633 -0.61231,-1.2001 -1.23073,-1.2001 -0.35514,0 -0.71027,0.1592 -0.87559,0.447 l -0.0122,0 0,-0.3735 -0.55107,0 0,3.1901 0.55107,0 0,-1.7941 c 0,-0.6061 0.31227,-0.9551 0.82662,-0.9551 0.54494,0 0.74087,0.4163 0.74087,0.8939 l 0,1.8553 m -3.51593,0 0.55107,0 0,-2.0635 c 0,-0.8633 -0.61231,-1.2001 -1.23074,-1.2001 -0.35513,0 -0.71026,0.1592 -0.87559,0.447 l -0.0122,0 0,-0.3735 -0.55107,0 0,3.1901 0.55107,0 0,-1.7941 c 0,-0.6061 0.31228,-0.9551 0.82661,-0.9551 0.54496,0 0.74089,0.4163 0.74089,0.8939 l 0,1.8553 m -3.37291,-0.9552 c -0.28165,0.3306 -0.63067,0.5143 -1.02254,0.5143 -0.61843,0 -1.05928,-0.398 -1.14501,-0.9429 l 2.73087,0 c 0,-1.1266 -0.68578,-1.8798 -1.67158,-1.8798 -0.99806,0 -1.64709,0.7593 -1.64709,1.6655 0,0.8511 0.60617,1.6716 1.73894,1.6716 0.55719,0 1.01029,-0.2143 1.4389,-0.6919 l -0.42249,-0.3368 m -2.16755,-0.8817 c 0.0551,-0.4347 0.37963,-0.9123 1.05317,-0.9123 0.56943,0 0.99804,0.3857 1.05315,0.9123 l -2.10632,0 m -2.12391,-1.3532 -0.44086,0 0,0.4837 0.44086,0 0,2.0206 c 0,0.4899 0.17144,0.6858 0.73476,0.6858 0.12858,0 0.25716,0 0.33676,-0.01 l 0,-0.5082 -0.25104,0 c -0.2143,0 -0.26941,-0.061 -0.26941,-0.2327 l 0,-1.9594 0.50821,0 0,-0.4837 -0.50821,0 0,-0.7715 -0.55107,0 0,0.7715 m -1.5321,3.1901 0.55107,0 0,-2.0635 c 0,-0.8633 -0.6123,-1.2001 -1.23072,-1.2001 -0.35514,0 -0.71027,0.1592 -0.87559,0.447 l -0.0122,0 0,-0.3735 -0.55107,0 0,3.1901 0.55107,0 0,-1.794 c 0,-0.6062 0.31227,-0.9552 0.8266,-0.9552 0.54494,0 0.74089,0.4163 0.74089,0.8939 l 0,1.8553 m -3.30174,0 0.64292,0 -1.89202,-4.6535 -0.51433,0 -1.89201,4.6535 0.64291,0 0.42249,-1.0838 2.16755,0 0.42249,1.0838 m -0.62455,-1.5981 -1.76342,0 0.88171,-2.2839 0.88171,2.2839 m -7.2263,1.5981 0.58781,0 0,-2.0757 1.81853,0 0,-0.5511 -1.81853,0 0,-1.4756 1.81853,0 0,-0.5511 -2.40634,0 0,4.6535 m -0.62599,-4.133 c -0.3735,-0.3429 -0.97968,-0.594 -1.5981,-0.594 -1.57973,0 -2.46757,1.2491 -2.46757,2.4003 0,1.1511 0.88784,2.4002 2.46757,2.4002 0.58781,0 1.20011,-0.2449 1.61647,-0.6246 l -0.3735,-0.4225 c -0.32452,0.3062 -0.72863,0.496 -1.24297,0.496 -0.94907,0 -1.84303,-0.7654 -1.84303,-1.8491 0,-1.0716 0.86947,-1.8492 1.84303,-1.8492 0.44698,0 0.86947,0.1776 1.20011,0.4776 l 0.39799,-0.4347 m -8.43894,4.133 1.38379,0 c 1.32258,0 2.38186,-1.0164 2.38186,-2.3451 0,-1.3348 -1.09602,-2.3084 -2.2349,-2.3084 l -1.53075,0 0,4.6535 m 0.58781,-0.5511 0,-3.5513 0.74088,0 c 1.01642,0 1.81242,0.7347 1.81242,1.7267 0,1.0286 -0.72252,1.8246 -1.76343,1.8246 l -0.78987,0"
       inkscape:connector-curvature="0" />
  </g>
  <!-- DrawingContent -->
</svg>
