<?xml version="1.0" encoding="UTF-8" standalone="no"?>
<!-- Created with Inkscape (http://www.inkscape.org/) -->

<svg
   xmlns:dc="http://purl.org/dc/elements/1.1/"
   xmlns:cc="http://creativecommons.org/ns#"
   xmlns:rdf="http://www.w3.org/1999/02/22-rdf-syntax-ns#"
   xmlns:svg="http://www.w3.org/2000/svg"
   xmlns="http://www.w3.org/2000/svg"
   xmlns:sodipodi="http://sodipodi.sourceforge.net/DTD/sodipodi-0.dtd"
   xmlns:inkscape="http://www.inkscape.org/namespaces/inkscape"
   width="600mm"
   height="600mm"
   viewBox="0 0 600 600"
   id="svg2"
   version="1.1"
   inkscape:version="0.48.4 r9939"
   sodipodi:docname="front_overlay.svg">
  <defs
     id="defs4" />
  <sodipodi:namedview
     id="base"
     pagecolor="#ffffff"
     bordercolor="#666666"
     borderopacity="1.0"
     inkscape:pageopacity="0.0"
     inkscape:pageshadow="2"
     inkscape:zoom="0.24748738"
     inkscape:cx="869.39489"
     inkscape:cy="126.74479"
     inkscape:document-units="mm"
     inkscape:current-layer="layer1"
     showgrid="false"
     units="mm"
     inkscape:window-width="1366"
     inkscape:window-height="718"
     inkscape:window-x="0"
     inkscape:window-y="0"
     inkscape:window-maximized="1" />
  <metadata
     id="metadata7">
    <rdf:RDF>
      <cc:Work
         rdf:about="">
        <dc:format>image/svg+xml</dc:format>
        <dc:type
           rdf:resource="http://purl.org/dc/dcmitype/StillImage" />
        <dc:title />
      </cc:Work>
    </rdf:RDF>
  </metadata>
  <g
     inkscape:label="Layer 1"
     inkscape:groupmode="layer"
     id="layer1"
     transform="translate(0,1073.622)">
    <path
       style="opacity:1;fill:#ffffff;fill-opacity:1;stroke:#ff0000"
       d="m 139.99998,-906.95502 320.00004,0 m 0,266.66602 -320.00004,0"
       id="rect11532"
       inkscape:connector-curvature="0"
       sodipodi:nodetypes="cccc" />
    <rect
       style="fill:none;fill-opacity:1;stroke:#00ffff"
       id="rect12303"
       width="500.00003"
       height="500.00003"
       x="49.999985"
       y="-1023.622" />
    <rect
       style="fill:none;stroke:#00ffff"
       id="rect12305"
       width="50.000004"
       height="50.000004"
       x="500.5"
       y="-573.12201" />
    <path
       id="circle7044"
       style="fill:#000000;fill-opacity:0;stroke:#ff0000;stroke-width:1.13207555;stroke-linecap:round;stroke-linejoin:round;stroke-opacity:1"
       d="m 508.13686,-573.10678 c 0,4.1682 -3.37899,7.5472 -7.54718,7.5472 -4.1682,0 -7.54719,-3.379 -7.54719,-7.5472 0,-4.1682 3.37899,-7.5472 7.54719,-7.5472 4.16819,0 7.54718,3.379 7.54718,7.5472 z m -7.5539,0 1.88823,-5.6647 m -1.88823,5.6647 -3.76688,-1.8883 m 11.3212,-7.5457 c 0,1.0421 -0.84476,1.8868 -1.8868,1.8868 -1.04204,0 -1.8868,-0.8447 -1.8868,-1.8868 0,-1.042 0.84476,-1.8868 1.8868,-1.8868 1.04204,0 1.8868,0.8448 1.8868,1.8868 z m -11.32165,0 c 0,1.0421 -0.84476,1.8868 -1.8868,1.8868 -1.04207,0 -1.88679,-0.8447 -1.88679,-1.8868 0,-1.042 0.84472,-1.8868 1.88679,-1.8868 1.04204,0 1.8868,0.8448 1.8868,1.8868 z"
       inkscape:connector-curvature="0" />
  </g>
  <!-- DrawingContent -->
</svg>
