<?xml version="1.0" encoding="UTF-8" standalone="no"?>
<!-- Created with Inkscape (http://www.inkscape.org/) -->

<svg
   xmlns:dc="http://purl.org/dc/elements/1.1/"
   xmlns:cc="http://creativecommons.org/ns#"
   xmlns:rdf="http://www.w3.org/1999/02/22-rdf-syntax-ns#"
   xmlns:svg="http://www.w3.org/2000/svg"
   xmlns="http://www.w3.org/2000/svg"
   xmlns:sodipodi="http://sodipodi.sourceforge.net/DTD/sodipodi-0.dtd"
   xmlns:inkscape="http://www.inkscape.org/namespaces/inkscape"
   width="600mm"
   height="600mm"
   viewBox="0 0 600 600"
   id="svg2"
   version="1.1"
   inkscape:version="0.48.4 r9939"
   sodipodi:docname="template.svg">
  <defs
     id="defs4" />
  <sodipodi:namedview
     id="base"
     pagecolor="#ffffff"
     bordercolor="#666666"
     borderopacity="1.0"
     inkscape:pageopacity="0.0"
     inkscape:pageshadow="2"
     inkscape:zoom="0.35"
     inkscape:cx="45"
     inkscape:cy="520"
     inkscape:document-units="mm"
     inkscape:current-layer="layer1"
     showgrid="false"
     units="mm"
     inkscape:window-width="1366"
     inkscape:window-height="718"
     inkscape:window-x="0"
     inkscape:window-y="0"
     inkscape:window-maximized="1" />
  <metadata
     id="metadata7">
    <rdf:RDF>
      <cc:Work
         rdf:about="">
        <dc:format>image/svg+xml</dc:format>
        <dc:type
           rdf:resource="http://purl.org/dc/dcmitype/StillImage" />
        <dc:title />
      </cc:Work>
    </rdf:RDF>
  </metadata>
  <g
     inkscape:label="Layer 1"
     inkscape:groupmode="layer"
     id="layer1"
     transform="translate(0,1073.622)" />
<g id="View"
   transform="rotate(180,300,300) translate(300,300) scale(1,1)"
  >
<g   stroke="rgb(0, 0, 0)"
   stroke-width="0.35"
   stroke-linecap="butt"
   stroke-linejoin="miter"
   fill="none"
   transform="scale(1,-1)"
  >
<path id= "1" d=" M -250 250 L 250 250 " />
<path id= "2" d=" M -250 -250 L -250 250 " />
<path id= "3" d=" M 250 250 L 250 -250 " />
<path id= "4" d=" M 250 -250 L -250 -250 " />
<path id= "5" d=" M -152 -163.499 L -152 -161.999 " />
<path id= "6" d=" M -141 -163.499 L -152 -163.499 " />
<path id= "7" d=" M -152 -161.999 L -152 161.999 " />
<path id= "8" d=" M -141 -161.999 L -141 -163.499 " />
<path id= "9" d=" M -152 163.499 L -152 161.999 " />
<path id= "10" d=" M -141 161.999 L -141 -161.999 " />
<path id= "11" d=" M -141 163.499 L -152 163.499 " />
<path id= "12" d=" M -141 161.999 L -141 163.499 " />
<path id= "13" d=" M -5.5 -163.499 L -5.5 -161.999 " />
<path id= "14" d=" M 5.5 -163.499 L -5.5 -163.499 " />
<path id= "15" d=" M -5.5 -161.999 L -5.5 161.999 " />
<path id= "16" d=" M 5.5 -161.999 L 5.5 -163.499 " />
<path id= "17" d=" M -5.5 163.499 L -5.5 161.999 " />
<path id= "18" d=" M 5.5 161.999 L 5.5 -161.999 " />
<path id= "19" d=" M 5.5 163.499 L -5.5 163.499 " />
<path id= "20" d=" M 5.5 161.999 L 5.5 163.499 " />
<path id= "21" d=" M -23.8 161.999 L -23.8 163.499 " />
<path id= "22" d=" M -23.8 161.999 L -23.8 -161.999 " />
<path id= "23" d=" M -23.8 163.499 L -34.8 163.499 " />
<path id= "24" d=" M -23.8 -161.999 L -23.8 -163.499 " />
<path id= "25" d=" M -34.8 163.499 L -34.8 161.999 " />
<path id= "26" d=" M -23.8 -163.499 L -34.8 -163.499 " />
<path id= "27" d=" M -34.8 -161.999 L -34.8 161.999 " />
<path id= "28" d=" M -34.8 -163.499 L -34.8 -161.999 " />
<path id= "29" d=" M -53.1 161.999 L -53.1 163.499 " />
<path id= "30" d=" M -53.1 161.999 L -53.1 -161.999 " />
<path id= "31" d=" M -53.1 163.499 L -64.1 163.499 " />
<path id= "32" d=" M -53.1 -161.999 L -53.1 -163.499 " />
<path id= "33" d=" M -64.1 163.499 L -64.1 161.999 " />
<path id= "34" d=" M -53.1 -163.499 L -64.1 -163.499 " />
<path id= "35" d=" M -64.1 -161.999 L -64.1 161.999 " />
<path id= "36" d=" M -64.1 -163.499 L -64.1 -161.999 " />
<path id= "37" d=" M -122.7 -161.999 L -122.7 161.999 " />
<path id= "38" d=" M -122.7 -163.499 L -122.7 -161.999 " />
<path id= "39" d=" M -122.7 163.499 L -122.7 161.999 " />
<path id= "40" d=" M -111.7 -163.499 L -122.7 -163.499 " />
<path id= "41" d=" M -111.7 163.499 L -122.7 163.499 " />
<path id= "42" d=" M -111.7 -161.999 L -111.7 -163.499 " />
<path id= "43" d=" M -111.7 161.999 L -111.7 163.499 " />
<path id= "44" d=" M -111.7 161.999 L -111.7 -161.999 " />
<path id= "45" d=" M -93.4 -163.499 L -93.4 -161.999 " />
<path id= "46" d=" M -82.4 -163.499 L -93.4 -163.499 " />
<path id= "47" d=" M -93.4 -161.999 L -93.4 161.999 " />
<path id= "48" d=" M -82.4 -161.999 L -82.4 -163.499 " />
<path id= "49" d=" M -93.4 163.499 L -93.4 161.999 " />
<path id= "50" d=" M -82.4 161.999 L -82.4 -161.999 " />
<path id= "51" d=" M -82.4 163.499 L -93.4 163.499 " />
<path id= "52" d=" M -82.4 161.999 L -82.4 163.499 " />
<path id= "53" d=" M 141 -163.499 L 141 -161.999 " />
<path id= "54" d=" M 152 -163.499 L 141 -163.499 " />
<path id= "55" d=" M 141 -161.999 L 141 161.999 " />
<path id= "56" d=" M 152 -161.999 L 152 -163.499 " />
<path id= "57" d=" M 141 163.499 L 141 161.999 " />
<path id= "58" d=" M 152 161.999 L 152 -161.999 " />
<path id= "59" d=" M 152 163.499 L 141 163.499 " />
<path id= "60" d=" M 152 161.999 L 152 163.499 " />
<path id= "61" d=" M 111.7 -161.999 L 111.7 161.999 " />
<path id= "62" d=" M 111.7 -163.499 L 111.7 -161.999 " />
<path id= "63" d=" M 111.7 163.499 L 111.7 161.999 " />
<path id= "64" d=" M 122.7 -163.499 L 111.7 -163.499 " />
<path id= "65" d=" M 122.7 163.499 L 111.7 163.499 " />
<path id= "66" d=" M 122.7 -161.999 L 122.7 -163.499 " />
<path id= "67" d=" M 122.7 161.999 L 122.7 163.499 " />
<path id= "68" d=" M 122.7 161.999 L 122.7 -161.999 " />
<path id= "69" d=" M 82.4 -163.499 L 82.4 -161.999 " />
<path id= "70" d=" M 93.4 -163.499 L 82.4 -163.499 " />
<path id= "71" d=" M 82.4 -161.999 L 82.4 161.999 " />
<path id= "72" d=" M 93.4 -161.999 L 93.4 -163.499 " />
<path id= "73" d=" M 82.4 163.499 L 82.4 161.999 " />
<path id= "74" d=" M 93.4 161.999 L 93.4 -161.999 " />
<path id= "75" d=" M 93.4 163.499 L 82.4 163.499 " />
<path id= "76" d=" M 93.4 161.999 L 93.4 163.499 " />
<path id= "77" d=" M 34.8 161.999 L 34.8 163.499 " />
<path id= "78" d=" M 34.8 161.999 L 34.8 -161.999 " />
<path id= "79" d=" M 34.8 163.499 L 23.8 163.499 " />
<path id= "80" d=" M 34.8 -161.999 L 34.8 -163.499 " />
<path id= "81" d=" M 23.8 163.499 L 23.8 161.999 " />
<path id= "82" d=" M 34.8 -163.499 L 23.8 -163.499 " />
<path id= "83" d=" M 23.8 -161.999 L 23.8 161.999 " />
<path id= "84" d=" M 23.8 -163.499 L 23.8 -161.999 " />
<path id= "85" d=" M 53.1 -161.999 L 53.1 161.999 " />
<path id= "86" d=" M 53.1 -163.499 L 53.1 -161.999 " />
<path id= "87" d=" M 53.1 163.499 L 53.1 161.999 " />
<path id= "88" d=" M 64.1 -163.499 L 53.1 -163.499 " />
<path id= "89" d=" M 64.1 163.499 L 53.1 163.499 " />
<path id= "90" d=" M 64.1 -161.999 L 64.1 -163.499 " />
<path id= "91" d=" M 64.1 161.999 L 64.1 163.499 " />
<path id= "92" d=" M 64.1 161.999 L 64.1 -161.999 " />
<path id= "93" d=" M -55 196 L -56.5 196 " />
<path id= "94" d=" M -5.42671 196 L -55 196 " />
<path id= "95" d=" M -56.5 196 L -56.5 185 " />
<path id= "96" d=" M -3.99047 216.776 L -5.42671 196 " />
<path id= "97" d=" M -56.5 185 L -55 185 " />
<path d="M-3.99047 216.776 A4 4 0 0 0 3.99047 216.776" /><path id= "99" d=" M -55 185 L -5.45436 185 " />
<path id= "100" d=" M 3.99047 216.776 L 5.42671 196 " />
<path d="M5.45436 185 A6 6 0 0 0 -5.45436 185" /><path id= "102" d=" M 55 196 L 5.42671 196 " />
<path id= "103" d=" M 5.45436 185 L 55 185 " />
<path id= "104" d=" M 56.5 196 L 55 196 " />
<path id= "105" d=" M 55 185 L 56.5 185 " />
<path id= "106" d=" M 56.5 185 L 56.5 196 " />
<path id= "107" d=" M -14.9 131.999 L -14.9 123.999 " />
<path id= "108" d=" M -14.9 131.999 L -14.4 131.999 " />
<path d="M-15.0667 121.999 A12.0834 12.0834 0 0 1 -14.9 123.998" /><path id= "110" d=" M -14.4 131.999 L -14.4 116.999 " />
<path d="M-15.0667 121.998 A60.4166 60.4166 0 0 1 -15.9 111.999" /><path id= "112" d=" M -14.4 116.999 L -14.9 116.999 " />
<path d="M-15.0667 101.999 A60.4166 60.4166 0 0 0 -15.9 111.999" /><path d="M-14.9 116.999 A25.25 25.25 0 0 1 -15.4 111.999" /><path d="M-15.0667 101.998 A12.0834 12.0834 0 0 0 -14.9 99.9985" /><path d="M-14.9 106.999 A25.25 25.25 0 0 0 -15.4 111.999" /><path id= "117" d=" M -14.9 91.9985 L -14.9 99.9985 " />
<path id= "118" d=" M -14.4 106.999 L -14.9 106.999 " />
<path id= "119" d=" M -14.9 91.9985 L -14.4 91.9985 " />
<path id= "120" d=" M -14.4 91.9985 L -14.4 106.999 " />
<path id= "121" d=" M -160.9 106.999 L -161.4 106.999 " />
<path id= "122" d=" M -160.9 91.9985 L -160.9 106.999 " />
<path d="M-161.4 106.999 A25.25 25.25 0 0 0 -161.9 111.999" /><path id= "124" d=" M -161.4 91.9985 L -160.9 91.9985 " />
<path id= "125" d=" M -161.9 111.999 L -162.4 111.999 " />
<path id= "126" d=" M -161.4 91.9985 L -161.4 99.9985 " />
<path d="M-161.567 101.999 A60.4166 60.4166 0 0 0 -162.4 111.999" /><path d="M-161.567 101.998 A12.0834 12.0834 0 0 0 -161.4 99.9985" /><path d="M-132.1 116.999 A25.25 25.25 0 0 1 -132.6 111.999" /><path id= "130" d=" M -131.6 116.999 L -132.1 116.999 " />
<path id= "131" d=" M -132.6 111.999 L -133.1 111.999 " />
<path id= "132" d=" M -131.6 131.999 L -131.6 116.999 " />
<path d="M-132.267 121.998 A60.4166 60.4166 0 0 1 -133.1 111.999" /><path id= "134" d=" M -132.1 131.999 L -131.6 131.999 " />
<path d="M-132.267 121.999 A12.0834 12.0834 0 0 1 -132.1 123.998" /><path id= "136" d=" M -132.1 131.999 L -132.1 123.999 " />
<path id= "137" d=" M -43.7 106.999 L -44.2 106.999 " />
<path id= "138" d=" M -43.7 91.9985 L -43.7 106.999 " />
<path d="M-44.2 106.999 A25.25 25.25 0 0 0 -44.7 111.999" /><path id= "140" d=" M -44.2 91.9985 L -43.7 91.9985 " />
<path id= "141" d=" M -44.7 111.999 L -45.2 111.999 " />
<path id= "142" d=" M -44.2 91.9985 L -44.2 99.9985 " />
<path d="M-44.3667 101.999 A60.4166 60.4166 0 0 0 -45.2 111.999" /><path d="M-44.3667 101.998 A12.0834 12.0834 0 0 0 -44.2 99.9985" /><path id= "145" d=" M -102.8 131.999 L -102.8 123.999 " />
<path id= "146" d=" M -102.8 131.999 L -102.3 131.999 " />
<path d="M-102.967 121.999 A12.0834 12.0834 0 0 1 -102.8 123.998" /><path id= "148" d=" M -102.3 131.999 L -102.3 116.999 " />
<path d="M-102.967 121.998 A60.4166 60.4166 0 0 1 -103.8 111.999" /><path id= "150" d=" M -102.3 116.999 L -102.8 116.999 " />
<path id= "151" d=" M -103.3 111.999 L -103.8 111.999 " />
<path d="M-102.8 116.999 A25.25 25.25 0 0 1 -103.3 111.999" /><path id= "153" d=" M -102.8 91.9985 L -102.3 91.9985 " />
<path id= "154" d=" M -102.8 91.9985 L -102.8 99.9985 " />
<path id= "155" d=" M -102.3 91.9985 L -102.3 106.999 " />
<path d="M-102.967 101.998 A12.0834 12.0834 0 0 0 -102.8 99.9985" /><path id= "157" d=" M -102.3 106.999 L -102.8 106.999 " />
<path d="M-102.967 101.999 A60.4166 60.4166 0 0 0 -103.8 111.999" /><path d="M-102.8 106.999 A25.25 25.25 0 0 0 -103.3 111.999" /><path id= "160" d=" M -103.3 111.999 L -103.8 111.999 " />
<path id= "161" d=" M 14.9 91.9985 L 14.9 99.9985 " />
<path id= "162" d=" M 14.9 91.9985 L 14.4 91.9985 " />
<path d="M15.0667 101.998 A12.0834 12.0834 0 0 1 14.9 99.9985" /><path id= "164" d=" M 14.4 91.9985 L 14.4 106.998 " />
<path d="M15.0667 101.999 A60.4166 60.4166 0 0 1 15.9 111.998" /><path id= "166" d=" M 14.4 106.998 L 14.9 106.998 " />
<path id= "167" d=" M 15.4 111.998 L 15.9 111.998 " />
<path d="M14.9 106.998 A25.25 25.25 0 0 1 15.4 111.998" /><path d="M73.5 116.999 A25.25 25.25 0 0 0 74 111.999" /><path id= "170" d=" M 73 116.999 L 73.5 116.999 " />
<path id= "171" d=" M 74 111.999 L 74.5 111.999 " />
<path id= "172" d=" M 73 131.999 L 73 116.999 " />
<path d="M73.6667 121.998 A60.4166 60.4166 0 0 0 74.5 111.999" /><path id= "174" d=" M 73.5 131.999 L 73 131.999 " />
<path d="M73.6667 121.999 A12.0834 12.0834 0 0 0 73.5 123.998" /><path id= "176" d=" M 73.5 131.999 L 73.5 123.999 " />
<path id= "177" d=" M -131.6 -91.9985 L -131.6 -106.998 " />
<path id= "178" d=" M -132.1 -91.9985 L -131.6 -91.9985 " />
<path id= "179" d=" M -131.6 -106.998 L -132.1 -106.998 " />
<path id= "180" d=" M -132.1 -91.9985 L -132.1 -99.9985 " />
<path d="M-132.1 -106.998 A25.25 25.25 0 0 1 -132.6 -111.998" /><path d="M-132.267 -101.998 A12.0834 12.0834 0 0 1 -132.1 -99.9985" /><path id= "183" d=" M -132.6 -111.998 L -133.1 -111.998 " />
<path d="M-132.267 -101.999 A60.4166 60.4166 0 0 1 -133.1 -111.998" /><path id= "185" d=" M 44.2 -91.9985 L 43.7 -91.9985 " />
<path id= "186" d=" M 44.2 -91.9985 L 44.2 -99.9985 " />
<path id= "187" d=" M 43.7 -91.9985 L 43.7 -106.999 " />
<path d="M44.3667 -101.998 A12.0834 12.0834 0 0 0 44.2 -99.9985" /><path id= "189" d=" M 43.7 -106.999 L 44.2 -106.999 " />
<path d="M44.3667 -101.999 A60.4166 60.4166 0 0 0 45.2 -111.999" /><path d="M44.2 -106.999 A25.25 25.25 0 0 0 44.7 -111.999" /><path id= "192" d=" M 44.7 -111.999 L 45.2 -111.999 " />
<path id= "193" d=" M -73.5 -91.9985 L -73.5 -99.9985 " />
<path id= "194" d=" M -73.5 -91.9985 L -73 -91.9985 " />
<path d="M-73.6667 -101.998 A12.0834 12.0834 0 0 1 -73.5 -99.9985" /><path id= "196" d=" M -73 -91.9985 L -73 -106.998 " />
<path d="M-73.6667 -101.999 A60.4166 60.4166 0 0 1 -74.5 -111.998" /><path id= "198" d=" M -73 -106.998 L -73.5 -106.998 " />
<path id= "199" d=" M -74 -111.998 L -74.5 -111.998 " />
<path d="M-73.5 -106.998 A25.25 25.25 0 0 1 -74 -111.998" /><path d="M-102.967 -101.999 A60.4166 60.4166 0 0 1 -103.8 -111.998" /><path d="M-102.967 -101.998 A12.0834 12.0834 0 0 1 -102.8 -99.9985" /><path id= "203" d=" M -103.3 -111.998 L -103.8 -111.998 " />
<path id= "204" d=" M -102.8 -91.9985 L -102.8 -99.9985 " />
<path d="M-102.8 -106.998 A25.25 25.25 0 0 1 -103.3 -111.998" /><path id= "206" d=" M -102.8 -91.9985 L -102.3 -91.9985 " />
<path id= "207" d=" M -102.3 -106.998 L -102.8 -106.998 " />
<path id= "208" d=" M -102.3 -91.9985 L -102.3 -106.998 " />
<path d="M132.267 -101.998 A12.0834 12.0834 0 0 0 132.1 -99.9985" /><path d="M132.267 -101.999 A60.4166 60.4166 0 0 0 133.1 -111.999" /><path id= "211" d=" M 132.1 -91.9985 L 132.1 -99.9985 " />
<path id= "212" d=" M 132.6 -111.999 L 133.1 -111.999 " />
<path id= "213" d=" M 132.1 -91.9985 L 131.6 -91.9985 " />
<path d="M132.1 -106.999 A25.25 25.25 0 0 0 132.6 -111.999" /><path id= "215" d=" M 131.6 -91.9985 L 131.6 -106.999 " />
<path id= "216" d=" M 131.6 -106.999 L 132.1 -106.999 " />
<path id= "217" d=" M 15.4 -111.999 L 15.9 -111.999 " />
<path d="M14.9 -106.999 A25.25 25.25 0 0 0 15.4 -111.999" /><path d="M15.0667 -101.999 A60.4166 60.4166 0 0 0 15.9 -111.999" /><path id= "220" d=" M 14.4 -106.999 L 14.9 -106.999 " />
<path d="M15.0667 -101.998 A12.0834 12.0834 0 0 0 14.9 -99.9985" /><path id= "222" d=" M 14.4 -91.9985 L 14.4 -106.999 " />
<path id= "223" d=" M 14.9 -91.9985 L 14.9 -99.9985 " />
<path id= "224" d=" M 14.9 -91.9985 L 14.4 -91.9985 " />
<path id= "225" d=" M 132.1 -131.999 L 132.1 -123.999 " />
<path id= "226" d=" M 132.1 -131.999 L 131.6 -131.999 " />
<path d="M132.267 -121.999 A12.0834 12.0834 0 0 1 132.1 -123.998" /><path id= "228" d=" M 131.6 -131.999 L 131.6 -116.999 " />
<path d="M132.267 -121.998 A60.4166 60.4166 0 0 1 133.1 -111.999" /><path id= "230" d=" M 131.6 -116.999 L 132.1 -116.999 " />
<path id= "231" d=" M 132.6 -111.999 L 133.1 -111.999 " />
<path d="M132.1 -116.999 A25.25 25.25 0 0 1 132.6 -111.999" /><path id= "233" d=" M -160.9 -131.999 L -160.9 -116.999 " />
<path id= "234" d=" M -161.4 -131.999 L -160.9 -131.999 " />
<path id= "235" d=" M -160.9 -116.999 L -161.4 -116.999 " />
<path id= "236" d=" M -161.4 -131.999 L -161.4 -123.999 " />
<path d="M-161.4 -116.999 A25.25 25.25 0 0 0 -161.9 -111.999" /><path d="M-161.567 -121.999 A12.0834 12.0834 0 0 0 -161.4 -123.998" /><path id= "239" d=" M -161.9 -111.999 L -162.4 -111.999 " />
<path d="M-161.567 -121.998 A60.4166 60.4166 0 0 0 -162.4 -111.999" /><path id= "241" d=" M -132.1 -131.999 L -131.6 -131.999 " />
<path id= "242" d=" M -132.1 -131.999 L -132.1 -123.999 " />
<path id= "243" d=" M -131.6 -131.999 L -131.6 -116.999 " />
<path d="M-132.267 -121.999 A12.0834 12.0834 0 0 0 -132.1 -123.998" /><path id= "245" d=" M -131.6 -116.999 L -132.1 -116.999 " />
<path d="M-132.267 -121.998 A60.4166 60.4166 0 0 0 -133.1 -111.999" /><path d="M-132.1 -116.999 A25.25 25.25 0 0 0 -132.6 -111.999" /><path id= "248" d=" M -132.6 -111.999 L -133.1 -111.999 " />
<path id= "249" d=" M -73.5 -131.999 L -73 -131.999 " />
<path id= "250" d=" M -73.5 -131.999 L -73.5 -123.999 " />
<path id= "251" d=" M -73 -131.999 L -73 -116.999 " />
<path d="M-73.6667 -121.999 A12.0834 12.0834 0 0 0 -73.5 -123.998" /><path id= "253" d=" M -73 -116.999 L -73.5 -116.999 " />
<path d="M-73.6667 -121.998 A60.4166 60.4166 0 0 0 -74.5 -111.999" /><path d="M-73.5 -116.999 A25.25 25.25 0 0 0 -74 -111.999" /><path id= "256" d=" M -74 -111.999 L -74.5 -111.999 " />
<path id= "257" d=" M 43.7 -131.999 L 43.7 -116.999 " />
<path id= "258" d=" M 44.2 -131.999 L 43.7 -131.999 " />
<path id= "259" d=" M 43.7 -116.999 L 44.2 -116.999 " />
<path id= "260" d=" M 44.2 -131.999 L 44.2 -123.999 " />
<path d="M44.2 -116.999 A25.25 25.25 0 0 1 44.7 -111.999" /><path d="M44.3667 -121.999 A12.0834 12.0834 0 0 1 44.2 -123.998" /><path id= "263" d=" M 44.7 -111.999 L 45.2 -111.999 " />
<path d="M44.3667 -121.998 A60.4166 60.4166 0 0 1 45.2 -111.999" /><path id= "265" d=" M 102.8 91.9985 L 102.8 99.9985 " />
<path id= "266" d=" M 102.8 91.9985 L 102.3 91.9985 " />
<path d="M102.967 101.998 A12.0834 12.0834 0 0 1 102.8 99.9985" /><path id= "268" d=" M 102.3 91.9985 L 102.3 106.998 " />
<path d="M102.967 101.999 A60.4166 60.4166 0 0 1 103.8 111.998" /><path id= "270" d=" M 102.3 106.998 L 102.8 106.998 " />
<path id= "271" d=" M 103.3 111.998 L 103.8 111.998 " />
<path d="M102.8 106.998 A25.25 25.25 0 0 1 103.3 111.998" /><path d="M73.6667 -121.998 A60.4166 60.4166 0 0 1 74.5 -111.999" /><path d="M73.6667 -121.999 A12.0834 12.0834 0 0 1 73.5 -123.998" /><path id= "275" d=" M 74 -111.999 L 74.5 -111.999 " />
<path id= "276" d=" M 73.5 -131.999 L 73.5 -123.999 " />
<path d="M73.5 -116.999 A25.25 25.25 0 0 1 74 -111.999" /><path id= "278" d=" M 73.5 -131.999 L 73 -131.999 " />
<path id= "279" d=" M 73 -116.999 L 73.5 -116.999 " />
<path id= "280" d=" M 73 -131.999 L 73 -116.999 " />
<path id= "281" d=" M 103.3 -111.999 L 103.8 -111.999 " />
<path d="M102.8 -106.999 A25.25 25.25 0 0 0 103.3 -111.999" /><path d="M102.967 -101.999 A60.4166 60.4166 0 0 0 103.8 -111.999" /><path id= "284" d=" M 102.3 -106.999 L 102.8 -106.999 " />
<path d="M102.967 -101.998 A12.0834 12.0834 0 0 0 102.8 -99.9985" /><path id= "286" d=" M 102.3 -91.9985 L 102.3 -106.999 " />
<path id= "287" d=" M 102.8 -91.9985 L 102.8 -99.9985 " />
<path id= "288" d=" M 102.8 -91.9985 L 102.3 -91.9985 " />
<path id= "289" d=" M 73.5 -91.9985 L 73 -91.9985 " />
<path id= "290" d=" M 73.5 -91.9985 L 73.5 -99.9985 " />
<path id= "291" d=" M 73 -91.9985 L 73 -106.999 " />
<path d="M73.6667 -101.998 A12.0834 12.0834 0 0 0 73.5 -99.9985" /><path id= "293" d=" M 73 -106.999 L 73.5 -106.999 " />
<path d="M73.6667 -101.999 A60.4166 60.4166 0 0 0 74.5 -111.999" /><path d="M73.5 -106.999 A25.25 25.25 0 0 0 74 -111.999" /><path id= "296" d=" M 74 -111.999 L 74.5 -111.999 " />
<path d="M102.967 121.999 A12.0834 12.0834 0 0 0 102.8 123.998" /><path d="M102.967 121.998 A60.4166 60.4166 0 0 0 103.8 111.999" /><path id= "299" d=" M 102.8 131.999 L 102.8 123.999 " />
<path id= "300" d=" M 103.3 111.999 L 103.8 111.999 " />
<path id= "301" d=" M 102.8 131.999 L 102.3 131.999 " />
<path d="M102.8 116.999 A25.25 25.25 0 0 0 103.3 111.999" /><path id= "303" d=" M 102.3 131.999 L 102.3 116.999 " />
<path id= "304" d=" M 102.3 116.999 L 102.8 116.999 " />
<path id= "305" d=" M -73 106.999 L -73.5 106.999 " />
<path id= "306" d=" M -73 91.9985 L -73 106.999 " />
<path d="M-73.5 106.999 A25.25 25.25 0 0 0 -74 111.999" /><path id= "308" d=" M -73.5 91.9985 L -73 91.9985 " />
<path id= "309" d=" M -74 111.999 L -74.5 111.999 " />
<path id= "310" d=" M -73.5 91.9985 L -73.5 99.9985 " />
<path d="M-73.6667 101.999 A60.4166 60.4166 0 0 0 -74.5 111.999" /><path d="M-73.6667 101.998 A12.0834 12.0834 0 0 0 -73.5 99.9985" /><path d="M-15.0667 -121.999 A12.0834 12.0834 0 0 0 -14.9 -123.998" /><path d="M-15.0667 -121.998 A60.4166 60.4166 0 0 0 -15.9 -111.999" /><path id= "315" d=" M -14.9 -131.999 L -14.9 -123.999 " />
<path id= "316" d=" M -15.4 -111.999 L -15.9 -111.999 " />
<path id= "317" d=" M -14.9 -131.999 L -14.4 -131.999 " />
<path d="M-14.9 -116.999 A25.25 25.25 0 0 0 -15.4 -111.999" /><path id= "319" d=" M -14.4 -131.999 L -14.4 -116.999 " />
<path id= "320" d=" M -14.4 -116.999 L -14.9 -116.999 " />
<path id= "321" d=" M -14.4 -106.998 L -14.9 -106.998 " />
<path id= "322" d=" M -14.4 -91.9985 L -14.4 -106.998 " />
<path d="M-14.9 -106.998 A25.25 25.25 0 0 1 -15.4 -111.998" /><path id= "324" d=" M -14.9 -91.9985 L -14.4 -91.9985 " />
<path id= "325" d=" M -15.4 -111.998 L -15.9 -111.998 " />
<path id= "326" d=" M -14.9 -91.9985 L -14.9 -99.9985 " />
<path d="M-15.0667 -101.999 A60.4166 60.4166 0 0 1 -15.9 -111.998" /><path d="M-15.0667 -101.998 A12.0834 12.0834 0 0 1 -14.9 -99.9985" /><path d="M-44.3667 -101.999 A60.4166 60.4166 0 0 1 -45.2 -111.998" /><path d="M-44.3667 -101.998 A12.0834 12.0834 0 0 1 -44.2 -99.9985" /><path id= "331" d=" M -44.7 -111.998 L -45.2 -111.998 " />
<path id= "332" d=" M -44.2 -91.9985 L -44.2 -99.9985 " />
<path d="M-44.2 -106.998 A25.25 25.25 0 0 1 -44.7 -111.998" /><path id= "334" d=" M -44.2 -91.9985 L -43.7 -91.9985 " />
<path id= "335" d=" M -43.7 -106.998 L -44.2 -106.998 " />
<path id= "336" d=" M -43.7 -91.9985 L -43.7 -106.998 " />
<path d="M15.0667 121.999 A12.0834 12.0834 0 0 0 14.9 123.998" /><path d="M15.0667 121.998 A60.4166 60.4166 0 0 0 15.9 111.999" /><path id= "339" d=" M 14.9 131.999 L 14.9 123.999 " />
<path id= "340" d=" M 15.4 111.999 L 15.9 111.999 " />
<path id= "341" d=" M 14.9 131.999 L 14.4 131.999 " />
<path d="M14.9 116.999 A25.25 25.25 0 0 0 15.4 111.999" /><path id= "343" d=" M 14.4 131.999 L 14.4 116.999 " />
<path id= "344" d=" M 14.4 116.999 L 14.9 116.999 " />
<path d="M14.9 -116.999 A25.25 25.25 0 0 1 15.4 -111.999" /><path id= "346" d=" M 14.4 -116.999 L 14.9 -116.999 " />
<path id= "347" d=" M 15.4 -111.999 L 15.9 -111.999 " />
<path id= "348" d=" M 14.4 -131.999 L 14.4 -116.999 " />
<path d="M15.0667 -121.998 A60.4166 60.4166 0 0 1 15.9 -111.999" /><path id= "350" d=" M 14.9 -131.999 L 14.4 -131.999 " />
<path d="M15.0667 -121.999 A12.0834 12.0834 0 0 1 14.9 -123.998" /><path id= "352" d=" M 14.9 -131.999 L 14.9 -123.999 " />
<path id= "353" d=" M 160.9 -116.999 L 161.4 -116.999 " />
<path id= "354" d=" M 160.9 -131.999 L 160.9 -116.999 " />
<path d="M161.4 -116.999 A25.25 25.25 0 0 1 161.9 -111.999" /><path id= "356" d=" M 161.4 -131.999 L 160.9 -131.999 " />
<path id= "357" d=" M 161.9 -111.999 L 162.4 -111.999 " />
<path id= "358" d=" M 161.4 -131.999 L 161.4 -123.999 " />
<path d="M161.567 -121.998 A60.4166 60.4166 0 0 1 162.4 -111.999" /><path d="M161.567 -121.999 A12.0834 12.0834 0 0 1 161.4 -123.998" /><path d="M161.567 -101.998 A12.0834 12.0834 0 0 0 161.4 -99.9985" /><path d="M161.567 -101.999 A60.4166 60.4166 0 0 0 162.4 -111.999" /><path id= "363" d=" M 161.4 -91.9985 L 161.4 -99.9985 " />
<path id= "364" d=" M 161.9 -111.999 L 162.4 -111.999 " />
<path id= "365" d=" M 161.4 -91.9985 L 160.9 -91.9985 " />
<path d="M161.4 -106.999 A25.25 25.25 0 0 0 161.9 -111.999" /><path id= "367" d=" M 160.9 -91.9985 L 160.9 -106.999 " />
<path id= "368" d=" M 160.9 -106.999 L 161.4 -106.999 " />
<path id= "369" d=" M 160.9 131.999 L 160.9 116.999 " />
<path id= "370" d=" M 161.4 131.999 L 160.9 131.999 " />
<path id= "371" d=" M 160.9 116.999 L 161.4 116.999 " />
<path id= "372" d=" M 161.4 131.999 L 161.4 123.999 " />
<path d="M161.4 116.999 A25.25 25.25 0 0 0 161.9 111.999" /><path d="M161.567 121.999 A12.0834 12.0834 0 0 0 161.4 123.998" /><path id= "375" d=" M 161.9 111.999 L 162.4 111.999 " />
<path d="M161.567 121.998 A60.4166 60.4166 0 0 0 162.4 111.999" /><path id= "377" d=" M 161.4 91.9985 L 160.9 91.9985 " />
<path id= "378" d=" M 161.4 91.9985 L 161.4 99.9985 " />
<path id= "379" d=" M 160.9 91.9985 L 160.9 106.998 " />
<path d="M161.567 101.998 A12.0834 12.0834 0 0 1 161.4 99.9985" /><path id= "381" d=" M 160.9 106.998 L 161.4 106.998 " />
<path d="M161.567 101.999 A60.4166 60.4166 0 0 1 162.4 111.998" /><path d="M161.4 106.998 A25.25 25.25 0 0 1 161.9 111.998" /><path id= "384" d=" M 161.9 111.998 L 162.4 111.998 " />
<path id= "385" d=" M 131.6 116.999 L 132.1 116.999 " />
<path id= "386" d=" M 131.6 131.999 L 131.6 116.999 " />
<path d="M132.1 116.999 A25.25 25.25 0 0 0 132.6 111.999" /><path id= "388" d=" M 132.1 131.999 L 131.6 131.999 " />
<path id= "389" d=" M 132.6 111.999 L 133.1 111.999 " />
<path id= "390" d=" M 132.1 131.999 L 132.1 123.999 " />
<path d="M132.267 121.998 A60.4166 60.4166 0 0 0 133.1 111.999" /><path d="M132.267 121.999 A12.0834 12.0834 0 0 0 132.1 123.998" /><path id= "393" d=" M 43.7 131.999 L 43.7 116.999 " />
<path id= "394" d=" M 44.2 131.999 L 43.7 131.999 " />
<path id= "395" d=" M 43.7 116.999 L 44.2 116.999 " />
<path id= "396" d=" M 44.2 131.999 L 44.2 123.999 " />
<path d="M44.2 116.999 A25.25 25.25 0 0 0 44.7 111.999" /><path d="M44.3667 121.999 A12.0834 12.0834 0 0 0 44.2 123.998" /><path id= "399" d=" M 44.7 111.999 L 45.2 111.999 " />
<path d="M44.3667 121.998 A60.4166 60.4166 0 0 0 45.2 111.999" /><path id= "401" d=" M -160.9 116.999 L -161.4 116.999 " />
<path id= "402" d=" M -160.9 131.999 L -160.9 116.999 " />
<path d="M-161.4 116.999 A25.25 25.25 0 0 1 -161.9 111.999" /><path id= "404" d=" M -161.4 131.999 L -160.9 131.999 " />
<path id= "405" d=" M -161.9 111.999 L -162.4 111.999 " />
<path id= "406" d=" M -161.4 131.999 L -161.4 123.999 " />
<path d="M-161.567 121.998 A60.4166 60.4166 0 0 1 -162.4 111.999" /><path d="M-161.567 121.999 A12.0834 12.0834 0 0 1 -161.4 123.998" /><path id= "409" d=" M -160.9 -91.9985 L -160.9 -106.998 " />
<path id= "410" d=" M -161.4 -91.9985 L -160.9 -91.9985 " />
<path id= "411" d=" M -160.9 -106.998 L -161.4 -106.998 " />
<path id= "412" d=" M -161.4 -91.9985 L -161.4 -99.9985 " />
<path d="M-161.4 -106.998 A25.25 25.25 0 0 1 -161.9 -111.998" /><path d="M-161.567 -101.998 A12.0834 12.0834 0 0 1 -161.4 -99.9985" /><path id= "415" d=" M -161.9 -111.998 L -162.4 -111.998 " />
<path d="M-161.567 -101.999 A60.4166 60.4166 0 0 1 -162.4 -111.998" /><path d="M-102.967 -121.999 A12.0834 12.0834 0 0 0 -102.8 -123.998" /><path d="M-102.967 -121.998 A60.4166 60.4166 0 0 0 -103.8 -111.999" /><path id= "419" d=" M -102.8 -131.999 L -102.8 -123.999 " />
<path id= "420" d=" M -103.3 -111.999 L -103.8 -111.999 " />
<path id= "421" d=" M -102.8 -131.999 L -102.3 -131.999 " />
<path d="M-102.8 -116.999 A25.25 25.25 0 0 0 -103.3 -111.999" /><path id= "423" d=" M -102.3 -131.999 L -102.3 -116.999 " />
<path id= "424" d=" M -102.3 -116.999 L -102.8 -116.999 " />
<path id= "425" d=" M -43.7 -131.999 L -43.7 -116.999 " />
<path id= "426" d=" M -44.2 -131.999 L -43.7 -131.999 " />
<path id= "427" d=" M -43.7 -116.999 L -44.2 -116.999 " />
<path id= "428" d=" M -44.2 -131.999 L -44.2 -123.999 " />
<path d="M-44.2 -116.999 A25.25 25.25 0 0 0 -44.7 -111.999" /><path d="M-44.3667 -121.999 A12.0834 12.0834 0 0 0 -44.2 -123.998" /><path id= "431" d=" M -44.7 -111.999 L -45.2 -111.999 " />
<path d="M-44.3667 -121.998 A60.4166 60.4166 0 0 0 -45.2 -111.999" /><path d="M-73.6667 121.998 A60.4166 60.4166 0 0 1 -74.5 111.999" /><path d="M-73.6667 121.999 A12.0834 12.0834 0 0 1 -73.5 123.998" /><path id= "435" d=" M -74 111.999 L -74.5 111.999 " />
<path id= "436" d=" M -73.5 131.999 L -73.5 123.999 " />
<path d="M-73.5 116.999 A25.25 25.25 0 0 1 -74 111.999" /><path id= "438" d=" M -73.5 131.999 L -73 131.999 " />
<path id= "439" d=" M -73 116.999 L -73.5 116.999 " />
<path id= "440" d=" M -73 131.999 L -73 116.999 " />
<path id= "441" d=" M -44.2 131.999 L -44.2 123.999 " />
<path id= "442" d=" M -44.2 131.999 L -43.7 131.999 " />
<path d="M-44.3667 121.999 A12.0834 12.0834 0 0 1 -44.2 123.998" /><path id= "444" d=" M -43.7 131.999 L -43.7 116.999 " />
<path d="M-44.3667 121.998 A60.4166 60.4166 0 0 1 -45.2 111.999" /><path id= "446" d=" M -43.7 116.999 L -44.2 116.999 " />
<path id= "447" d=" M -44.7 111.999 L -45.2 111.999 " />
<path d="M-44.2 116.999 A25.25 25.25 0 0 1 -44.7 111.999" /><path d="M102.8 -116.999 A25.25 25.25 0 0 1 103.3 -111.999" /><path id= "450" d=" M 102.3 -116.999 L 102.8 -116.999 " />
<path id= "451" d=" M 103.3 -111.999 L 103.8 -111.999 " />
<path id= "452" d=" M 102.3 -131.999 L 102.3 -116.999 " />
<path d="M102.967 -121.998 A60.4166 60.4166 0 0 1 103.8 -111.999" /><path id= "454" d=" M 102.8 -131.999 L 102.3 -131.999 " />
<path d="M102.967 -121.999 A12.0834 12.0834 0 0 1 102.8 -123.998" /><path id= "456" d=" M 102.8 -131.999 L 102.8 -123.999 " />
<path id= "457" d=" M 43.7 91.9985 L 43.7 106.998 " />
<path id= "458" d=" M 44.2 91.9985 L 43.7 91.9985 " />
<path id= "459" d=" M 43.7 106.998 L 44.2 106.998 " />
<path id= "460" d=" M 44.2 91.9985 L 44.2 99.9985 " />
<path d="M44.2 106.998 A25.25 25.25 0 0 1 44.7 111.998" /><path d="M44.3667 101.998 A12.0834 12.0834 0 0 1 44.2 99.9985" /><path id= "463" d=" M 44.7 111.998 L 45.2 111.998 " />
<path d="M44.3667 101.999 A60.4166 60.4166 0 0 1 45.2 111.998" /><path id= "465" d=" M 73 106.998 L 73.5 106.998 " />
<path id= "466" d=" M 73 91.9985 L 73 106.998 " />
<path d="M73.5 106.998 A25.25 25.25 0 0 1 74 111.998" /><path id= "468" d=" M 73.5 91.9985 L 73 91.9985 " />
<path id= "469" d=" M 74 111.998 L 74.5 111.998 " />
<path id= "470" d=" M 73.5 91.9985 L 73.5 99.9985 " />
<path d="M73.6667 101.999 A60.4166 60.4166 0 0 1 74.5 111.998" /><path d="M73.6667 101.998 A12.0834 12.0834 0 0 1 73.5 99.9985" /><path id= "473" d=" M -132.1 91.9985 L -131.6 91.9985 " />
<path id= "474" d=" M -132.1 91.9985 L -132.1 99.9985 " />
<path id= "475" d=" M -131.6 91.9985 L -131.6 106.999 " />
<path d="M-132.267 101.998 A12.0834 12.0834 0 0 0 -132.1 99.9985" /><path id= "477" d=" M -131.6 106.999 L -132.1 106.999 " />
<path d="M-132.267 101.999 A60.4166 60.4166 0 0 0 -133.1 111.999" /><path d="M-132.1 106.999 A25.25 25.25 0 0 0 -132.6 111.999" /><path id= "480" d=" M -132.6 111.999 L -133.1 111.999 " />
<path id= "481" d=" M 132.1 91.9985 L 132.1 99.9985 " />
<path id= "482" d=" M 132.1 91.9985 L 131.6 91.9985 " />
<path d="M132.267 101.998 A12.0834 12.0834 0 0 1 132.1 99.9985" /><path id= "484" d=" M 131.6 91.9985 L 131.6 106.998 " />
<path d="M132.267 101.999 A60.4166 60.4166 0 0 1 133.1 111.998" /><path id= "486" d=" M 131.6 106.998 L 132.1 106.998 " />
<path id= "487" d=" M 132.6 111.998 L 133.1 111.998 " />
<path d="M132.1 106.998 A25.25 25.25 0 0 1 132.6 111.998" /><path id= "489" d=" M -51.5 178 L -51.5 177.5 " />
<path id= "490" d=" M -51.5 177.5 L -43.5 177.5 " />
<path d="M-41.5 177.333 A12.0835 12.0835 0 0 1 -43.5 177.5" /><path d="M-41.5 177.333 A60.4168 60.4168 0 0 1 -31.5 176.5" /><path d="M-21.5 177.333 A60.4168 60.4168 0 0 0 -31.5 176.5" /><path d="M-21.5 177.333 A12.0835 12.0835 0 0 0 -19.5 177.5" /><path id= "495" d=" M -11.5 177.5 L -19.5 177.5 " />
<path id= "496" d=" M -11.5 178 L -11.5 177.5 " />
<path id= "497" d=" M -11.5 178 L -26.5 178 " />
<path id= "498" d=" M -26.5 178 L -26.5 177.5 " />
<path d="M-26.5 177.5 A25.25 25.25 0 0 0 -31.5 177" /><path d="M-36.5 177.5 A25.25 25.25 0 0 1 -31.5 177" /><path id= "501" d=" M -36.5 178 L -36.5 177.5 " />
<path id= "502" d=" M -51.5 178 L -36.5 178 " />
<path id= "503" d=" M 11.5 178 L 11.5 177.5 " />
<path id= "504" d=" M 11.5 177.5 L 19.5 177.5 " />
<path d="M21.5 177.333 A12.0835 12.0835 0 0 1 19.5 177.5" /><path d="M21.5 177.333 A60.4168 60.4168 0 0 1 31.5 176.5" /><path id= "507" d=" M 31.5 177 L 31.5 176.5 " />
<path d="M26.5 177.5 A25.25 25.25 0 0 1 31.5 177" /><path id= "509" d=" M 26.5 178 L 26.5 177.5 " />
<path id= "510" d=" M 11.5 178 L 26.5 178 " />
<path id= "511" d=" M 51.5 203 L 36.5 203 " />
<path id= "512" d=" M 36.5 203 L 36.5 202.5 " />
<path d="M36.5 202.5 A25.25 25.25 0 0 0 31.5 202" /><path id= "514" d=" M 31.5 202 L 31.5 201.5 " />
<path d="M41.5 202.333 A60.4168 60.4168 0 0 0 31.5 201.5" /><path d="M41.5 202.333 A12.0835 12.0835 0 0 0 43.5 202.5" /><path id= "517" d=" M 51.5 202.5 L 43.5 202.5 " />
<path id= "518" d=" M 51.5 203 L 51.5 202.5 " />
<path id= "519" d=" M 11.5 203 L 11.5 202.5 " />
<path id= "520" d=" M 11.5 202.5 L 19.5 202.5 " />
<path d="M21.5 202.333 A12.0835 12.0835 0 0 1 19.5 202.5" /><path d="M21.5 202.333 A60.4168 60.4168 0 0 1 31.5 201.5" /><path id= "523" d=" M 31.5 202 L 31.5 201.5 " />
<path d="M26.5 202.5 A25.25 25.25 0 0 1 31.5 202" /><path id= "525" d=" M 26.5 203 L 26.5 202.5 " />
<path id= "526" d=" M 11.5 203 L 26.5 203 " />
<path d="M-21.5 202.333 A12.0835 12.0835 0 0 0 -19.5 202.5" /><path id= "528" d=" M -11.5 202.5 L -19.5 202.5 " />
<path id= "529" d=" M -11.5 203 L -11.5 202.5 " />
<path id= "530" d=" M -11.5 203 L -26.5 203 " />
<path id= "531" d=" M -26.5 203 L -26.5 202.5 " />
<path d="M-26.5 202.5 A25.25 25.25 0 0 0 -31.5 202" /><path id= "533" d=" M -31.5 202 L -31.5 201.5 " />
<path d="M-21.5 202.333 A60.4168 60.4168 0 0 0 -31.5 201.5" /><path id= "535" d=" M 31.5 177 L 31.5 176.5 " />
<path d="M41.5 177.333 A60.4168 60.4168 0 0 0 31.5 176.5" /><path d="M41.5 177.333 A12.0835 12.0835 0 0 0 43.5 177.5" /><path id= "538" d=" M 51.5 177.5 L 43.5 177.5 " />
<path id= "539" d=" M 51.5 178 L 51.5 177.5 " />
<path id= "540" d=" M 51.5 178 L 36.5 178 " />
<path id= "541" d=" M 36.5 178 L 36.5 177.5 " />
<path d="M36.5 177.5 A25.25 25.25 0 0 0 31.5 177" /><path d="M-41.5 202.333 A60.4168 60.4168 0 0 1 -31.5 201.5" /><path id= "544" d=" M -31.5 202 L -31.5 201.5 " />
<path d="M-36.5 202.5 A25.25 25.25 0 0 1 -31.5 202" /><path id= "546" d=" M -36.5 203 L -36.5 202.5 " />
<path id= "547" d=" M -51.5 203 L -36.5 203 " />
<path id= "548" d=" M -51.5 203 L -51.5 202.5 " />
<path id= "549" d=" M -51.5 202.5 L -43.5 202.5 " />
<path d="M-41.5 202.333 A12.0835 12.0835 0 0 1 -43.5 202.5" /><path id= "551" d=" M -152 161.999 L -141 161.999 " />
<path id= "552" d=" M -141 -161.999 L -152 -161.999 " />
<path id= "553" d=" M -122.7 161.999 L -111.7 161.999 " />
<path id= "554" d=" M -111.7 -161.999 L -122.7 -161.999 " />
<path id= "555" d=" M 93.4 -161.999 L 82.4 -161.999 " />
<path id= "556" d=" M 64.1 -161.999 L 53.1 -161.999 " />
<path id= "557" d=" M -53.1 -161.999 L -64.1 -161.999 " />
<path id= "558" d=" M -82.4 -161.999 L -93.4 -161.999 " />
<path id= "559" d=" M 34.8 -161.999 L 23.8 -161.999 " />
<path id= "560" d=" M 5.5 -161.999 L -5.5 -161.999 " />
<path id= "561" d=" M -23.8 -161.999 L -34.8 -161.999 " />
<path id= "562" d=" M -64.1 161.999 L -53.1 161.999 " />
<path id= "563" d=" M -34.8 161.999 L -23.8 161.999 " />
<path id= "564" d=" M 23.8 161.999 L 34.8 161.999 " />
<path id= "565" d=" M -5.5 161.999 L 5.5 161.999 " />
<path id= "566" d=" M 53.1 161.999 L 64.1 161.999 " />
<path id= "567" d=" M -93.4 161.999 L -82.4 161.999 " />
<path id= "568" d=" M 82.4 161.999 L 93.4 161.999 " />
<path id= "569" d=" M 111.7 161.999 L 122.7 161.999 " />
<path id= "570" d=" M 122.7 -161.999 L 111.7 -161.999 " />
<path id= "571" d=" M 141 161.999 L 152 161.999 " />
<path id= "572" d=" M 152 -161.999 L 141 -161.999 " />
<path id= "573" d=" M -152 -161.999 L -152 161.999 " />
<path id= "574" d=" M -5.5 -161.999 L -5.5 161.999 " />
<path id= "575" d=" M -34.8 -161.999 L -34.8 161.999 " />
<path id= "576" d=" M -64.1 -161.999 L -64.1 161.999 " />
<path id= "577" d=" M -122.7 -161.999 L -122.7 161.999 " />
<path id= "578" d=" M -93.4 -161.999 L -93.4 161.999 " />
<path id= "579" d=" M 141 -161.999 L 141 161.999 " />
<path id= "580" d=" M 111.7 -161.999 L 111.7 161.999 " />
<path id= "581" d=" M 82.4 -161.999 L 82.4 161.999 " />
<path id= "582" d=" M 23.8 -161.999 L 23.8 161.999 " />
<path id= "583" d=" M 53.1 -161.999 L 53.1 161.999 " />
<path id= "584" d=" M -5.98572 187.914 L -5.42671 196 " />
<path id= "585" d=" M 5.98572 187.914 L 5.42671 196 " />
<path d="M-5.45436 185 A6 6 0 0 0 -5.98572 187.914" /><path d="M5.98572 187.914 A6 6 0 0 0 5.45436 185" /><path id= "588" d=" M -55 196 L -55 185 " />
<path id= "589" d=" M 55 196 L 55 185 " />
</g>
</g>



</svg>

