<?xml version="1.0" encoding="UTF-8" standalone="no"?>
<!-- Created with Inkscape (http://www.inkscape.org/) -->

<svg
   xmlns:dc="http://purl.org/dc/elements/1.1/"
   xmlns:cc="http://creativecommons.org/ns#"
   xmlns:rdf="http://www.w3.org/1999/02/22-rdf-syntax-ns#"
   xmlns:svg="http://www.w3.org/2000/svg"
   xmlns="http://www.w3.org/2000/svg"
   xmlns:sodipodi="http://sodipodi.sourceforge.net/DTD/sodipodi-0.dtd"
   xmlns:inkscape="http://www.inkscape.org/namespaces/inkscape"
   width="600mm"
   height="600mm"
   viewBox="0 0 600 600"
   id="svg2"
   version="1.1"
   inkscape:version="0.48.4 r9939"
   sodipodi:docname="front.svg">
  <defs
     id="defs4" />
  <sodipodi:namedview
     id="base"
     pagecolor="#ffffff"
     bordercolor="#666666"
     borderopacity="1.0"
     inkscape:pageopacity="0.0"
     inkscape:pageshadow="2"
     inkscape:zoom="0.35"
     inkscape:cx="45"
     inkscape:cy="1091.4286"
     inkscape:document-units="mm"
     inkscape:current-layer="svg2"
     showgrid="false"
     units="mm"
     inkscape:window-width="1366"
     inkscape:window-height="718"
     inkscape:window-x="0"
     inkscape:window-y="0"
     inkscape:window-maximized="1" />
  <metadata
     id="metadata7">
    <rdf:RDF>
      <cc:Work
         rdf:about="">
        <dc:format>image/svg+xml</dc:format>
        <dc:type
           rdf:resource="http://purl.org/dc/dcmitype/StillImage" />
        <dc:title />
      </cc:Work>
    </rdf:RDF>
  </metadata>
  <g
     inkscape:label="Layer 1"
     inkscape:groupmode="layer"
     id="layer1"
     transform="translate(0,1073.622)" />
  <g
     id="View"
     transform="rotate(180,300,300) translate(300,300) scale(1,1)">
    <g
       stroke="rgb(0, 0, 0)"
       stroke-width="0.35"
       stroke-linecap="butt"
       stroke-linejoin="miter"
       fill="none"
       transform="scale(1,-1)"
       id="g8">
      <path
         id="1"
         d=" M -250 250 L 250 250 " />
      <path
         id="2"
         d=" M -250 -250 L -250 250 " />
      <path
         id="3"
         d=" M 250 250 L 250 -250 " />
      <path
         id="4"
         d=" M 250 -250 L -250 -250 " />
      <path
         id="5"
         d=" M -152 -163.499 L -152 -161.999 " />
      <path
         id="6"
         d=" M -141 -163.499 L -152 -163.499 " />
      <path
         id="7"
         d=" M -152 -161.999 L -152 161.999 " />
      <path
         id="8"
         d=" M -141 -161.999 L -141 -163.499 " />
      <path
         id="9"
         d=" M -152 163.499 L -152 161.999 " />
      <path
         id="10"
         d=" M -141 161.999 L -141 -161.999 " />
      <path
         id="11"
         d=" M -141 163.499 L -152 163.499 " />
      <path
         id="12"
         d=" M -141 161.999 L -141 163.499 " />
      <path
         id="13"
         d=" M -5.5 -163.499 L -5.5 -161.999 " />
      <path
         id="14"
         d=" M 5.5 -163.499 L -5.5 -163.499 " />
      <path
         id="15"
         d=" M -5.5 -161.999 L -5.5 161.999 " />
      <path
         id="16"
         d=" M 5.5 -161.999 L 5.5 -163.499 " />
      <path
         id="17"
         d=" M -5.5 163.499 L -5.5 161.999 " />
      <path
         id="18"
         d=" M 5.5 161.999 L 5.5 -161.999 " />
      <path
         id="19"
         d=" M 5.5 163.499 L -5.5 163.499 " />
      <path
         id="20"
         d=" M 5.5 161.999 L 5.5 163.499 " />
      <path
         id="21"
         d=" M -23.8 161.999 L -23.8 163.499 " />
      <path
         id="22"
         d=" M -23.8 161.999 L -23.8 -161.999 " />
      <path
         id="23"
         d=" M -23.8 163.499 L -34.8 163.499 " />
      <path
         id="24"
         d=" M -23.8 -161.999 L -23.8 -163.499 " />
      <path
         id="25"
         d=" M -34.8 163.499 L -34.8 161.999 " />
      <path
         id="26"
         d=" M -23.8 -163.499 L -34.8 -163.499 " />
      <path
         id="27"
         d=" M -34.8 -161.999 L -34.8 161.999 " />
      <path
         id="28"
         d=" M -34.8 -163.499 L -34.8 -161.999 " />
      <path
         id="29"
         d=" M -53.1 161.999 L -53.1 163.499 " />
      <path
         id="30"
         d=" M -53.1 161.999 L -53.1 -161.999 " />
      <path
         id="31"
         d=" M -53.1 163.499 L -64.1 163.499 " />
      <path
         id="32"
         d=" M -53.1 -161.999 L -53.1 -163.499 " />
      <path
         id="33"
         d=" M -64.1 163.499 L -64.1 161.999 " />
      <path
         id="34"
         d=" M -53.1 -163.499 L -64.1 -163.499 " />
      <path
         id="35"
         d=" M -64.1 -161.999 L -64.1 161.999 " />
      <path
         id="36"
         d=" M -64.1 -163.499 L -64.1 -161.999 " />
      <path
         id="37"
         d=" M -122.7 -161.999 L -122.7 161.999 " />
      <path
         id="38"
         d=" M -122.7 -163.499 L -122.7 -161.999 " />
      <path
         id="39"
         d=" M -122.7 163.499 L -122.7 161.999 " />
      <path
         id="40"
         d=" M -111.7 -163.499 L -122.7 -163.499 " />
      <path
         id="41"
         d=" M -111.7 163.499 L -122.7 163.499 " />
      <path
         id="42"
         d=" M -111.7 -161.999 L -111.7 -163.499 " />
      <path
         id="43"
         d=" M -111.7 161.999 L -111.7 163.499 " />
      <path
         id="44"
         d=" M -111.7 161.999 L -111.7 -161.999 " />
      <path
         id="45"
         d=" M -93.4 -163.499 L -93.4 -161.999 " />
      <path
         id="46"
         d=" M -82.4 -163.499 L -93.4 -163.499 " />
      <path
         id="47"
         d=" M -93.4 -161.999 L -93.4 161.999 " />
      <path
         id="48"
         d=" M -82.4 -161.999 L -82.4 -163.499 " />
      <path
         id="49"
         d=" M -93.4 163.499 L -93.4 161.999 " />
      <path
         id="50"
         d=" M -82.4 161.999 L -82.4 -161.999 " />
      <path
         id="51"
         d=" M -82.4 163.499 L -93.4 163.499 " />
      <path
         id="52"
         d=" M -82.4 161.999 L -82.4 163.499 " />
      <path
         id="53"
         d=" M 141 -163.499 L 141 -161.999 " />
      <path
         id="54"
         d=" M 152 -163.499 L 141 -163.499 " />
      <path
         id="55"
         d=" M 141 -161.999 L 141 161.999 " />
      <path
         id="56"
         d=" M 152 -161.999 L 152 -163.499 " />
      <path
         id="57"
         d=" M 141 163.499 L 141 161.999 " />
      <path
         id="58"
         d=" M 152 161.999 L 152 -161.999 " />
      <path
         id="59"
         d=" M 152 163.499 L 141 163.499 " />
      <path
         id="60"
         d=" M 152 161.999 L 152 163.499 " />
      <path
         id="61"
         d=" M 111.7 -161.999 L 111.7 161.999 " />
      <path
         id="62"
         d=" M 111.7 -163.499 L 111.7 -161.999 " />
      <path
         id="63"
         d=" M 111.7 163.499 L 111.7 161.999 " />
      <path
         id="64"
         d=" M 122.7 -163.499 L 111.7 -163.499 " />
      <path
         id="65"
         d=" M 122.7 163.499 L 111.7 163.499 " />
      <path
         id="66"
         d=" M 122.7 -161.999 L 122.7 -163.499 " />
      <path
         id="67"
         d=" M 122.7 161.999 L 122.7 163.499 " />
      <path
         id="68"
         d=" M 122.7 161.999 L 122.7 -161.999 " />
      <path
         id="69"
         d=" M 82.4 -163.499 L 82.4 -161.999 " />
      <path
         id="70"
         d=" M 93.4 -163.499 L 82.4 -163.499 " />
      <path
         id="71"
         d=" M 82.4 -161.999 L 82.4 161.999 " />
      <path
         id="72"
         d=" M 93.4 -161.999 L 93.4 -163.499 " />
      <path
         id="73"
         d=" M 82.4 163.499 L 82.4 161.999 " />
      <path
         id="74"
         d=" M 93.4 161.999 L 93.4 -161.999 " />
      <path
         id="75"
         d=" M 93.4 163.499 L 82.4 163.499 " />
      <path
         id="76"
         d=" M 93.4 161.999 L 93.4 163.499 " />
      <path
         id="77"
         d=" M 34.8 161.999 L 34.8 163.499 " />
      <path
         id="78"
         d=" M 34.8 161.999 L 34.8 -161.999 " />
      <path
         id="79"
         d=" M 34.8 163.499 L 23.8 163.499 " />
      <path
         id="80"
         d=" M 34.8 -161.999 L 34.8 -163.499 " />
      <path
         id="81"
         d=" M 23.8 163.499 L 23.8 161.999 " />
      <path
         id="82"
         d=" M 34.8 -163.499 L 23.8 -163.499 " />
      <path
         id="83"
         d=" M 23.8 -161.999 L 23.8 161.999 " />
      <path
         id="84"
         d=" M 23.8 -163.499 L 23.8 -161.999 " />
      <path
         id="85"
         d=" M 53.1 -161.999 L 53.1 161.999 " />
      <path
         id="86"
         d=" M 53.1 -163.499 L 53.1 -161.999 " />
      <path
         id="87"
         d=" M 53.1 163.499 L 53.1 161.999 " />
      <path
         id="88"
         d=" M 64.1 -163.499 L 53.1 -163.499 " />
      <path
         id="89"
         d=" M 64.1 163.499 L 53.1 163.499 " />
      <path
         id="90"
         d=" M 64.1 -161.999 L 64.1 -163.499 " />
      <path
         id="91"
         d=" M 64.1 161.999 L 64.1 163.499 " />
      <path
         id="92"
         d=" M 64.1 161.999 L 64.1 -161.999 " />
      <path
         id="93"
         d=" M -55 196 L -56.5 196 " />
      <path
         id="94"
         d=" M -5.42671 196 L -55 196 " />
      <path
         id="95"
         d=" M -56.5 196 L -56.5 185 " />
      <path
         id="96"
         d=" M -3.99047 216.776 L -5.42671 196 " />
      <path
         id="97"
         d=" M -56.5 185 L -55 185 " />
      <path
         d="M-3.99047 216.776 A4 4 0 0 0 3.99047 216.776"
         id="path107" />
      <path
         id="99"
         d=" M -55 185 L -5.45436 185 " />
      <path
         id="100"
         d=" M 3.99047 216.776 L 5.42671 196 " />
      <path
         d="M5.45436 185 A6 6 0 0 0 -5.45436 185"
         id="path111" />
      <path
         id="102"
         d=" M 55 196 L 5.42671 196 " />
      <path
         id="103"
         d=" M 5.45436 185 L 55 185 " />
      <path
         id="104"
         d=" M 56.5 196 L 55 196 " />
      <path
         id="105"
         d=" M 55 185 L 56.5 185 " />
      <path
         id="106"
         d=" M 56.5 185 L 56.5 196 " />
      <path
         id="107"
         d=" M -14.9 132 L -14.9 124 " />
      <path
         id="108"
         d=" M -14.9 132 L -14.4 132 " />
      <path
         d="M-15.0667 122 A12.0834 12.0834 0 0 1 -14.9 124"
         id="path120" />
      <path
         id="110"
         d=" M -14.4 132 L -14.4 117 " />
      <path
         d="M-15.0667 122 A60.4166 60.4166 0 0 1 -15.9 112"
         id="path123" />
      <path
         id="112"
         d=" M -14.4 117 L -14.9 117 " />
      <path
         d="M-15.0667 102 A60.4166 60.4166 0 0 0 -15.9 112"
         id="path126" />
      <path
         d="M-14.9 117 A25.25 25.25 0 0 1 -15.4 112"
         id="path128" />
      <path
         d="M-15.0667 102 A12.0834 12.0834 0 0 0 -14.9 100"
         id="path130" />
      <path
         d="M-14.9 107 A25.25 25.25 0 0 0 -15.4 112"
         id="path132" />
      <path
         id="117"
         d=" M -14.9 92 L -14.9 100 " />
      <path
         id="118"
         d=" M -14.4 107 L -14.9 107 " />
      <path
         id="119"
         d=" M -14.9 92 L -14.4 92 " />
      <path
         id="120"
         d=" M -14.4 92 L -14.4 107 " />
      <path
         id="121"
         d=" M -160.9 107 L -161.4 107 " />
      <path
         id="122"
         d=" M -160.9 92 L -160.9 107 " />
      <path
         d="M-161.4 107 A25.25 25.25 0 0 0 -161.9 112"
         id="path140" />
      <path
         id="124"
         d=" M -161.4 92 L -160.9 92 " />
      <path
         id="125"
         d=" M -161.9 112 L -162.4 112 " />
      <path
         id="126"
         d=" M -161.4 92 L -161.4 100 " />
      <path
         d="M-161.567 102 A60.4166 60.4166 0 0 0 -162.4 112"
         id="path145" />
      <path
         d="M-161.567 102 A12.0834 12.0834 0 0 0 -161.4 100"
         id="path147" />
      <path
         d="M-132.1 117 A25.25 25.25 0 0 1 -132.6 112"
         id="path149" />
      <path
         id="130"
         d=" M -131.6 117 L -132.1 117 " />
      <path
         id="131"
         d=" M -132.6 112 L -133.1 112 " />
      <path
         id="132"
         d=" M -131.6 132 L -131.6 117 " />
      <path
         d="M-132.267 122 A60.4166 60.4166 0 0 1 -133.1 112"
         id="path154" />
      <path
         id="134"
         d=" M -132.1 132 L -131.6 132 " />
      <path
         d="M-132.267 122 A12.0834 12.0834 0 0 1 -132.1 124"
         id="path157" />
      <path
         id="136"
         d=" M -132.1 132 L -132.1 124 " />
      <path
         id="137"
         d=" M -43.7 107 L -44.2 107 " />
      <path
         id="138"
         d=" M -43.7 92 L -43.7 107 " />
      <path
         d="M-44.2 107 A25.25 25.25 0 0 0 -44.7 112"
         id="path162" />
      <path
         id="140"
         d=" M -44.2 92 L -43.7 92 " />
      <path
         id="141"
         d=" M -44.7 112 L -45.2 112 " />
      <path
         id="142"
         d=" M -44.2 92 L -44.2 100 " />
      <path
         d="M-44.3667 102 A60.4166 60.4166 0 0 0 -45.2 112"
         id="path167" />
      <path
         d="M-44.3667 102 A12.0834 12.0834 0 0 0 -44.2 100"
         id="path169" />
      <path
         id="145"
         d=" M -102.8 132 L -102.8 124 " />
      <path
         id="146"
         d=" M -102.8 132 L -102.3 132 " />
      <path
         d="M-102.967 122 A12.0834 12.0834 0 0 1 -102.8 124"
         id="path173" />
      <path
         id="148"
         d=" M -102.3 132 L -102.3 117 " />
      <path
         d="M-102.967 122 A60.4166 60.4166 0 0 1 -103.8 112"
         id="path176" />
      <path
         id="150"
         d=" M -102.3 117 L -102.8 117 " />
      <path
         id="151"
         d=" M -103.3 112 L -103.8 112 " />
      <path
         d="M-102.8 117 A25.25 25.25 0 0 1 -103.3 112"
         id="path180" />
      <path
         id="153"
         d=" M -102.8 92 L -102.3 92 " />
      <path
         id="154"
         d=" M -102.8 92 L -102.8 100 " />
      <path
         id="155"
         d=" M -102.3 92 L -102.3 107 " />
      <path
         d="M-102.967 102 A12.0834 12.0834 0 0 0 -102.8 100"
         id="path185" />
      <path
         id="157"
         d=" M -102.3 107 L -102.8 107 " />
      <path
         d="M-102.967 102 A60.4166 60.4166 0 0 0 -103.8 112"
         id="path188" />
      <path
         d="M-102.8 107 A25.25 25.25 0 0 0 -103.3 112"
         id="path190" />
      <path
         id="160"
         d=" M -103.3 112 L -103.8 112 " />
      <path
         id="161"
         d=" M 14.9 92 L 14.9 100 " />
      <path
         id="162"
         d=" M 14.9 92 L 14.4 92 " />
      <path
         d="M15.0667 102 A12.0834 12.0834 0 0 1 14.9 100"
         id="path195" />
      <path
         id="164"
         d=" M 14.4 92 L 14.4 107 " />
      <path
         d="M15.0667 102 A60.4166 60.4166 0 0 1 15.9 112"
         id="path198" />
      <path
         id="166"
         d=" M 14.4 107 L 14.9 107 " />
      <path
         id="167"
         d=" M 15.4 112 L 15.9 112 " />
      <path
         d="M14.9 107 A25.25 25.25 0 0 1 15.4 112"
         id="path202" />
      <path
         d="M73.5 117 A25.25 25.25 0 0 0 74 112"
         id="path204" />
      <path
         id="170"
         d=" M 73 117 L 73.5 117 " />
      <path
         id="171"
         d=" M 74 112 L 74.5 112 " />
      <path
         id="172"
         d=" M 73 132 L 73 117 " />
      <path
         d="M73.6667 122 A60.4166 60.4166 0 0 0 74.5 112"
         id="path209" />
      <path
         id="174"
         d=" M 73.5 132 L 73 132 " />
      <path
         d="M73.6667 122 A12.0834 12.0834 0 0 0 73.5 124"
         id="path212" />
      <path
         id="176"
         d=" M 73.5 132 L 73.5 124 " />
      <path
         id="177"
         d=" M -131.6 -92 L -131.6 -107 " />
      <path
         id="178"
         d=" M -132.1 -92 L -131.6 -92 " />
      <path
         id="179"
         d=" M -131.6 -107 L -132.1 -107 " />
      <path
         id="180"
         d=" M -132.1 -92 L -132.1 -100 " />
      <path
         d="M-132.1 -107 A25.25 25.25 0 0 1 -132.6 -112"
         id="path219" />
      <path
         d="M-132.267 -102 A12.0834 12.0834 0 0 1 -132.1 -100"
         id="path221" />
      <path
         id="183"
         d=" M -132.6 -112 L -133.1 -112 " />
      <path
         d="M-132.267 -102 A60.4166 60.4166 0 0 1 -133.1 -112"
         id="path224" />
      <path
         id="185"
         d=" M 44.2 -92 L 43.7 -92 " />
      <path
         id="186"
         d=" M 44.2 -92 L 44.2 -100 " />
      <path
         id="187"
         d=" M 43.7 -92 L 43.7 -107 " />
      <path
         d="M44.3667 -102 A12.0834 12.0834 0 0 0 44.2 -100"
         id="path229" />
      <path
         id="189"
         d=" M 43.7 -107 L 44.2 -107 " />
      <path
         d="M44.3667 -102 A60.4166 60.4166 0 0 0 45.2 -112"
         id="path232" />
      <path
         d="M44.2 -107 A25.25 25.25 0 0 0 44.7 -112"
         id="path234" />
      <path
         id="192"
         d=" M 44.7 -112 L 45.2 -112 " />
      <path
         id="193"
         d=" M -73.5 -92 L -73.5 -100 " />
      <path
         id="194"
         d=" M -73.5 -92 L -73 -92 " />
      <path
         d="M-73.6667 -102 A12.0834 12.0834 0 0 1 -73.5 -100"
         id="path239" />
      <path
         id="196"
         d=" M -73 -92 L -73 -107 " />
      <path
         d="M-73.6667 -102 A60.4166 60.4166 0 0 1 -74.5 -112"
         id="path242" />
      <path
         id="198"
         d=" M -73 -107 L -73.5 -107 " />
      <path
         id="199"
         d=" M -74 -112 L -74.5 -112 " />
      <path
         d="M-73.5 -107 A25.25 25.25 0 0 1 -74 -112"
         id="path246" />
      <path
         d="M-102.967 -102 A60.4166 60.4166 0 0 1 -103.8 -112"
         id="path248" />
      <path
         d="M-102.967 -102 A12.0834 12.0834 0 0 1 -102.8 -100"
         id="path250" />
      <path
         id="203"
         d=" M -103.3 -112 L -103.8 -112 " />
      <path
         id="204"
         d=" M -102.8 -92 L -102.8 -100 " />
      <path
         d="M-102.8 -107 A25.25 25.25 0 0 1 -103.3 -112"
         id="path254" />
      <path
         id="206"
         d=" M -102.8 -92 L -102.3 -92 " />
      <path
         id="207"
         d=" M -102.3 -107 L -102.8 -107 " />
      <path
         id="208"
         d=" M -102.3 -92 L -102.3 -107 " />
      <path
         d="M132.267 -102 A12.0834 12.0834 0 0 0 132.1 -100"
         id="path259" />
      <path
         d="M132.267 -102 A60.4166 60.4166 0 0 0 133.1 -112"
         id="path261" />
      <path
         id="211"
         d=" M 132.1 -92 L 132.1 -100 " />
      <path
         id="212"
         d=" M 132.6 -112 L 133.1 -112 " />
      <path
         id="213"
         d=" M 132.1 -92 L 131.6 -92 " />
      <path
         d="M132.1 -107 A25.25 25.25 0 0 0 132.6 -112"
         id="path266" />
      <path
         id="215"
         d=" M 131.6 -92 L 131.6 -107 " />
      <path
         id="216"
         d=" M 131.6 -107 L 132.1 -107 " />
      <path
         id="217"
         d=" M -161.4 -132 L -160.9 -132 " />
      <path
         id="218"
         d=" M -161.4 -132 L -161.4 -124 " />
      <path
         id="219"
         d=" M -160.9 -132 L -160.9 -117 " />
      <path
         d="M-161.567 -122 A12.0834 12.0834 0 0 0 -161.4 -124"
         id="path273" />
      <path
         id="221"
         d=" M -160.9 -117 L -161.4 -117 " />
      <path
         d="M-161.567 -122 A60.4166 60.4166 0 0 0 -162.4 -112"
         id="path276" />
      <path
         d="M-161.4 -117 A25.25 25.25 0 0 0 -161.9 -112"
         id="path278" />
      <path
         id="224"
         d=" M -161.9 -112 L -162.4 -112 " />
      <path
         id="225"
         d=" M 15.4 -112 L 15.9 -112 " />
      <path
         d="M14.9 -107 A25.25 25.25 0 0 0 15.4 -112"
         id="path282" />
      <path
         d="M15.0667 -102 A60.4166 60.4166 0 0 0 15.9 -112"
         id="path284" />
      <path
         id="228"
         d=" M 14.4 -107 L 14.9 -107 " />
      <path
         d="M15.0667 -102 A12.0834 12.0834 0 0 0 14.9 -100"
         id="path287" />
      <path
         id="230"
         d=" M 14.4 -92 L 14.4 -107 " />
      <path
         id="231"
         d=" M 14.9 -92 L 14.9 -100 " />
      <path
         id="232"
         d=" M 14.9 -92 L 14.4 -92 " />
      <path
         id="233"
         d=" M 132.1 -132 L 132.1 -124 " />
      <path
         id="234"
         d=" M 132.1 -132 L 131.6 -132 " />
      <path
         d="M132.267 -122 A12.0834 12.0834 0 0 1 132.1 -124"
         id="path294" />
      <path
         id="236"
         d=" M 131.6 -132 L 131.6 -117 " />
      <path
         d="M132.267 -122 A60.4166 60.4166 0 0 1 133.1 -112"
         id="path297" />
      <path
         id="238"
         d=" M 131.6 -117 L 132.1 -117 " />
      <path
         id="239"
         d=" M 132.6 -112 L 133.1 -112 " />
      <path
         d="M132.1 -117 A25.25 25.25 0 0 1 132.6 -112"
         id="path301" />
      <path
         id="241"
         d=" M -132.1 -132 L -131.6 -132 " />
      <path
         id="242"
         d=" M -132.1 -132 L -132.1 -124 " />
      <path
         id="243"
         d=" M -131.6 -132 L -131.6 -117 " />
      <path
         d="M-132.267 -122 A12.0834 12.0834 0 0 0 -132.1 -124"
         id="path306" />
      <path
         id="245"
         d=" M -131.6 -117 L -132.1 -117 " />
      <path
         d="M-132.267 -122 A60.4166 60.4166 0 0 0 -133.1 -112"
         id="path309" />
      <path
         d="M-132.1 -117 A25.25 25.25 0 0 0 -132.6 -112"
         id="path311" />
      <path
         id="248"
         d=" M -132.6 -112 L -133.1 -112 " />
      <path
         id="249"
         d=" M -73.5 -132 L -73 -132 " />
      <path
         id="250"
         d=" M -73.5 -132 L -73.5 -124 " />
      <path
         id="251"
         d=" M -73 -132 L -73 -117 " />
      <path
         d="M-73.6667 -122 A12.0834 12.0834 0 0 0 -73.5 -124"
         id="path317" />
      <path
         id="253"
         d=" M -73 -117 L -73.5 -117 " />
      <path
         d="M-73.6667 -122 A60.4166 60.4166 0 0 0 -74.5 -112"
         id="path320" />
      <path
         d="M-73.5 -117 A25.25 25.25 0 0 0 -74 -112"
         id="path322" />
      <path
         id="256"
         d=" M -74 -112 L -74.5 -112 " />
      <path
         id="257"
         d=" M 43.7 -132 L 43.7 -117 " />
      <path
         id="258"
         d=" M 44.2 -132 L 43.7 -132 " />
      <path
         id="259"
         d=" M 43.7 -117 L 44.2 -117 " />
      <path
         id="260"
         d=" M 44.2 -132 L 44.2 -124 " />
      <path
         d="M44.2 -117 A25.25 25.25 0 0 1 44.7 -112"
         id="path329" />
      <path
         d="M44.3667 -122 A12.0834 12.0834 0 0 1 44.2 -124"
         id="path331" />
      <path
         id="263"
         d=" M 44.7 -112 L 45.2 -112 " />
      <path
         d="M44.3667 -122 A60.4166 60.4166 0 0 1 45.2 -112"
         id="path334" />
      <path
         id="265"
         d=" M 102.8 92 L 102.8 100 " />
      <path
         id="266"
         d=" M 102.8 92 L 102.3 92 " />
      <path
         d="M102.967 102 A12.0834 12.0834 0 0 1 102.8 100"
         id="path338" />
      <path
         id="268"
         d=" M 102.3 92 L 102.3 107 " />
      <path
         d="M102.967 102 A60.4166 60.4166 0 0 1 103.8 112"
         id="path341" />
      <path
         id="270"
         d=" M 102.3 107 L 102.8 107 " />
      <path
         id="271"
         d=" M 103.3 112 L 103.8 112 " />
      <path
         d="M102.8 107 A25.25 25.25 0 0 1 103.3 112"
         id="path345" />
      <path
         d="M73.6667 -122 A60.4166 60.4166 0 0 1 74.5 -112"
         id="path347" />
      <path
         d="M73.6667 -122 A12.0834 12.0834 0 0 1 73.5 -124"
         id="path349" />
      <path
         id="275"
         d=" M 74 -112 L 74.5 -112 " />
      <path
         id="276"
         d=" M 73.5 -132 L 73.5 -124 " />
      <path
         d="M73.5 -117 A25.25 25.25 0 0 1 74 -112"
         id="path353" />
      <path
         id="278"
         d=" M 73.5 -132 L 73 -132 " />
      <path
         id="279"
         d=" M 73 -117 L 73.5 -117 " />
      <path
         id="280"
         d=" M 73 -132 L 73 -117 " />
      <path
         id="281"
         d=" M 103.3 -112 L 103.8 -112 " />
      <path
         d="M102.8 -107 A25.25 25.25 0 0 0 103.3 -112"
         id="path359" />
      <path
         d="M102.967 -102 A60.4166 60.4166 0 0 0 103.8 -112"
         id="path361" />
      <path
         id="284"
         d=" M 102.3 -107 L 102.8 -107 " />
      <path
         d="M102.967 -102 A12.0834 12.0834 0 0 0 102.8 -100"
         id="path364" />
      <path
         id="286"
         d=" M 102.3 -92 L 102.3 -107 " />
      <path
         id="287"
         d=" M 102.8 -92 L 102.8 -100 " />
      <path
         id="288"
         d=" M 102.8 -92 L 102.3 -92 " />
      <path
         id="289"
         d=" M 73.5 -92 L 73 -92 " />
      <path
         id="290"
         d=" M 73.5 -92 L 73.5 -100 " />
      <path
         id="291"
         d=" M 73 -92 L 73 -107 " />
      <path
         d="M73.6667 -102 A12.0834 12.0834 0 0 0 73.5 -100"
         id="path372" />
      <path
         id="293"
         d=" M 73 -107 L 73.5 -107 " />
      <path
         d="M73.6667 -102 A60.4166 60.4166 0 0 0 74.5 -112"
         id="path375" />
      <path
         d="M73.5 -107 A25.25 25.25 0 0 0 74 -112"
         id="path377" />
      <path
         id="296"
         d=" M 74 -112 L 74.5 -112 " />
      <path
         d="M102.967 122 A12.0834 12.0834 0 0 0 102.8 124"
         id="path380" />
      <path
         d="M102.967 122 A60.4166 60.4166 0 0 0 103.8 112"
         id="path382" />
      <path
         id="299"
         d=" M 102.8 132 L 102.8 124 " />
      <path
         id="300"
         d=" M 103.3 112 L 103.8 112 " />
      <path
         id="301"
         d=" M 102.8 132 L 102.3 132 " />
      <path
         d="M102.8 117 A25.25 25.25 0 0 0 103.3 112"
         id="path387" />
      <path
         id="303"
         d=" M 102.3 132 L 102.3 117 " />
      <path
         id="304"
         d=" M 102.3 117 L 102.8 117 " />
      <path
         id="305"
         d=" M -73 107 L -73.5 107 " />
      <path
         id="306"
         d=" M -73 92 L -73 107 " />
      <path
         d="M-73.5 107 A25.25 25.25 0 0 0 -74 112"
         id="path393" />
      <path
         id="308"
         d=" M -73.5 92 L -73 92 " />
      <path
         id="309"
         d=" M -74 112 L -74.5 112 " />
      <path
         id="310"
         d=" M -73.5 92 L -73.5 100 " />
      <path
         d="M-73.6667 102 A60.4166 60.4166 0 0 0 -74.5 112"
         id="path398" />
      <path
         d="M-73.6667 102 A12.0834 12.0834 0 0 0 -73.5 100"
         id="path400" />
      <path
         d="M-15.0667 -122 A12.0834 12.0834 0 0 0 -14.9 -124"
         id="path402" />
      <path
         d="M-15.0667 -122 A60.4166 60.4166 0 0 0 -15.9 -112"
         id="path404" />
      <path
         id="315"
         d=" M -14.9 -132 L -14.9 -124 " />
      <path
         id="316"
         d=" M -15.4 -112 L -15.9 -112 " />
      <path
         id="317"
         d=" M -14.9 -132 L -14.4 -132 " />
      <path
         d="M-14.9 -117 A25.25 25.25 0 0 0 -15.4 -112"
         id="path409" />
      <path
         id="319"
         d=" M -14.4 -132 L -14.4 -117 " />
      <path
         id="320"
         d=" M -14.4 -117 L -14.9 -117 " />
      <path
         id="321"
         d=" M -14.4 -107 L -14.9 -107 " />
      <path
         id="322"
         d=" M -14.4 -92 L -14.4 -107 " />
      <path
         d="M-14.9 -107 A25.25 25.25 0 0 1 -15.4 -112"
         id="path415" />
      <path
         id="324"
         d=" M -14.9 -92 L -14.4 -92 " />
      <path
         id="325"
         d=" M -15.4 -112 L -15.9 -112 " />
      <path
         id="326"
         d=" M -14.9 -92 L -14.9 -100 " />
      <path
         d="M-15.0667 -102 A60.4166 60.4166 0 0 1 -15.9 -112"
         id="path420" />
      <path
         d="M-15.0667 -102 A12.0834 12.0834 0 0 1 -14.9 -100"
         id="path422" />
      <path
         d="M-44.3667 -102 A60.4166 60.4166 0 0 1 -45.2 -112"
         id="path424" />
      <path
         d="M-44.3667 -102 A12.0834 12.0834 0 0 1 -44.2 -100"
         id="path426" />
      <path
         id="331"
         d=" M -44.7 -112 L -45.2 -112 " />
      <path
         id="332"
         d=" M -44.2 -92 L -44.2 -100 " />
      <path
         d="M-44.2 -107 A25.25 25.25 0 0 1 -44.7 -112"
         id="path430" />
      <path
         id="334"
         d=" M -44.2 -92 L -43.7 -92 " />
      <path
         id="335"
         d=" M -43.7 -107 L -44.2 -107 " />
      <path
         id="336"
         d=" M -43.7 -92 L -43.7 -107 " />
      <path
         d="M15.0667 122 A12.0834 12.0834 0 0 0 14.9 124"
         id="path435" />
      <path
         d="M15.0667 122 A60.4166 60.4166 0 0 0 15.9 112"
         id="path437" />
      <path
         id="339"
         d=" M 14.9 132 L 14.9 124 " />
      <path
         id="340"
         d=" M 15.4 112 L 15.9 112 " />
      <path
         id="341"
         d=" M 14.9 132 L 14.4 132 " />
      <path
         d="M14.9 117 A25.25 25.25 0 0 0 15.4 112"
         id="path442" />
      <path
         id="343"
         d=" M 14.4 132 L 14.4 117 " />
      <path
         id="344"
         d=" M 14.4 117 L 14.9 117 " />
      <path
         d="M14.9 -117 A25.25 25.25 0 0 1 15.4 -112"
         id="path446" />
      <path
         id="346"
         d=" M 14.4 -117 L 14.9 -117 " />
      <path
         id="347"
         d=" M 15.4 -112 L 15.9 -112 " />
      <path
         id="348"
         d=" M 14.4 -132 L 14.4 -117 " />
      <path
         d="M15.0667 -122 A60.4166 60.4166 0 0 1 15.9 -112"
         id="path451" />
      <path
         id="350"
         d=" M 14.9 -132 L 14.4 -132 " />
      <path
         d="M15.0667 -122 A12.0834 12.0834 0 0 1 14.9 -124"
         id="path454" />
      <path
         id="352"
         d=" M 14.9 -132 L 14.9 -124 " />
      <path
         id="353"
         d=" M 102.8 -132 L 102.3 -132 " />
      <path
         id="354"
         d=" M 102.8 -132 L 102.8 -124 " />
      <path
         id="355"
         d=" M 102.3 -132 L 102.3 -117 " />
      <path
         d="M102.967 -122 A12.0834 12.0834 0 0 1 102.8 -124"
         id="path460" />
      <path
         id="357"
         d=" M 102.3 -117 L 102.8 -117 " />
      <path
         d="M102.967 -122 A60.4166 60.4166 0 0 1 103.8 -112"
         id="path463" />
      <path
         d="M102.8 -117 A25.25 25.25 0 0 1 103.3 -112"
         id="path465" />
      <path
         id="360"
         d=" M 103.3 -112 L 103.8 -112 " />
      <path
         id="361"
         d=" M -43.7 117 L -44.2 117 " />
      <path
         id="362"
         d=" M -43.7 132 L -43.7 117 " />
      <path
         d="M-44.2 117 A25.25 25.25 0 0 1 -44.7 112"
         id="path470" />
      <path
         id="364"
         d=" M -44.2 132 L -43.7 132 " />
      <path
         id="365"
         d=" M -44.7 112 L -45.2 112 " />
      <path
         id="366"
         d=" M -44.2 132 L -44.2 124 " />
      <path
         d="M-44.3667 122 A60.4166 60.4166 0 0 1 -45.2 112"
         id="path475" />
      <path
         d="M-44.3667 122 A12.0834 12.0834 0 0 1 -44.2 124"
         id="path477" />
      <path
         d="M132.267 102 A60.4166 60.4166 0 0 1 133.1 112"
         id="path479" />
      <path
         d="M132.267 102 A12.0834 12.0834 0 0 1 132.1 100"
         id="path481" />
      <path
         id="371"
         d=" M 132.6 112 L 133.1 112 " />
      <path
         id="372"
         d=" M 132.1 92 L 132.1 100 " />
      <path
         d="M132.1 107 A25.25 25.25 0 0 1 132.6 112"
         id="path485" />
      <path
         id="374"
         d=" M 132.1 92 L 131.6 92 " />
      <path
         id="375"
         d=" M 131.6 107 L 132.1 107 " />
      <path
         id="376"
         d=" M 131.6 92 L 131.6 107 " />
      <path
         d="M132.267 122 A12.0834 12.0834 0 0 0 132.1 124"
         id="path490" />
      <path
         d="M132.267 122 A60.4166 60.4166 0 0 0 133.1 112"
         id="path492" />
      <path
         id="379"
         d=" M 132.1 132 L 132.1 124 " />
      <path
         id="380"
         d=" M 132.6 112 L 133.1 112 " />
      <path
         id="381"
         d=" M 132.1 132 L 131.6 132 " />
      <path
         d="M132.1 117 A25.25 25.25 0 0 0 132.6 112"
         id="path497" />
      <path
         id="383"
         d=" M 131.6 132 L 131.6 117 " />
      <path
         id="384"
         d=" M 131.6 117 L 132.1 117 " />
      <path
         id="385"
         d=" M -102.3 -132 L -102.3 -117 " />
      <path
         id="386"
         d=" M -102.8 -132 L -102.3 -132 " />
      <path
         id="387"
         d=" M -102.3 -117 L -102.8 -117 " />
      <path
         id="388"
         d=" M -102.8 -132 L -102.8 -124 " />
      <path
         d="M-102.8 -117 A25.25 25.25 0 0 0 -103.3 -112"
         id="path505" />
      <path
         d="M-102.967 -122 A12.0834 12.0834 0 0 0 -102.8 -124"
         id="path507" />
      <path
         id="391"
         d=" M -103.3 -112 L -103.8 -112 " />
      <path
         d="M-102.967 -122 A60.4166 60.4166 0 0 0 -103.8 -112"
         id="path510" />
      <path
         d="M-161.567 122 A60.4166 60.4166 0 0 1 -162.4 112"
         id="path512" />
      <path
         d="M-161.567 122 A12.0834 12.0834 0 0 1 -161.4 124"
         id="path514" />
      <path
         id="395"
         d=" M -161.9 112 L -162.4 112 " />
      <path
         id="396"
         d=" M -161.4 132 L -161.4 124 " />
      <path
         d="M-161.4 117 A25.25 25.25 0 0 1 -161.9 112"
         id="path518" />
      <path
         id="398"
         d=" M -161.4 132 L -160.9 132 " />
      <path
         id="399"
         d=" M -160.9 117 L -161.4 117 " />
      <path
         id="400"
         d=" M -160.9 132 L -160.9 117 " />
      <path
         id="401"
         d=" M -161.4 -92 L -161.4 -100 " />
      <path
         id="402"
         d=" M -161.4 -92 L -160.9 -92 " />
      <path
         d="M-161.567 -102 A12.0834 12.0834 0 0 1 -161.4 -100"
         id="path525" />
      <path
         id="404"
         d=" M -160.9 -92 L -160.9 -107 " />
      <path
         d="M-161.567 -102 A60.4166 60.4166 0 0 1 -162.4 -112"
         id="path528" />
      <path
         id="406"
         d=" M -160.9 -107 L -161.4 -107 " />
      <path
         id="407"
         d=" M -161.9 -112 L -162.4 -112 " />
      <path
         d="M-161.4 -107 A25.25 25.25 0 0 1 -161.9 -112"
         id="path532" />
      <path
         d="M-73.5 117 A25.25 25.25 0 0 1 -74 112"
         id="path534" />
      <path
         id="410"
         d=" M -73 117 L -73.5 117 " />
      <path
         id="411"
         d=" M -74 112 L -74.5 112 " />
      <path
         id="412"
         d=" M -73 132 L -73 117 " />
      <path
         d="M-73.6667 122 A60.4166 60.4166 0 0 1 -74.5 112"
         id="path539" />
      <path
         id="414"
         d=" M -73.5 132 L -73 132 " />
      <path
         d="M-73.6667 122 A12.0834 12.0834 0 0 1 -73.5 124"
         id="path542" />
      <path
         id="416"
         d=" M -73.5 132 L -73.5 124 " />
      <path
         d="M44.3667 102 A60.4166 60.4166 0 0 1 45.2 112"
         id="path545" />
      <path
         d="M44.3667 102 A12.0834 12.0834 0 0 1 44.2 100"
         id="path547" />
      <path
         id="419"
         d=" M 44.7 112 L 45.2 112 " />
      <path
         id="420"
         d=" M 44.2 92 L 44.2 100 " />
      <path
         d="M44.2 107 A25.25 25.25 0 0 1 44.7 112"
         id="path551" />
      <path
         id="422"
         d=" M 44.2 92 L 43.7 92 " />
      <path
         id="423"
         d=" M 43.7 107 L 44.2 107 " />
      <path
         id="424"
         d=" M 43.7 92 L 43.7 107 " />
      <path
         id="425"
         d=" M 73 92 L 73 107 " />
      <path
         id="426"
         d=" M 73.5 92 L 73 92 " />
      <path
         id="427"
         d=" M 73 107 L 73.5 107 " />
      <path
         id="428"
         d=" M 73.5 92 L 73.5 100 " />
      <path
         d="M73.5 107 A25.25 25.25 0 0 1 74 112"
         id="path560" />
      <path
         d="M73.6667 102 A12.0834 12.0834 0 0 1 73.5 100"
         id="path562" />
      <path
         id="431"
         d=" M 74 112 L 74.5 112 " />
      <path
         d="M73.6667 102 A60.4166 60.4166 0 0 1 74.5 112"
         id="path565" />
      <path
         d="M44.3667 122 A12.0834 12.0834 0 0 0 44.2 124"
         id="path567" />
      <path
         d="M44.3667 122 A60.4166 60.4166 0 0 0 45.2 112"
         id="path569" />
      <path
         id="435"
         d=" M 44.2 132 L 44.2 124 " />
      <path
         id="436"
         d=" M 44.7 112 L 45.2 112 " />
      <path
         id="437"
         d=" M 44.2 132 L 43.7 132 " />
      <path
         d="M44.2 117 A25.25 25.25 0 0 0 44.7 112"
         id="path574" />
      <path
         id="439"
         d=" M 43.7 132 L 43.7 117 " />
      <path
         id="440"
         d=" M 43.7 117 L 44.2 117 " />
      <path
         id="441"
         d=" M -44.2 -132 L -43.7 -132 " />
      <path
         id="442"
         d=" M -44.2 -132 L -44.2 -124 " />
      <path
         id="443"
         d=" M -43.7 -132 L -43.7 -117 " />
      <path
         d="M-44.3667 -122 A12.0834 12.0834 0 0 0 -44.2 -124"
         id="path581" />
      <path
         id="445"
         d=" M -43.7 -117 L -44.2 -117 " />
      <path
         d="M-44.3667 -122 A60.4166 60.4166 0 0 0 -45.2 -112"
         id="path584" />
      <path
         d="M-44.2 -117 A25.25 25.25 0 0 0 -44.7 -112"
         id="path586" />
      <path
         id="448"
         d=" M -44.7 -112 L -45.2 -112 " />
      <path
         id="449"
         d=" M -132.1 92 L -131.6 92 " />
      <path
         id="450"
         d=" M -132.1 92 L -132.1 100 " />
      <path
         id="451"
         d=" M -131.6 92 L -131.6 107 " />
      <path
         d="M-132.267 102 A12.0834 12.0834 0 0 0 -132.1 100"
         id="path592" />
      <path
         id="453"
         d=" M -131.6 107 L -132.1 107 " />
      <path
         d="M-132.267 102 A60.4166 60.4166 0 0 0 -133.1 112"
         id="path595" />
      <path
         d="M-132.1 107 A25.25 25.25 0 0 0 -132.6 112"
         id="path597" />
      <path
         id="456"
         d=" M -132.6 112 L -133.1 112 " />
      <path
         id="457"
         d=" M 160.9 -117 L 161.4 -117 " />
      <path
         id="458"
         d=" M 160.9 -132 L 160.9 -117 " />
      <path
         d="M161.4 -117 A25.25 25.25 0 0 1 161.9 -112"
         id="path602" />
      <path
         id="460"
         d=" M 161.4 -132 L 160.9 -132 " />
      <path
         id="461"
         d=" M 161.9 -112 L 162.4 -112 " />
      <path
         id="462"
         d=" M 161.4 -132 L 161.4 -124 " />
      <path
         d="M161.567 -122 A60.4166 60.4166 0 0 1 162.4 -112"
         id="path607" />
      <path
         d="M161.567 -122 A12.0834 12.0834 0 0 1 161.4 -124"
         id="path609" />
      <path
         d="M161.4 107 A25.25 25.25 0 0 1 161.9 112"
         id="path611" />
      <path
         id="466"
         d=" M 160.9 107 L 161.4 107 " />
      <path
         id="467"
         d=" M 161.9 112 L 162.4 112 " />
      <path
         id="468"
         d=" M 160.9 92 L 160.9 107 " />
      <path
         d="M161.567 102 A60.4166 60.4166 0 0 1 162.4 112"
         id="path616" />
      <path
         id="470"
         d=" M 161.4 92 L 160.9 92 " />
      <path
         d="M161.567 102 A12.0834 12.0834 0 0 1 161.4 100"
         id="path619" />
      <path
         id="472"
         d=" M 161.4 92 L 161.4 100 " />
      <path
         d="M161.567 -102 A12.0834 12.0834 0 0 0 161.4 -100"
         id="path622" />
      <path
         d="M161.567 -102 A60.4166 60.4166 0 0 0 162.4 -112"
         id="path624" />
      <path
         id="475"
         d=" M 161.4 -92 L 161.4 -100 " />
      <path
         id="476"
         d=" M 161.9 -112 L 162.4 -112 " />
      <path
         id="477"
         d=" M 161.4 -92 L 160.9 -92 " />
      <path
         d="M161.4 -107 A25.25 25.25 0 0 0 161.9 -112"
         id="path629" />
      <path
         id="479"
         d=" M 160.9 -92 L 160.9 -107 " />
      <path
         id="480"
         d=" M 160.9 -107 L 161.4 -107 " />
      <path
         id="481"
         d=" M 161.4 132 L 160.9 132 " />
      <path
         id="482"
         d=" M 161.4 132 L 161.4 124 " />
      <path
         id="483"
         d=" M 160.9 132 L 160.9 117 " />
      <path
         d="M161.567 122 A12.0834 12.0834 0 0 0 161.4 124"
         id="path636" />
      <path
         id="485"
         d=" M 160.9 117 L 161.4 117 " />
      <path
         d="M161.567 122 A60.4166 60.4166 0 0 0 162.4 112"
         id="path639" />
      <path
         d="M161.4 117 A25.25 25.25 0 0 0 161.9 112"
         id="path641" />
      <path
         id="488"
         d=" M 161.9 112 L 162.4 112 " />
      <path
         id="489"
         d=" M -65 178 L -80 178 " />
      <path
         id="490"
         d=" M -80 178 L -80 177.5 " />
      <path
         d="M-80 177.5 A25.25 25.25 0 0 0 -85 177"
         id="path646" />
      <path
         id="492"
         d=" M -85 177 L -85 176.5 " />
      <path
         d="M-75 177.333 A60.4166 60.4166 0 0 0 -85 176.5"
         id="path649" />
      <path
         d="M-75 177.333 A12.0832 12.0832 0 0 0 -73 177.5"
         id="path651" />
      <path
         id="495"
         d=" M -65 177.5 L -73 177.5 " />
      <path
         id="496"
         d=" M -65 177.5 L -57 177.5 " />
      <path
         d="M-55 177.333 A12.0832 12.0832 0 0 1 -57 177.5"
         id="path655" />
      <path
         d="M-55 177.333 A60.4166 60.4166 0 0 1 -45 176.5"
         id="path657" />
      <path
         id="499"
         d=" M -45 177 L -45 176.5 " />
      <path
         d="M-50 177.5 A25.25 25.25 0 0 1 -45 177"
         id="path660" />
      <path
         id="501"
         d=" M -50 178 L -50 177.5 " />
      <path
         id="502"
         d=" M -65 178 L -50 178 " />
      <path
         d="M55 202.333 A12.0832 12.0832 0 0 0 57 202.5"
         id="path664" />
      <path
         id="504"
         d=" M 65 202.5 L 57 202.5 " />
      <path
         id="505"
         d=" M 65 203 L 65 202.5 " />
      <path
         id="506"
         d=" M 65 203 L 50 203 " />
      <path
         id="507"
         d=" M 50 203 L 50 202.5 " />
      <path
         d="M50 202.5 A25.25 25.25 0 0 0 45 202"
         id="path670" />
      <path
         id="509"
         d=" M 45 202 L 45 201.5 " />
      <path
         d="M55 202.333 A60.4166 60.4166 0 0 0 45 201.5"
         id="path673" />
      <path
         id="511"
         d=" M 65 203 L 65 202.5 " />
      <path
         id="512"
         d=" M 65 202.5 L 73 202.5 " />
      <path
         d="M75 202.333 A12.0832 12.0832 0 0 1 73 202.5"
         id="path677" />
      <path
         d="M75 202.333 A60.4166 60.4166 0 0 1 85 201.5"
         id="path679" />
      <path
         id="515"
         d=" M 85 202 L 85 201.5 " />
      <path
         d="M80 202.5 A25.25 25.25 0 0 1 85 202"
         id="path682" />
      <path
         id="517"
         d=" M 80 203 L 80 202.5 " />
      <path
         id="518"
         d=" M 65 203 L 80 203 " />
      <path
         id="519"
         d=" M 65 178 L 65 177.5 " />
      <path
         id="520"
         d=" M 65 177.5 L 73 177.5 " />
      <path
         d="M75 177.333 A12.0832 12.0832 0 0 1 73 177.5"
         id="path688" />
      <path
         d="M75 177.333 A60.4166 60.4166 0 0 1 85 176.5"
         id="path690" />
      <path
         id="523"
         d=" M 85 177 L 85 176.5 " />
      <path
         d="M80 177.5 A25.25 25.25 0 0 1 85 177"
         id="path693" />
      <path
         id="525"
         d=" M 80 178 L 80 177.5 " />
      <path
         id="526"
         d=" M 65 178 L 80 178 " />
      <path
         d="M-75 202.333 A12.0832 12.0832 0 0 0 -73 202.5"
         id="path697" />
      <path
         id="528"
         d=" M -65 202.5 L -73 202.5 " />
      <path
         id="529"
         d=" M -65 203 L -65 202.5 " />
      <path
         id="530"
         d=" M -65 203 L -80 203 " />
      <path
         id="531"
         d=" M -80 203 L -80 202.5 " />
      <path
         d="M-80 202.5 A25.25 25.25 0 0 0 -85 202"
         id="path703" />
      <path
         id="533"
         d=" M -85 202 L -85 201.5 " />
      <path
         d="M-75 202.333 A60.4166 60.4166 0 0 0 -85 201.5"
         id="path706" />
      <path
         id="535"
         d=" M 50 178 L 50 177.5 " />
      <path
         d="M50 177.5 A25.25 25.25 0 0 0 45 177"
         id="path709" />
      <path
         id="537"
         d=" M 45 177 L 45 176.5 " />
      <path
         d="M55 177.333 A60.4166 60.4166 0 0 0 45 176.5"
         id="path712" />
      <path
         d="M55 177.333 A12.0832 12.0832 0 0 0 57 177.5"
         id="path714" />
      <path
         id="540"
         d=" M 65 177.5 L 57 177.5 " />
      <path
         id="541"
         d=" M 65 178 L 65 177.5 " />
      <path
         id="542"
         d=" M 65 178 L 50 178 " />
      <path
         id="543"
         d=" M -65 203 L -50 203 " />
      <path
         id="544"
         d=" M -65 203 L -65 202.5 " />
      <path
         id="545"
         d=" M -65 202.5 L -57 202.5 " />
      <path
         d="M-55 202.333 A12.0832 12.0832 0 0 1 -57 202.5"
         id="path722" />
      <path
         d="M-55 202.333 A60.4166 60.4166 0 0 1 -45 201.5"
         id="path724" />
      <path
         id="548"
         d=" M -45 202 L -45 201.5 " />
      <path
         d="M-50 202.5 A25.25 25.25 0 0 1 -45 202"
         id="path727" />
      <path
         id="550"
         d=" M -50 203 L -50 202.5 " />
      <path
         id="551"
         d=" M -152 161.999 L -141 161.999 " />
      <path
         id="552"
         d=" M -141 -161.999 L -152 -161.999 " />
      <path
         id="553"
         d=" M -122.7 161.999 L -111.7 161.999 " />
      <path
         id="554"
         d=" M -111.7 -161.999 L -122.7 -161.999 " />
      <path
         id="555"
         d=" M 93.4 -161.999 L 82.4 -161.999 " />
      <path
         id="556"
         d=" M 64.1 -161.999 L 53.1 -161.999 " />
      <path
         id="557"
         d=" M -53.1 -161.999 L -64.1 -161.999 " />
      <path
         id="558"
         d=" M -82.4 -161.999 L -93.4 -161.999 " />
      <path
         id="559"
         d=" M 34.8 -161.999 L 23.8 -161.999 " />
      <path
         id="560"
         d=" M 5.5 -161.999 L -5.5 -161.999 " />
      <path
         id="561"
         d=" M -23.8 -161.999 L -34.8 -161.999 " />
      <path
         id="562"
         d=" M -64.1 161.999 L -53.1 161.999 " />
      <path
         id="563"
         d=" M -34.8 161.999 L -23.8 161.999 " />
      <path
         id="564"
         d=" M 23.8 161.999 L 34.8 161.999 " />
      <path
         id="565"
         d=" M -5.5 161.999 L 5.5 161.999 " />
      <path
         id="566"
         d=" M 53.1 161.999 L 64.1 161.999 " />
      <path
         id="567"
         d=" M -93.4 161.999 L -82.4 161.999 " />
      <path
         id="568"
         d=" M 82.4 161.999 L 93.4 161.999 " />
      <path
         id="569"
         d=" M 111.7 161.999 L 122.7 161.999 " />
      <path
         id="570"
         d=" M 122.7 -161.999 L 111.7 -161.999 " />
      <path
         id="571"
         d=" M 141 161.999 L 152 161.999 " />
      <path
         id="572"
         d=" M 152 -161.999 L 141 -161.999 " />
      <path
         id="573"
         d=" M -152 -161.999 L -152 161.999 " />
      <path
         id="574"
         d=" M -5.5 -161.999 L -5.5 161.999 " />
      <path
         id="575"
         d=" M -34.8 -161.999 L -34.8 161.999 " />
      <path
         id="576"
         d=" M -64.1 -161.999 L -64.1 161.999 " />
      <path
         id="577"
         d=" M -122.7 -161.999 L -122.7 161.999 " />
      <path
         id="578"
         d=" M -93.4 -161.999 L -93.4 161.999 " />
      <path
         id="579"
         d=" M 141 -161.999 L 141 161.999 " />
      <path
         id="580"
         d=" M 111.7 -161.999 L 111.7 161.999 " />
      <path
         id="581"
         d=" M 82.4 -161.999 L 82.4 161.999 " />
      <path
         id="582"
         d=" M 23.8 -161.999 L 23.8 161.999 " />
      <path
         id="583"
         d=" M 53.1 -161.999 L 53.1 161.999 " />
      <path
         id="584"
         d=" M -5.98572 187.914 L -5.42671 196 " />
      <path
         id="585"
         d=" M 5.98572 187.914 L 5.42671 196 " />
      <path
         d="M-5.45436 185 A6 6 0 0 0 -5.98572 187.914"
         id="path765" />
      <path
         d="M5.98572 187.914 A6 6 0 0 0 5.45436 185"
         id="path767" />
      <path
         id="588"
         d=" M -55 196 L -55 185 " />
      <path
         id="589"
         d=" M 55 196 L 55 185 " />
    </g>
  </g>
</svg>
