<?xml version="1.0" encoding="UTF-8" standalone="no"?>
<!-- Created with Inkscape (http://www.inkscape.org/) -->

<svg
   xmlns:dc="http://purl.org/dc/elements/1.1/"
   xmlns:cc="http://creativecommons.org/ns#"
   xmlns:rdf="http://www.w3.org/1999/02/22-rdf-syntax-ns#"
   xmlns:svg="http://www.w3.org/2000/svg"
   xmlns="http://www.w3.org/2000/svg"
   xmlns:sodipodi="http://sodipodi.sourceforge.net/DTD/sodipodi-0.dtd"
   xmlns:inkscape="http://www.inkscape.org/namespaces/inkscape"
   width="600mm"
   height="600mm"
   viewBox="0 0 600 600"
   id="svg2"
   version="1.1"
   inkscape:version="0.48.4 r9939"
   sodipodi:docname="template.svg">
  <defs
     id="defs4" />
  <sodipodi:namedview
     id="base"
     pagecolor="#ffffff"
     bordercolor="#666666"
     borderopacity="1.0"
     inkscape:pageopacity="0.0"
     inkscape:pageshadow="2"
     inkscape:zoom="0.35"
     inkscape:cx="45"
     inkscape:cy="520"
     inkscape:document-units="mm"
     inkscape:current-layer="layer1"
     showgrid="false"
     units="mm"
     inkscape:window-width="1366"
     inkscape:window-height="718"
     inkscape:window-x="0"
     inkscape:window-y="0"
     inkscape:window-maximized="1" />
  <metadata
     id="metadata7">
    <rdf:RDF>
      <cc:Work
         rdf:about="">
        <dc:format>image/svg+xml</dc:format>
        <dc:type
           rdf:resource="http://purl.org/dc/dcmitype/StillImage" />
        <dc:title />
      </cc:Work>
    </rdf:RDF>
  </metadata>
  <g
     inkscape:label="Layer 1"
     inkscape:groupmode="layer"
     id="layer1"
     transform="translate(0,1073.622)" />
<g id="View002"
   transform="rotate(0,330,400) translate(330,400) scale(1,1)"
  >
<g   stroke="rgb(0, 0, 0)"
   stroke-width="0.1"
   stroke-linecap="butt"
   stroke-linejoin="miter"
   fill="none"
   transform="scale(1,-1)"
  >
<path id= "1" d=" M 2 -68 L -1 -68 " />
<path id= "2" d=" M 2 -66.866 L 2 -68 " />
<path d="M-1 -98 A113 113 0 0 0 -1 -68" /><path id= "4" d=" M 13 0 L 22 0 " />
<path id= "5" d=" M 22 0 L 22 -100 " />
<path id= "6" d=" M 22 -100 L 2 -100 " />
<path id= "7" d=" M 2 -100 L 2 -98 " />
<path id= "8" d=" M 2 -98 L -1 -98 " />
<path id= "9" d=" M 13 -66.866 L 2 -66.866 " />
<path id= "10" d=" M 13 -66.466 L 13 -66.866 " />
<path id= "11" d=" M 2 -66.466 L 13 -66.466 " />
<path id= "12" d=" M 2 -33.5335 L 2 -66.466 " />
<path id= "13" d=" M 13 -33.5335 L 2 -33.5335 " />
<path id= "14" d=" M 13 -33.1335 L 13 -33.5335 " />
<path id= "15" d=" M 2 -33.1335 L 13 -33.1335 " />
<path id= "16" d=" M 2 -0.201 L 2 -33.1335 " />
<path id= "17" d=" M 13 -0.201 L 2 -0.201 " />
<path id= "18" d=" M 13 2.91434e-16 L 13 -0.201 " />
<path id= "19" d=" M 2 -88 L 2 -78 " />
<path id= "20" d=" M 0 -88 L 2 -88 " />
<path id= "21" d=" M 2 -78 L 0 -78 " />
<path id= "22" d=" M 0 -78 L 0 -88 " />
<path id= "23" d=" M 22 0 L 22 100 " />
<path id= "24" d=" M 22 100 L 2 100 " />
<path id= "25" d=" M 2 100 L 2 98 " />
<path id= "26" d=" M 2 98 L -1 98 " />
<path d="M-1 98 A113 113 0 0 1 -1 68" /><path id= "28" d=" M 2 68 L -1 68 " />
<path id= "29" d=" M 2 66.864 L 2 68 " />
<path id= "30" d=" M 13 66.864 L 2 66.864 " />
<path id= "31" d=" M 13 66.464 L 13 66.864 " />
<path id= "32" d=" M 2 66.464 L 13 66.464 " />
<path id= "33" d=" M 2 33.5315 L 2 66.464 " />
<path id= "34" d=" M 13 33.5315 L 2 33.5315 " />
<path id= "35" d=" M 13 33.1315 L 13 33.5315 " />
<path id= "36" d=" M 2 33.1315 L 13 33.1315 " />
<path id= "37" d=" M 2 0.199 L 2 33.1315 " />
<path id= "38" d=" M 13 0.199 L 2 0.199 " />
<path id= "39" d=" M 13 2.91434e-16 L 13 0.199 " />
<path id= "40" d=" M 2 88 L 2 78 " />
<path id= "41" d=" M 0 88 L 2 88 " />
<path id= "42" d=" M 2 78 L 0 78 " />
<path id= "43" d=" M 0 78 L 0 88 " />
</g>
</g>



<g id="View003"
   transform="rotate(0,200,200) translate(200,200) scale(1,1)"
  >
<g   stroke="rgb(0, 0, 0)"
   stroke-width="0.1"
   stroke-linecap="butt"
   stroke-linejoin="miter"
   fill="none"
   transform="scale(1,-1)"
  >
<path id= "1" d=" M 23 -317.102 L 3 -317.102 " />
<path id= "2" d=" M 23 -333.002 L 23 -317.102 " />
<path id= "3" d=" M 3 -317.102 L 3 -320.102 " />
<path id= "4" d=" M 3 -333.002 L 23 -333.002 " />
<path id= "5" d=" M 3 -320.502 L 3 -333.002 " />
<path id= "6" d=" M 13 -320.502 L 3 -320.502 " />
<path id= "7" d=" M 3 -320.102 L 13 -320.102 " />
<path id= "8" d=" M 13 -320.102 L 13 -320.502 " />
<path id= "9" d=" M 23 -333.002 L 23 -348.902 " />
<path id= "10" d=" M 23 -348.902 L 3 -348.902 " />
<path id= "11" d=" M 3 -345.502 L 3 -333.002 " />
<path id= "12" d=" M 3 -348.902 L 3 -345.902 " />
<path id= "13" d=" M 13 -345.502 L 3 -345.502 " />
<path id= "14" d=" M 3 -345.902 L 13 -345.902 " />
<path id= "15" d=" M 13 -345.902 L 13 -345.502 " />
</g>
</g>



<g id="View004"
   transform="rotate(0,111,222) translate(111,222) scale(1,1)"
  >
<g   stroke="rgb(0, 0, 0)"
   stroke-width="0.1"
   stroke-linecap="butt"
   stroke-linejoin="miter"
   fill="none"
   transform="scale(1,-1)"
  >
<path id= "1" d=" M -2 102 L 4.44089e-16 102 " />
<path d="M-2 132 A39 39 0 0 1 -2 102" /><path id= "3" d=" M 1.11022e-16 102 L 1.11022e-16 100.199 " />
<path id= "4" d=" M 1.11022e-16 132 L -2 132 " />
<path id= "5" d=" M 1.11022e-16 133.132 L 1.11022e-16 132 " />
<path id= "6" d=" M 10 133.132 L -1.59872e-14 133.132 " />
<path id= "7" d=" M 10 133.532 L 10 133.132 " />
<path id= "8" d=" M -1.4714e-14 133.532 L 10 133.532 " />
<path id= "9" d=" M 1.11022e-16 166.465 L 1.11022e-16 133.532 " />
<path id= "10" d=" M 10 166.465 L -1.95399e-14 166.465 " />
<path id= "11" d=" M 10 166.865 L 10 166.465 " />
<path id= "12" d=" M -1.84147e-14 166.865 L 10 166.865 " />
<path id= "13" d=" M 1.11022e-16 170 L 1.11022e-16 166.865 " />
<path id= "14" d=" M 20 170 L -3.55271e-15 170 " />
<path id= "15" d=" M 20 -4.44089e-15 L 20 170 " />
<path id= "16" d=" M 10 -9.99201e-16 L 20 -2.10942e-15 " />
<path id= "17" d=" M 10 0.2 L 10 -9.99201e-16 " />
<path id= "18" d=" M 8.88178e-17 0.2 L 10 0.2 " />
<path id= "19" d=" M 1.11022e-16 33.133 L 1.11022e-16 0.2 " />
<path id= "20" d=" M 10 33.133 L -5.32907e-15 33.133 " />
<path id= "21" d=" M 10 33.533 L 10 33.133 " />
<path id= "22" d=" M -3.61189e-15 33.533 L 10 33.533 " />
<path id= "23" d=" M 1.11022e-16 66.466 L 1.11022e-16 33.533 " />
<path id= "24" d=" M 10 66.466 L -8.88178e-15 66.466 " />
<path id= "25" d=" M 10 66.866 L 10 66.466 " />
<path id= "26" d=" M -7.31259e-15 66.866 L 10 66.866 " />
<path id= "27" d=" M 1.11022e-16 99.799 L 1.11022e-16 66.866 " />
<path id= "28" d=" M 10 99.799 L -1.24345e-14 99.799 " />
<path id= "29" d=" M 10 100.199 L 10 99.799 " />
<path id= "30" d=" M -1.10133e-14 100.199 L 10 100.199 " />
<path id= "31" d=" M 1.11022e-16 122 L 1.11022e-16 112 " />
<path id= "32" d=" M -3 122 L 8.88178e-16 122 " />
<path id= "33" d=" M 1.11022e-16 112 L -3 112 " />
<path id= "34" d=" M -3 112 L -3 122 " />
<path id= "35" d=" M 10 -9.99201e-16 L 10 -0.2 " />
<path d="M-2 -132 A39 39 0 0 0 -2 -102" /><path id= "37" d=" M 1.4766e-14 -132 L -2 -132 " />
<path id= "38" d=" M 1.48916e-14 -133.132 L 1.4766e-14 -132 " />
<path id= "39" d=" M 1.48916e-14 -133.132 L 10 -133.132 " />
<path id= "40" d=" M 10 -133.132 L 10 -133.532 " />
<path id= "41" d=" M 10 -133.532 L 1.42109e-14 -133.532 " />
<path id= "42" d=" M 1.85923e-14 -166.465 L 1.49361e-14 -133.532 " />
<path id= "43" d=" M 1.85923e-14 -166.465 L 10 -166.465 " />
<path id= "44" d=" M 10 -166.465 L 10 -166.865 " />
<path id= "45" d=" M 10 -166.865 L 1.77636e-14 -166.865 " />
<path id= "46" d=" M 1.89848e-14 -170 L 1.86368e-14 -166.865 " />
<path id= "47" d=" M 20 -170 L 1.06581e-14 -170 " />
<path id= "48" d=" M 20 -2.10942e-15 L 20 -170 " />
<path id= "49" d=" M 10 -0.2 L -1.77636e-15 -0.2 " />
<path id= "50" d=" M 3.78952e-15 -33.133 L 1.33227e-16 -0.2 " />
<path id= "51" d=" M 3.78952e-15 -33.133 L 10 -33.133 " />
<path id= "52" d=" M 10 -33.133 L 10 -33.533 " />
<path id= "53" d=" M 10 -33.533 L 3.55271e-15 -33.533 " />
<path id= "54" d=" M 7.49023e-15 -66.466 L 3.83393e-15 -33.533 " />
<path id= "55" d=" M 7.49023e-15 -66.466 L 10 -66.466 " />
<path id= "56" d=" M 10 -66.466 L 10 -66.866 " />
<path id= "57" d=" M 10 -66.866 L 7.10543e-15 -66.866 " />
<path id= "58" d=" M 1.11909e-14 -99.799 L 7.53464e-15 -66.866 " />
<path id= "59" d=" M 1.11909e-14 -99.799 L 10 -99.799 " />
<path id= "60" d=" M 10 -99.799 L 10 -100.199 " />
<path id= "61" d=" M 10 -100.199 L 1.06581e-14 -100.199 " />
<path id= "62" d=" M 1.14353e-14 -102 L 1.12353e-14 -100.199 " />
<path id= "63" d=" M -2 -102 L 1.24345e-14 -102 " />
<path id= "64" d=" M 1.36557e-14 -122 L 1.25455e-14 -112 " />
<path id= "65" d=" M -3 -122 L 1.46549e-14 -122 " />
<path id= "66" d=" M 1.25455e-14 -112 L -3 -112 " />
<path id= "67" d=" M -3 -112 L -3 -122 " />
</g>
</g>



<g id="View005"
   transform="rotate(0,11,222) translate(11,222) scale(1,1)"
  >
<g   stroke="rgb(0, 0, 0)"
   stroke-width="0.1"
   stroke-linecap="butt"
   stroke-linejoin="miter"
   fill="none"
   transform="scale(1,-1)"
  >
<path id= "1" d=" M 0 -170 L 20 -170 " />
<path id= "2" d=" M 0 -163.367 L 0 -170 " />
<path id= "3" d=" M 20 -170 L 20 -5.68434e-14 " />
<path id= "4" d=" M 0 0 L 0 -16.4667 " />
<path id= "5" d=" M 0 -16.4667 L 10 -16.4667 " />
<path id= "6" d=" M 10 -16.4667 L 10 -16.8666 " />
<path id= "7" d=" M 10 -16.8666 L -8.88178e-16 -16.8666 " />
<path id= "8" d=" M 0 -16.8666 L 0 -45.7666 " />
<path id= "9" d=" M 0 -45.7666 L 10 -45.7666 " />
<path id= "10" d=" M 10 -45.7666 L 10 -46.1666 " />
<path id= "11" d=" M 10 -46.1667 L -8.88178e-16 -46.1667 " />
<path id= "12" d=" M 0 -46.1667 L 0 -75.0667 " />
<path id= "13" d=" M 0 -75.0667 L 10 -75.0667 " />
<path id= "14" d=" M 10 -75.0667 L 10 -75.4667 " />
<path id= "15" d=" M 10 -75.4667 L -8.88178e-16 -75.4667 " />
<path id= "16" d=" M 0 -75.4667 L 0 -104.367 " />
<path id= "17" d=" M 0 -104.367 L 10 -104.367 " />
<path id= "18" d=" M 10 -104.367 L 10 -104.767 " />
<path id= "19" d=" M 10 -104.767 L -8.88178e-16 -104.767 " />
<path id= "20" d=" M 0 -104.767 L 0 -133.667 " />
<path id= "21" d=" M 0 -133.667 L 10 -133.667 " />
<path id= "22" d=" M 10 -133.667 L 10 -134.067 " />
<path id= "23" d=" M 10 -134.067 L -8.88178e-16 -134.067 " />
<path id= "24" d=" M 0 -134.067 L 0 -162.967 " />
<path id= "25" d=" M 0 -162.967 L 10 -162.967 " />
<path id= "26" d=" M 10 -162.967 L 10 -163.367 " />
<path id= "27" d=" M 10 -163.367 L -8.88178e-16 -163.367 " />
<path id= "28" d=" M 20 0 L -7.10543e-15 0 " />
<path id= "29" d=" M 20 170 L 20 1.42109e-13 " />
<path id= "30" d=" M 0 0 L 0 16.4667 " />
<path id= "31" d=" M 10 16.4667 L 0 16.4667 " />
<path id= "32" d=" M 10 16.8666 L 10 16.4667 " />
<path id= "33" d=" M -8.88178e-16 16.8666 L 10 16.8666 " />
<path id= "34" d=" M 0 16.8666 L 0 45.7666 " />
<path id= "35" d=" M 10 45.7666 L 0 45.7666 " />
<path id= "36" d=" M 10 46.1666 L 10 45.7666 " />
<path id= "37" d=" M -8.88178e-16 46.1667 L 10 46.1667 " />
<path id= "38" d=" M 0 46.1667 L 0 75.0667 " />
<path id= "39" d=" M 10 75.0667 L 0 75.0667 " />
<path id= "40" d=" M 10 75.4667 L 10 75.0667 " />
<path id= "41" d=" M -8.88178e-16 75.4667 L 10 75.4667 " />
<path id= "42" d=" M 0 75.4667 L 0 104.367 " />
<path id= "43" d=" M 10 104.367 L 0 104.367 " />
<path id= "44" d=" M 10 104.767 L 10 104.367 " />
<path id= "45" d=" M -8.88178e-16 104.767 L 10 104.767 " />
<path id= "46" d=" M 0 104.767 L 0 133.667 " />
<path id= "47" d=" M 10 133.667 L 0 133.667 " />
<path id= "48" d=" M 10 134.067 L 10 133.667 " />
<path id= "49" d=" M -8.88178e-16 134.067 L 10 134.067 " />
<path id= "50" d=" M 0 134.067 L 0 162.967 " />
<path id= "51" d=" M 10 162.967 L 0 162.967 " />
<path id= "52" d=" M 10 163.367 L 10 162.967 " />
<path id= "53" d=" M -8.88178e-16 163.367 L 10 163.367 " />
<path id= "54" d=" M 0 163.367 L 0 170 " />
<path id= "55" d=" M 0 170 L 20 170 " />
</g>
</g>



<g id="View006"
   transform="rotate(0,250,300) translate(250,300) scale(1,1)"
  >
<g   stroke="rgb(0, 0, 0)"
   stroke-width="0.1"
   stroke-linecap="butt"
   stroke-linejoin="miter"
   fill="none"
   transform="scale(1,-1)"
  >
<path id= "1" d=" M -19 250 L 7.10543e-15 250 " />
<path id= "2" d=" M -19 250 L -19 214 " />
<path id= "3" d=" M 2.33147e-15 250 L 2.33147e-15 231.5 " />
<path id= "4" d=" M 1.112e-12 231.5 L -7 231.5 " />
<path id= "5" d=" M -7 231.5 L -7 232.575 " />
<path id= "6" d=" M -7 232.575 L -8.45 232.575 " />
<path id= "7" d=" M -8.45 232.575 L -8.45 231.5 " />
<path id= "8" d=" M -8.45 231.5 L -10.45 231.5 " />
<path id= "9" d=" M -10.45 231.5 L -10.45 228.5 " />
<path id= "10" d=" M -10.45 228.5 L -8.45 228.5 " />
<path id= "11" d=" M -8.45 228.5 L -8.45 227.425 " />
<path id= "12" d=" M -8.45 227.425 L -7 227.425 " />
<path id= "13" d=" M -7 227.425 L -7 228.5 " />
<path id= "14" d=" M -7 228.5 L 1.06226e-12 228.5 " />
<path id= "15" d=" M 2.33147e-15 228.5 L 2.33147e-15 214 " />
<path id= "16" d=" M 2.33147e-15 214 L 16 214 " />
<path id= "17" d=" M 16 214 L 16 206 " />
<path id= "18" d=" M 16 206 L 0 206 " />
<path id= "19" d=" M 2.33147e-15 206 L 2.33147e-15 74 " />
<path id= "20" d=" M 2.33147e-15 74 L 16 74 " />
<path id= "21" d=" M 16 74 L 16 66 " />
<path id= "22" d=" M 16 66 L -1.06581e-14 66 " />
<path id= "23" d=" M 2.33147e-15 66 L 2.33147e-15 1.5 " />
<path id= "24" d=" M 1.112e-12 1.5 L -7 1.5 " />
<path id= "25" d=" M -7 1.5 L -7 2.575 " />
<path id= "26" d=" M -7 2.575 L -8.45 2.575 " />
<path id= "27" d=" M -8.45 2.575 L -8.45 1.5 " />
<path id= "28" d=" M -8.45 1.5 L -10.45 1.5 " />
<path id= "29" d=" M -10.45 1.5 L -10.45 0 " />
<path id= "30" d=" M -10.45 3.65263e-15 L -19 5.55112e-15 " />
<path id= "31" d=" M -19 66 L -19 0 " />
<path id= "32" d=" M -20 66 L -19 66 " />
<path id= "33" d=" M -20 74 L -20 66 " />
<path id= "34" d=" M -19 74 L -20 74 " />
<path id= "35" d=" M -19 206 L -19 74 " />
<path id= "36" d=" M -20 206 L -19 206 " />
<path id= "37" d=" M -20 214 L -20 206 " />
<path id= "38" d=" M -19 214 L -20 214 " />
<circle cx ="-5" cy ="210" r ="1.5" /><circle cx ="-5" cy ="70" r ="1.5" /><path id= "41" d=" M -10.45 -1.5 L -10.45 1.13687e-13 " />
<path id= "42" d=" M -19 -250 L 6.75016e-14 -250 " />
<path id= "43" d=" M 5.78426e-14 -250 L 5.37348e-14 -231.5 " />
<path id= "44" d=" M 1.06226e-12 -231.5 L -7 -231.5 " />
<path id= "45" d=" M -7 -231.5 L -7 -232.575 " />
<path id= "46" d=" M -7 -232.575 L -8.45 -232.575 " />
<path id= "47" d=" M -8.45 -232.575 L -8.45 -231.5 " />
<path id= "48" d=" M -8.45 -231.5 L -10.45 -231.5 " />
<path id= "49" d=" M -10.45 -231.5 L -10.45 -228.5 " />
<path id= "50" d=" M -10.45 -228.5 L -8.45 -228.5 " />
<path id= "51" d=" M -8.45 -228.5 L -8.45 -227.425 " />
<path id= "52" d=" M -8.45 -227.425 L -7 -227.425 " />
<path id= "53" d=" M -7 -227.425 L -7 -228.5 " />
<path id= "54" d=" M -7 -228.5 L 1.112e-12 -228.5 " />
<path id= "55" d=" M 5.30687e-14 -228.5 L 4.9849e-14 -214 " />
<path id= "56" d=" M 4.9849e-14 -214 L 16 -214 " />
<path id= "57" d=" M 16 -214 L 16 -206 " />
<path id= "58" d=" M 16 -206 L 4.26326e-14 -206 " />
<path id= "59" d=" M 4.80727e-14 -206 L 1.87628e-14 -74 " />
<path id= "60" d=" M 1.87628e-14 -74 L 16 -74 " />
<path id= "61" d=" M 16 -74 L 16 -66 " />
<path id= "62" d=" M 16 -66 L 0 -66 " />
<path id= "63" d=" M 1.69864e-14 -66 L 2.66454e-15 -1.5 " />
<path id= "64" d=" M 1.06226e-12 -1.5 L -7 -1.5 " />
<path id= "65" d=" M -7 -1.5 L -7 -2.575 " />
<path id= "66" d=" M -7 -2.575 L -8.45 -2.575 " />
<path id= "67" d=" M -8.45 -2.575 L -8.45 -1.5 " />
<path id= "68" d=" M -8.45 -1.5 L -10.45 -1.5 " />
<path id= "69" d=" M -19 -66 L -19 4.26326e-14 " />
<path id= "70" d=" M -20 -66 L -19 -66 " />
<path id= "71" d=" M -20 -74 L -20 -66 " />
<path id= "72" d=" M -19 -74 L -20 -74 " />
<path id= "73" d=" M -19 -206 L -19 -74 " />
<path id= "74" d=" M -20 -206 L -19 -206 " />
<path id= "75" d=" M -20 -214 L -20 -206 " />
<path id= "76" d=" M -19 -214 L -20 -214 " />
<path id= "77" d=" M -19 -250 L -19 -214 " />
<circle cx ="-5" cy ="-210" r ="1.5" /><circle cx ="-5" cy ="-70" r ="1.5" /></g>
</g>



</svg>

