<?xml version="1.0" encoding="UTF-8" standalone="no"?>
<!-- Created with Inkscape (http://www.inkscape.org/) -->

<svg
   xmlns:dc="http://purl.org/dc/elements/1.1/"
   xmlns:cc="http://creativecommons.org/ns#"
   xmlns:rdf="http://www.w3.org/1999/02/22-rdf-syntax-ns#"
   xmlns:svg="http://www.w3.org/2000/svg"
   xmlns="http://www.w3.org/2000/svg"
   xmlns:sodipodi="http://sodipodi.sourceforge.net/DTD/sodipodi-0.dtd"
   xmlns:inkscape="http://www.inkscape.org/namespaces/inkscape"
   width="600mm"
   height="600mm"
   viewBox="0 0 600 600"
   id="svg2"
   version="1.1"
   inkscape:version="0.48.4 r9939"
   sodipodi:docname="template.svg">
  <defs
     id="defs4" />
  <sodipodi:namedview
     id="base"
     pagecolor="#ffffff"
     bordercolor="#666666"
     borderopacity="1.0"
     inkscape:pageopacity="0.0"
     inkscape:pageshadow="2"
     inkscape:zoom="0.35"
     inkscape:cx="45"
     inkscape:cy="520"
     inkscape:document-units="mm"
     inkscape:current-layer="layer1"
     showgrid="false"
     units="mm"
     inkscape:window-width="1366"
     inkscape:window-height="718"
     inkscape:window-x="0"
     inkscape:window-y="0"
     inkscape:window-maximized="1" />
  <metadata
     id="metadata7">
    <rdf:RDF>
      <cc:Work
         rdf:about="">
        <dc:format>image/svg+xml</dc:format>
        <dc:type
           rdf:resource="http://purl.org/dc/dcmitype/StillImage" />
        <dc:title />
      </cc:Work>
    </rdf:RDF>
  </metadata>
  <g
     inkscape:label="Layer 1"
     inkscape:groupmode="layer"
     id="layer1"
     transform="translate(0,1073.622)" />
<g id="View002"
   transform="rotate(0,330,400) translate(330,400) scale(1,1)"
  >
<g   stroke="rgb(0, 0, 0)"
   stroke-width="0.1"
   stroke-linecap="butt"
   stroke-linejoin="miter"
   fill="none"
   transform="scale(1,-1)"
  >
<path id= "1" d=" M 2 -68 L -1 -68 " />
<path id= "2" d=" M 2 -66.916 L 2 -68 " />
<path d="M-1 -98 A113 113 0 0 0 -1 -68" /><path id= "4" d=" M 13 0 L 22 0 " />
<path id= "5" d=" M 22 0 L 22 -100 " />
<path id= "6" d=" M 22 -100 L 2 -100 " />
<path id= "7" d=" M 2 -100 L 2 -98 " />
<path id= "8" d=" M 2 -98 L -1 -98 " />
<path id= "9" d=" M 13 -66.916 L 2 -66.916 " />
<path id= "10" d=" M 13 -66.416 L 13 -66.916 " />
<path id= "11" d=" M 2 -66.416 L 13 -66.416 " />
<path id= "12" d=" M 2 -33.5835 L 2 -66.416 " />
<path id= "13" d=" M 13 -33.5835 L 2 -33.5835 " />
<path id= "14" d=" M 13 -33.0835 L 13 -33.5835 " />
<path id= "15" d=" M 2 -33.0835 L 13 -33.0835 " />
<path id= "16" d=" M 2 -0.251 L 2 -33.0835 " />
<path id= "17" d=" M 13 -0.251 L 2 -0.251 " />
<path id= "18" d=" M 13 0 L 13 -0.251 " />
<path id= "19" d=" M 2 -88 L 2 -78 " />
<path id= "20" d=" M 0 -88 L 2 -88 " />
<path id= "21" d=" M 2 -78 L -2.22045e-16 -78 " />
<path id= "22" d=" M 0 -78 L 0 -88 " />
<path id= "23" d=" M 22 0 L 22 100 " />
<path id= "24" d=" M 22 100 L 2 100 " />
<path id= "25" d=" M 2 100 L 2 98 " />
<path id= "26" d=" M 2 98 L -1 98 " />
<path d="M-1 98 A113 113 0 0 1 -1 68" /><path id= "28" d=" M 2 68 L -1 68 " />
<path id= "29" d=" M 2 66.914 L 2 68 " />
<path id= "30" d=" M 13 66.914 L 2 66.914 " />
<path id= "31" d=" M 13 66.414 L 13 66.914 " />
<path id= "32" d=" M 2 66.414 L 13 66.414 " />
<path id= "33" d=" M 2 33.5815 L 2 66.414 " />
<path id= "34" d=" M 13 33.5815 L 2 33.5815 " />
<path id= "35" d=" M 13 33.0815 L 13 33.5815 " />
<path id= "36" d=" M 2 33.0815 L 13 33.0815 " />
<path id= "37" d=" M 2 0.249 L 2 33.0815 " />
<path id= "38" d=" M 13 0.249 L 2 0.249 " />
<path id= "39" d=" M 13 0 L 13 0.249 " />
<path id= "40" d=" M 2 88 L 2 78 " />
<path id= "41" d=" M 0 88 L 2 88 " />
<path id= "42" d=" M 2 78 L -2.22045e-16 78 " />
<path id= "43" d=" M 0 78 L 0 88 " />
</g>
</g>



<g id="View003"
   transform="rotate(0,200,200) translate(200,200) scale(1,1)"
  >
<g   stroke="rgb(0, 0, 0)"
   stroke-width="0.1"
   stroke-linecap="butt"
   stroke-linejoin="miter"
   fill="none"
   transform="scale(1,-1)"
  >
<path id= "1" d=" M 23 -317.014 L 3 -317.014 " />
<path id= "2" d=" M 23 -333.014 L 23 -317.014 " />
<path id= "3" d=" M 3 -317.014 L 3 -320.014 " />
<path id= "4" d=" M 3 -333.014 L 23 -333.014 " />
<path id= "5" d=" M 3 -320.514 L 3 -333.014 " />
<path id= "6" d=" M 13 -320.514 L 3 -320.514 " />
<path id= "7" d=" M 3 -320.014 L 13 -320.014 " />
<path id= "8" d=" M 13 -320.014 L 13 -320.514 " />
<path id= "9" d=" M 23 -333.014 L 23 -349.014 " />
<path id= "10" d=" M 23 -349.014 L 3 -349.014 " />
<path id= "11" d=" M 3 -345.514 L 3 -333.014 " />
<path id= "12" d=" M 3 -349.014 L 3 -346.014 " />
<path id= "13" d=" M 13 -345.514 L 3 -345.514 " />
<path id= "14" d=" M 3 -346.014 L 13 -346.014 " />
<path id= "15" d=" M 13 -346.014 L 13 -345.514 " />
</g>
</g>



<g id="View004"
   transform="rotate(0,111,222) translate(111,222) scale(1,1)"
  >
<g   stroke="rgb(0, 0, 0)"
   stroke-width="0.1"
   stroke-linecap="butt"
   stroke-linejoin="miter"
   fill="none"
   transform="scale(1,-1)"
  >
<path id= "1" d=" M -2 102 L 4.44089e-16 102 " />
<path d="M-2 132 A57.25 57.25 0 0 1 -2 102" /><path id= "3" d=" M 1.11022e-16 102 L 1.11022e-16 100.249 " />
<path id= "4" d=" M 1.11022e-16 132 L -2 132 " />
<path id= "5" d=" M 1.11022e-16 133.082 L 1.11022e-16 132 " />
<path id= "6" d=" M 10 133.082 L -1.59872e-14 133.082 " />
<path id= "7" d=" M 10 133.582 L 10 133.082 " />
<path id= "8" d=" M -1.47196e-14 133.582 L 10 133.582 " />
<path id= "9" d=" M 1.11022e-16 166.415 L 1.11022e-16 133.582 " />
<path id= "10" d=" M 10 166.415 L -1.95399e-14 166.415 " />
<path id= "11" d=" M 10 166.915 L 10 166.415 " />
<path id= "12" d=" M -1.84203e-14 166.915 L 10 166.915 " />
<path id= "13" d=" M 1.11022e-16 170 L 1.11022e-16 166.915 " />
<path id= "14" d=" M 20 170 L -3.55271e-15 170 " />
<path id= "15" d=" M 20 -4.44089e-15 L 20 170 " />
<path id= "16" d=" M 10 -9.99201e-16 L 20 -2.10942e-15 " />
<path id= "17" d=" M 10 0.25 L 10 -9.99201e-16 " />
<path id= "18" d=" M 8.32667e-17 0.25 L 10 0.25 " />
<path id= "19" d=" M 1.11022e-16 33.083 L 1.11022e-16 0.25 " />
<path id= "20" d=" M 10 33.083 L -5.32907e-15 33.083 " />
<path id= "21" d=" M 10 33.583 L 10 33.083 " />
<path id= "22" d=" M -3.61744e-15 33.583 L 10 33.583 " />
<path id= "23" d=" M 1.11022e-16 66.416 L 1.11022e-16 33.583 " />
<path id= "24" d=" M 10 66.416 L -8.88178e-15 66.416 " />
<path id= "25" d=" M 10 66.916 L 10 66.416 " />
<path id= "26" d=" M -7.31815e-15 66.916 L 10 66.916 " />
<path id= "27" d=" M 1.11022e-16 99.749 L 1.11022e-16 66.916 " />
<path id= "28" d=" M 10 99.749 L -1.24345e-14 99.749 " />
<path id= "29" d=" M 10 100.249 L 10 99.749 " />
<path id= "30" d=" M -1.10189e-14 100.249 L 10 100.249 " />
<path id= "31" d=" M 1.11022e-16 122 L 1.11022e-16 112 " />
<path id= "32" d=" M -2 122 L 4.44089e-16 122 " />
<path id= "33" d=" M 1.11022e-16 112 L -2 112 " />
<path id= "34" d=" M -2 112 L -2 122 " />
<path id= "35" d=" M 10 -9.99201e-16 L 10 -0.25 " />
<path d="M-2 -132 A57.25 57.25 0 0 0 -2 -102" /><path id= "37" d=" M 1.4766e-14 -132 L -2 -132 " />
<path id= "38" d=" M 1.48861e-14 -133.082 L 1.4766e-14 -132 " />
<path id= "39" d=" M 1.48861e-14 -133.082 L 10 -133.082 " />
<path id= "40" d=" M 10 -133.082 L 10 -133.582 " />
<path id= "41" d=" M 10 -133.582 L 1.42109e-14 -133.582 " />
<path id= "42" d=" M 1.85868e-14 -166.415 L 1.49416e-14 -133.582 " />
<path id= "43" d=" M 1.85868e-14 -166.415 L 10 -166.415 " />
<path id= "44" d=" M 10 -166.415 L 10 -166.915 " />
<path id= "45" d=" M 10 -166.915 L 1.77636e-14 -166.915 " />
<path id= "46" d=" M 1.89848e-14 -170 L 1.86423e-14 -166.915 " />
<path id= "47" d=" M 20 -170 L 1.06581e-14 -170 " />
<path id= "48" d=" M 20 -2.10942e-15 L 20 -170 " />
<path id= "49" d=" M 10 -0.25 L -1.77636e-15 -0.25 " />
<path id= "50" d=" M 3.78397e-15 -33.083 L 1.38778e-16 -0.25 " />
<path id= "51" d=" M 3.78397e-15 -33.083 L 10 -33.083 " />
<path id= "52" d=" M 10 -33.083 L 10 -33.583 " />
<path id= "53" d=" M 10 -33.583 L 3.55271e-15 -33.583 " />
<path id= "54" d=" M 7.48468e-15 -66.416 L 3.83948e-15 -33.583 " />
<path id= "55" d=" M 7.48468e-15 -66.416 L 10 -66.416 " />
<path id= "56" d=" M 10 -66.416 L 10 -66.916 " />
<path id= "57" d=" M 10 -66.916 L 7.10543e-15 -66.916 " />
<path id= "58" d=" M 1.11854e-14 -99.749 L 7.54019e-15 -66.916 " />
<path id= "59" d=" M 1.11854e-14 -99.749 L 10 -99.749 " />
<path id= "60" d=" M 10 -99.749 L 10 -100.249 " />
<path id= "61" d=" M 10 -100.249 L 1.06581e-14 -100.249 " />
<path id= "62" d=" M 1.14353e-14 -102 L 1.12409e-14 -100.249 " />
<path id= "63" d=" M -2 -102 L 1.24345e-14 -102 " />
<path id= "64" d=" M 1.36557e-14 -122 L 1.25455e-14 -112 " />
<path id= "65" d=" M -2 -122 L 1.46549e-14 -122 " />
<path id= "66" d=" M 1.25455e-14 -112 L -2 -112 " />
<path id= "67" d=" M -2 -112 L -2 -122 " />
</g>
</g>



<g id="View005"
   transform="rotate(0,11,222) translate(11,222) scale(1,1)"
  >
<g   stroke="rgb(0, 0, 0)"
   stroke-width="0.1"
   stroke-linecap="butt"
   stroke-linejoin="miter"
   fill="none"
   transform="scale(1,-1)"
  >
<path id= "1" d=" M 0 -170 L 20 -170 " />
<path id= "2" d=" M 0 -163.417 L 0 -170 " />
<path id= "3" d=" M 20 -170 L 20 0 " />
<path id= "4" d=" M 0 0 L 0 -16.4167 " />
<path id= "5" d=" M -2.8026e-45 -16.4167 L 10 -16.4167 " />
<path id= "6" d=" M 10 -16.4167 L 10 -16.9167 " />
<path id= "7" d=" M 10 -16.9167 L -8.88178e-16 -16.9167 " />
<path id= "8" d=" M 0 -16.9167 L 0 -45.7167 " />
<path id= "9" d=" M -2.8026e-45 -45.7167 L 10 -45.7167 " />
<path id= "10" d=" M 10 -45.7167 L 10 -46.2167 " />
<path id= "11" d=" M 10 -46.2167 L -8.88178e-16 -46.2167 " />
<path id= "12" d=" M 0 -46.2167 L 0 -75.0166 " />
<path id= "13" d=" M -2.8026e-45 -75.0166 L 10 -75.0166 " />
<path id= "14" d=" M 10 -75.0166 L 10 -75.5166 " />
<path id= "15" d=" M 10 -75.5166 L -8.88178e-16 -75.5166 " />
<path id= "16" d=" M 0 -75.5166 L 0 -104.317 " />
<path id= "17" d=" M -2.8026e-45 -104.317 L 10 -104.317 " />
<path id= "18" d=" M 10 -104.317 L 10 -104.817 " />
<path id= "19" d=" M 10 -104.817 L -8.88178e-16 -104.817 " />
<path id= "20" d=" M 0 -104.817 L 0 -133.617 " />
<path id= "21" d=" M -2.8026e-45 -133.617 L 10 -133.617 " />
<path id= "22" d=" M 10 -133.617 L 10 -134.117 " />
<path id= "23" d=" M 10 -134.117 L -8.88178e-16 -134.117 " />
<path id= "24" d=" M 0 -134.117 L 0 -162.917 " />
<path id= "25" d=" M -2.8026e-45 -162.917 L 10 -162.917 " />
<path id= "26" d=" M 10 -162.917 L 10 -163.417 " />
<path id= "27" d=" M 10 -163.417 L -8.88178e-16 -163.417 " />
<path id= "28" d=" M 20 0 L -3.55271e-15 0 " />
<path id= "29" d=" M 20 170 L 20 8.52651e-14 " />
<path id= "30" d=" M 0 0 L 0 16.4167 " />
<path id= "31" d=" M 10 16.4167 L -2.8026e-45 16.4167 " />
<path id= "32" d=" M 10 16.9167 L 10 16.4167 " />
<path id= "33" d=" M -8.88178e-16 16.9167 L 10 16.9167 " />
<path id= "34" d=" M 0 16.9167 L 0 45.7167 " />
<path id= "35" d=" M 10 45.7167 L -2.8026e-45 45.7167 " />
<path id= "36" d=" M 10 46.2167 L 10 45.7167 " />
<path id= "37" d=" M -8.88178e-16 46.2167 L 10 46.2167 " />
<path id= "38" d=" M 0 46.2167 L 0 75.0166 " />
<path id= "39" d=" M 10 75.0166 L -2.8026e-45 75.0166 " />
<path id= "40" d=" M 10 75.5166 L 10 75.0166 " />
<path id= "41" d=" M -8.88178e-16 75.5166 L 10 75.5166 " />
<path id= "42" d=" M 0 75.5166 L 0 104.317 " />
<path id= "43" d=" M 10 104.317 L -2.8026e-45 104.317 " />
<path id= "44" d=" M 10 104.817 L 10 104.317 " />
<path id= "45" d=" M -8.88178e-16 104.817 L 10 104.817 " />
<path id= "46" d=" M 0 104.817 L 0 133.617 " />
<path id= "47" d=" M 10 133.617 L -2.8026e-45 133.617 " />
<path id= "48" d=" M 10 134.117 L 10 133.617 " />
<path id= "49" d=" M -8.88178e-16 134.117 L 10 134.117 " />
<path id= "50" d=" M 0 134.117 L 0 162.917 " />
<path id= "51" d=" M 10 162.917 L -2.8026e-45 162.917 " />
<path id= "52" d=" M 10 163.417 L 10 162.917 " />
<path id= "53" d=" M -8.88178e-16 163.417 L 10 163.417 " />
<path id= "54" d=" M 0 163.417 L 0 170 " />
<path id= "55" d=" M 0 170 L 20 170 " />
</g>
</g>



<g id="View006"
   transform="rotate(0,250,300) translate(250,300) scale(1,1)"
  >
<g   stroke="rgb(0, 0, 0)"
   stroke-width="0.1"
   stroke-linecap="butt"
   stroke-linejoin="miter"
   fill="none"
   transform="scale(1,-1)"
  >
<path id= "1" d=" M -19 250 L 7.10543e-15 250 " />
<path id= "2" d=" M -19 250 L -19 214 " />
<path id= "3" d=" M 2.33147e-15 250 L 2.33147e-15 231.5 " />
<path id= "4" d=" M 1.112e-12 231.5 L -7 231.5 " />
<path id= "5" d=" M -7 231.5 L -7 232.575 " />
<path id= "6" d=" M -7 232.575 L -8.45 232.575 " />
<path id= "7" d=" M -8.45 232.575 L -8.45 231.5 " />
<path id= "8" d=" M -8.45 231.5 L -10.45 231.5 " />
<path id= "9" d=" M -10.45 231.5 L -10.45 228.5 " />
<path id= "10" d=" M -10.45 228.5 L -8.45 228.5 " />
<path id= "11" d=" M -8.45 228.5 L -8.45 227.425 " />
<path id= "12" d=" M -8.45 227.425 L -7 227.425 " />
<path id= "13" d=" M -7 227.425 L -7 228.5 " />
<path id= "14" d=" M -7 228.5 L 1.06226e-12 228.5 " />
<path id= "15" d=" M 2.33147e-15 228.5 L 2.33147e-15 214 " />
<path id= "16" d=" M 2.33147e-15 214 L 16 214 " />
<path id= "17" d=" M 16 214 L 16 206 " />
<path id= "18" d=" M 16 206 L 0 206 " />
<path id= "19" d=" M 2.33147e-15 206 L 2.33147e-15 74 " />
<path id= "20" d=" M 2.33147e-15 74 L 16 74 " />
<path id= "21" d=" M 16 74 L 16 66 " />
<path id= "22" d=" M 16 66 L -1.06581e-14 66 " />
<path id= "23" d=" M 2.33147e-15 66 L 2.33147e-15 1.5 " />
<path id= "24" d=" M 1.112e-12 1.5 L -7 1.5 " />
<path id= "25" d=" M -7 1.5 L -7 2.575 " />
<path id= "26" d=" M -7 2.575 L -8.45 2.575 " />
<path id= "27" d=" M -8.45 2.575 L -8.45 1.5 " />
<path id= "28" d=" M -8.45 1.5 L -10.45 1.5 " />
<path id= "29" d=" M -10.45 1.5 L -10.45 0 " />
<path id= "30" d=" M -10.45 3.65263e-15 L -19 5.55112e-15 " />
<path id= "31" d=" M -19 66 L -19 0 " />
<path id= "32" d=" M -20 66 L -19 66 " />
<path id= "33" d=" M -20 74 L -20 66 " />
<path id= "34" d=" M -19 74 L -20 74 " />
<path id= "35" d=" M -19 206 L -19 74 " />
<path id= "36" d=" M -20 206 L -19 206 " />
<path id= "37" d=" M -20 214 L -20 206 " />
<path id= "38" d=" M -19 214 L -20 214 " />
<circle cx ="-5" cy ="210" r ="1.5" /><circle cx ="-5" cy ="70" r ="1.5" /><path id= "41" d=" M -10.45 -1.5 L -10.45 1.13687e-13 " />
<path id= "42" d=" M -19 -250 L 6.75016e-14 -250 " />
<path id= "43" d=" M 5.78426e-14 -250 L 5.37348e-14 -231.5 " />
<path id= "44" d=" M 1.06226e-12 -231.5 L -7 -231.5 " />
<path id= "45" d=" M -7 -231.5 L -7 -232.575 " />
<path id= "46" d=" M -7 -232.575 L -8.45 -232.575 " />
<path id= "47" d=" M -8.45 -232.575 L -8.45 -231.5 " />
<path id= "48" d=" M -8.45 -231.5 L -10.45 -231.5 " />
<path id= "49" d=" M -10.45 -231.5 L -10.45 -228.5 " />
<path id= "50" d=" M -10.45 -228.5 L -8.45 -228.5 " />
<path id= "51" d=" M -8.45 -228.5 L -8.45 -227.425 " />
<path id= "52" d=" M -8.45 -227.425 L -7 -227.425 " />
<path id= "53" d=" M -7 -227.425 L -7 -228.5 " />
<path id= "54" d=" M -7 -228.5 L 1.112e-12 -228.5 " />
<path id= "55" d=" M 5.30687e-14 -228.5 L 4.9849e-14 -214 " />
<path id= "56" d=" M 4.9849e-14 -214 L 16 -214 " />
<path id= "57" d=" M 16 -214 L 16 -206 " />
<path id= "58" d=" M 16 -206 L 4.26326e-14 -206 " />
<path id= "59" d=" M 4.80727e-14 -206 L 1.87628e-14 -74 " />
<path id= "60" d=" M 1.87628e-14 -74 L 16 -74 " />
<path id= "61" d=" M 16 -74 L 16 -66 " />
<path id= "62" d=" M 16 -66 L 0 -66 " />
<path id= "63" d=" M 1.69864e-14 -66 L 2.66454e-15 -1.5 " />
<path id= "64" d=" M 1.06226e-12 -1.5 L -7 -1.5 " />
<path id= "65" d=" M -7 -1.5 L -7 -2.575 " />
<path id= "66" d=" M -7 -2.575 L -8.45 -2.575 " />
<path id= "67" d=" M -8.45 -2.575 L -8.45 -1.5 " />
<path id= "68" d=" M -8.45 -1.5 L -10.45 -1.5 " />
<path id= "69" d=" M -19 -66 L -19 4.26326e-14 " />
<path id= "70" d=" M -20 -66 L -19 -66 " />
<path id= "71" d=" M -20 -74 L -20 -66 " />
<path id= "72" d=" M -19 -74 L -20 -74 " />
<path id= "73" d=" M -19 -206 L -19 -74 " />
<path id= "74" d=" M -20 -206 L -19 -206 " />
<path id= "75" d=" M -20 -214 L -20 -206 " />
<path id= "76" d=" M -19 -214 L -20 -214 " />
<path id= "77" d=" M -19 -250 L -19 -214 " />
<circle cx ="-5" cy ="-210" r ="1.5" /><circle cx ="-5" cy ="-70" r ="1.5" /></g>
</g>



</svg>

