  0
SECTION
  2
HEADER
  9
$ACADVER
  1
AC1014
  9
$HANDSEED
  5
FFFF
  9
$MEASUREMENT
 70
     1
  0
ENDSEC
  0
SECTION
  2
TABLES
  0
TABLE
  2
VPORT
  5
8
330
0
100
AcDbSymbolTable
 70
     4
  0
VPORT
  5
2E
330
8
100
AcDbSymbolTableRecord
100
AcDbViewportTableRecord
  2
*ACTIVE
 70
     0
 10
0.0
 20
0.0
 11
1.0
 21
1.0
 12
210.0
 22
148.5
 13
0.0
 23
0.0
 14
10.0
 24
10.0
 15
10.0
 25
10.0
 16
0.0
 26
0.0
 36
1.0
 17
0.0
 27
0.0
 37
0.0
 40
341.0
 41
1.24
 42
50.0
 43
0.0
 44
0.0
 50
0.0
 51
0.0
 71
     0
 72
   100
 73
     1
 74
     3
 75
     0
 76
     0
 77
     0
 78
     0
  0
ENDTAB
  0
TABLE
  2
LTYPE
  5
5
330
0
100
AcDbSymbolTable
 70
     1
  0
LTYPE
  5
14
330
5
100
AcDbSymbolTableRecord
100
AcDbLinetypeTableRecord
  2
BYBLOCK
 70
     0
  3

 72
    65
 73
     0
 40
0.0
  0
LTYPE
  5
15
330
5
100
AcDbSymbolTableRecord
100
AcDbLinetypeTableRecord
  2
BYLAYER
 70
     0
  3

 72
    65
 73
     0
 40
0.0
  0
LTYPE
  5
16
330
5
100
AcDbSymbolTableRecord
100
AcDbLinetypeTableRecord
  2
CONTINUOUS
 70
     0
  3
Solid line
 72
    65
 73
     0
 40
0.0
  0
ENDTAB
  0
TABLE
  2
LAYER
  5
2
100
AcDbSymbolTable
 70
2
  0
LAYER
  5
50
100
AcDbSymbolTableRecord
100
AcDbLayerTableRecord
  2
0
 70
0
  6
CONTINUOUS
  0
LAYER
  5
51
100
AcDbSymbolTableRecord
100
AcDbLayerTableRecord
  2
Layer_1
 70
0
  6
CONTINUOUS
  0
ENDTAB
  0
TABLE
  2
STYLE
  5
3
330
0
100
AcDbSymbolTable
 70
     1
  0
STYLE
  5
11
330
3
100
AcDbSymbolTableRecord
100
AcDbTextStyleTableRecord
  2
STANDARD
 70
     0
 40
0.0
 41
1.0
 50
0.0
 71
     0
 42
2.5
  3
txt
  4

  0
ENDTAB
  0
TABLE
  2
VIEW
  5
6
330
0
100
AcDbSymbolTable
 70
     0
  0
ENDTAB
  0
TABLE
  2
UCS
  5
7
330
0
100
AcDbSymbolTable
 70
     0
  0
ENDTAB
  0
TABLE
  2
APPID
  5
9
330
0
100
AcDbSymbolTable
 70
     2
  0
APPID
  5
12
330
9
100
AcDbSymbolTableRecord
100
AcDbRegAppTableRecord
  2
ACAD
 70
     0
  0
ENDTAB
  0
TABLE
  2
DIMSTYLE
  5
A
330
0
100
AcDbSymbolTable
 70
     1
  0
DIMSTYLE
105
27
330
A
100
AcDbSymbolTableRecord
100
AcDbDimStyleTableRecord
  2
ISO-25
 70
     0
  3

  4

  5

  6

  7

 40
1.0
 41
2.5
 42
0.625
 43
3.75
 44
1.25
 45
0.0
 46
0.0
 47
0.0
 48
0.0
140
2.5
141
2.5
142
0.0
143
0.03937007874016
144
1.0
145
0.0
146
1.0
147
0.625
 71
     0
 72
     0
 73
     0
 74
     0
 75
     0
 76
     0
 77
     1
 78
     8
170
     0
171
     3
172
     1
173
     0
174
     0
175
     0
176
     0
177
     0
178
     0
270
     2
271
     2
272
     2
273
     2
274
     3
340
11
275
     0
280
     0
281
     0
282
     0
283
     0
284
     8
285
     0
286
     0
287
     3
288
     0
  0
ENDTAB
  0
TABLE
  2
BLOCK_RECORD
  5
1
330
0
100
AcDbSymbolTable
 70
     1
  0
BLOCK_RECORD
  5
1F
330
1
100
AcDbSymbolTableRecord
100
AcDbBlockTableRecord
  2
*MODEL_SPACE
  0
BLOCK_RECORD
  5
1B
330
1
100
AcDbSymbolTableRecord
100
AcDbBlockTableRecord
  2
*PAPER_SPACE
  0
ENDTAB
  0
ENDSEC
  0
SECTION
  2
BLOCKS
  0
BLOCK
  5
20
330
1F
100
AcDbEntity
  8
0
100
AcDbBlockBegin
  2
*MODEL_SPACE
 70
     0
 10
0.0
 20
0.0
 30
0.0
  3
*MODEL_SPACE
  1

  0
ENDBLK
  5
21
330
1F
100
AcDbEntity
  8
0
100
AcDbBlockEnd
  0
BLOCK
  5
1C
330
1B
100
AcDbEntity
 67
     1
  8
0
100
AcDbBlockBegin
  2
*PAPER_SPACE
  1

  0
ENDBLK
  5
1D
330
1B
100
AcDbEntity
 67
     1
  8
0
100
AcDbBlockEnd
  0
ENDSEC
  0
SECTION
  2
ENTITIES
  0
LWPOLYLINE
  5
100
100
AcDbEntity
  8
Layer_1
 62
7
100
AcDbPolyline
 90
5
 70
0
 10
-0.000017
 20
499.999979
 30
0.0
 10
499.999999
 20
499.999979
 30
0.0
 10
499.999999
 20
-0.000037
 30
0.0
 10
-0.000017
 20
-0.000037
 30
0.0
 10
-0.000017
 20
499.999979
 30
0.0
  0
LWPOLYLINE
  5
101
100
AcDbEntity
  8
Layer_1
 62
1
100
AcDbPolyline
 90
2
 70
0
 10
70.097975
 20
100.098973
 30
0.0
 10
429.901999
 20
100.098973
 30
0.0
  0
LWPOLYLINE
  5
102
100
AcDbEntity
  8
Layer_1
 62
1
100
AcDbPolyline
 90
2
 70
0
 10
70.097975
 20
399.900944
 30
0.0
 10
429.901999
 20
399.900944
 30
0.0
  0
LWPOLYLINE
  5
103
100
AcDbEntity
  8
Layer_1
 62
1
100
AcDbPolyline
 90
2
 70
0
 10
70.097975
 20
366.589626
 30
0.0
 10
429.901999
 20
366.589626
 30
0.0
  0
LWPOLYLINE
  5
104
100
AcDbEntity
  8
Layer_1
 62
1
100
AcDbPolyline
 90
2
 70
0
 10
70.097975
 20
333.278308
 30
0.0
 10
429.901999
 20
333.278308
 30
0.0
  0
LWPOLYLINE
  5
105
100
AcDbEntity
  8
Layer_1
 62
1
100
AcDbPolyline
 90
2
 70
0
 10
70.097975
 20
299.966957
 30
0.0
 10
429.901999
 20
299.966957
 30
0.0
  0
LWPOLYLINE
  5
106
100
AcDbEntity
  8
Layer_1
 62
1
100
AcDbPolyline
 90
2
 70
0
 10
70.097975
 20
266.655623
 30
0.0
 10
429.901999
 20
266.655623
 30
0.0
  0
LWPOLYLINE
  5
107
100
AcDbEntity
  8
Layer_1
 62
1
100
AcDbPolyline
 90
2
 70
0
 10
70.097975
 20
233.344288
 30
0.0
 10
429.901999
 20
233.344288
 30
0.0
  0
LWPOLYLINE
  5
108
100
AcDbEntity
  8
Layer_1
 62
1
100
AcDbPolyline
 90
2
 70
0
 10
70.097975
 20
200.032990
 30
0.0
 10
429.901999
 20
200.032990
 30
0.0
  0
LWPOLYLINE
  5
109
100
AcDbEntity
  8
Layer_1
 62
1
100
AcDbPolyline
 90
2
 70
0
 10
70.097975
 20
166.721655
 30
0.0
 10
429.901999
 20
166.721655
 30
0.0
  0
LWPOLYLINE
  5
10a
100
AcDbEntity
  8
Layer_1
 62
1
100
AcDbPolyline
 90
2
 70
0
 10
70.097975
 20
133.410319
 30
0.0
 10
429.901999
 20
133.410319
 30
0.0
  0
LWPOLYLINE
  5
10b
100
AcDbEntity
  8
Layer_1
 62
7
100
AcDbPolyline
 90
5
 70
0
 10
94.598998
 20
408.141099
 30
0.0
 10
105.598998
 20
408.141099
 30
0.0
 10
105.598998
 20
407.141099
 30
0.0
 10
94.598998
 20
407.141099
 30
0.0
 10
94.598998
 20
408.141099
 30
0.0
  0
LWPOLYLINE
  5
10c
100
AcDbEntity
  8
Layer_1
 62
7
100
AcDbPolyline
 90
5
 70
0
 10
394.400984
 20
408.141099
 30
0.0
 10
405.400984
 20
408.141099
 30
0.0
 10
405.400984
 20
407.141099
 30
0.0
 10
394.400984
 20
407.141099
 30
0.0
 10
394.400984
 20
408.141099
 30
0.0
  0
LWPOLYLINE
  5
10d
100
AcDbEntity
  8
Layer_1
 62
7
100
AcDbPolyline
 90
5
 70
0
 10
364.420799
 20
408.141099
 30
0.0
 10
375.420799
 20
408.141099
 30
0.0
 10
375.420799
 20
407.141099
 30
0.0
 10
364.420799
 20
407.141099
 30
0.0
 10
364.420799
 20
408.141099
 30
0.0
  0
LWPOLYLINE
  5
10e
100
AcDbEntity
  8
Layer_1
 62
7
100
AcDbPolyline
 90
5
 70
0
 10
334.440558
 20
408.141099
 30
0.0
 10
345.440559
 20
408.141099
 30
0.0
 10
345.440559
 20
407.141099
 30
0.0
 10
334.440558
 20
407.141099
 30
0.0
 10
334.440558
 20
408.141099
 30
0.0
  0
LWPOLYLINE
  5
10f
100
AcDbEntity
  8
Layer_1
 62
7
100
AcDbPolyline
 90
5
 70
0
 10
304.460374
 20
408.141099
 30
0.0
 10
315.460374
 20
408.141099
 30
0.0
 10
315.460374
 20
407.141099
 30
0.0
 10
304.460374
 20
407.141099
 30
0.0
 10
304.460374
 20
408.141099
 30
0.0
  0
LWPOLYLINE
  5
110
100
AcDbEntity
  8
Layer_1
 62
7
100
AcDbPolyline
 90
5
 70
0
 10
274.480198
 20
408.141099
 30
0.0
 10
285.480198
 20
408.141099
 30
0.0
 10
285.480198
 20
407.141099
 30
0.0
 10
274.480198
 20
407.141099
 30
0.0
 10
274.480198
 20
408.141099
 30
0.0
  0
LWPOLYLINE
  5
111
100
AcDbEntity
  8
Layer_1
 62
7
100
AcDbPolyline
 90
5
 70
0
 10
244.499960
 20
408.141099
 30
0.0
 10
255.499960
 20
408.141099
 30
0.0
 10
255.499960
 20
407.141099
 30
0.0
 10
244.499960
 20
407.141099
 30
0.0
 10
244.499960
 20
408.141099
 30
0.0
  0
LWPOLYLINE
  5
112
100
AcDbEntity
  8
Layer_1
 62
7
100
AcDbPolyline
 90
5
 70
0
 10
214.519775
 20
408.141099
 30
0.0
 10
225.519776
 20
408.141099
 30
0.0
 10
225.519776
 20
407.141099
 30
0.0
 10
214.519775
 20
407.141099
 30
0.0
 10
214.519775
 20
408.141099
 30
0.0
  0
LWPOLYLINE
  5
113
100
AcDbEntity
  8
Layer_1
 62
7
100
AcDbPolyline
 90
5
 70
0
 10
184.539588
 20
408.141099
 30
0.0
 10
195.539588
 20
408.141099
 30
0.0
 10
195.539588
 20
407.141099
 30
0.0
 10
184.539588
 20
407.141099
 30
0.0
 10
184.539588
 20
408.141099
 30
0.0
  0
LWPOLYLINE
  5
114
100
AcDbEntity
  8
Layer_1
 62
7
100
AcDbPolyline
 90
5
 70
0
 10
154.559387
 20
408.141099
 30
0.0
 10
165.559387
 20
408.141099
 30
0.0
 10
165.559387
 20
407.141099
 30
0.0
 10
154.559387
 20
407.141099
 30
0.0
 10
154.559387
 20
408.141099
 30
0.0
  0
LWPOLYLINE
  5
115
100
AcDbEntity
  8
Layer_1
 62
7
100
AcDbPolyline
 90
5
 70
0
 10
124.579182
 20
408.141099
 30
0.0
 10
135.579183
 20
408.141099
 30
0.0
 10
135.579183
 20
407.141099
 30
0.0
 10
124.579182
 20
407.141099
 30
0.0
 10
124.579182
 20
408.141099
 30
0.0
  0
LWPOLYLINE
  5
116
100
AcDbEntity
  8
Layer_1
 62
1
100
AcDbPolyline
 90
2
 70
0
 10
399.900987
 20
70.097969
 30
0.0
 10
399.900987
 20
429.901977
 30
0.0
  0
LWPOLYLINE
  5
117
100
AcDbEntity
  8
Layer_1
 62
1
100
AcDbPolyline
 90
2
 70
0
 10
100.099001
 20
70.097969
 30
0.0
 10
100.099001
 20
429.901977
 30
0.0
  0
LWPOLYLINE
  5
118
100
AcDbEntity
  8
Layer_1
 62
1
100
AcDbPolyline
 90
2
 70
0
 10
130.079188
 20
70.097969
 30
0.0
 10
130.079188
 20
429.901977
 30
0.0
  0
LWPOLYLINE
  5
119
100
AcDbEntity
  8
Layer_1
 62
1
100
AcDbPolyline
 90
2
 70
0
 10
160.059398
 20
70.097969
 30
0.0
 10
160.059398
 20
429.901977
 30
0.0
  0
LWPOLYLINE
  5
11a
100
AcDbEntity
  8
Layer_1
 62
1
100
AcDbPolyline
 90
2
 70
0
 10
190.039588
 20
70.097969
 30
0.0
 10
190.039588
 20
429.901977
 30
0.0
  0
LWPOLYLINE
  5
11b
100
AcDbEntity
  8
Layer_1
 62
1
100
AcDbPolyline
 90
2
 70
0
 10
220.019778
 20
70.097969
 30
0.0
 10
220.019778
 20
429.901977
 30
0.0
  0
LWPOLYLINE
  5
11c
100
AcDbEntity
  8
Layer_1
 62
1
100
AcDbPolyline
 90
2
 70
0
 10
249.999997
 20
70.097969
 30
0.0
 10
249.999997
 20
429.901977
 30
0.0
  0
LWPOLYLINE
  5
11d
100
AcDbEntity
  8
Layer_1
 62
1
100
AcDbPolyline
 90
2
 70
0
 10
279.980190
 20
70.097969
 30
0.0
 10
279.980190
 20
429.901977
 30
0.0
  0
LWPOLYLINE
  5
11e
100
AcDbEntity
  8
Layer_1
 62
1
100
AcDbPolyline
 90
2
 70
0
 10
309.960377
 20
70.097969
 30
0.0
 10
309.960377
 20
429.901977
 30
0.0
  0
LWPOLYLINE
  5
11f
100
AcDbEntity
  8
Layer_1
 62
1
100
AcDbPolyline
 90
2
 70
0
 10
339.940590
 20
70.097969
 30
0.0
 10
339.940590
 20
429.901977
 30
0.0
  0
LWPOLYLINE
  5
120
100
AcDbEntity
  8
Layer_1
 62
1
100
AcDbPolyline
 90
2
 70
0
 10
369.920802
 20
70.097969
 30
0.0
 10
369.920802
 20
429.901977
 30
0.0
  0
LWPOLYLINE
  5
121
100
AcDbEntity
  8
Layer_1
 62
7
100
AcDbPolyline
 90
5
 70
0
 10
94.598998
 20
94.141112
 30
0.0
 10
105.598998
 20
94.141112
 30
0.0
 10
105.598998
 20
93.141112
 30
0.0
 10
94.598998
 20
93.141112
 30
0.0
 10
94.598998
 20
94.141112
 30
0.0
  0
LWPOLYLINE
  5
122
100
AcDbEntity
  8
Layer_1
 62
7
100
AcDbPolyline
 90
5
 70
0
 10
394.400984
 20
94.141112
 30
0.0
 10
405.400984
 20
94.141112
 30
0.0
 10
405.400984
 20
93.141112
 30
0.0
 10
394.400984
 20
93.141112
 30
0.0
 10
394.400984
 20
94.141112
 30
0.0
  0
LWPOLYLINE
  5
123
100
AcDbEntity
  8
Layer_1
 62
7
100
AcDbPolyline
 90
5
 70
0
 10
364.420799
 20
94.141112
 30
0.0
 10
375.420799
 20
94.141112
 30
0.0
 10
375.420799
 20
93.141112
 30
0.0
 10
364.420799
 20
93.141112
 30
0.0
 10
364.420799
 20
94.141112
 30
0.0
  0
LWPOLYLINE
  5
124
100
AcDbEntity
  8
Layer_1
 62
7
100
AcDbPolyline
 90
5
 70
0
 10
334.440558
 20
94.141112
 30
0.0
 10
345.440559
 20
94.141112
 30
0.0
 10
345.440559
 20
93.141112
 30
0.0
 10
334.440558
 20
93.141112
 30
0.0
 10
334.440558
 20
94.141112
 30
0.0
  0
LWPOLYLINE
  5
125
100
AcDbEntity
  8
Layer_1
 62
7
100
AcDbPolyline
 90
5
 70
0
 10
304.460374
 20
94.141112
 30
0.0
 10
315.460374
 20
94.141112
 30
0.0
 10
315.460374
 20
93.141112
 30
0.0
 10
304.460374
 20
93.141112
 30
0.0
 10
304.460374
 20
94.141112
 30
0.0
  0
LWPOLYLINE
  5
126
100
AcDbEntity
  8
Layer_1
 62
7
100
AcDbPolyline
 90
5
 70
0
 10
274.480198
 20
94.141112
 30
0.0
 10
285.480198
 20
94.141112
 30
0.0
 10
285.480198
 20
93.141112
 30
0.0
 10
274.480198
 20
93.141112
 30
0.0
 10
274.480198
 20
94.141112
 30
0.0
  0
LWPOLYLINE
  5
127
100
AcDbEntity
  8
Layer_1
 62
7
100
AcDbPolyline
 90
5
 70
0
 10
244.499960
 20
94.141112
 30
0.0
 10
255.499960
 20
94.141112
 30
0.0
 10
255.499960
 20
93.141112
 30
0.0
 10
244.499960
 20
93.141112
 30
0.0
 10
244.499960
 20
94.141112
 30
0.0
  0
LWPOLYLINE
  5
128
100
AcDbEntity
  8
Layer_1
 62
7
100
AcDbPolyline
 90
5
 70
0
 10
214.519775
 20
94.141112
 30
0.0
 10
225.519776
 20
94.141112
 30
0.0
 10
225.519776
 20
93.141112
 30
0.0
 10
214.519775
 20
93.141112
 30
0.0
 10
214.519775
 20
94.141112
 30
0.0
  0
LWPOLYLINE
  5
129
100
AcDbEntity
  8
Layer_1
 62
7
100
AcDbPolyline
 90
5
 70
0
 10
184.539588
 20
94.141112
 30
0.0
 10
195.539588
 20
94.141112
 30
0.0
 10
195.539588
 20
93.141112
 30
0.0
 10
184.539588
 20
93.141112
 30
0.0
 10
184.539588
 20
94.141112
 30
0.0
  0
LWPOLYLINE
  5
12a
100
AcDbEntity
  8
Layer_1
 62
7
100
AcDbPolyline
 90
5
 70
0
 10
154.559387
 20
94.141112
 30
0.0
 10
165.559387
 20
94.141112
 30
0.0
 10
165.559387
 20
93.141112
 30
0.0
 10
154.559387
 20
93.141112
 30
0.0
 10
154.559387
 20
94.141112
 30
0.0
  0
LWPOLYLINE
  5
12b
100
AcDbEntity
  8
Layer_1
 62
7
100
AcDbPolyline
 90
5
 70
0
 10
124.579182
 20
94.141112
 30
0.0
 10
135.579183
 20
94.141112
 30
0.0
 10
135.579183
 20
93.141112
 30
0.0
 10
124.579182
 20
93.141112
 30
0.0
 10
124.579182
 20
94.141112
 30
0.0
  0
LWPOLYLINE
  5
12c
100
AcDbEntity
  8
Layer_1
 62
1
100
AcDbPolyline
 90
2
 70
0
 10
200.032987
 20
38.797849
 30
0.0
 10
200.032987
 20
97.216014
 30
0.0
  0
LWPOLYLINE
  5
12d
100
AcDbEntity
  8
Layer_1
 62
1
100
AcDbPolyline
 90
2
 70
0
 10
233.344322
 20
38.797849
 30
0.0
 10
233.344322
 20
97.216014
 30
0.0
  0
LWPOLYLINE
  5
12e
100
AcDbEntity
  8
Layer_1
 62
1
100
AcDbPolyline
 90
2
 70
0
 10
266.655657
 20
38.797849
 30
0.0
 10
266.655657
 20
97.216014
 30
0.0
  0
LWPOLYLINE
  5
12f
100
AcDbEntity
  8
Layer_1
 62
1
100
AcDbPolyline
 90
2
 70
0
 10
299.966944
 20
38.797849
 30
0.0
 10
299.966944
 20
97.216014
 30
0.0
  0
LWPOLYLINE
  5
130
100
AcDbEntity
  8
Layer_1
 62
1
100
AcDbPolyline
 90
2
 70
0
 10
177.283435
 20
67.098977
 30
0.0
 10
322.716539
 20
67.098977
 30
0.0
  0
LWPOLYLINE
  5
131
100
AcDbEntity
  8
Layer_1
 62
7
100
AcDbPolyline
 90
5
 70
0
 10
307.141118
 20
61.598971
 30
0.0
 10
307.141118
 20
72.598971
 30
0.0
 10
308.141118
 20
72.598971
 30
0.0
 10
308.141118
 20
61.598971
 30
0.0
 10
307.141118
 20
61.598971
 30
0.0
  0
SPLINE
  5
132
100
AcDbEntity
  8
Layer_1
 62
7
100
AcDbSpline
 70
8
 71
3
 72
8
 73
4
 74
0
 40
0
 40
0
 40
0
 40
0
 40
1
 40
1
 40
1
 40
1
 10
71.000002
 20
133.410319
 30
0.0
 10
71.000002
 20
133.134177
 30
0.0
 10
70.776144
 20
132.910319
 30
0.0
 10
70.500001
 20
132.910319
 30
0.0
  0
SPLINE
  5
133
100
AcDbEntity
  8
Layer_1
 62
7
100
AcDbSpline
 70
8
 71
3
 72
8
 73
4
 74
0
 40
0
 40
0
 40
0
 40
0
 40
1
 40
1
 40
1
 40
1
 10
70.500001
 20
132.910319
 30
0.0
 10
70.223859
 20
132.910319
 30
0.0
 10
70.000001
 20
133.134177
 30
0.0
 10
70.000001
 20
133.410319
 30
0.0
  0
SPLINE
  5
134
100
AcDbEntity
  8
Layer_1
 62
7
100
AcDbSpline
 70
8
 71
3
 72
8
 73
4
 74
0
 40
0
 40
0
 40
0
 40
0
 40
1
 40
1
 40
1
 40
1
 10
70.000001
 20
133.410319
 30
0.0
 10
70.000001
 20
133.686462
 30
0.0
 10
70.223859
 20
133.910318
 30
0.0
 10
70.500001
 20
133.910318
 30
0.0
  0
SPLINE
  5
135
100
AcDbEntity
  8
Layer_1
 62
7
100
AcDbSpline
 70
8
 71
3
 72
8
 73
4
 74
0
 40
0
 40
0
 40
0
 40
0
 40
1
 40
1
 40
1
 40
1
 10
70.500001
 20
133.910318
 30
0.0
 10
70.776144
 20
133.910318
 30
0.0
 10
71.000002
 20
133.686462
 30
0.0
 10
71.000002
 20
133.410319
 30
0.0
  0
LWPOLYLINE
  5
136
100
AcDbEntity
  8
Layer_1
 62
7
100
AcDbPolyline
 90
5
 70
0
 10
193.141115
 20
61.598971
 30
0.0
 10
193.141115
 20
72.598971
 30
0.0
 10
194.141115
 20
72.598971
 30
0.0
 10
194.141115
 20
61.598971
 30
0.0
 10
193.141115
 20
61.598971
 30
0.0
  0
SPLINE
  5
137
100
AcDbEntity
  8
Layer_1
 62
7
100
AcDbSpline
 70
8
 71
3
 72
8
 73
4
 74
0
 40
0
 40
0
 40
0
 40
0
 40
1
 40
1
 40
1
 40
1
 10
430.999990
 20
133.410319
 30
0.0
 10
430.999990
 20
133.134177
 30
0.0
 10
430.776132
 20
132.910319
 30
0.0
 10
430.499990
 20
132.910319
 30
0.0
  0
SPLINE
  5
138
100
AcDbEntity
  8
Layer_1
 62
7
100
AcDbSpline
 70
8
 71
3
 72
8
 73
4
 74
0
 40
0
 40
0
 40
0
 40
0
 40
1
 40
1
 40
1
 40
1
 10
430.499990
 20
132.910319
 30
0.0
 10
430.223847
 20
132.910319
 30
0.0
 10
429.999989
 20
133.134177
 30
0.0
 10
429.999989
 20
133.410319
 30
0.0
  0
SPLINE
  5
139
100
AcDbEntity
  8
Layer_1
 62
7
100
AcDbSpline
 70
8
 71
3
 72
8
 73
4
 74
0
 40
0
 40
0
 40
0
 40
0
 40
1
 40
1
 40
1
 40
1
 10
429.999989
 20
133.410319
 30
0.0
 10
429.999989
 20
133.686462
 30
0.0
 10
430.223847
 20
133.910318
 30
0.0
 10
430.499990
 20
133.910318
 30
0.0
  0
SPLINE
  5
13a
100
AcDbEntity
  8
Layer_1
 62
7
100
AcDbSpline
 70
8
 71
3
 72
8
 73
4
 74
0
 40
0
 40
0
 40
0
 40
0
 40
1
 40
1
 40
1
 40
1
 10
430.499990
 20
133.910318
 30
0.0
 10
430.776132
 20
133.910318
 30
0.0
 10
430.999990
 20
133.686462
 30
0.0
 10
430.999990
 20
133.410319
 30
0.0
  0
LWPOLYLINE
  5
13b
100
AcDbEntity
  8
Layer_1
 62
7
100
AcDbPolyline
 90
2
 70
0
 10
71.000002
 20
133.410319
 30
0.0
 10
71.000002
 20
133.410319
 30
0.0
  0
SPLINE
  5
13c
100
AcDbEntity
  8
Layer_1
 62
7
100
AcDbSpline
 70
8
 71
3
 72
8
 73
4
 74
0
 40
0
 40
0
 40
0
 40
0
 40
1
 40
1
 40
1
 40
1
 10
71.000002
 20
366.589626
 30
0.0
 10
71.000002
 20
366.313483
 30
0.0
 10
70.776144
 20
366.089625
 30
0.0
 10
70.500001
 20
366.089625
 30
0.0
  0
SPLINE
  5
13d
100
AcDbEntity
  8
Layer_1
 62
7
100
AcDbSpline
 70
8
 71
3
 72
8
 73
4
 74
0
 40
0
 40
0
 40
0
 40
0
 40
1
 40
1
 40
1
 40
1
 10
70.500001
 20
366.089625
 30
0.0
 10
70.223859
 20
366.089625
 30
0.0
 10
70.000001
 20
366.313483
 30
0.0
 10
70.000001
 20
366.589626
 30
0.0
  0
SPLINE
  5
13e
100
AcDbEntity
  8
Layer_1
 62
7
100
AcDbSpline
 70
8
 71
3
 72
8
 73
4
 74
0
 40
0
 40
0
 40
0
 40
0
 40
1
 40
1
 40
1
 40
1
 10
70.000001
 20
366.589626
 30
0.0
 10
70.000001
 20
366.865768
 30
0.0
 10
70.223859
 20
367.089625
 30
0.0
 10
70.500001
 20
367.089625
 30
0.0
  0
SPLINE
  5
13f
100
AcDbEntity
  8
Layer_1
 62
7
100
AcDbSpline
 70
8
 71
3
 72
8
 73
4
 74
0
 40
0
 40
0
 40
0
 40
0
 40
1
 40
1
 40
1
 40
1
 10
70.500001
 20
367.089625
 30
0.0
 10
70.776144
 20
367.089625
 30
0.0
 10
71.000002
 20
366.865768
 30
0.0
 10
71.000002
 20
366.589626
 30
0.0
  0
LWPOLYLINE
  5
140
100
AcDbEntity
  8
Layer_1
 62
7
100
AcDbPolyline
 90
2
 70
0
 10
430.999990
 20
133.410319
 30
0.0
 10
430.999990
 20
133.410319
 30
0.0
  0
SPLINE
  5
141
100
AcDbEntity
  8
Layer_1
 62
7
100
AcDbSpline
 70
8
 71
3
 72
8
 73
4
 74
0
 40
0
 40
0
 40
0
 40
0
 40
1
 40
1
 40
1
 40
1
 10
430.999990
 20
366.589626
 30
0.0
 10
430.999990
 20
366.313483
 30
0.0
 10
430.776132
 20
366.089625
 30
0.0
 10
430.499990
 20
366.089625
 30
0.0
  0
SPLINE
  5
142
100
AcDbEntity
  8
Layer_1
 62
7
100
AcDbSpline
 70
8
 71
3
 72
8
 73
4
 74
0
 40
0
 40
0
 40
0
 40
0
 40
1
 40
1
 40
1
 40
1
 10
430.499990
 20
366.089625
 30
0.0
 10
430.223847
 20
366.089625
 30
0.0
 10
429.999989
 20
366.313483
 30
0.0
 10
429.999989
 20
366.589626
 30
0.0
  0
SPLINE
  5
143
100
AcDbEntity
  8
Layer_1
 62
7
100
AcDbSpline
 70
8
 71
3
 72
8
 73
4
 74
0
 40
0
 40
0
 40
0
 40
0
 40
1
 40
1
 40
1
 40
1
 10
429.999989
 20
366.589626
 30
0.0
 10
429.999989
 20
366.865768
 30
0.0
 10
430.223847
 20
367.089625
 30
0.0
 10
430.499990
 20
367.089625
 30
0.0
  0
SPLINE
  5
144
100
AcDbEntity
  8
Layer_1
 62
7
100
AcDbSpline
 70
8
 71
3
 72
8
 73
4
 74
0
 40
0
 40
0
 40
0
 40
0
 40
1
 40
1
 40
1
 40
1
 10
430.499990
 20
367.089625
 30
0.0
 10
430.776132
 20
367.089625
 30
0.0
 10
430.999990
 20
366.865768
 30
0.0
 10
430.999990
 20
366.589626
 30
0.0
  0
LWPOLYLINE
  5
145
100
AcDbEntity
  8
Layer_1
 62
7
100
AcDbPolyline
 90
2
 70
0
 10
71.000002
 20
366.589626
 30
0.0
 10
71.000002
 20
366.589626
 30
0.0
  0
SPLINE
  5
146
100
AcDbEntity
  8
Layer_1
 62
7
100
AcDbSpline
 70
8
 71
3
 72
8
 73
4
 74
0
 40
0
 40
0
 40
0
 40
0
 40
1
 40
1
 40
1
 40
1
 10
71.000002
 20
356.589987
 30
0.0
 10
71.000002
 20
356.313845
 30
0.0
 10
70.776144
 20
356.089987
 30
0.0
 10
70.500001
 20
356.089987
 30
0.0
  0
SPLINE
  5
147
100
AcDbEntity
  8
Layer_1
 62
7
100
AcDbSpline
 70
8
 71
3
 72
8
 73
4
 74
0
 40
0
 40
0
 40
0
 40
0
 40
1
 40
1
 40
1
 40
1
 10
70.500001
 20
356.089987
 30
0.0
 10
70.223859
 20
356.089987
 30
0.0
 10
70.000001
 20
356.313845
 30
0.0
 10
70.000001
 20
356.589987
 30
0.0
  0
SPLINE
  5
148
100
AcDbEntity
  8
Layer_1
 62
7
100
AcDbSpline
 70
8
 71
3
 72
8
 73
4
 74
0
 40
0
 40
0
 40
0
 40
0
 40
1
 40
1
 40
1
 40
1
 10
70.000001
 20
356.589987
 30
0.0
 10
70.000001
 20
356.866130
 30
0.0
 10
70.223859
 20
357.089987
 30
0.0
 10
70.500001
 20
357.089987
 30
0.0
  0
SPLINE
  5
149
100
AcDbEntity
  8
Layer_1
 62
7
100
AcDbSpline
 70
8
 71
3
 72
8
 73
4
 74
0
 40
0
 40
0
 40
0
 40
0
 40
1
 40
1
 40
1
 40
1
 10
70.500001
 20
357.089987
 30
0.0
 10
70.776144
 20
357.089987
 30
0.0
 10
71.000002
 20
356.866130
 30
0.0
 10
71.000002
 20
356.589987
 30
0.0
  0
LWPOLYLINE
  5
14a
100
AcDbEntity
  8
Layer_1
 62
7
100
AcDbPolyline
 90
2
 70
0
 10
430.999990
 20
366.589626
 30
0.0
 10
430.999990
 20
366.589626
 30
0.0
  0
SPLINE
  5
14b
100
AcDbEntity
  8
Layer_1
 62
7
100
AcDbSpline
 70
8
 71
3
 72
8
 73
4
 74
0
 40
0
 40
0
 40
0
 40
0
 40
1
 40
1
 40
1
 40
1
 10
430.999990
 20
356.589987
 30
0.0
 10
430.999990
 20
356.313845
 30
0.0
 10
430.776132
 20
356.089987
 30
0.0
 10
430.499990
 20
356.089987
 30
0.0
  0
SPLINE
  5
14c
100
AcDbEntity
  8
Layer_1
 62
7
100
AcDbSpline
 70
8
 71
3
 72
8
 73
4
 74
0
 40
0
 40
0
 40
0
 40
0
 40
1
 40
1
 40
1
 40
1
 10
430.499990
 20
356.089987
 30
0.0
 10
430.223847
 20
356.089987
 30
0.0
 10
429.999989
 20
356.313845
 30
0.0
 10
429.999989
 20
356.589987
 30
0.0
  0
SPLINE
  5
14d
100
AcDbEntity
  8
Layer_1
 62
7
100
AcDbSpline
 70
8
 71
3
 72
8
 73
4
 74
0
 40
0
 40
0
 40
0
 40
0
 40
1
 40
1
 40
1
 40
1
 10
429.999989
 20
356.589987
 30
0.0
 10
429.999989
 20
356.866130
 30
0.0
 10
430.223847
 20
357.089987
 30
0.0
 10
430.499990
 20
357.089987
 30
0.0
  0
SPLINE
  5
14e
100
AcDbEntity
  8
Layer_1
 62
7
100
AcDbSpline
 70
8
 71
3
 72
8
 73
4
 74
0
 40
0
 40
0
 40
0
 40
0
 40
1
 40
1
 40
1
 40
1
 10
430.499990
 20
357.089987
 30
0.0
 10
430.776132
 20
357.089987
 30
0.0
 10
430.999990
 20
356.866130
 30
0.0
 10
430.999990
 20
356.589987
 30
0.0
  0
LWPOLYLINE
  5
14f
100
AcDbEntity
  8
Layer_1
 62
7
100
AcDbPolyline
 90
2
 70
0
 10
71.000002
 20
356.589987
 30
0.0
 10
71.000002
 20
356.589987
 30
0.0
  0
SPLINE
  5
150
100
AcDbEntity
  8
Layer_1
 62
7
100
AcDbSpline
 70
8
 71
3
 72
8
 73
4
 74
0
 40
0
 40
0
 40
0
 40
0
 40
1
 40
1
 40
1
 40
1
 10
71.000002
 20
143.409988
 30
0.0
 10
71.000002
 20
143.133846
 30
0.0
 10
70.776144
 20
142.909988
 30
0.0
 10
70.500001
 20
142.909988
 30
0.0
  0
SPLINE
  5
151
100
AcDbEntity
  8
Layer_1
 62
7
100
AcDbSpline
 70
8
 71
3
 72
8
 73
4
 74
0
 40
0
 40
0
 40
0
 40
0
 40
1
 40
1
 40
1
 40
1
 10
70.500001
 20
142.909988
 30
0.0
 10
70.223859
 20
142.909988
 30
0.0
 10
70.000001
 20
143.133846
 30
0.0
 10
70.000001
 20
143.409988
 30
0.0
  0
SPLINE
  5
152
100
AcDbEntity
  8
Layer_1
 62
7
100
AcDbSpline
 70
8
 71
3
 72
8
 73
4
 74
0
 40
0
 40
0
 40
0
 40
0
 40
1
 40
1
 40
1
 40
1
 10
70.000001
 20
143.409988
 30
0.0
 10
70.000001
 20
143.686131
 30
0.0
 10
70.223859
 20
143.909988
 30
0.0
 10
70.500001
 20
143.909988
 30
0.0
  0
SPLINE
  5
153
100
AcDbEntity
  8
Layer_1
 62
7
100
AcDbSpline
 70
8
 71
3
 72
8
 73
4
 74
0
 40
0
 40
0
 40
0
 40
0
 40
1
 40
1
 40
1
 40
1
 10
70.500001
 20
143.909988
 30
0.0
 10
70.776144
 20
143.909988
 30
0.0
 10
71.000002
 20
143.686131
 30
0.0
 10
71.000002
 20
143.409988
 30
0.0
  0
LWPOLYLINE
  5
154
100
AcDbEntity
  8
Layer_1
 62
7
100
AcDbPolyline
 90
2
 70
0
 10
430.999990
 20
356.589987
 30
0.0
 10
430.999990
 20
356.589987
 30
0.0
  0
SPLINE
  5
155
100
AcDbEntity
  8
Layer_1
 62
7
100
AcDbSpline
 70
8
 71
3
 72
8
 73
4
 74
0
 40
0
 40
0
 40
0
 40
0
 40
1
 40
1
 40
1
 40
1
 10
430.999990
 20
143.409988
 30
0.0
 10
430.999990
 20
143.133846
 30
0.0
 10
430.776132
 20
142.909988
 30
0.0
 10
430.499990
 20
142.909988
 30
0.0
  0
SPLINE
  5
156
100
AcDbEntity
  8
Layer_1
 62
7
100
AcDbSpline
 70
8
 71
3
 72
8
 73
4
 74
0
 40
0
 40
0
 40
0
 40
0
 40
1
 40
1
 40
1
 40
1
 10
430.499990
 20
142.909988
 30
0.0
 10
430.223847
 20
142.909988
 30
0.0
 10
429.999989
 20
143.133846
 30
0.0
 10
429.999989
 20
143.409988
 30
0.0
  0
SPLINE
  5
157
100
AcDbEntity
  8
Layer_1
 62
7
100
AcDbSpline
 70
8
 71
3
 72
8
 73
4
 74
0
 40
0
 40
0
 40
0
 40
0
 40
1
 40
1
 40
1
 40
1
 10
429.999989
 20
143.409988
 30
0.0
 10
429.999989
 20
143.686131
 30
0.0
 10
430.223847
 20
143.909988
 30
0.0
 10
430.499990
 20
143.909988
 30
0.0
  0
SPLINE
  5
158
100
AcDbEntity
  8
Layer_1
 62
7
100
AcDbSpline
 70
8
 71
3
 72
8
 73
4
 74
0
 40
0
 40
0
 40
0
 40
0
 40
1
 40
1
 40
1
 40
1
 10
430.499990
 20
143.909988
 30
0.0
 10
430.776132
 20
143.909988
 30
0.0
 10
430.999990
 20
143.686131
 30
0.0
 10
430.999990
 20
143.409988
 30
0.0
  0
LWPOLYLINE
  5
159
100
AcDbEntity
  8
Layer_1
 62
7
100
AcDbPolyline
 90
2
 70
0
 10
71.000002
 20
143.409988
 30
0.0
 10
71.000002
 20
143.409988
 30
0.0
  0
LWPOLYLINE
  5
15a
100
AcDbEntity
  8
Layer_1
 62
7
100
AcDbPolyline
 90
2
 70
0
 10
430.999990
 20
143.409988
 30
0.0
 10
430.999990
 20
143.409988
 30
0.0
  0
LWPOLYLINE
  5
15b
100
AcDbEntity
  8
Layer_1
 62
1
100
AcDbPolyline
 90
4
 70
0
 10
89.036500
 20
421.084386
 30
0.0
 10
89.600944
 20
421.366609
 30
0.0
 10
90.447611
 20
422.213275
 30
0.0
 10
90.447611
 20
416.286609
 30
0.0
  0
LWPOLYLINE
  5
15c
100
AcDbEntity
  8
Layer_1
 62
1
100
AcDbPolyline
 90
4
 70
0
 10
192.652373
 20
54.195495
 30
0.0
 10
193.216818
 20
54.477717
 30
0.0
 10
194.063485
 20
55.324383
 30
0.0
 10
194.063485
 20
49.397717
 30
0.0
  0
LWPOLYLINE
  5
15d
100
AcDbEntity
  8
Layer_1
 62
1
100
AcDbPolyline
 90
14
 70
0
 10
119.516491
 20
84.147285
 30
0.0
 10
119.516491
 20
84.429507
 30
0.0
 10
119.798713
 20
84.993951
 30
0.0
 10
120.080936
 20
85.276174
 30
0.0
 10
120.645380
 20
85.558396
 30
0.0
 10
121.774269
 20
85.558396
 30
0.0
 10
122.338713
 20
85.276174
 30
0.0
 10
122.620936
 20
84.993951
 30
0.0
 10
122.903158
 20
84.429507
 30
0.0
 10
122.903158
 20
83.865062
 30
0.0
 10
122.620936
 20
83.300618
 30
0.0
 10
122.056491
 20
82.453951
 30
0.0
 10
119.234269
 20
79.631729
 30
0.0
 10
123.185380
 20
79.631729
 30
0.0
  0
LWPOLYLINE
  5
15e
100
AcDbEntity
  8
Layer_1
 62
1
100
AcDbPolyline
 90
15
 70
0
 10
148.147913
 20
423.429001
 30
0.0
 10
151.252357
 20
423.429001
 30
0.0
 10
149.559024
 20
421.171223
 30
0.0
 10
150.405691
 20
421.171223
 30
0.0
 10
150.970135
 20
420.889001
 30
0.0
 10
151.252357
 20
420.606779
 30
0.0
 10
151.534580
 20
419.760112
 30
0.0
 10
151.534580
 20
419.195668
 30
0.0
 10
151.252357
 20
418.349001
 30
0.0
 10
150.687913
 20
417.784557
 30
0.0
 10
149.841246
 20
417.502334
 30
0.0
 10
148.994580
 20
417.502334
 30
0.0
 10
148.147913
 20
417.784557
 30
0.0
 10
147.865691
 20
418.066779
 30
0.0
 10
147.583469
 20
418.631223
 30
0.0
  0
LWPOLYLINE
  5
15f
100
AcDbEntity
  8
Layer_1
 62
1
100
AcDbPolyline
 90
3
 70
0
 10
295.018432
 20
56.118455
 30
0.0
 10
292.196210
 20
52.167344
 30
0.0
 10
296.429543
 20
52.167344
 30
0.0
  0
LWPOLYLINE
  5
160
100
AcDbEntity
  8
Layer_1
 62
1
100
AcDbPolyline
 90
2
 70
0
 10
295.018432
 20
56.118455
 30
0.0
 10
295.018432
 20
50.191789
 30
0.0
  0
LWPOLYLINE
  5
161
100
AcDbEntity
  8
Layer_1
 62
1
100
AcDbPolyline
 90
4
 70
0
 10
118.468242
 20
422.277515
 30
0.0
 10
119.032686
 20
422.559737
 30
0.0
 10
119.879353
 20
423.406403
 30
0.0
 10
119.879353
 20
417.479737
 30
0.0
  0
LWPOLYLINE
  5
162
100
AcDbEntity
  8
Layer_1
 62
1
100
AcDbPolyline
 90
17
 70
0
 10
96.011416
 20
85.142911
 30
0.0
 10
93.189194
 20
85.142911
 30
0.0
 10
92.906971
 20
82.602911
 30
0.0
 10
93.189194
 20
82.885133
 30
0.0
 10
94.035860
 20
83.167355
 30
0.0
 10
94.882527
 20
83.167355
 30
0.0
 10
95.729194
 20
82.885133
 30
0.0
 10
96.293638
 20
82.320689
 30
0.0
 10
96.575860
 20
81.474022
 30
0.0
 10
96.575860
 20
80.909578
 30
0.0
 10
96.293638
 20
80.062911
 30
0.0
 10
95.729194
 20
79.498467
 30
0.0
 10
94.882527
 20
79.216244
 30
0.0
 10
94.035860
 20
79.216244
 30
0.0
 10
93.189194
 20
79.498467
 30
0.0
 10
92.906971
 20
79.780689
 30
0.0
 10
92.624749
 20
80.345133
 30
0.0
  0
LWPOLYLINE
  5
163
100
AcDbEntity
  8
Layer_1
 62
1
100
AcDbPolyline
 90
17
 70
0
 10
125.992066
 20
422.264908
 30
0.0
 10
123.169844
 20
422.264908
 30
0.0
 10
122.887621
 20
419.724908
 30
0.0
 10
123.169844
 20
420.007130
 30
0.0
 10
124.016510
 20
420.289352
 30
0.0
 10
124.863177
 20
420.289352
 30
0.0
 10
125.709844
 20
420.007130
 30
0.0
 10
126.274288
 20
419.442686
 30
0.0
 10
126.556510
 20
418.596019
 30
0.0
 10
126.556510
 20
418.031574
 30
0.0
 10
126.274288
 20
417.184908
 30
0.0
 10
125.709844
 20
416.620463
 30
0.0
 10
124.863177
 20
416.338241
 30
0.0
 10
124.016510
 20
416.338241
 30
0.0
 10
123.169844
 20
416.620463
 30
0.0
 10
122.887621
 20
416.902686
 30
0.0
 10
122.605399
 20
417.467130
 30
0.0
  0
LWPOLYLINE
  5
164
100
AcDbEntity
  8
Layer_1
 62
1
100
AcDbPolyline
 90
3
 70
0
 10
126.988638
 20
85.496027
 30
0.0
 10
124.166416
 20
81.544916
 30
0.0
 10
128.399749
 20
81.544916
 30
0.0
  0
LWPOLYLINE
  5
165
100
AcDbEntity
  8
Layer_1
 62
1
100
AcDbPolyline
 90
2
 70
0
 10
126.988638
 20
85.496027
 30
0.0
 10
126.988638
 20
79.569361
 30
0.0
  0
LWPOLYLINE
  5
166
100
AcDbEntity
  8
Layer_1
 62
1
100
AcDbPolyline
 90
14
 70
0
 10
148.067037
 20
83.939022
 30
0.0
 10
148.067037
 20
84.221244
 30
0.0
 10
148.349259
 20
84.785688
 30
0.0
 10
148.631481
 20
85.067910
 30
0.0
 10
149.195925
 20
85.350133
 30
0.0
 10
150.324814
 20
85.350133
 30
0.0
 10
150.889259
 20
85.067910
 30
0.0
 10
151.171481
 20
84.785688
 30
0.0
 10
151.453703
 20
84.221244
 30
0.0
 10
151.453703
 20
83.656799
 30
0.0
 10
151.171481
 20
83.092355
 30
0.0
 10
150.607037
 20
82.245688
 30
0.0
 10
147.784814
 20
79.423466
 30
0.0
 10
151.735925
 20
79.423466
 30
0.0
  0
LWPOLYLINE
  5
167
100
AcDbEntity
  8
Layer_1
 62
1
100
AcDbPolyline
 90
17
 70
0
 10
156.873231
 20
84.209783
 30
0.0
 10
154.051008
 20
84.209783
 30
0.0
 10
153.768786
 20
81.669783
 30
0.0
 10
154.051008
 20
81.952005
 30
0.0
 10
154.897675
 20
82.234227
 30
0.0
 10
155.744342
 20
82.234227
 30
0.0
 10
156.591008
 20
81.952005
 30
0.0
 10
157.155453
 20
81.387561
 30
0.0
 10
157.437675
 20
80.540894
 30
0.0
 10
157.437675
 20
79.976449
 30
0.0
 10
157.155453
 20
79.129783
 30
0.0
 10
156.591008
 20
78.565338
 30
0.0
 10
155.744342
 20
78.283116
 30
0.0
 10
154.897675
 20
78.283116
 30
0.0
 10
154.051008
 20
78.565338
 30
0.0
 10
153.768786
 20
78.847561
 30
0.0
 10
153.486564
 20
79.412005
 30
0.0
  0
LWPOLYLINE
  5
168
100
AcDbEntity
  8
Layer_1
 62
1
100
AcDbPolyline
 90
17
 70
0
 10
217.340431
 20
85.822480
 30
0.0
 10
214.518209
 20
85.822480
 30
0.0
 10
214.235987
 20
83.282480
 30
0.0
 10
214.518209
 20
83.564702
 30
0.0
 10
215.364876
 20
83.846924
 30
0.0
 10
216.211542
 20
83.846924
 30
0.0
 10
217.058209
 20
83.564702
 30
0.0
 10
217.622653
 20
83.000257
 30
0.0
 10
217.904876
 20
82.153591
 30
0.0
 10
217.904876
 20
81.589146
 30
0.0
 10
217.622653
 20
80.742480
 30
0.0
 10
217.058209
 20
80.178035
 30
0.0
 10
216.211542
 20
79.895813
 30
0.0
 10
215.364876
 20
79.895813
 30
0.0
 10
214.518209
 20
80.178035
 30
0.0
 10
214.235987
 20
80.460257
 30
0.0
 10
213.953765
 20
81.024702
 30
0.0
  0
LWPOLYLINE
  5
169
100
AcDbEntity
  8
Layer_1
 62
1
100
AcDbPolyline
 90
17
 70
0
 10
277.277982
 20
85.350133
 30
0.0
 10
274.455760
 20
85.350133
 30
0.0
 10
274.173538
 20
82.810133
 30
0.0
 10
274.455760
 20
83.092355
 30
0.0
 10
275.302427
 20
83.374577
 30
0.0
 10
276.149094
 20
83.374577
 30
0.0
 10
276.995760
 20
83.092355
 30
0.0
 10
277.560205
 20
82.527910
 30
0.0
 10
277.842427
 20
81.681244
 30
0.0
 10
277.842427
 20
81.116799
 30
0.0
 10
277.560205
 20
80.270133
 30
0.0
 10
276.995760
 20
79.705688
 30
0.0
 10
276.149094
 20
79.423466
 30
0.0
 10
275.302427
 20
79.423466
 30
0.0
 10
274.455760
 20
79.705688
 30
0.0
 10
274.173538
 20
79.987910
 30
0.0
 10
273.891316
 20
80.552355
 30
0.0
  0
LWPOLYLINE
  5
16a
100
AcDbEntity
  8
Layer_1
 62
1
100
AcDbPolyline
 90
17
 70
0
 10
336.437845
 20
84.071435
 30
0.0
 10
333.615623
 20
84.071435
 30
0.0
 10
333.333400
 20
81.531435
 30
0.0
 10
333.615623
 20
81.813657
 30
0.0
 10
334.462289
 20
82.095879
 30
0.0
 10
335.308956
 20
82.095879
 30
0.0
 10
336.155623
 20
81.813657
 30
0.0
 10
336.720067
 20
81.249212
 30
0.0
 10
337.002289
 20
80.402546
 30
0.0
 10
337.002289
 20
79.838101
 30
0.0
 10
336.720067
 20
78.991435
 30
0.0
 10
336.155623
 20
78.426990
 30
0.0
 10
335.308956
 20
78.144768
 30
0.0
 10
334.462289
 20
78.144768
 30
0.0
 10
333.615623
 20
78.426990
 30
0.0
 10
333.333400
 20
78.709212
 30
0.0
 10
333.051178
 20
79.273657
 30
0.0
  0
LWPOLYLINE
  5
16b
100
AcDbEntity
  8
Layer_1
 62
1
100
AcDbPolyline
 90
17
 70
0
 10
397.112546
 20
85.113958
 30
0.0
 10
394.290324
 20
85.113958
 30
0.0
 10
394.008102
 20
82.573958
 30
0.0
 10
394.290324
 20
82.856180
 30
0.0
 10
395.136991
 20
83.138402
 30
0.0
 10
395.983658
 20
83.138402
 30
0.0
 10
396.830324
 20
82.856180
 30
0.0
 10
397.394769
 20
82.291736
 30
0.0
 10
397.676991
 20
81.445069
 30
0.0
 10
397.676991
 20
80.880625
 30
0.0
 10
397.394769
 20
80.033958
 30
0.0
 10
396.830324
 20
79.469513
 30
0.0
 10
395.983658
 20
79.187291
 30
0.0
 10
395.136991
 20
79.187291
 30
0.0
 10
394.290324
 20
79.469513
 30
0.0
 10
394.008102
 20
79.751736
 30
0.0
 10
393.725880
 20
80.316180
 30
0.0
  0
LWPOLYLINE
  5
16c
100
AcDbEntity
  8
Layer_1
 62
1
100
AcDbPolyline
 90
17
 70
0
 10
186.147809
 20
422.301851
 30
0.0
 10
183.325587
 20
422.301851
 30
0.0
 10
183.043364
 20
419.761851
 30
0.0
 10
183.325587
 20
420.044073
 30
0.0
 10
184.172253
 20
420.326295
 30
0.0
 10
185.018920
 20
420.326295
 30
0.0
 10
185.865587
 20
420.044073
 30
0.0
 10
186.430031
 20
419.479628
 30
0.0
 10
186.712253
 20
418.632962
 30
0.0
 10
186.712253
 20
418.068517
 30
0.0
 10
186.430031
 20
417.221851
 30
0.0
 10
185.865587
 20
416.657406
 30
0.0
 10
185.018920
 20
416.375184
 30
0.0
 10
184.172253
 20
416.375184
 30
0.0
 10
183.325587
 20
416.657406
 30
0.0
 10
183.043364
 20
416.939628
 30
0.0
 10
182.761142
 20
417.504073
 30
0.0
  0
LWPOLYLINE
  5
16d
100
AcDbEntity
  8
Layer_1
 62
1
100
AcDbPolyline
 90
17
 70
0
 10
245.140658
 20
422.566677
 30
0.0
 10
242.318436
 20
422.566677
 30
0.0
 10
242.036213
 20
420.026677
 30
0.0
 10
242.318436
 20
420.308899
 30
0.0
 10
243.165102
 20
420.591121
 30
0.0
 10
244.011769
 20
420.591121
 30
0.0
 10
244.858436
 20
420.308899
 30
0.0
 10
245.422880
 20
419.744454
 30
0.0
 10
245.705102
 20
418.897788
 30
0.0
 10
245.705102
 20
418.333343
 30
0.0
 10
245.422880
 20
417.486677
 30
0.0
 10
244.858436
 20
416.922232
 30
0.0
 10
244.011769
 20
416.640010
 30
0.0
 10
243.165102
 20
416.640010
 30
0.0
 10
242.318436
 20
416.922232
 30
0.0
 10
242.036213
 20
417.204454
 30
0.0
 10
241.753991
 20
417.768899
 30
0.0
  0
LWPOLYLINE
  5
16e
100
AcDbEntity
  8
Layer_1
 62
1
100
AcDbPolyline
 90
17
 70
0
 10
308.136600
 20
421.190155
 30
0.0
 10
305.314378
 20
421.190155
 30
0.0
 10
305.032156
 20
418.650155
 30
0.0
 10
305.314378
 20
418.932377
 30
0.0
 10
306.161045
 20
419.214599
 30
0.0
 10
307.007712
 20
419.214599
 30
0.0
 10
307.854378
 20
418.932377
 30
0.0
 10
308.418823
 20
418.367932
 30
0.0
 10
308.701045
 20
417.521266
 30
0.0
 10
308.701045
 20
416.956821
 30
0.0
 10
308.418823
 20
416.110155
 30
0.0
 10
307.854378
 20
415.545710
 30
0.0
 10
307.007712
 20
415.263488
 30
0.0
 10
306.161045
 20
415.263488
 30
0.0
 10
305.314378
 20
415.545710
 30
0.0
 10
305.032156
 20
415.827932
 30
0.0
 10
304.749934
 20
416.392377
 30
0.0
  0
LWPOLYLINE
  5
16f
100
AcDbEntity
  8
Layer_1
 62
1
100
AcDbPolyline
 90
17
 70
0
 10
366.530608
 20
421.120982
 30
0.0
 10
363.708386
 20
421.120982
 30
0.0
 10
363.426163
 20
418.580982
 30
0.0
 10
363.708386
 20
418.863204
 30
0.0
 10
364.555052
 20
419.145426
 30
0.0
 10
365.401719
 20
419.145426
 30
0.0
 10
366.248386
 20
418.863204
 30
0.0
 10
366.812830
 20
418.298760
 30
0.0
 10
367.095052
 20
417.452093
 30
0.0
 10
367.095052
 20
416.887649
 30
0.0
 10
366.812830
 20
416.040982
 30
0.0
 10
366.248386
 20
415.476538
 30
0.0
 10
365.401719
 20
415.194315
 30
0.0
 10
364.555052
 20
415.194315
 30
0.0
 10
363.708386
 20
415.476538
 30
0.0
 10
363.426163
 20
415.758760
 30
0.0
 10
363.143941
 20
416.323204
 30
0.0
  0
LWPOLYLINE
  5
170
100
AcDbEntity
  8
Layer_1
 62
1
100
AcDbPolyline
 90
15
 70
0
 10
176.483487
 20
422.301851
 30
0.0
 10
179.587931
 20
422.301851
 30
0.0
 10
177.894598
 20
420.044073
 30
0.0
 10
178.741265
 20
420.044073
 30
0.0
 10
179.305709
 20
419.761851
 30
0.0
 10
179.587931
 20
419.479628
 30
0.0
 10
179.870154
 20
418.632962
 30
0.0
 10
179.870154
 20
418.068517
 30
0.0
 10
179.587931
 20
417.221851
 30
0.0
 10
179.023487
 20
416.657406
 30
0.0
 10
178.176820
 20
416.375184
 30
0.0
 10
177.330154
 20
416.375184
 30
0.0
 10
176.483487
 20
416.657406
 30
0.0
 10
176.201265
 20
416.939628
 30
0.0
 10
175.919043
 20
417.504073
 30
0.0
  0
LWPOLYLINE
  5
171
100
AcDbEntity
  8
Layer_1
 62
1
100
AcDbPolyline
 90
3
 70
0
 10
95.378341
 20
422.232678
 30
0.0
 10
92.556118
 20
418.281567
 30
0.0
 10
96.789452
 20
418.281567
 30
0.0
  0
LWPOLYLINE
  5
172
100
AcDbEntity
  8
Layer_1
 62
1
100
AcDbPolyline
 90
2
 70
0
 10
95.378341
 20
422.232678
 30
0.0
 10
95.378341
 20
416.306011
 30
0.0
  0
LWPOLYLINE
  5
173
100
AcDbEntity
  8
Layer_1
 62
1
100
AcDbPolyline
 90
3
 70
0
 10
155.524604
 20
422.668085
 30
0.0
 10
152.702381
 20
418.716974
 30
0.0
 10
156.935715
 20
418.716974
 30
0.0
  0
LWPOLYLINE
  5
174
100
AcDbEntity
  8
Layer_1
 62
1
100
AcDbPolyline
 90
2
 70
0
 10
155.524604
 20
422.668085
 30
0.0
 10
155.524604
 20
416.741418
 30
0.0
  0
LWPOLYLINE
  5
175
100
AcDbEntity
  8
Layer_1
 62
1
100
AcDbPolyline
 90
3
 70
0
 10
216.403967
 20
422.668085
 30
0.0
 10
213.581745
 20
418.716974
 30
0.0
 10
217.815078
 20
418.716974
 30
0.0
  0
LWPOLYLINE
  5
176
100
AcDbEntity
  8
Layer_1
 62
1
100
AcDbPolyline
 90
2
 70
0
 10
216.403967
 20
422.668085
 30
0.0
 10
216.403967
 20
416.741418
 30
0.0
  0
LWPOLYLINE
  5
177
100
AcDbEntity
  8
Layer_1
 62
1
100
AcDbPolyline
 90
3
 70
0
 10
276.880159
 20
421.861736
 30
0.0
 10
274.057937
 20
417.910625
 30
0.0
 10
278.291270
 20
417.910625
 30
0.0
  0
LWPOLYLINE
  5
178
100
AcDbEntity
  8
Layer_1
 62
1
100
AcDbPolyline
 90
2
 70
0
 10
276.880159
 20
421.861736
 30
0.0
 10
276.880159
 20
415.935070
 30
0.0
  0
LWPOLYLINE
  5
179
100
AcDbEntity
  8
Layer_1
 62
1
100
AcDbPolyline
 90
3
 70
0
 10
336.146846
 20
421.458559
 30
0.0
 10
333.324623
 20
417.507448
 30
0.0
 10
337.557957
 20
417.507448
 30
0.0
  0
LWPOLYLINE
  5
17a
100
AcDbEntity
  8
Layer_1
 62
1
100
AcDbPolyline
 90
2
 70
0
 10
336.146846
 20
421.458559
 30
0.0
 10
336.146846
 20
415.531893
 30
0.0
  0
LWPOLYLINE
  5
17b
100
AcDbEntity
  8
Layer_1
 62
1
100
AcDbPolyline
 90
3
 70
0
 10
395.010330
 20
423.474433
 30
0.0
 10
392.188107
 20
419.523322
 30
0.0
 10
396.421441
 20
419.523322
 30
0.0
  0
LWPOLYLINE
  5
17c
100
AcDbEntity
  8
Layer_1
 62
1
100
AcDbPolyline
 90
2
 70
0
 10
395.010330
 20
423.474433
 30
0.0
 10
395.010330
 20
417.547766
 30
0.0
  0
LWPOLYLINE
  5
17d
100
AcDbEntity
  8
Layer_1
 62
1
100
AcDbPolyline
 90
3
 70
0
 10
186.165874
 20
83.598241
 30
0.0
 10
183.343652
 20
79.647130
 30
0.0
 10
187.576985
 20
79.647130
 30
0.0
  0
LWPOLYLINE
  5
17e
100
AcDbEntity
  8
Layer_1
 62
1
100
AcDbPolyline
 90
2
 70
0
 10
186.165874
 20
83.598241
 30
0.0
 10
186.165874
 20
77.671574
 30
0.0
  0
LWPOLYLINE
  5
17f
100
AcDbEntity
  8
Layer_1
 62
1
100
AcDbPolyline
 90
3
 70
0
 10
246.642063
 20
84.404589
 30
0.0
 10
243.819841
 20
80.453478
 30
0.0
 10
248.053174
 20
80.453478
 30
0.0
  0
LWPOLYLINE
  5
180
100
AcDbEntity
  8
Layer_1
 62
1
100
AcDbPolyline
 90
2
 70
0
 10
246.642063
 20
84.404589
 30
0.0
 10
246.642063
 20
78.477923
 30
0.0
  0
LWPOLYLINE
  5
181
100
AcDbEntity
  8
Layer_1
 62
1
100
AcDbPolyline
 90
3
 70
0
 10
307.879863
 20
84.997123
 30
0.0
 10
305.057641
 20
81.046012
 30
0.0
 10
309.290974
 20
81.046012
 30
0.0
  0
LWPOLYLINE
  5
182
100
AcDbEntity
  8
Layer_1
 62
1
100
AcDbPolyline
 90
2
 70
0
 10
307.879863
 20
84.997123
 30
0.0
 10
307.879863
 20
79.070457
 30
0.0
  0
LWPOLYLINE
  5
183
100
AcDbEntity
  8
Layer_1
 62
1
100
AcDbPolyline
 90
3
 70
0
 10
365.981742
 20
84.807766
 30
0.0
 10
363.159520
 20
80.856655
 30
0.0
 10
367.392853
 20
80.856655
 30
0.0
  0
LWPOLYLINE
  5
184
100
AcDbEntity
  8
Layer_1
 62
1
100
AcDbPolyline
 90
2
 70
0
 10
365.981742
 20
84.807766
 30
0.0
 10
365.981742
 20
78.881100
 30
0.0
  0
LWPOLYLINE
  5
185
100
AcDbEntity
  8
Layer_1
 62
1
100
AcDbPolyline
 90
17
 70
0
 10
211.465078
 20
421.861734
 30
0.0
 10
208.642856
 20
421.861734
 30
0.0
 10
208.360634
 20
419.321734
 30
0.0
 10
208.642856
 20
419.603956
 30
0.0
 10
209.489523
 20
419.886178
 30
0.0
 10
210.336189
 20
419.886178
 30
0.0
 10
211.182856
 20
419.603956
 30
0.0
 10
211.747300
 20
419.039511
 30
0.0
 10
212.029523
 20
418.192845
 30
0.0
 10
212.029523
 20
417.628400
 30
0.0
 10
211.747300
 20
416.781734
 30
0.0
 10
211.182856
 20
416.217289
 30
0.0
 10
210.336189
 20
415.935067
 30
0.0
 10
209.489523
 20
415.935067
 30
0.0
 10
208.642856
 20
416.217289
 30
0.0
 10
208.360634
 20
416.499511
 30
0.0
 10
208.078411
 20
417.063956
 30
0.0
  0
LWPOLYLINE
  5
186
100
AcDbEntity
  8
Layer_1
 62
1
100
AcDbPolyline
 90
17
 70
0
 10
241.703174
 20
421.458559
 30
0.0
 10
238.880952
 20
421.458559
 30
0.0
 10
238.598730
 20
418.918559
 30
0.0
 10
238.880952
 20
419.200782
 30
0.0
 10
239.727619
 20
419.483004
 30
0.0
 10
240.574285
 20
419.483004
 30
0.0
 10
241.420952
 20
419.200782
 30
0.0
 10
241.985396
 20
418.636337
 30
0.0
 10
242.267619
 20
417.789670
 30
0.0
 10
242.267619
 20
417.225226
 30
0.0
 10
241.985396
 20
416.378559
 30
0.0
 10
241.420952
 20
415.814115
 30
0.0
 10
240.574285
 20
415.531893
 30
0.0
 10
239.727619
 20
415.531893
 30
0.0
 10
238.880952
 20
415.814115
 30
0.0
 10
238.598730
 20
416.096337
 30
0.0
 10
238.316508
 20
416.660782
 30
0.0
  0
LWPOLYLINE
  5
187
100
AcDbEntity
  8
Layer_1
 62
1
100
AcDbPolyline
 90
2
 70
0
 10
273.715237
 20
421.861734
 30
0.0
 10
270.893015
 20
415.935067
 30
0.0
  0
LWPOLYLINE
  5
188
100
AcDbEntity
  8
Layer_1
 62
1
100
AcDbPolyline
 90
2
 70
0
 10
269.764126
 20
421.861734
 30
0.0
 10
273.715237
 20
421.861734
 30
0.0
  0
LWPOLYLINE
  5
189
100
AcDbEntity
  8
Layer_1
 62
1
100
AcDbPolyline
 90
2
 70
0
 10
301.937448
 20
421.861734
 30
0.0
 10
299.115226
 20
415.935067
 30
0.0
  0
LWPOLYLINE
  5
18a
100
AcDbEntity
  8
Layer_1
 62
1
100
AcDbPolyline
 90
2
 70
0
 10
297.986337
 20
421.861734
 30
0.0
 10
301.937448
 20
421.861734
 30
0.0
  0
LWPOLYLINE
  5
18b
100
AcDbEntity
  8
Layer_1
 62
1
100
AcDbPolyline
 90
23
 70
0
 10
331.631290
 20
418.273481
 30
0.0
 10
331.349068
 20
417.426815
 30
0.0
 10
330.784623
 20
416.862370
 30
0.0
 10
329.937957
 20
416.580148
 30
0.0
 10
329.655734
 20
416.580148
 30
0.0
 10
328.809068
 20
416.862370
 30
0.0
 10
328.244623
 20
417.426815
 30
0.0
 10
327.962401
 20
418.273481
 30
0.0
 10
327.962401
 20
418.555703
 30
0.0
 10
328.244623
 20
419.402370
 30
0.0
 10
328.809068
 20
419.966815
 30
0.0
 10
329.655734
 20
420.249037
 30
0.0
 10
329.937957
 20
420.249037
 30
0.0
 10
330.784623
 20
419.966815
 30
0.0
 10
331.349068
 20
419.402370
 30
0.0
 10
331.631290
 20
418.273481
 30
0.0
 10
331.631290
 20
416.862370
 30
0.0
 10
331.349068
 20
415.451259
 30
0.0
 10
330.784623
 20
414.604592
 30
0.0
 10
329.937957
 20
414.322370
 30
0.0
 10
329.373512
 20
414.322370
 30
0.0
 10
328.526846
 20
414.604592
 30
0.0
 10
328.244623
 20
415.169037
 30
0.0
  0
LWPOLYLINE
  5
18c
100
AcDbEntity
  8
Layer_1
 62
1
100
AcDbPolyline
 90
23
 70
0
 10
361.788710
 20
418.434751
 30
0.0
 10
361.506488
 20
417.588085
 30
0.0
 10
360.942043
 20
417.023640
 30
0.0
 10
360.095377
 20
416.741418
 30
0.0
 10
359.813154
 20
416.741418
 30
0.0
 10
358.966488
 20
417.023640
 30
0.0
 10
358.402043
 20
417.588085
 30
0.0
 10
358.119821
 20
418.434751
 30
0.0
 10
358.119821
 20
418.716974
 30
0.0
 10
358.402043
 20
419.563640
 30
0.0
 10
358.966488
 20
420.128085
 30
0.0
 10
359.813154
 20
420.410307
 30
0.0
 10
360.095377
 20
420.410307
 30
0.0
 10
360.942043
 20
420.128085
 30
0.0
 10
361.506488
 20
419.563640
 30
0.0
 10
361.788710
 20
418.434751
 30
0.0
 10
361.788710
 20
417.023640
 30
0.0
 10
361.506488
 20
415.612529
 30
0.0
 10
360.942043
 20
414.765863
 30
0.0
 10
360.095377
 20
414.483640
 30
0.0
 10
359.530932
 20
414.483640
 30
0.0
 10
358.684266
 20
414.765863
 30
0.0
 10
358.402043
 20
415.330307
 30
0.0
  0
LWPOLYLINE
  5
18d
100
AcDbEntity
  8
Layer_1
 62
1
100
AcDbPolyline
 90
3
 70
0
 10
180.118252
 20
83.195067
 30
0.0
 10
177.296030
 20
79.243956
 30
0.0
 10
181.529363
 20
79.243956
 30
0.0
  0
LWPOLYLINE
  5
18e
100
AcDbEntity
  8
Layer_1
 62
1
100
AcDbPolyline
 90
2
 70
0
 10
180.118252
 20
83.195067
 30
0.0
 10
180.118252
 20
77.268400
 30
0.0
  0
LWPOLYLINE
  5
18f
100
AcDbEntity
  8
Layer_1
 62
1
100
AcDbPolyline
 90
3
 70
0
 10
211.162697
 20
85.614115
 30
0.0
 10
208.340475
 20
81.663004
 30
0.0
 10
212.573808
 20
81.663004
 30
0.0
  0
LWPOLYLINE
  5
190
100
AcDbEntity
  8
Layer_1
 62
1
100
AcDbPolyline
 90
2
 70
0
 10
211.162697
 20
85.614115
 30
0.0
 10
211.162697
 20
79.687448
 30
0.0
  0
LWPOLYLINE
  5
191
100
AcDbEntity
  8
Layer_1
 62
1
100
AcDbPolyline
 90
23
 70
0
 10
243.456985
 20
82.751574
 30
0.0
 10
243.174763
 20
83.316019
 30
0.0
 10
242.328096
 20
83.598241
 30
0.0
 10
241.763652
 20
83.598241
 30
0.0
 10
240.916985
 20
83.316019
 30
0.0
 10
240.352540
 20
82.469352
 30
0.0
 10
240.070318
 20
81.058241
 30
0.0
 10
240.070318
 20
79.647130
 30
0.0
 10
240.352540
 20
78.518241
 30
0.0
 10
240.916985
 20
77.953797
 30
0.0
 10
241.763652
 20
77.671574
 30
0.0
 10
242.045874
 20
77.671574
 30
0.0
 10
242.892540
 20
77.953797
 30
0.0
 10
243.456985
 20
78.518241
 30
0.0
 10
243.739207
 20
79.364908
 30
0.0
 10
243.739207
 20
79.647130
 30
0.0
 10
243.456985
 20
80.493797
 30
0.0
 10
242.892540
 20
81.058241
 30
0.0
 10
242.045874
 20
81.340463
 30
0.0
 10
241.763652
 20
81.340463
 30
0.0
 10
240.916985
 20
81.058241
 30
0.0
 10
240.352540
 20
80.493797
 30
0.0
 10
240.070318
 20
79.647130
 30
0.0
  0
LWPOLYLINE
  5
192
100
AcDbEntity
  8
Layer_1
 62
1
100
AcDbPolyline
 90
23
 70
0
 10
272.485556
 20
83.154751
 30
0.0
 10
272.203333
 20
83.719196
 30
0.0
 10
271.356667
 20
84.001418
 30
0.0
 10
270.792222
 20
84.001418
 30
0.0
 10
269.945556
 20
83.719196
 30
0.0
 10
269.381111
 20
82.872529
 30
0.0
 10
269.098889
 20
81.461418
 30
0.0
 10
269.098889
 20
80.050307
 30
0.0
 10
269.381111
 20
78.921418
 30
0.0
 10
269.945556
 20
78.356974
 30
0.0
 10
270.792222
 20
78.074751
 30
0.0
 10
271.074444
 20
78.074751
 30
0.0
 10
271.921111
 20
78.356974
 30
0.0
 10
272.485556
 20
78.921418
 30
0.0
 10
272.767778
 20
79.768085
 30
0.0
 10
272.767778
 20
80.050307
 30
0.0
 10
272.485556
 20
80.896974
 30
0.0
 10
271.921111
 20
81.461418
 30
0.0
 10
271.074444
 20
81.743640
 30
0.0
 10
270.792222
 20
81.743640
 30
0.0
 10
269.945556
 20
81.461418
 30
0.0
 10
269.381111
 20
80.896974
 30
0.0
 10
269.098889
 20
80.050307
 30
0.0
  0
LWPOLYLINE
  5
193
100
AcDbEntity
  8
Layer_1
 62
1
100
AcDbPolyline
 90
29
 70
0
 10
302.678056
 20
83.809959
 30
0.0
 10
301.831389
 20
83.527736
 30
0.0
 10
301.549167
 20
82.963292
 30
0.0
 10
301.549167
 20
82.398847
 30
0.0
 10
301.831389
 20
81.834403
 30
0.0
 10
302.395834
 20
81.552181
 30
0.0
 10
303.524722
 20
81.269959
 30
0.0
 10
304.371389
 20
80.987736
 30
0.0
 10
304.935834
 20
80.423292
 30
0.0
 10
305.218056
 20
79.858847
 30
0.0
 10
305.218056
 20
79.012181
 30
0.0
 10
304.935834
 20
78.447736
 30
0.0
 10
304.653611
 20
78.165514
 30
0.0
 10
303.806945
 20
77.883292
 30
0.0
 10
302.678056
 20
77.883292
 30
0.0
 10
301.831389
 20
78.165514
 30
0.0
 10
301.549167
 20
78.447736
 30
0.0
 10
301.266945
 20
79.012181
 30
0.0
 10
301.266945
 20
79.858847
 30
0.0
 10
301.549167
 20
80.423292
 30
0.0
 10
302.113611
 20
80.987736
 30
0.0
 10
302.960278
 20
81.269959
 30
0.0
 10
304.089167
 20
81.552181
 30
0.0
 10
304.653611
 20
81.834403
 30
0.0
 10
304.935834
 20
82.398847
 30
0.0
 10
304.935834
 20
82.963292
 30
0.0
 10
304.653611
 20
83.527736
 30
0.0
 10
303.806945
 20
83.809959
 30
0.0
 10
302.678056
 20
83.809959
 30
0.0
  0
LWPOLYLINE
  5
194
100
AcDbEntity
  8
Layer_1
 62
1
100
AcDbPolyline
 90
29
 70
0
 10
328.426036
 20
82.791893
 30
0.0
 10
327.579369
 20
82.509670
 30
0.0
 10
327.297147
 20
81.945226
 30
0.0
 10
327.297147
 20
81.380782
 30
0.0
 10
327.579369
 20
80.816337
 30
0.0
 10
328.143814
 20
80.534115
 30
0.0
 10
329.272702
 20
80.251893
 30
0.0
 10
330.119369
 20
79.969670
 30
0.0
 10
330.683814
 20
79.405226
 30
0.0
 10
330.966036
 20
78.840782
 30
0.0
 10
330.966036
 20
77.994115
 30
0.0
 10
330.683814
 20
77.429670
 30
0.0
 10
330.401591
 20
77.147448
 30
0.0
 10
329.554925
 20
76.865226
 30
0.0
 10
328.426036
 20
76.865226
 30
0.0
 10
327.579369
 20
77.147448
 30
0.0
 10
327.297147
 20
77.429670
 30
0.0
 10
327.014925
 20
77.994115
 30
0.0
 10
327.014925
 20
78.840782
 30
0.0
 10
327.297147
 20
79.405226
 30
0.0
 10
327.861591
 20
79.969670
 30
0.0
 10
328.708258
 20
80.251893
 30
0.0
 10
329.837147
 20
80.534115
 30
0.0
 10
330.401591
 20
80.816337
 30
0.0
 10
330.683814
 20
81.380782
 30
0.0
 10
330.683814
 20
81.945226
 30
0.0
 10
330.401591
 20
82.509670
 30
0.0
 10
329.554925
 20
82.791893
 30
0.0
 10
328.426036
 20
82.791893
 30
0.0
  0
LWPOLYLINE
  5
195
100
AcDbEntity
  8
Layer_1
 62
1
100
AcDbPolyline
 90
4
 70
0
 10
352.999520
 20
83.598241
 30
0.0
 10
353.563964
 20
83.880463
 30
0.0
 10
354.410631
 20
84.727130
 30
0.0
 10
354.410631
 20
78.800463
 30
0.0
  0
LWPOLYLINE
  5
196
100
AcDbEntity
  8
Layer_1
 62
1
100
AcDbPolyline
 90
17
 70
0
 10
359.490631
 20
84.727130
 30
0.0
 10
358.643964
 20
84.444908
 30
0.0
 10
358.079520
 20
83.598241
 30
0.0
 10
357.797298
 20
82.187130
 30
0.0
 10
357.797298
 20
81.340463
 30
0.0
 10
358.079520
 20
79.929352
 30
0.0
 10
358.643964
 20
79.082686
 30
0.0
 10
359.490631
 20
78.800463
 30
0.0
 10
360.055075
 20
78.800463
 30
0.0
 10
360.901742
 20
79.082686
 30
0.0
 10
361.466186
 20
79.929352
 30
0.0
 10
361.748409
 20
81.340463
 30
0.0
 10
361.748409
 20
82.187130
 30
0.0
 10
361.466186
 20
83.598241
 30
0.0
 10
360.901742
 20
84.444908
 30
0.0
 10
360.055075
 20
84.727130
 30
0.0
 10
359.490631
 20
84.727130
 30
0.0
  0
LWPOLYLINE
  5
197
100
AcDbEntity
  8
Layer_1
 62
1
100
AcDbPolyline
 90
4
 70
0
 10
382.673183
 20
84.485226
 30
0.0
 10
383.237627
 20
84.767448
 30
0.0
 10
384.084294
 20
85.614115
 30
0.0
 10
384.084294
 20
79.687448
 30
0.0
  0
LWPOLYLINE
  5
198
100
AcDbEntity
  8
Layer_1
 62
1
100
AcDbPolyline
 90
17
 70
0
 10
389.164294
 20
85.614115
 30
0.0
 10
388.317627
 20
85.331893
 30
0.0
 10
387.753183
 20
84.485226
 30
0.0
 10
387.470960
 20
83.074115
 30
0.0
 10
387.470960
 20
82.227448
 30
0.0
 10
387.753183
 20
80.816337
 30
0.0
 10
388.317627
 20
79.969670
 30
0.0
 10
389.164294
 20
79.687448
 30
0.0
 10
389.728738
 20
79.687448
 30
0.0
 10
390.575405
 20
79.969670
 30
0.0
 10
391.139849
 20
80.816337
 30
0.0
 10
391.422072
 20
82.227448
 30
0.0
 10
391.422072
 20
83.074115
 30
0.0
 10
391.139849
 20
84.485226
 30
0.0
 10
390.575405
 20
85.331893
 30
0.0
 10
389.728738
 20
85.614115
 30
0.0
 10
389.164294
 20
85.614115
 30
0.0
  0
LWPOLYLINE
  5
199
100
AcDbEntity
  8
Layer_1
 62
1
100
AcDbPolyline
 90
4
 70
0
 10
385.092222
 20
421.539193
 30
0.0
 10
385.656667
 20
421.821415
 30
0.0
 10
386.503333
 20
422.668082
 30
0.0
 10
386.503333
 20
416.741415
 30
0.0
  0
LWPOLYLINE
  5
19a
100
AcDbEntity
  8
Layer_1
 62
1
100
AcDbPolyline
 90
4
 70
0
 10
388.761111
 20
421.136019
 30
0.0
 10
389.325556
 20
421.418241
 30
0.0
 10
390.172222
 20
422.264908
 30
0.0
 10
390.172222
 20
416.338241
 30
0.0
  0
ENDSEC
  0
SECTION
  2
OBJECTS
  0
DICTIONARY
  5
C
330
0
100
AcDbDictionary
  3
ACAD_GROUP
350
D
  3
ACAD_MLINESTYLE
350
17
  0
DICTIONARY
  5
D
330
C
100
AcDbDictionary
  0
DICTIONARY
  5
1A
330
C
100
AcDbDictionary
  0
DICTIONARY
  5
17
330
C
100
AcDbDictionary
  3
STANDARD
350
18
  0
DICTIONARY
  5
19
330
C
100
AcDbDictionary
  0
ENDSEC
  0
EOF
