<?xml version="1.0" encoding="UTF-8" standalone="no"?>
<!-- Created with Inkscape (http://www.inkscape.org/) -->

<svg
   xmlns:dc="http://purl.org/dc/elements/1.1/"
   xmlns:cc="http://creativecommons.org/ns#"
   xmlns:rdf="http://www.w3.org/1999/02/22-rdf-syntax-ns#"
   xmlns:svg="http://www.w3.org/2000/svg"
   xmlns="http://www.w3.org/2000/svg"
   xmlns:sodipodi="http://sodipodi.sourceforge.net/DTD/sodipodi-0.dtd"
   xmlns:inkscape="http://www.inkscape.org/namespaces/inkscape"
   width="1771.6534"
   height="1771.6534"
   id="svg2"
   version="1.1"
   inkscape:version="0.48.4 r9939"
   sodipodi:docname="wördclockV01.svg">
  <defs
     id="defs4" />
  <sodipodi:namedview
     id="base"
     pagecolor="#ffffff"
     bordercolor="#666666"
     borderopacity="1.0"
     inkscape:pageopacity="0.0"
     inkscape:pageshadow="2"
     inkscape:zoom="0.35"
     inkscape:cx="675.62516"
     inkscape:cy="742.48401"
     inkscape:document-units="mm"
     inkscape:current-layer="layer1"
     showgrid="false"
     units="mm"
     inkscape:window-width="1366"
     inkscape:window-height="718"
     inkscape:window-x="0"
     inkscape:window-y="0"
     inkscape:window-maximized="1">
    <inkscape:grid
       type="xygrid"
       id="grid3820"
       empspacing="5"
       visible="true"
       enabled="true"
       snapvisiblegridlinesonly="true" />
  </sodipodi:namedview>
  <metadata
     id="metadata7">
    <rdf:RDF>
      <cc:Work
         rdf:about="">
        <dc:format>image/svg+xml</dc:format>
        <dc:type
           rdf:resource="http://purl.org/dc/dcmitype/StillImage" />
        <dc:title />
      </cc:Work>
    </rdf:RDF>
  </metadata>
  <g
     inkscape:label="Layer 1"
     inkscape:groupmode="layer"
     id="layer1"
     transform="translate(0,719.29131)">
    <rect
       style="fill:none;stroke:#000000"
       id="rect2985"
       width="1771.6536"
       height="1771.6536"
       x="-6.1035156e-05"
       y="-719.29138"
       rx="17.716536"
       ry="17.716536" />
    <g
       id="g3806"
       style="stroke:#ff0000">
      <path
         inkscape:connector-curvature="0"
         id="path2987"
         d="m 248.37865,697.68069 1274.89615,0"
         style="fill:none;stroke:#ff0000;stroke-width:0.70149534999999996;stroke-linecap:butt;stroke-linejoin:miter;stroke-miterlimit:4;stroke-opacity:1;stroke-dasharray:none" />
      <path
         style="fill:none;stroke:#ff0000;stroke-width:0.70149534999999996;stroke-linecap:butt;stroke-linejoin:miter;stroke-miterlimit:4;stroke-opacity:1;stroke-dasharray:none"
         d="m 248.37865,-364.60976 1274.89615,0"
         id="path3757"
         inkscape:connector-curvature="0" />
      <path
         inkscape:connector-curvature="0"
         id="path3759"
         d="m 248.37865,-246.57753 1274.89615,0"
         style="fill:none;stroke:#ff0000;stroke-width:0.70149534999999996;stroke-linecap:butt;stroke-linejoin:miter;stroke-miterlimit:4;stroke-opacity:1;stroke-dasharray:none" />
      <path
         style="fill:none;stroke:#ff0000;stroke-width:0.70149534999999996;stroke-linecap:butt;stroke-linejoin:miter;stroke-miterlimit:4;stroke-opacity:1;stroke-dasharray:none"
         d="m 248.37865,-128.5453 1274.89615,0"
         id="path3761"
         inkscape:connector-curvature="0" />
      <path
         inkscape:connector-curvature="0"
         id="path3763"
         d="m 248.37865,-10.512956 1274.89615,0"
         style="fill:none;stroke:#ff0000;stroke-width:0.70149534999999996;stroke-linecap:butt;stroke-linejoin:miter;stroke-miterlimit:4;stroke-opacity:1;stroke-dasharray:none" />
      <path
         style="fill:none;stroke:#ff0000;stroke-width:0.70149534999999996;stroke-linecap:butt;stroke-linejoin:miter;stroke-miterlimit:4;stroke-opacity:1;stroke-dasharray:none"
         d="m 248.37865,107.51933 1274.89615,0"
         id="path3765"
         inkscape:connector-curvature="0" />
      <path
         inkscape:connector-curvature="0"
         id="path3767"
         d="m 248.37865,225.55162 1274.89615,0"
         style="fill:none;stroke:#ff0000;stroke-width:0.70149534999999996;stroke-linecap:butt;stroke-linejoin:miter;stroke-miterlimit:4;stroke-opacity:1;stroke-dasharray:none" />
      <path
         style="fill:none;stroke:#ff0000;stroke-width:0.70149534999999996;stroke-linecap:butt;stroke-linejoin:miter;stroke-miterlimit:4;stroke-opacity:1;stroke-dasharray:none"
         d="m 248.37865,343.58378 1274.89615,0"
         id="path3769"
         inkscape:connector-curvature="0" />
      <path
         inkscape:connector-curvature="0"
         id="path3771"
         d="m 248.37865,461.61607 1274.89615,0"
         style="fill:none;stroke:#ff0000;stroke-width:0.70149534999999996;stroke-linecap:butt;stroke-linejoin:miter;stroke-miterlimit:4;stroke-opacity:1;stroke-dasharray:none" />
      <path
         style="fill:none;stroke:#ff0000;stroke-width:0.70149534999999996;stroke-linecap:butt;stroke-linejoin:miter;stroke-miterlimit:4;stroke-opacity:1;stroke-dasharray:none"
         d="m 248.37865,579.64836 1274.89615,0"
         id="path3773"
         inkscape:connector-curvature="0" />
    </g>
    <g
       id="g3855"
       style="fill:none;stroke:#000000">
      <rect
         y="-411.02368"
         x="335.1933"
         height="3.5433071"
         width="38.976379"
         id="rect3818"
         style="fill:none;fill-opacity:1;stroke:#000000" />
      <rect
         style="fill:none;fill-opacity:1;stroke:#000000"
         id="rect3822"
         width="38.976379"
         height="3.5433071"
         x="1397.4838"
         y="-411.02368" />
      <rect
         y="-411.02368"
         x="1291.2548"
         height="3.5433071"
         width="38.976379"
         id="rect3824"
         style="fill:none;fill-opacity:1;stroke:#000000" />
      <rect
         style="fill:none;fill-opacity:1;stroke:#000000"
         id="rect3826"
         width="38.976379"
         height="3.5433071"
         x="1185.0256"
         y="-411.02368" />
      <rect
         y="-411.02368"
         x="1078.7966"
         height="3.5433071"
         width="38.976379"
         id="rect3828"
         style="fill:none;fill-opacity:1;stroke:#000000" />
      <rect
         style="fill:none;fill-opacity:1;stroke:#000000"
         id="rect3830"
         width="38.976379"
         height="3.5433071"
         x="972.56763"
         y="-411.02368" />
      <rect
         y="-411.02368"
         x="866.33844"
         height="3.5433071"
         width="38.976379"
         id="rect3832"
         style="fill:none;fill-opacity:1;stroke:#000000" />
      <rect
         style="fill:none;fill-opacity:1;stroke:#000000"
         id="rect3834"
         width="38.976379"
         height="3.5433071"
         x="760.10944"
         y="-411.02368" />
      <rect
         y="-411.02368"
         x="653.88043"
         height="3.5433071"
         width="38.976379"
         id="rect3836"
         style="fill:none;fill-opacity:1;stroke:#000000" />
      <rect
         style="fill:none;fill-opacity:1;stroke:#000000"
         id="rect3838"
         width="38.976379"
         height="3.5433071"
         x="547.65137"
         y="-411.02368" />
      <rect
         y="-411.02368"
         x="441.4223"
         height="3.5433071"
         width="38.976379"
         id="rect3840"
         style="fill:none;fill-opacity:1;stroke:#000000" />
    </g>
    <g
       id="g3916"
       style="stroke:#ff0000">
      <path
         style="fill:none;stroke:#ff0000;stroke-width:0.70149534999999996;stroke-linecap:butt;stroke-linejoin:miter;stroke-miterlimit:4;stroke-opacity:1;stroke-dasharray:none"
         d="m 1416.972,803.98346 0,-1274.89609"
         id="path3775"
         inkscape:connector-curvature="0" />
      <path
         inkscape:connector-curvature="0"
         id="path3777"
         d="m 354.6815,803.98346 0,-1274.89609"
         style="fill:none;stroke:#ff0000;stroke-width:0.70149534999999996;stroke-linecap:butt;stroke-linejoin:miter;stroke-miterlimit:4;stroke-opacity:1;stroke-dasharray:none" />
      <path
         style="fill:none;stroke:#ff0000;stroke-width:0.70149534999999996;stroke-linecap:butt;stroke-linejoin:miter;stroke-miterlimit:4;stroke-opacity:1;stroke-dasharray:none"
         d="m 460.91051,803.98346 0,-1274.89609"
         id="path3779"
         inkscape:connector-curvature="0" />
      <path
         inkscape:connector-curvature="0"
         id="path3781"
         d="m 567.1396,803.98346 0,-1274.89609"
         style="fill:none;stroke:#ff0000;stroke-width:0.70149534999999996;stroke-linecap:butt;stroke-linejoin:miter;stroke-miterlimit:4;stroke-opacity:1;stroke-dasharray:none" />
      <path
         style="fill:none;stroke:#ff0000;stroke-width:0.70149534999999996;stroke-linecap:butt;stroke-linejoin:miter;stroke-miterlimit:4;stroke-opacity:1;stroke-dasharray:none"
         d="m 673.36862,803.98346 0,-1274.89609"
         id="path3783"
         inkscape:connector-curvature="0" />
      <path
         inkscape:connector-curvature="0"
         id="path3785"
         d="m 779.59764,803.98346 0,-1274.89609"
         style="fill:none;stroke:#ff0000;stroke-width:0.70149534999999996;stroke-linecap:butt;stroke-linejoin:miter;stroke-miterlimit:4;stroke-opacity:1;stroke-dasharray:none" />
      <path
         style="fill:none;stroke:#ff0000;stroke-width:0.70149534999999996;stroke-linecap:butt;stroke-linejoin:miter;stroke-miterlimit:4;stroke-opacity:1;stroke-dasharray:none"
         d="m 885.82676,803.98346 0,-1274.89609"
         id="path3787"
         inkscape:connector-curvature="0" />
      <path
         inkscape:connector-curvature="0"
         id="path3789"
         d="m 992.05579,803.98346 0,-1274.89609"
         style="fill:none;stroke:#ff0000;stroke-width:0.70149534999999996;stroke-linecap:butt;stroke-linejoin:miter;stroke-miterlimit:4;stroke-opacity:1;stroke-dasharray:none" />
      <path
         style="fill:none;stroke:#ff0000;stroke-width:0.70149534999999996;stroke-linecap:butt;stroke-linejoin:miter;stroke-miterlimit:4;stroke-opacity:1;stroke-dasharray:none"
         d="m 1098.2848,803.98346 0,-1274.89609"
         id="path3791"
         inkscape:connector-curvature="0" />
      <path
         inkscape:connector-curvature="0"
         id="path3851"
         d="m 1204.5139,803.98346 0,-1274.89609"
         style="fill:none;stroke:#ff0000;stroke-width:0.70149534999999996;stroke-linecap:butt;stroke-linejoin:miter;stroke-miterlimit:4;stroke-opacity:1;stroke-dasharray:none" />
      <path
         style="fill:none;stroke:#ff0000;stroke-width:0.70149534999999996;stroke-linecap:butt;stroke-linejoin:miter;stroke-miterlimit:4;stroke-opacity:1;stroke-dasharray:none"
         d="m 1310.743,803.98346 0,-1274.89609"
         id="path3853"
         inkscape:connector-curvature="0" />
    </g>
    <g
       id="g3929"
       transform="translate(0,1148.0315)"
       style="fill:none;stroke:#000000">
      <rect
         style="fill:none;fill-opacity:1;stroke:#000000"
         id="rect3931"
         width="38.976379"
         height="3.5433071"
         x="335.1933"
         y="-411.02368" />
      <rect
         y="-411.02368"
         x="1397.4838"
         height="3.5433071"
         width="38.976379"
         id="rect3933"
         style="fill:none;fill-opacity:1;stroke:#000000" />
      <rect
         style="fill:none;fill-opacity:1;stroke:#000000"
         id="rect3935"
         width="38.976379"
         height="3.5433071"
         x="1291.2548"
         y="-411.02368" />
      <rect
         y="-411.02368"
         x="1185.0256"
         height="3.5433071"
         width="38.976379"
         id="rect3937"
         style="fill:none;fill-opacity:1;stroke:#000000" />
      <rect
         style="fill:none;fill-opacity:1;stroke:#000000"
         id="rect3939"
         width="38.976379"
         height="3.5433071"
         x="1078.7966"
         y="-411.02368" />
      <rect
         y="-411.02368"
         x="972.56763"
         height="3.5433071"
         width="38.976379"
         id="rect3941"
         style="fill:none;fill-opacity:1;stroke:#000000" />
      <rect
         style="fill:none;fill-opacity:1;stroke:#000000"
         id="rect3943"
         width="38.976379"
         height="3.5433071"
         x="866.33844"
         y="-411.02368" />
      <rect
         y="-411.02368"
         x="760.10944"
         height="3.5433071"
         width="38.976379"
         id="rect3945"
         style="fill:none;fill-opacity:1;stroke:#000000" />
      <rect
         style="fill:none;fill-opacity:1;stroke:#000000"
         id="rect3947"
         width="38.976379"
         height="3.5433071"
         x="653.88043"
         y="-411.02368" />
      <rect
         y="-411.02368"
         x="547.65137"
         height="3.5433071"
         width="38.976379"
         id="rect3949"
         style="fill:none;fill-opacity:1;stroke:#000000" />
      <rect
         style="fill:none;fill-opacity:1;stroke:#000000"
         id="rect3951"
         width="38.976379"
         height="3.5433071"
         x="441.4223"
         y="-411.02368" />
    </g>
    <g
       id="g4108">
      <g
         id="g4100">
        <g
           id="g3985"
           transform="matrix(1,0,0,0.16236106,0,735.64545)">
          <path
             style="fill:none;stroke:#ff0000;stroke-width:0.70149534999999996;stroke-linecap:butt;stroke-linejoin:miter;stroke-miterlimit:4;stroke-opacity:1;stroke-dasharray:none"
             d="m 708.7783,1103.9836 0,-1274.8962"
             id="path3963"
             inkscape:connector-curvature="0" />
          <path
             inkscape:connector-curvature="0"
             id="path3965"
             d="m 826.81059,1103.9836 0,-1274.8962"
             style="fill:none;stroke:#ff0000;stroke-width:0.70149534999999996;stroke-linecap:butt;stroke-linejoin:miter;stroke-miterlimit:4;stroke-opacity:1;stroke-dasharray:none" />
          <path
             style="fill:none;stroke:#ff0000;stroke-width:0.70149534999999996;stroke-linecap:butt;stroke-linejoin:miter;stroke-miterlimit:4;stroke-opacity:1;stroke-dasharray:none"
             d="m 944.84288,1103.9836 0,-1274.8962"
             id="path3967"
             inkscape:connector-curvature="0" />
          <path
             inkscape:connector-curvature="0"
             id="path3969"
             d="m 1062.875,1103.9836 0,-1274.8962"
             style="fill:none;stroke:#ff0000;stroke-width:0.70149534999999996;stroke-linecap:butt;stroke-linejoin:miter;stroke-miterlimit:4;stroke-opacity:1;stroke-dasharray:none" />
        </g>
        <path
           style="fill:none;stroke:#ff0000;stroke-width:0.44598823999999998;stroke-linecap:butt;stroke-linejoin:miter;stroke-miterlimit:4;stroke-opacity:1;stroke-dasharray:none"
           d="m 628.16965,814.60981 515.31415,0"
           id="path3773-4"
           inkscape:connector-curvature="0" />
      </g>
      <g
         id="g4096">
        <rect
           y="1105.5118"
           x="-834.09802"
           height="3.5433071"
           width="38.976379"
           id="rect3933-9"
           style="fill:#ff0000;fill-opacity:1;stroke:none"
           transform="matrix(0,-1,1,0,0,0)" />
        <rect
           transform="matrix(0,-1,1,0,0,0)"
           style="fill:#ff0000;fill-opacity:1;stroke:none"
           id="rect4049"
           width="38.976379"
           height="3.5433071"
           x="-834.09802"
           y="666.14172" />
      </g>
    </g>
    <g
       id="g4074"
       style="fill:none;stroke:#000000">
      <path
         transform="matrix(0.03758053,0,0,0.03758053,188.54689,529.12094)"
         d="m 1677.1429,1344.5106 c 0,26.0363 -21.1066,47.1429 -47.1429,47.1429 -26.0363,0 -47.1429,-21.1066 -47.1429,-47.1429 0,-26.0363 21.1066,-47.1428 47.1429,-47.1428 26.0363,0 47.1429,21.1065 47.1429,47.1428 z"
         sodipodi:ry="47.142857"
         sodipodi:rx="47.142857"
         sodipodi:cy="1344.5106"
         sodipodi:cx="1630"
         id="path4070"
         style="fill:none;fill-opacity:1;stroke:#000000"
         sodipodi:type="arc" />
      <path
         sodipodi:type="arc"
         style="fill:none;fill-opacity:1;stroke:#000000"
         id="path4072"
         sodipodi:cx="1630"
         sodipodi:cy="1344.5106"
         sodipodi:rx="47.142857"
         sodipodi:ry="47.142857"
         d="m 1677.1429,1344.5106 c 0,26.0363 -21.1066,47.1429 -47.1429,47.1429 -26.0363,0 -47.1429,-21.1066 -47.1429,-47.1429 0,-26.0363 21.1066,-47.1428 47.1429,-47.1428 26.0363,0 47.1429,21.1065 47.1429,47.1428 z"
         transform="matrix(0.03758053,0,0,0.03758053,1464.1374,529.12094)" />
    </g>
    <g
       id="g4078"
       transform="translate(0,-826.22589)"
       style="fill:none;stroke:#000000">
      <path
         sodipodi:type="arc"
         style="fill:none;fill-opacity:1;stroke:#000000"
         id="path4080"
         sodipodi:cx="1630"
         sodipodi:cy="1344.5106"
         sodipodi:rx="47.142857"
         sodipodi:ry="47.142857"
         d="m 1677.1429,1344.5106 c 0,26.0363 -21.1066,47.1429 -47.1429,47.1429 -26.0363,0 -47.1429,-21.1066 -47.1429,-47.1429 0,-26.0363 21.1066,-47.1428 47.1429,-47.1428 26.0363,0 47.1429,21.1065 47.1429,47.1428 z"
         transform="matrix(0.03758053,0,0,0.03758053,188.54689,529.12094)" />
      <path
         transform="matrix(0.03758053,0,0,0.03758053,1464.1374,529.12094)"
         d="m 1677.1429,1344.5106 c 0,26.0363 -21.1066,47.1429 -47.1429,47.1429 -26.0363,0 -47.1429,-21.1066 -47.1429,-47.1429 0,-26.0363 21.1066,-47.1428 47.1429,-47.1428 26.0363,0 47.1429,21.1065 47.1429,47.1428 z"
         sodipodi:ry="47.142857"
         sodipodi:rx="47.142857"
         sodipodi:cy="1344.5106"
         sodipodi:cx="1630"
         id="path4082"
         style="fill:none;fill-opacity:1;stroke:#000000"
         sodipodi:type="arc" />
    </g>
    <g
       transform="translate(0,-790.7941)"
       id="g4084"
       style="fill:none;stroke:#000000">
      <path
         transform="matrix(0.03758053,0,0,0.03758053,188.54689,529.12094)"
         d="m 1677.1429,1344.5106 c 0,26.0363 -21.1066,47.1429 -47.1429,47.1429 -26.0363,0 -47.1429,-21.1066 -47.1429,-47.1429 0,-26.0363 21.1066,-47.1428 47.1429,-47.1428 26.0363,0 47.1429,21.1065 47.1429,47.1428 z"
         sodipodi:ry="47.142857"
         sodipodi:rx="47.142857"
         sodipodi:cy="1344.5106"
         sodipodi:cx="1630"
         id="path4086"
         style="fill:none;fill-opacity:1;stroke:#000000"
         sodipodi:type="arc" />
      <path
         sodipodi:type="arc"
         style="fill:none;fill-opacity:1;stroke:#000000"
         id="path4088"
         sodipodi:cx="1630"
         sodipodi:cy="1344.5106"
         sodipodi:rx="47.142857"
         sodipodi:ry="47.142857"
         d="m 1677.1429,1344.5106 c 0,26.0363 -21.1066,47.1429 -47.1429,47.1429 -26.0363,0 -47.1429,-21.1066 -47.1429,-47.1429 0,-26.0363 21.1066,-47.1428 47.1429,-47.1428 26.0363,0 47.1429,21.1065 47.1429,47.1428 z"
         transform="matrix(0.03758053,0,0,0.03758053,1464.1374,529.12094)" />
    </g>
    <g
       id="g4090"
       transform="translate(0,-35.431899)"
       style="fill:none;stroke:#000000">
      <path
         sodipodi:type="arc"
         style="fill:none;fill-opacity:1;stroke:#000000"
         id="path4092"
         sodipodi:cx="1630"
         sodipodi:cy="1344.5106"
         sodipodi:rx="47.142857"
         sodipodi:ry="47.142857"
         d="m 1677.1429,1344.5106 c 0,26.0363 -21.1066,47.1429 -47.1429,47.1429 -26.0363,0 -47.1429,-21.1066 -47.1429,-47.1429 0,-26.0363 21.1066,-47.1428 47.1429,-47.1428 26.0363,0 47.1429,21.1065 47.1429,47.1428 z"
         transform="matrix(0.03758053,0,0,0.03758053,188.54689,529.12094)" />
      <path
         transform="matrix(0.03758053,0,0,0.03758053,1464.1374,529.12094)"
         d="m 1677.1429,1344.5106 c 0,26.0363 -21.1066,47.1429 -47.1429,47.1429 -26.0363,0 -47.1429,-21.1066 -47.1429,-47.1429 0,-26.0363 21.1066,-47.1428 47.1429,-47.1428 26.0363,0 47.1429,21.1065 47.1429,47.1428 z"
         sodipodi:ry="47.142857"
         sodipodi:rx="47.142857"
         sodipodi:cy="1344.5106"
         sodipodi:cx="1630"
         id="path4094"
         style="fill:none;fill-opacity:1;stroke:#000000"
         sodipodi:type="arc" />
    </g>
    <path
       inkscape:connector-curvature="0"
       style="fill:none;stroke:#ff0000"
       d="m 315.48366,-439.6692 2,-1 3,-3 0,21"
       id="path92398" />
    <path
       inkscape:connector-curvature="0"
       style="fill:none;stroke:#ff0000"
       d="m 682.62652,860.33081 2,-1 3,-3 0,21"
       id="path92400" />
    <path
       inkscape:connector-curvature="0"
       style="fill:none;stroke:#ff0000"
       d="m 423.48363,754.20242 0,-1 1,-2 1,-1 2,-1 4,0 2,1 1,1 1,2 0,2 -1,2 -2,3 -10,10 14,0"
       id="path92412" />
    <path
       inkscape:connector-curvature="0"
       style="fill:none;stroke:#ff0000"
       d="m 524.93355,-447.97689 11,0 -6,8 3,0 2,1 1,1 1,3 0,2 -1,3 -2,2 -3,1 -3,0 -3,-1 -1,-1 -1,-2"
       id="path92424" />
    <path
       inkscape:connector-curvature="0"
       style="fill:none;stroke:#ff0000"
       d="m 1045.3409,853.51717 -10,14 15,0 m -5,-14 0,21"
       id="path92436" />
    <path
       inkscape:connector-curvature="0"
       style="fill:none;stroke:#ff0000"
       d="m 419.76936,-443.89682 2,-1 3,-3 0,21"
       id="path92446" />
    <path
       inkscape:connector-curvature="0"
       style="fill:none;stroke:#ff0000"
       d="m 340.19793,750.67461 -10,0 -1,9 1,-1 3,-1 3,0 3,1 2,2 1,3 0,2 -1,3 -2,2 -3,1 -3,0 -3,-1 -1,-1 -1,-2"
       id="path92448" />
    <path
       inkscape:connector-curvature="0"
       style="fill:none;stroke:#ff0000"
       d="m 446.42858,-443.85215 -10,0 -1,9 1,-1 3,-1 3,0 3,1 2,2 1,3 0,2 -1,3 -2,2 -3,1 -3,0 -3,-1 -1,-1 -1,-2"
       id="path92448-6" />
    <path
       inkscape:connector-curvature="0"
       style="fill:none;stroke:#ff0000"
       d="m 449.95974,749.42341 -10,14 15,0 m -5,-14 0,21"
       id="path92436-5" />
    <path
       inkscape:connector-curvature="0"
       style="fill:none;stroke:#ff0000"
       d="m 524.64698,754.94036 0,-1 1,-2 1,-1 2,-1 4,0 2,1 1,1 1,2 0,2 -1,2 -2,3 -10,10 14,0"
       id="path92412-3" />
    <path
       inkscape:connector-curvature="0"
       style="fill:none;stroke:#ff0000"
       d="m 555.85003,753.98097 -10,0 -1,9 1,-1 3,-1 3,0 3,1 2,2 1,3 0,2 -1,3 -2,2 -3,1 -3,0 -3,-1 -1,-1 -1,-2"
       id="path92448-1" />
    <path
       inkscape:connector-curvature="0"
       style="fill:none;stroke:#ff0000"
       d="m 770.10389,748.26669 -10,0 -1,9 1,-1 3,-1 3,0 3,1 2,2 1,3 0,2 -1,3 -2,2 -3,1 -3,0 -3,-1 -1,-1 -1,-2"
       id="path92448-1-8" />
    <path
       inkscape:connector-curvature="0"
       style="fill:none;stroke:#ff0000"
       d="m 982.48104,749.94036 -10,0 -1,9 1,-1 3,-1 3,0 3,1 2,2 1,3 0,2 -1,3 -2,2 -3,1 -3,0 -3,-1 -1,-1 -1,-2"
       id="path92448-1-92" />
    <path
       inkscape:connector-curvature="0"
       style="fill:none;stroke:#ff0000"
       d="m 1192.1026,754.47118 -10,0 -1,9 1,-1 3,-1 3,0 3,1 2,2 1,3 0,2 -1,3 -2,2 -3,1 -3,0 -3,-1 -1,-1 -1,-2"
       id="path92448-1-3" />
    <path
       inkscape:connector-curvature="0"
       style="fill:none;stroke:#ff0000"
       d="m 1407.0917,750.7772 -10,0 -1,9 1,-1 3,-1 3,0 3,1 2,2 1,3 0,2 -1,3 -2,2 -3,1 -3,0 -3,-1 -1,-1 -1,-2"
       id="path92448-1-96" />
    <path
       inkscape:connector-curvature="0"
       style="fill:none;stroke:#ff0000"
       d="m 659.57885,-443.98305 -10,0 -1,9 1,-1 3,-1 3,0 3,1 2,2 1,3 0,2 -1,3 -2,2 -3,1 -3,0 -3,-1 -1,-1 -1,-2"
       id="path92448-1-7" />
    <path
       inkscape:connector-curvature="0"
       style="fill:none;stroke:#ff0000"
       d="m 868.60863,-444.92141 -10,0 -1,9 1,-1 3,-1 3,0 3,1 2,2 1,3 0,2 -1,3 -2,2 -3,1 -3,0 -3,-1 -1,-1 -1,-2"
       id="path92448-1-74" />
    <path
       inkscape:connector-curvature="0"
       style="fill:none;stroke:#ff0000"
       d="m 1091.8226,-440.04397 -10,0 -1,9 1,-1 3,-1 3,0 3,1 2,2 1,3 0,2 -1,3 -2,2 -3,1 -3,0 -3,-1 -1,-1 -1,-2"
       id="path92448-1-6" />
    <path
       inkscape:connector-curvature="0"
       style="fill:none;stroke:#ff0000"
       d="m 1298.7305,-439.79887 -10,0 -1,9 1,-1 3,-1 3,0 3,1 2,2 1,3 0,2 -1,3 -2,2 -3,1 -3,0 -3,-1 -1,-1 -1,-2"
       id="path92448-1-2" />
    <path
       inkscape:connector-curvature="0"
       style="fill:none;stroke:#ff0000"
       d="m 625.33519,-443.98305 11,0 -6,8 3,0 2,1 1,1 1,3 0,2 -1,3 -2,2 -3,1 -3,0 -3,-1 -1,-1 -1,-2"
       id="path92424-4" />
    <path
       inkscape:connector-curvature="0"
       style="fill:none;stroke:#ff0000"
       d="m 337.95475,-443.73795 -10,14 15,0 m -5,-14 0,21"
       id="path92436-3" />
    <path
       inkscape:connector-curvature="0"
       style="fill:none;stroke:#ff0000"
       d="m 551.07143,-445.28073 -10,14 15,0 m -5,-14 0,21"
       id="path92436-3-3" />
    <path
       inkscape:connector-curvature="0"
       style="fill:none;stroke:#ff0000"
       d="m 766.78571,-445.28073 -10,14 15,0 m -5,-14 0,21"
       id="path92436-3-9" />
    <path
       inkscape:connector-curvature="0"
       style="fill:none;stroke:#ff0000"
       d="m 981.07143,-442.42359 -10,14 15,0 m -5,-14 0,21"
       id="path92436-3-4" />
    <path
       inkscape:connector-curvature="0"
       style="fill:none;stroke:#ff0000"
       d="m 1191.0715,-440.99501 -10,14 15,0 m -5,-14 0,21"
       id="path92436-3-47" />
    <path
       inkscape:connector-curvature="0"
       style="fill:none;stroke:#ff0000"
       d="m 1399.6429,-448.13787 -10,14 15,0 m -5,-14 0,21"
       id="path92436-3-1" />
    <path
       inkscape:connector-curvature="0"
       style="fill:none;stroke:#ff0000"
       d="m 659.64286,756.14785 -10,14 15,0 m -5,-14 0,21"
       id="path92436-3-30" />
    <path
       inkscape:connector-curvature="0"
       style="fill:none;stroke:#ff0000"
       d="m 873.92857,753.29071 -10,14 15,0 m -5,-14 0,21"
       id="path92436-3-8" />
    <path
       inkscape:connector-curvature="0"
       style="fill:none;stroke:#ff0000"
       d="m 1085.3571,750.43357 -10,14 15,0 m -5,-14 0,21"
       id="path92436-3-85" />
    <path
       inkscape:connector-curvature="0"
       style="fill:none;stroke:#ff0000"
       d="m 1296.7857,751.86213 -10,14 15,0 m -5,-14 0,21"
       id="path92436-3-0" />
    <path
       inkscape:connector-curvature="0"
       style="fill:none;stroke:#ff0000"
       d="m 749.28571,-442.42358 -10,0 -1,9 1,-1 3,-1 3,0 3,1 2,2 1,3 0,2 -1,3 -2,2 -3,1 -3,0 -3,-1 -1,-1 -1,-2"
       id="path92448-1-74-0" />
    <path
       inkscape:connector-curvature="0"
       style="fill:none;stroke:#ff0000"
       d="m 856.42857,-440.99501 -10,0 -1,9 1,-1 3,-1 3,0 3,1 2,2 1,3 0,2 -1,3 -2,2 -3,1 -3,0 -3,-1 -1,-1 -1,-2"
       id="path92448-1-74-3" />
    <path
       inkscape:connector-curvature="0"
       style="fill:none;stroke:#ff0000"
       d="m 969.85714,-442.42358 -10,21 m -4,-21 14,0"
       id="path92352-0" />
    <path
       inkscape:connector-curvature="0"
       style="fill:none;stroke:#ff0000"
       d="m 1069.8571,-442.42358 -10,21 m -4,-21 14,0"
       id="path92352-2" />
    <path
       inkscape:connector-curvature="0"
       style="fill:none;stroke:#ff0000"
       d="m 1175.0715,-429.7093 -1,3 -2,2 -3,1 -1,0 -3,-1 -2,-2 -1,-3 0,-1 1,-3 2,-2 3,-1 1,0 3,1 2,2 1,4 0,5 -1,5 -2,3 -3,1 -2,0 -3,-1 -1,-2"
       id="path92376-2" />
    <path
       inkscape:connector-curvature="0"
       style="fill:none;stroke:#ff0000"
       d="m 1281.9285,-430.28073 -1,3 -2,2 -3,1 -1,0 -3,-1 -2,-2 -1,-3 0,-1 1,-3 2,-2 3,-1 1,0 3,1 2,2 1,4 0,5 -1,5 -2,3 -3,1 -2,0 -3,-1 -1,-2"
       id="path92376-5" />
    <path
       inkscape:connector-curvature="0"
       style="fill:none;stroke:#ff0000"
       d="m 638.21428,757.57642 -10,14 15,0 m -5,-14 0,21"
       id="path92436-3-30-6" />
    <path
       inkscape:connector-curvature="0"
       style="fill:none;stroke:#ff0000"
       d="m 748.21428,749.00499 -10,14 15,0 m -5,-14 0,21"
       id="path92436-3-30-62" />
    <path
       inkscape:connector-curvature="0"
       style="fill:none;stroke:#ff0000"
       d="m 862.64286,759.14785 -1,-2 -3,-1 -2,0 -3,1 -2,3 -1,5 0,5 1,4 2,2 3,1 1,0 3,-1 2,-2 1,-3 0,-1 -1,-3 -2,-2 -3,-1 -1,0 -3,1 -2,2 -1,3"
       id="path92460-3" />
    <path
       inkscape:connector-curvature="0"
       style="fill:none;stroke:#ff0000"
       d="m 965.5,757.71927 -1,-2 -3,-1 -2,0 -3,1 -2,3 -1,5 0,5 1,4 2,2 3,1 1,0 3,-1 2,-2 1,-3 0,-1 -1,-3 -2,-2 -3,-1 -1,0 -3,1 -2,2 -1,3"
       id="path92460-7" />
    <path
       inkscape:connector-curvature="0"
       style="fill:none;stroke:#ff0000"
       d="m 1056.5714,751.86214 -3,1 -1,2 0,2 1,2 2,1 4,1 3,1 2,2 1,2 0,3 -1,2 -1,1 -3,1 -4,0 -3,-1 -1,-1 -1,-2 0,-3 1,-2 2,-2 3,-1 4,-1 2,-1 1,-2 0,-2 -1,-2 -3,-1 -4,0"
       id="path92364-1" />
    <path
       inkscape:connector-curvature="0"
       style="fill:none;stroke:#ff0000"
       d="m 1163.7143,759.00499 -3,1 -1,2 0,2 1,2 2,1 4,1 3,1 2,2 1,2 0,3 -1,2 -1,1 -3,1 -4,0 -3,-1 -1,-1 -1,-2 0,-3 1,-2 2,-2 3,-1 4,-1 2,-1 1,-2 0,-2 -1,-2 -3,-1 -4,0"
       id="path92364-8" />
    <path
       inkscape:connector-curvature="0"
       style="fill:none;stroke:#ff0000"
       d="m 1250.7857,756.14785 2,-1 3,-3 0,21"
       id="path92386-9" />
    <path
       inkscape:connector-curvature="0"
       style="fill:none;stroke:#ff0000"
       d="m 1273.7857,752.14785 -3,1 -2,3 -1,5 0,3 1,5 2,3 3,1 2,0 3,-1 2,-3 1,-5 0,-3 -1,-5 -2,-3 -3,-1 -2,0"
       id="path92388-3" />
    <path
       inkscape:connector-curvature="0"
       style="fill:none;stroke:#ff0000"
       d="m 1355.9286,753.00499 2,-1 3,-3 0,21"
       id="path92386-3" />
    <path
       inkscape:connector-curvature="0"
       style="fill:none;stroke:#ff0000"
       d="m 1378.9286,749.00499 -3,1 -2,3 -1,5 0,3 1,5 2,3 3,1 2,0 3,-1 2,-3 1,-5 0,-3 -1,-5 -2,-3 -3,-1 -2,0"
       id="path92388-7" />
    <path
       inkscape:connector-curvature="0"
       style="fill:none;stroke:#ff0000"
       d="m 1364.5,-441.28072 2,-1 3,-3 0,21"
       id="path92386-98" />
    <path
       inkscape:connector-curvature="0"
       style="fill:none;stroke:#ff0000"
       d="m 1377.5,-439.85215 2,-1 3,-3 0,21"
       id="path92386-98-9" />
  </g>
</svg>
